<?xml version="1.0" encoding="utf-8" standalone="no"?>
<!DOCTYPE svg PUBLIC "-//W3C//DTD SVG 1.1//EN"
  "http://www.w3.org/Graphics/SVG/1.1/DTD/svg11.dtd">
<svg xmlns:xlink="http://www.w3.org/1999/xlink" width="730.81375pt" height="274.25875pt" viewBox="0 0 730.81375 274.25875" xmlns="http://www.w3.org/2000/svg" version="1.1">
 <metadata>
  <rdf:RDF xmlns:dc="http://purl.org/dc/elements/1.1/" xmlns:cc="http://creativecommons.org/ns#" xmlns:rdf="http://www.w3.org/1999/02/22-rdf-syntax-ns#">
   <cc:Work>
    <dc:type rdf:resource="http://purl.org/dc/dcmitype/StillImage"/>
    <dc:date>2023-11-28T09:01:15.508194</dc:date>
    <dc:format>image/svg+xml</dc:format>
    <dc:creator>
     <cc:Agent>
      <dc:title>Matplotlib v3.8.2, https://matplotlib.org/</dc:title>
     </cc:Agent>
    </dc:creator>
   </cc:Work>
  </rdf:RDF>
 </metadata>
 <defs>
  <style type="text/css">*{stroke-linejoin: round; stroke-linecap: butt}</style>
 </defs>
 <g id="figure_1">
  <g id="patch_1">
   <path d="M 0 274.25875 
L 730.81375 274.25875 
L 730.81375 0 
L 0 0 
z
" style="fill: #ffffff"/>
  </g>
  <g id="axes_1">
   <g id="patch_2">
    <path d="M 54.01375 228.96 
L 358.377386 228.96 
L 358.377386 7.2 
L 54.01375 7.2 
z
" style="fill: #ffffff"/>
   </g>
   <g id="matplotlib.axis_1">
    <g id="xtick_1">
     <g id="line2d_1">
      <defs>
       <path id="mcdf8168ca1" d="M 0 0 
L 0 3.5 
" style="stroke: #000000; stroke-width: 0.8"/>
      </defs>
      <g>
       <use xlink:href="#mcdf8168ca1" x="65.05357" y="228.96" style="stroke: #000000; stroke-width: 0.8"/>
      </g>
     </g>
     <g id="text_1">
      <!-- 0 -->
      <g transform="translate(60.59982 246.597813) scale(0.14 -0.14)">
       <defs>
        <path id="DejaVuSans-30" d="M 2034 4250 
Q 1547 4250 1301 3770 
Q 1056 3291 1056 2328 
Q 1056 1369 1301 889 
Q 1547 409 2034 409 
Q 2525 409 2770 889 
Q 3016 1369 3016 2328 
Q 3016 3291 2770 3770 
Q 2525 4250 2034 4250 
z
M 2034 4750 
Q 2819 4750 3233 4129 
Q 3647 3509 3647 2328 
Q 3647 1150 3233 529 
Q 2819 -91 2034 -91 
Q 1250 -91 836 529 
Q 422 1150 422 2328 
Q 422 3509 836 4129 
Q 1250 4750 2034 4750 
z
" transform="scale(0.015625)"/>
       </defs>
       <use xlink:href="#DejaVuSans-30"/>
      </g>
     </g>
    </g>
    <g id="xtick_2">
     <g id="line2d_2">
      <g>
       <use xlink:href="#mcdf8168ca1" x="120.951391" y="228.96" style="stroke: #000000; stroke-width: 0.8"/>
      </g>
     </g>
     <g id="text_2">
      <!-- 20 -->
      <g transform="translate(112.043891 246.597813) scale(0.14 -0.14)">
       <defs>
        <path id="DejaVuSans-32" d="M 1228 531 
L 3431 531 
L 3431 0 
L 469 0 
L 469 531 
Q 828 903 1448 1529 
Q 2069 2156 2228 2338 
Q 2531 2678 2651 2914 
Q 2772 3150 2772 3378 
Q 2772 3750 2511 3984 
Q 2250 4219 1831 4219 
Q 1534 4219 1204 4116 
Q 875 4013 500 3803 
L 500 4441 
Q 881 4594 1212 4672 
Q 1544 4750 1819 4750 
Q 2544 4750 2975 4387 
Q 3406 4025 3406 3419 
Q 3406 3131 3298 2873 
Q 3191 2616 2906 2266 
Q 2828 2175 2409 1742 
Q 1991 1309 1228 531 
z
" transform="scale(0.015625)"/>
       </defs>
       <use xlink:href="#DejaVuSans-32"/>
       <use xlink:href="#DejaVuSans-30" x="63.623047"/>
      </g>
     </g>
    </g>
    <g id="xtick_3">
     <g id="line2d_3">
      <g>
       <use xlink:href="#mcdf8168ca1" x="176.849212" y="228.96" style="stroke: #000000; stroke-width: 0.8"/>
      </g>
     </g>
     <g id="text_3">
      <!-- 40 -->
      <g transform="translate(167.941712 246.597813) scale(0.14 -0.14)">
       <defs>
        <path id="DejaVuSans-34" d="M 2419 4116 
L 825 1625 
L 2419 1625 
L 2419 4116 
z
M 2253 4666 
L 3047 4666 
L 3047 1625 
L 3713 1625 
L 3713 1100 
L 3047 1100 
L 3047 0 
L 2419 0 
L 2419 1100 
L 313 1100 
L 313 1709 
L 2253 4666 
z
" transform="scale(0.015625)"/>
       </defs>
       <use xlink:href="#DejaVuSans-34"/>
       <use xlink:href="#DejaVuSans-30" x="63.623047"/>
      </g>
     </g>
    </g>
    <g id="xtick_4">
     <g id="line2d_4">
      <g>
       <use xlink:href="#mcdf8168ca1" x="232.747033" y="228.96" style="stroke: #000000; stroke-width: 0.8"/>
      </g>
     </g>
     <g id="text_4">
      <!-- 60 -->
      <g transform="translate(223.839533 246.597813) scale(0.14 -0.14)">
       <defs>
        <path id="DejaVuSans-36" d="M 2113 2584 
Q 1688 2584 1439 2293 
Q 1191 2003 1191 1497 
Q 1191 994 1439 701 
Q 1688 409 2113 409 
Q 2538 409 2786 701 
Q 3034 994 3034 1497 
Q 3034 2003 2786 2293 
Q 2538 2584 2113 2584 
z
M 3366 4563 
L 3366 3988 
Q 3128 4100 2886 4159 
Q 2644 4219 2406 4219 
Q 1781 4219 1451 3797 
Q 1122 3375 1075 2522 
Q 1259 2794 1537 2939 
Q 1816 3084 2150 3084 
Q 2853 3084 3261 2657 
Q 3669 2231 3669 1497 
Q 3669 778 3244 343 
Q 2819 -91 2113 -91 
Q 1303 -91 875 529 
Q 447 1150 447 2328 
Q 447 3434 972 4092 
Q 1497 4750 2381 4750 
Q 2619 4750 2861 4703 
Q 3103 4656 3366 4563 
z
" transform="scale(0.015625)"/>
       </defs>
       <use xlink:href="#DejaVuSans-36"/>
       <use xlink:href="#DejaVuSans-30" x="63.623047"/>
      </g>
     </g>
    </g>
    <g id="xtick_5">
     <g id="line2d_5">
      <g>
       <use xlink:href="#mcdf8168ca1" x="288.644854" y="228.96" style="stroke: #000000; stroke-width: 0.8"/>
      </g>
     </g>
     <g id="text_5">
      <!-- 80 -->
      <g transform="translate(279.737354 246.597813) scale(0.14 -0.14)">
       <defs>
        <path id="DejaVuSans-38" d="M 2034 2216 
Q 1584 2216 1326 1975 
Q 1069 1734 1069 1313 
Q 1069 891 1326 650 
Q 1584 409 2034 409 
Q 2484 409 2743 651 
Q 3003 894 3003 1313 
Q 3003 1734 2745 1975 
Q 2488 2216 2034 2216 
z
M 1403 2484 
Q 997 2584 770 2862 
Q 544 3141 544 3541 
Q 544 4100 942 4425 
Q 1341 4750 2034 4750 
Q 2731 4750 3128 4425 
Q 3525 4100 3525 3541 
Q 3525 3141 3298 2862 
Q 3072 2584 2669 2484 
Q 3125 2378 3379 2068 
Q 3634 1759 3634 1313 
Q 3634 634 3220 271 
Q 2806 -91 2034 -91 
Q 1263 -91 848 271 
Q 434 634 434 1313 
Q 434 1759 690 2068 
Q 947 2378 1403 2484 
z
M 1172 3481 
Q 1172 3119 1398 2916 
Q 1625 2713 2034 2713 
Q 2441 2713 2670 2916 
Q 2900 3119 2900 3481 
Q 2900 3844 2670 4047 
Q 2441 4250 2034 4250 
Q 1625 4250 1398 4047 
Q 1172 3844 1172 3481 
z
" transform="scale(0.015625)"/>
       </defs>
       <use xlink:href="#DejaVuSans-38"/>
       <use xlink:href="#DejaVuSans-30" x="63.623047"/>
      </g>
     </g>
    </g>
    <g id="xtick_6">
     <g id="line2d_6">
      <g>
       <use xlink:href="#mcdf8168ca1" x="344.542676" y="228.96" style="stroke: #000000; stroke-width: 0.8"/>
      </g>
     </g>
     <g id="text_6">
      <!-- 100 -->
      <g transform="translate(331.181426 246.597813) scale(0.14 -0.14)">
       <defs>
        <path id="DejaVuSans-31" d="M 794 531 
L 1825 531 
L 1825 4091 
L 703 3866 
L 703 4441 
L 1819 4666 
L 2450 4666 
L 2450 531 
L 3481 531 
L 3481 0 
L 794 0 
L 794 531 
z
" transform="scale(0.015625)"/>
       </defs>
       <use xlink:href="#DejaVuSans-31"/>
       <use xlink:href="#DejaVuSans-30" x="63.623047"/>
       <use xlink:href="#DejaVuSans-30" x="127.246094"/>
      </g>
     </g>
    </g>
    <g id="text_7">
     <!-- Epochs -->
     <g transform="translate(181.113693 264.147188) scale(0.14 -0.14)">
      <defs>
       <path id="DejaVuSans-45" d="M 628 4666 
L 3578 4666 
L 3578 4134 
L 1259 4134 
L 1259 2753 
L 3481 2753 
L 3481 2222 
L 1259 2222 
L 1259 531 
L 3634 531 
L 3634 0 
L 628 0 
L 628 4666 
z
" transform="scale(0.015625)"/>
       <path id="DejaVuSans-70" d="M 1159 525 
L 1159 -1331 
L 581 -1331 
L 581 3500 
L 1159 3500 
L 1159 2969 
Q 1341 3281 1617 3432 
Q 1894 3584 2278 3584 
Q 2916 3584 3314 3078 
Q 3713 2572 3713 1747 
Q 3713 922 3314 415 
Q 2916 -91 2278 -91 
Q 1894 -91 1617 61 
Q 1341 213 1159 525 
z
M 3116 1747 
Q 3116 2381 2855 2742 
Q 2594 3103 2138 3103 
Q 1681 3103 1420 2742 
Q 1159 2381 1159 1747 
Q 1159 1113 1420 752 
Q 1681 391 2138 391 
Q 2594 391 2855 752 
Q 3116 1113 3116 1747 
z
" transform="scale(0.015625)"/>
       <path id="DejaVuSans-6f" d="M 1959 3097 
Q 1497 3097 1228 2736 
Q 959 2375 959 1747 
Q 959 1119 1226 758 
Q 1494 397 1959 397 
Q 2419 397 2687 759 
Q 2956 1122 2956 1747 
Q 2956 2369 2687 2733 
Q 2419 3097 1959 3097 
z
M 1959 3584 
Q 2709 3584 3137 3096 
Q 3566 2609 3566 1747 
Q 3566 888 3137 398 
Q 2709 -91 1959 -91 
Q 1206 -91 779 398 
Q 353 888 353 1747 
Q 353 2609 779 3096 
Q 1206 3584 1959 3584 
z
" transform="scale(0.015625)"/>
       <path id="DejaVuSans-63" d="M 3122 3366 
L 3122 2828 
Q 2878 2963 2633 3030 
Q 2388 3097 2138 3097 
Q 1578 3097 1268 2742 
Q 959 2388 959 1747 
Q 959 1106 1268 751 
Q 1578 397 2138 397 
Q 2388 397 2633 464 
Q 2878 531 3122 666 
L 3122 134 
Q 2881 22 2623 -34 
Q 2366 -91 2075 -91 
Q 1284 -91 818 406 
Q 353 903 353 1747 
Q 353 2603 823 3093 
Q 1294 3584 2113 3584 
Q 2378 3584 2631 3529 
Q 2884 3475 3122 3366 
z
" transform="scale(0.015625)"/>
       <path id="DejaVuSans-68" d="M 3513 2113 
L 3513 0 
L 2938 0 
L 2938 2094 
Q 2938 2591 2744 2837 
Q 2550 3084 2163 3084 
Q 1697 3084 1428 2787 
Q 1159 2491 1159 1978 
L 1159 0 
L 581 0 
L 581 4863 
L 1159 4863 
L 1159 2956 
Q 1366 3272 1645 3428 
Q 1925 3584 2291 3584 
Q 2894 3584 3203 3211 
Q 3513 2838 3513 2113 
z
" transform="scale(0.015625)"/>
       <path id="DejaVuSans-73" d="M 2834 3397 
L 2834 2853 
Q 2591 2978 2328 3040 
Q 2066 3103 1784 3103 
Q 1356 3103 1142 2972 
Q 928 2841 928 2578 
Q 928 2378 1081 2264 
Q 1234 2150 1697 2047 
L 1894 2003 
Q 2506 1872 2764 1633 
Q 3022 1394 3022 966 
Q 3022 478 2636 193 
Q 2250 -91 1575 -91 
Q 1294 -91 989 -36 
Q 684 19 347 128 
L 347 722 
Q 666 556 975 473 
Q 1284 391 1588 391 
Q 1994 391 2212 530 
Q 2431 669 2431 922 
Q 2431 1156 2273 1281 
Q 2116 1406 1581 1522 
L 1381 1569 
Q 847 1681 609 1914 
Q 372 2147 372 2553 
Q 372 3047 722 3315 
Q 1072 3584 1716 3584 
Q 2034 3584 2315 3537 
Q 2597 3491 2834 3397 
z
" transform="scale(0.015625)"/>
      </defs>
      <use xlink:href="#DejaVuSans-45"/>
      <use xlink:href="#DejaVuSans-70" x="63.183594"/>
      <use xlink:href="#DejaVuSans-6f" x="126.660156"/>
      <use xlink:href="#DejaVuSans-63" x="187.841797"/>
      <use xlink:href="#DejaVuSans-68" x="242.822266"/>
      <use xlink:href="#DejaVuSans-73" x="306.201172"/>
     </g>
    </g>
   </g>
   <g id="matplotlib.axis_2">
    <g id="ytick_1">
     <g id="line2d_7">
      <defs>
       <path id="m2013a99daf" d="M 0 0 
L -3.5 0 
" style="stroke: #000000; stroke-width: 0.8"/>
      </defs>
      <g>
       <use xlink:href="#m2013a99daf" x="54.01375" y="219.051727" style="stroke: #000000; stroke-width: 0.8"/>
      </g>
     </g>
     <g id="text_8">
      <!-- 0.0 -->
      <g transform="translate(24.749375 224.370634) scale(0.14 -0.14)">
       <defs>
        <path id="DejaVuSans-2e" d="M 684 794 
L 1344 794 
L 1344 0 
L 684 0 
L 684 794 
z
" transform="scale(0.015625)"/>
       </defs>
       <use xlink:href="#DejaVuSans-30"/>
       <use xlink:href="#DejaVuSans-2e" x="63.623047"/>
       <use xlink:href="#DejaVuSans-30" x="95.410156"/>
      </g>
     </g>
    </g>
    <g id="ytick_2">
     <g id="line2d_8">
      <g>
       <use xlink:href="#m2013a99daf" x="54.01375" y="177.874273" style="stroke: #000000; stroke-width: 0.8"/>
      </g>
     </g>
     <g id="text_9">
      <!-- 0.2 -->
      <g transform="translate(24.749375 183.193179) scale(0.14 -0.14)">
       <use xlink:href="#DejaVuSans-30"/>
       <use xlink:href="#DejaVuSans-2e" x="63.623047"/>
       <use xlink:href="#DejaVuSans-32" x="95.410156"/>
      </g>
     </g>
    </g>
    <g id="ytick_3">
     <g id="line2d_9">
      <g>
       <use xlink:href="#m2013a99daf" x="54.01375" y="136.696818" style="stroke: #000000; stroke-width: 0.8"/>
      </g>
     </g>
     <g id="text_10">
      <!-- 0.4 -->
      <g transform="translate(24.749375 142.015725) scale(0.14 -0.14)">
       <use xlink:href="#DejaVuSans-30"/>
       <use xlink:href="#DejaVuSans-2e" x="63.623047"/>
       <use xlink:href="#DejaVuSans-34" x="95.410156"/>
      </g>
     </g>
    </g>
    <g id="ytick_4">
     <g id="line2d_10">
      <g>
       <use xlink:href="#m2013a99daf" x="54.01375" y="95.519364" style="stroke: #000000; stroke-width: 0.8"/>
      </g>
     </g>
     <g id="text_11">
      <!-- 0.6 -->
      <g transform="translate(24.749375 100.83827) scale(0.14 -0.14)">
       <use xlink:href="#DejaVuSans-30"/>
       <use xlink:href="#DejaVuSans-2e" x="63.623047"/>
       <use xlink:href="#DejaVuSans-36" x="95.410156"/>
      </g>
     </g>
    </g>
    <g id="ytick_5">
     <g id="line2d_11">
      <g>
       <use xlink:href="#m2013a99daf" x="54.01375" y="54.34191" style="stroke: #000000; stroke-width: 0.8"/>
      </g>
     </g>
     <g id="text_12">
      <!-- 0.8 -->
      <g transform="translate(24.749375 59.660816) scale(0.14 -0.14)">
       <use xlink:href="#DejaVuSans-30"/>
       <use xlink:href="#DejaVuSans-2e" x="63.623047"/>
       <use xlink:href="#DejaVuSans-38" x="95.410156"/>
      </g>
     </g>
    </g>
    <g id="ytick_6">
     <g id="line2d_12">
      <g>
       <use xlink:href="#m2013a99daf" x="54.01375" y="13.164455" style="stroke: #000000; stroke-width: 0.8"/>
      </g>
     </g>
     <g id="text_13">
      <!-- 1.0 -->
      <g transform="translate(24.749375 18.483361) scale(0.14 -0.14)">
       <use xlink:href="#DejaVuSans-31"/>
       <use xlink:href="#DejaVuSans-2e" x="63.623047"/>
       <use xlink:href="#DejaVuSans-30" x="95.410156"/>
      </g>
     </g>
    </g>
    <g id="text_14">
     <!-- Loss -->
     <g transform="translate(17.837813 133.434062) rotate(-90) scale(0.14 -0.14)">
      <defs>
       <path id="DejaVuSans-4c" d="M 628 4666 
L 1259 4666 
L 1259 531 
L 3531 531 
L 3531 0 
L 628 0 
L 628 4666 
z
" transform="scale(0.015625)"/>
      </defs>
      <use xlink:href="#DejaVuSans-4c"/>
      <use xlink:href="#DejaVuSans-6f" x="53.962891"/>
      <use xlink:href="#DejaVuSans-73" x="115.144531"/>
      <use xlink:href="#DejaVuSans-73" x="167.244141"/>
     </g>
    </g>
   </g>
   <g id="line2d_13">
    <path d="M 67.848461 17.28 
L 70.643352 62.901551 
L 73.438243 106.661513 
L 76.233134 129.817618 
L 79.028025 145.012693 
L 81.822916 155.454941 
L 84.617807 164.844167 
L 87.412698 174.228981 
L 90.207589 182.337199 
L 93.00248 189.515914 
L 95.797371 184.319705 
L 98.592262 191.371063 
L 101.387153 185.443919 
L 104.182045 187.25935 
L 106.976936 197.173506 
L 109.771827 195.744487 
L 112.566718 198.466278 
L 115.361609 200.634955 
L 118.1565 200.590806 
L 120.951391 192.150917 
L 123.746282 193.537774 
L 126.541173 198.350498 
L 129.336064 201.350859 
L 132.130955 202.710738 
L 134.925846 203.612125 
L 137.720737 203.363477 
L 140.515628 202.045827 
L 143.310519 203.261509 
L 146.10541 201.907198 
L 148.900301 201.917355 
L 151.695193 200.025614 
L 154.490084 202.346498 
L 157.284975 202.282066 
L 160.079866 202.365798 
L 162.874757 205.387018 
L 165.669648 204.659684 
L 168.464539 203.957819 
L 171.25943 205.683781 
L 174.054321 204.387406 
L 176.849212 201.422152 
L 179.644103 203.023189 
L 182.438994 203.629963 
L 185.233885 202.789646 
L 188.028776 203.80612 
L 190.823667 200.812793 
L 193.618558 200.9299 
L 196.413449 196.657449 
L 199.208341 198.453596 
L 202.003232 193.967117 
L 204.798123 204.633315 
L 207.593014 204.309322 
L 210.387905 199.723328 
L 213.182796 203.619997 
L 215.977687 205.142793 
L 218.772578 203.393036 
L 221.567469 203.430781 
L 224.36236 203.289664 
L 227.157251 197.819563 
L 229.952142 193.224773 
L 232.747033 185.239121 
L 235.541924 195.212231 
L 238.336815 203.115764 
L 241.131706 204.085241 
L 243.926597 206.540958 
L 246.721489 206.71655 
L 249.51638 206.938534 
L 252.311271 206.071373 
L 255.106162 203.661215 
L 257.901053 207.711015 
L 260.695944 207.340921 
L 263.490835 207.728018 
L 266.285726 208.030624 
L 269.080617 207.062609 
L 271.875508 206.360187 
L 274.670399 203.274252 
L 277.46529 205.236954 
L 280.260181 207.812037 
L 283.055072 207.754563 
L 285.849963 206.928802 
L 288.644854 207.549792 
L 291.439745 207.593802 
L 294.234637 209.282666 
L 297.029528 208.123282 
L 299.824419 209.119564 
L 302.61931 206.178333 
L 305.414201 207.291661 
L 308.209092 208.626916 
L 311.003983 208.00484 
L 313.798874 206.739165 
L 316.593765 208.754209 
L 319.388656 209.054182 
L 322.183547 208.275168 
L 324.978438 209.005061 
L 327.773329 208.392636 
L 330.56822 206.464688 
L 333.363111 202.846141 
L 336.158002 202.731154 
L 338.952894 207.21611 
L 341.747785 207.030483 
L 344.542676 200.614202 
" clip-path="url(#pcd6290a478)" style="fill: none; stroke: #1f77b4; stroke-width: 1.5; stroke-linecap: square"/>
   </g>
   <g id="line2d_14">
    <path d="M 67.848461 29.1686 
L 70.643352 101.899328 
L 73.438243 138.776961 
L 76.233134 154.67998 
L 79.028025 163.707641 
L 81.822916 175.720166 
L 84.617807 178.115954 
L 87.412698 185.049634 
L 90.207589 191.750723 
L 93.00248 195.041463 
L 95.797371 197.341105 
L 98.592262 199.567553 
L 101.387153 203.044558 
L 104.182045 203.860355 
L 106.976936 204.659744 
L 109.771827 204.773737 
L 112.566718 207.149283 
L 115.361609 207.418215 
L 118.1565 209.717425 
L 120.951391 206.496853 
L 123.746282 209.093526 
L 126.541173 210.459162 
L 129.336064 208.821112 
L 132.130955 210.869934 
L 134.925846 210.811915 
L 137.720737 210.132387 
L 140.515628 211.739751 
L 143.310519 211.785302 
L 146.10541 212.811066 
L 148.900301 212.864815 
L 151.695193 211.359997 
L 154.490084 212.652691 
L 157.284975 213.110995 
L 160.079866 213.304581 
L 162.874757 212.657043 
L 165.669648 213.7676 
L 168.464539 214.851249 
L 171.25943 214.058021 
L 174.054321 214.724638 
L 176.849212 214.637812 
L 179.644103 215.076397 
L 182.438994 215.042028 
L 185.233885 215.29505 
L 188.028776 215.286861 
L 190.823667 215.142333 
L 193.618558 214.804894 
L 196.413449 216.087638 
L 199.208341 215.366716 
L 202.003232 216.280016 
L 204.798123 215.476474 
L 207.593014 216.185608 
L 210.387905 216.624522 
L 213.182796 216.676374 
L 215.977687 216.977313 
L 218.772578 216.908196 
L 221.567469 217.165412 
L 224.36236 217.284966 
L 227.157251 217.502993 
L 229.952142 217.393676 
L 232.747033 217.574749 
L 235.541924 217.639356 
L 238.336815 217.880069 
L 241.131706 217.845379 
L 243.926597 217.98521 
L 246.721489 217.951838 
L 249.51638 218.046363 
L 252.311271 218.159451 
L 255.106162 218.165333 
L 257.901053 218.300161 
L 260.695944 218.362238 
L 263.490835 218.389771 
L 266.285726 218.305164 
L 269.080617 218.446453 
L 271.875508 218.434644 
L 274.670399 218.519337 
L 277.46529 218.484653 
L 280.260181 218.541632 
L 283.055072 218.598993 
L 285.849963 218.59889 
L 288.644854 218.58076 
L 291.439745 218.630111 
L 294.234637 218.622449 
L 297.029528 218.697945 
L 299.824419 218.701425 
L 302.61931 218.738845 
L 305.414201 218.749025 
L 308.209092 218.757357 
L 311.003983 218.775864 
L 313.798874 218.788966 
L 316.593765 218.798862 
L 319.388656 218.819564 
L 322.183547 218.818308 
L 324.978438 218.836312 
L 327.773329 218.838923 
L 330.56822 218.846469 
L 333.363111 218.854632 
L 336.158002 218.863544 
L 338.952894 218.868792 
L 341.747785 218.869391 
L 344.542676 218.88 
" clip-path="url(#pcd6290a478)" style="fill: none; stroke: #ff7f0e; stroke-width: 1.5; stroke-linecap: square"/>
   </g>
   <g id="patch_3">
    <path d="M 54.01375 228.96 
L 54.01375 7.2 
" style="fill: none; stroke: #000000; stroke-width: 0.8; stroke-linejoin: miter; stroke-linecap: square"/>
   </g>
   <g id="patch_4">
    <path d="M 358.377386 228.96 
L 358.377386 7.2 
" style="fill: none; stroke: #000000; stroke-width: 0.8; stroke-linejoin: miter; stroke-linecap: square"/>
   </g>
   <g id="patch_5">
    <path d="M 54.01375 228.96 
L 358.377386 228.96 
" style="fill: none; stroke: #000000; stroke-width: 0.8; stroke-linejoin: miter; stroke-linecap: square"/>
   </g>
   <g id="patch_6">
    <path d="M 54.01375 7.2 
L 358.377386 7.2 
" style="fill: none; stroke: #000000; stroke-width: 0.8; stroke-linejoin: miter; stroke-linecap: square"/>
   </g>
   <g id="legend_1">
    <g id="patch_7">
     <path d="M 99.906761 59.49875 
L 348.577386 59.49875 
Q 351.377386 59.49875 351.377386 56.69875 
L 351.377386 17 
Q 351.377386 14.2 348.577386 14.2 
L 99.906761 14.2 
Q 97.106761 14.2 97.106761 17 
L 97.106761 56.69875 
Q 97.106761 59.49875 99.906761 59.49875 
z
" style="fill: #ffffff; opacity: 0.8; stroke: #cccccc; stroke-linejoin: miter"/>
    </g>
    <g id="line2d_15">
     <path d="M 102.706761 25.537812 
L 116.706761 25.537812 
L 130.706761 25.537812 
" style="fill: none; stroke: #1f77b4; stroke-width: 1.5; stroke-linecap: square"/>
    </g>
    <g id="text_15">
     <!-- Without data standardization -->
     <g transform="translate(141.906761 30.437812) scale(0.14 -0.14)">
      <defs>
       <path id="DejaVuSans-57" d="M 213 4666 
L 850 4666 
L 1831 722 
L 2809 4666 
L 3519 4666 
L 4500 722 
L 5478 4666 
L 6119 4666 
L 4947 0 
L 4153 0 
L 3169 4050 
L 2175 0 
L 1381 0 
L 213 4666 
z
" transform="scale(0.015625)"/>
       <path id="DejaVuSans-69" d="M 603 3500 
L 1178 3500 
L 1178 0 
L 603 0 
L 603 3500 
z
M 603 4863 
L 1178 4863 
L 1178 4134 
L 603 4134 
L 603 4863 
z
" transform="scale(0.015625)"/>
       <path id="DejaVuSans-74" d="M 1172 4494 
L 1172 3500 
L 2356 3500 
L 2356 3053 
L 1172 3053 
L 1172 1153 
Q 1172 725 1289 603 
Q 1406 481 1766 481 
L 2356 481 
L 2356 0 
L 1766 0 
Q 1100 0 847 248 
Q 594 497 594 1153 
L 594 3053 
L 172 3053 
L 172 3500 
L 594 3500 
L 594 4494 
L 1172 4494 
z
" transform="scale(0.015625)"/>
       <path id="DejaVuSans-75" d="M 544 1381 
L 544 3500 
L 1119 3500 
L 1119 1403 
Q 1119 906 1312 657 
Q 1506 409 1894 409 
Q 2359 409 2629 706 
Q 2900 1003 2900 1516 
L 2900 3500 
L 3475 3500 
L 3475 0 
L 2900 0 
L 2900 538 
Q 2691 219 2414 64 
Q 2138 -91 1772 -91 
Q 1169 -91 856 284 
Q 544 659 544 1381 
z
M 1991 3584 
L 1991 3584 
z
" transform="scale(0.015625)"/>
       <path id="DejaVuSans-20" transform="scale(0.015625)"/>
       <path id="DejaVuSans-64" d="M 2906 2969 
L 2906 4863 
L 3481 4863 
L 3481 0 
L 2906 0 
L 2906 525 
Q 2725 213 2448 61 
Q 2172 -91 1784 -91 
Q 1150 -91 751 415 
Q 353 922 353 1747 
Q 353 2572 751 3078 
Q 1150 3584 1784 3584 
Q 2172 3584 2448 3432 
Q 2725 3281 2906 2969 
z
M 947 1747 
Q 947 1113 1208 752 
Q 1469 391 1925 391 
Q 2381 391 2643 752 
Q 2906 1113 2906 1747 
Q 2906 2381 2643 2742 
Q 2381 3103 1925 3103 
Q 1469 3103 1208 2742 
Q 947 2381 947 1747 
z
" transform="scale(0.015625)"/>
       <path id="DejaVuSans-61" d="M 2194 1759 
Q 1497 1759 1228 1600 
Q 959 1441 959 1056 
Q 959 750 1161 570 
Q 1363 391 1709 391 
Q 2188 391 2477 730 
Q 2766 1069 2766 1631 
L 2766 1759 
L 2194 1759 
z
M 3341 1997 
L 3341 0 
L 2766 0 
L 2766 531 
Q 2569 213 2275 61 
Q 1981 -91 1556 -91 
Q 1019 -91 701 211 
Q 384 513 384 1019 
Q 384 1609 779 1909 
Q 1175 2209 1959 2209 
L 2766 2209 
L 2766 2266 
Q 2766 2663 2505 2880 
Q 2244 3097 1772 3097 
Q 1472 3097 1187 3025 
Q 903 2953 641 2809 
L 641 3341 
Q 956 3463 1253 3523 
Q 1550 3584 1831 3584 
Q 2591 3584 2966 3190 
Q 3341 2797 3341 1997 
z
" transform="scale(0.015625)"/>
       <path id="DejaVuSans-6e" d="M 3513 2113 
L 3513 0 
L 2938 0 
L 2938 2094 
Q 2938 2591 2744 2837 
Q 2550 3084 2163 3084 
Q 1697 3084 1428 2787 
Q 1159 2491 1159 1978 
L 1159 0 
L 581 0 
L 581 3500 
L 1159 3500 
L 1159 2956 
Q 1366 3272 1645 3428 
Q 1925 3584 2291 3584 
Q 2894 3584 3203 3211 
Q 3513 2838 3513 2113 
z
" transform="scale(0.015625)"/>
       <path id="DejaVuSans-72" d="M 2631 2963 
Q 2534 3019 2420 3045 
Q 2306 3072 2169 3072 
Q 1681 3072 1420 2755 
Q 1159 2438 1159 1844 
L 1159 0 
L 581 0 
L 581 3500 
L 1159 3500 
L 1159 2956 
Q 1341 3275 1631 3429 
Q 1922 3584 2338 3584 
Q 2397 3584 2469 3576 
Q 2541 3569 2628 3553 
L 2631 2963 
z
" transform="scale(0.015625)"/>
       <path id="DejaVuSans-7a" d="M 353 3500 
L 3084 3500 
L 3084 2975 
L 922 459 
L 3084 459 
L 3084 0 
L 275 0 
L 275 525 
L 2438 3041 
L 353 3041 
L 353 3500 
z
" transform="scale(0.015625)"/>
      </defs>
      <use xlink:href="#DejaVuSans-57"/>
      <use xlink:href="#DejaVuSans-69" x="96.626953"/>
      <use xlink:href="#DejaVuSans-74" x="124.410156"/>
      <use xlink:href="#DejaVuSans-68" x="163.619141"/>
      <use xlink:href="#DejaVuSans-6f" x="226.998047"/>
      <use xlink:href="#DejaVuSans-75" x="288.179688"/>
      <use xlink:href="#DejaVuSans-74" x="351.558594"/>
      <use xlink:href="#DejaVuSans-20" x="390.767578"/>
      <use xlink:href="#DejaVuSans-64" x="422.554688"/>
      <use xlink:href="#DejaVuSans-61" x="486.03125"/>
      <use xlink:href="#DejaVuSans-74" x="547.310547"/>
      <use xlink:href="#DejaVuSans-61" x="586.519531"/>
      <use xlink:href="#DejaVuSans-20" x="647.798828"/>
      <use xlink:href="#DejaVuSans-73" x="679.585938"/>
      <use xlink:href="#DejaVuSans-74" x="731.685547"/>
      <use xlink:href="#DejaVuSans-61" x="770.894531"/>
      <use xlink:href="#DejaVuSans-6e" x="832.173828"/>
      <use xlink:href="#DejaVuSans-64" x="895.552734"/>
      <use xlink:href="#DejaVuSans-61" x="959.029297"/>
      <use xlink:href="#DejaVuSans-72" x="1020.308594"/>
      <use xlink:href="#DejaVuSans-64" x="1059.671875"/>
      <use xlink:href="#DejaVuSans-69" x="1123.148438"/>
      <use xlink:href="#DejaVuSans-7a" x="1150.931641"/>
      <use xlink:href="#DejaVuSans-61" x="1203.421875"/>
      <use xlink:href="#DejaVuSans-74" x="1264.701172"/>
      <use xlink:href="#DejaVuSans-69" x="1303.910156"/>
      <use xlink:href="#DejaVuSans-6f" x="1331.693359"/>
      <use xlink:href="#DejaVuSans-6e" x="1392.875"/>
     </g>
    </g>
    <g id="line2d_16">
     <path d="M 102.706761 46.087187 
L 116.706761 46.087187 
L 130.706761 46.087187 
" style="fill: none; stroke: #ff7f0e; stroke-width: 1.5; stroke-linecap: square"/>
    </g>
    <g id="text_16">
     <!-- With data standardization -->
     <g transform="translate(141.906761 50.987187) scale(0.14 -0.14)">
      <use xlink:href="#DejaVuSans-57"/>
      <use xlink:href="#DejaVuSans-69" x="96.626953"/>
      <use xlink:href="#DejaVuSans-74" x="124.410156"/>
      <use xlink:href="#DejaVuSans-68" x="163.619141"/>
      <use xlink:href="#DejaVuSans-20" x="226.998047"/>
      <use xlink:href="#DejaVuSans-64" x="258.785156"/>
      <use xlink:href="#DejaVuSans-61" x="322.261719"/>
      <use xlink:href="#DejaVuSans-74" x="383.541016"/>
      <use xlink:href="#DejaVuSans-61" x="422.75"/>
      <use xlink:href="#DejaVuSans-20" x="484.029297"/>
      <use xlink:href="#DejaVuSans-73" x="515.816406"/>
      <use xlink:href="#DejaVuSans-74" x="567.916016"/>
      <use xlink:href="#DejaVuSans-61" x="607.125"/>
      <use xlink:href="#DejaVuSans-6e" x="668.404297"/>
      <use xlink:href="#DejaVuSans-64" x="731.783203"/>
      <use xlink:href="#DejaVuSans-61" x="795.259766"/>
      <use xlink:href="#DejaVuSans-72" x="856.539062"/>
      <use xlink:href="#DejaVuSans-64" x="895.902344"/>
      <use xlink:href="#DejaVuSans-69" x="959.378906"/>
      <use xlink:href="#DejaVuSans-7a" x="987.162109"/>
      <use xlink:href="#DejaVuSans-61" x="1039.652344"/>
      <use xlink:href="#DejaVuSans-74" x="1100.931641"/>
      <use xlink:href="#DejaVuSans-69" x="1140.140625"/>
      <use xlink:href="#DejaVuSans-6f" x="1167.923828"/>
      <use xlink:href="#DejaVuSans-6e" x="1229.105469"/>
     </g>
    </g>
   </g>
  </g>
  <g id="axes_2">
   <g id="patch_8">
    <path d="M 419.250114 228.96 
L 723.61375 228.96 
L 723.61375 7.2 
L 419.250114 7.2 
z
" style="fill: #ffffff"/>
   </g>
   <g id="matplotlib.axis_3">
    <g id="xtick_7">
     <g id="line2d_17">
      <g>
       <use xlink:href="#mcdf8168ca1" x="430.289933" y="228.96" style="stroke: #000000; stroke-width: 0.8"/>
      </g>
     </g>
     <g id="text_17">
      <!-- 0 -->
      <g transform="translate(425.836183 246.597813) scale(0.14 -0.14)">
       <use xlink:href="#DejaVuSans-30"/>
      </g>
     </g>
    </g>
    <g id="xtick_8">
     <g id="line2d_18">
      <g>
       <use xlink:href="#mcdf8168ca1" x="486.187755" y="228.96" style="stroke: #000000; stroke-width: 0.8"/>
      </g>
     </g>
     <g id="text_18">
      <!-- 20 -->
      <g transform="translate(477.280255 246.597813) scale(0.14 -0.14)">
       <use xlink:href="#DejaVuSans-32"/>
       <use xlink:href="#DejaVuSans-30" x="63.623047"/>
      </g>
     </g>
    </g>
    <g id="xtick_9">
     <g id="line2d_19">
      <g>
       <use xlink:href="#mcdf8168ca1" x="542.085576" y="228.96" style="stroke: #000000; stroke-width: 0.8"/>
      </g>
     </g>
     <g id="text_19">
      <!-- 40 -->
      <g transform="translate(533.178076 246.597813) scale(0.14 -0.14)">
       <use xlink:href="#DejaVuSans-34"/>
       <use xlink:href="#DejaVuSans-30" x="63.623047"/>
      </g>
     </g>
    </g>
    <g id="xtick_10">
     <g id="line2d_20">
      <g>
       <use xlink:href="#mcdf8168ca1" x="597.983397" y="228.96" style="stroke: #000000; stroke-width: 0.8"/>
      </g>
     </g>
     <g id="text_20">
      <!-- 60 -->
      <g transform="translate(589.075897 246.597813) scale(0.14 -0.14)">
       <use xlink:href="#DejaVuSans-36"/>
       <use xlink:href="#DejaVuSans-30" x="63.623047"/>
      </g>
     </g>
    </g>
    <g id="xtick_11">
     <g id="line2d_21">
      <g>
       <use xlink:href="#mcdf8168ca1" x="653.881218" y="228.96" style="stroke: #000000; stroke-width: 0.8"/>
      </g>
     </g>
     <g id="text_21">
      <!-- 80 -->
      <g transform="translate(644.973718 246.597813) scale(0.14 -0.14)">
       <use xlink:href="#DejaVuSans-38"/>
       <use xlink:href="#DejaVuSans-30" x="63.623047"/>
      </g>
     </g>
    </g>
    <g id="xtick_12">
     <g id="line2d_22">
      <g>
       <use xlink:href="#mcdf8168ca1" x="709.779039" y="228.96" style="stroke: #000000; stroke-width: 0.8"/>
      </g>
     </g>
     <g id="text_22">
      <!-- 100 -->
      <g transform="translate(696.417789 246.597813) scale(0.14 -0.14)">
       <use xlink:href="#DejaVuSans-31"/>
       <use xlink:href="#DejaVuSans-30" x="63.623047"/>
       <use xlink:href="#DejaVuSans-30" x="127.246094"/>
      </g>
     </g>
    </g>
    <g id="text_23">
     <!-- Epochs -->
     <g transform="translate(546.350057 264.147188) scale(0.14 -0.14)">
      <use xlink:href="#DejaVuSans-45"/>
      <use xlink:href="#DejaVuSans-70" x="63.183594"/>
      <use xlink:href="#DejaVuSans-6f" x="126.660156"/>
      <use xlink:href="#DejaVuSans-63" x="187.841797"/>
      <use xlink:href="#DejaVuSans-68" x="242.822266"/>
      <use xlink:href="#DejaVuSans-73" x="306.201172"/>
     </g>
    </g>
   </g>
   <g id="matplotlib.axis_4">
    <g id="ytick_7">
     <g id="line2d_23">
      <g>
       <use xlink:href="#m2013a99daf" x="419.250114" y="218.88" style="stroke: #000000; stroke-width: 0.8"/>
      </g>
     </g>
     <g id="text_24">
      <!-- 0.5 -->
      <g transform="translate(389.985739 224.198906) scale(0.14 -0.14)">
       <defs>
        <path id="DejaVuSans-35" d="M 691 4666 
L 3169 4666 
L 3169 4134 
L 1269 4134 
L 1269 2991 
Q 1406 3038 1543 3061 
Q 1681 3084 1819 3084 
Q 2600 3084 3056 2656 
Q 3513 2228 3513 1497 
Q 3513 744 3044 326 
Q 2575 -91 1722 -91 
Q 1428 -91 1123 -41 
Q 819 9 494 109 
L 494 744 
Q 775 591 1075 516 
Q 1375 441 1709 441 
Q 2250 441 2565 725 
Q 2881 1009 2881 1497 
Q 2881 1984 2565 2268 
Q 2250 2553 1709 2553 
Q 1456 2553 1204 2497 
Q 953 2441 691 2322 
L 691 4666 
z
" transform="scale(0.015625)"/>
       </defs>
       <use xlink:href="#DejaVuSans-30"/>
       <use xlink:href="#DejaVuSans-2e" x="63.623047"/>
       <use xlink:href="#DejaVuSans-35" x="95.410156"/>
      </g>
     </g>
    </g>
    <g id="ytick_8">
     <g id="line2d_24">
      <g>
       <use xlink:href="#m2013a99daf" x="419.250114" y="178.56" style="stroke: #000000; stroke-width: 0.8"/>
      </g>
     </g>
     <g id="text_25">
      <!-- 0.6 -->
      <g transform="translate(389.985739 183.878906) scale(0.14 -0.14)">
       <use xlink:href="#DejaVuSans-30"/>
       <use xlink:href="#DejaVuSans-2e" x="63.623047"/>
       <use xlink:href="#DejaVuSans-36" x="95.410156"/>
      </g>
     </g>
    </g>
    <g id="ytick_9">
     <g id="line2d_25">
      <g>
       <use xlink:href="#m2013a99daf" x="419.250114" y="138.24" style="stroke: #000000; stroke-width: 0.8"/>
      </g>
     </g>
     <g id="text_26">
      <!-- 0.7 -->
      <g transform="translate(389.985739 143.558906) scale(0.14 -0.14)">
       <defs>
        <path id="DejaVuSans-37" d="M 525 4666 
L 3525 4666 
L 3525 4397 
L 1831 0 
L 1172 0 
L 2766 4134 
L 525 4134 
L 525 4666 
z
" transform="scale(0.015625)"/>
       </defs>
       <use xlink:href="#DejaVuSans-30"/>
       <use xlink:href="#DejaVuSans-2e" x="63.623047"/>
       <use xlink:href="#DejaVuSans-37" x="95.410156"/>
      </g>
     </g>
    </g>
    <g id="ytick_10">
     <g id="line2d_26">
      <g>
       <use xlink:href="#m2013a99daf" x="419.250114" y="97.92" style="stroke: #000000; stroke-width: 0.8"/>
      </g>
     </g>
     <g id="text_27">
      <!-- 0.8 -->
      <g transform="translate(389.985739 103.238906) scale(0.14 -0.14)">
       <use xlink:href="#DejaVuSans-30"/>
       <use xlink:href="#DejaVuSans-2e" x="63.623047"/>
       <use xlink:href="#DejaVuSans-38" x="95.410156"/>
      </g>
     </g>
    </g>
    <g id="ytick_11">
     <g id="line2d_27">
      <g>
       <use xlink:href="#m2013a99daf" x="419.250114" y="57.6" style="stroke: #000000; stroke-width: 0.8"/>
      </g>
     </g>
     <g id="text_28">
      <!-- 0.9 -->
      <g transform="translate(389.985739 62.918906) scale(0.14 -0.14)">
       <defs>
        <path id="DejaVuSans-39" d="M 703 97 
L 703 672 
Q 941 559 1184 500 
Q 1428 441 1663 441 
Q 2288 441 2617 861 
Q 2947 1281 2994 2138 
Q 2813 1869 2534 1725 
Q 2256 1581 1919 1581 
Q 1219 1581 811 2004 
Q 403 2428 403 3163 
Q 403 3881 828 4315 
Q 1253 4750 1959 4750 
Q 2769 4750 3195 4129 
Q 3622 3509 3622 2328 
Q 3622 1225 3098 567 
Q 2575 -91 1691 -91 
Q 1453 -91 1209 -44 
Q 966 3 703 97 
z
M 1959 2075 
Q 2384 2075 2632 2365 
Q 2881 2656 2881 3163 
Q 2881 3666 2632 3958 
Q 2384 4250 1959 4250 
Q 1534 4250 1286 3958 
Q 1038 3666 1038 3163 
Q 1038 2656 1286 2365 
Q 1534 2075 1959 2075 
z
" transform="scale(0.015625)"/>
       </defs>
       <use xlink:href="#DejaVuSans-30"/>
       <use xlink:href="#DejaVuSans-2e" x="63.623047"/>
       <use xlink:href="#DejaVuSans-39" x="95.410156"/>
      </g>
     </g>
    </g>
    <g id="ytick_12">
     <g id="line2d_28">
      <g>
       <use xlink:href="#m2013a99daf" x="419.250114" y="17.28" style="stroke: #000000; stroke-width: 0.8"/>
      </g>
     </g>
     <g id="text_29">
      <!-- 1.0 -->
      <g transform="translate(389.985739 22.598906) scale(0.14 -0.14)">
       <use xlink:href="#DejaVuSans-31"/>
       <use xlink:href="#DejaVuSans-2e" x="63.623047"/>
       <use xlink:href="#DejaVuSans-30" x="95.410156"/>
      </g>
     </g>
    </g>
    <g id="text_30">
     <!-- Accuracy -->
     <g transform="translate(383.074176 150.039375) rotate(-90) scale(0.14 -0.14)">
      <defs>
       <path id="DejaVuSans-41" d="M 2188 4044 
L 1331 1722 
L 3047 1722 
L 2188 4044 
z
M 1831 4666 
L 2547 4666 
L 4325 0 
L 3669 0 
L 3244 1197 
L 1141 1197 
L 716 0 
L 50 0 
L 1831 4666 
z
" transform="scale(0.015625)"/>
       <path id="DejaVuSans-79" d="M 2059 -325 
Q 1816 -950 1584 -1140 
Q 1353 -1331 966 -1331 
L 506 -1331 
L 506 -850 
L 844 -850 
Q 1081 -850 1212 -737 
Q 1344 -625 1503 -206 
L 1606 56 
L 191 3500 
L 800 3500 
L 1894 763 
L 2988 3500 
L 3597 3500 
L 2059 -325 
z
" transform="scale(0.015625)"/>
      </defs>
      <use xlink:href="#DejaVuSans-41"/>
      <use xlink:href="#DejaVuSans-63" x="66.658203"/>
      <use xlink:href="#DejaVuSans-63" x="121.638672"/>
      <use xlink:href="#DejaVuSans-75" x="176.619141"/>
      <use xlink:href="#DejaVuSans-72" x="239.998047"/>
      <use xlink:href="#DejaVuSans-61" x="281.111328"/>
      <use xlink:href="#DejaVuSans-63" x="342.390625"/>
      <use xlink:href="#DejaVuSans-79" x="397.371094"/>
     </g>
    </g>
   </g>
   <g id="line2d_29">
    <path d="M 433.084824 218.88 
L 435.879715 151.679992 
L 438.674606 130.175988 
L 441.469498 84.480008 
L 444.264389 49.535993 
L 447.05928 44.159998 
L 449.854171 44.159998 
L 452.649062 46.847996 
L 455.443953 30.720011 
L 458.238844 33.408009 
L 461.033735 46.847996 
L 463.828626 38.784004 
L 466.623517 46.847996 
L 469.418408 46.847996 
L 472.213299 41.472001 
L 475.00819 38.784004 
L 477.803081 36.096006 
L 480.597972 28.03199 
L 483.392863 28.03199 
L 486.187755 33.408009 
L 488.982646 44.159998 
L 491.777537 33.408009 
L 494.572428 30.720011 
L 497.367319 25.343992 
L 500.16221 19.967997 
L 502.957101 28.03199 
L 505.751992 36.096006 
L 508.546883 25.343992 
L 511.341774 36.096006 
L 514.136665 30.720011 
L 516.931556 33.408009 
L 519.726447 33.408009 
L 522.521338 28.03199 
L 525.316229 30.720011 
L 528.11112 25.343992 
L 530.906011 30.720011 
L 533.700903 28.03199 
L 536.495794 25.343992 
L 539.290685 28.03199 
L 542.085576 30.720011 
L 544.880467 30.720011 
L 547.675358 30.720011 
L 550.470249 30.720011 
L 553.26514 28.03199 
L 556.060031 28.03199 
L 558.854922 36.096006 
L 561.649813 36.096006 
L 564.444704 38.784004 
L 567.239595 33.408009 
L 570.034486 28.03199 
L 572.829377 30.720011 
L 575.624268 36.096006 
L 578.419159 30.720011 
L 581.214051 25.343992 
L 584.008942 33.408009 
L 586.803833 25.343992 
L 589.598724 33.408009 
L 592.393615 30.720011 
L 595.188506 46.847996 
L 597.983397 41.472001 
L 600.778288 38.784004 
L 603.573179 28.03199 
L 606.36807 28.03199 
L 609.162961 22.655995 
L 611.957852 22.655995 
L 614.752743 22.655995 
L 617.547634 25.343992 
L 620.342525 33.408009 
L 623.137416 25.343992 
L 625.932307 28.03199 
L 628.727199 25.343992 
L 631.52209 25.343992 
L 634.316981 28.03199 
L 637.111872 25.343992 
L 639.906763 30.720011 
L 642.701654 28.03199 
L 645.496545 25.343992 
L 648.291436 22.655995 
L 651.086327 25.343992 
L 653.881218 22.655995 
L 656.676109 25.343992 
L 659.471 22.655995 
L 662.265891 28.03199 
L 665.060782 25.343992 
L 667.855673 25.343992 
L 670.650564 25.343992 
L 673.445455 22.655995 
L 676.240347 22.655995 
L 679.035238 25.343992 
L 681.830129 22.655995 
L 684.62502 22.655995 
L 687.419911 22.655995 
L 690.214802 25.343992 
L 693.009693 22.655995 
L 695.804584 22.655995 
L 698.599475 36.096006 
L 701.394366 30.720011 
L 704.189257 25.343992 
L 706.984148 25.343992 
L 709.779039 30.720011 
" clip-path="url(#p17c184fd91)" style="fill: none; stroke: #1f77b4; stroke-width: 1.5; stroke-linecap: square"/>
   </g>
   <g id="line2d_30">
    <path d="M 433.084824 127.487991 
L 435.879715 87.168005 
L 438.674606 84.480008 
L 441.469498 76.415992 
L 444.264389 73.727994 
L 447.05928 60.288007 
L 449.854171 49.535993 
L 452.649062 46.847996 
L 455.443953 38.784004 
L 458.238844 33.408009 
L 461.033735 25.343992 
L 463.828626 33.408009 
L 466.623517 28.03199 
L 469.418408 28.03199 
L 472.213299 33.408009 
L 475.00819 28.03199 
L 477.803081 22.655995 
L 480.597972 28.03199 
L 483.392863 25.343992 
L 486.187755 25.343992 
L 488.982646 25.343992 
L 491.777537 25.343992 
L 494.572428 25.343992 
L 497.367319 28.03199 
L 500.16221 22.655995 
L 502.957101 22.655995 
L 505.751992 25.343992 
L 508.546883 22.655995 
L 511.341774 22.655995 
L 514.136665 22.655995 
L 516.931556 22.655995 
L 519.726447 25.343992 
L 522.521338 22.655995 
L 525.316229 22.655995 
L 528.11112 25.343992 
L 530.906011 22.655995 
L 533.700903 19.967997 
L 536.495794 22.655995 
L 539.290685 19.967997 
L 542.085576 19.967997 
L 544.880467 19.967997 
L 547.675358 19.967997 
L 550.470249 19.967997 
L 553.26514 19.967997 
L 556.060031 19.967997 
L 558.854922 19.967997 
L 561.649813 17.28 
L 564.444704 19.967997 
L 567.239595 19.967997 
L 570.034486 19.967997 
L 572.829377 19.967997 
L 575.624268 17.28 
L 578.419159 17.28 
L 581.214051 17.28 
L 584.008942 17.28 
L 586.803833 17.28 
L 589.598724 17.28 
L 592.393615 17.28 
L 595.188506 17.28 
L 597.983397 17.28 
L 600.778288 17.28 
L 603.573179 17.28 
L 606.36807 17.28 
L 609.162961 17.28 
L 611.957852 17.28 
L 614.752743 17.28 
L 617.547634 17.28 
L 620.342525 17.28 
L 623.137416 17.28 
L 625.932307 17.28 
L 628.727199 17.28 
L 631.52209 17.28 
L 634.316981 17.28 
L 637.111872 17.28 
L 639.906763 17.28 
L 642.701654 17.28 
L 645.496545 17.28 
L 648.291436 17.28 
L 651.086327 17.28 
L 653.881218 17.28 
L 656.676109 17.28 
L 659.471 17.28 
L 662.265891 17.28 
L 665.060782 17.28 
L 667.855673 17.28 
L 670.650564 17.28 
L 673.445455 17.28 
L 676.240347 17.28 
L 679.035238 17.28 
L 681.830129 17.28 
L 684.62502 17.28 
L 687.419911 17.28 
L 690.214802 17.28 
L 693.009693 17.28 
L 695.804584 17.28 
L 698.599475 17.28 
L 701.394366 17.28 
L 704.189257 17.28 
L 706.984148 17.28 
L 709.779039 17.28 
" clip-path="url(#p17c184fd91)" style="fill: none; stroke: #ff7f0e; stroke-width: 1.5; stroke-linecap: square"/>
   </g>
   <g id="patch_9">
    <path d="M 419.250114 228.96 
L 419.250114 7.2 
" style="fill: none; stroke: #000000; stroke-width: 0.8; stroke-linejoin: miter; stroke-linecap: square"/>
   </g>
   <g id="patch_10">
    <path d="M 723.61375 228.96 
L 723.61375 7.2 
" style="fill: none; stroke: #000000; stroke-width: 0.8; stroke-linejoin: miter; stroke-linecap: square"/>
   </g>
   <g id="patch_11">
    <path d="M 419.250114 228.96 
L 723.61375 228.96 
" style="fill: none; stroke: #000000; stroke-width: 0.8; stroke-linejoin: miter; stroke-linecap: square"/>
   </g>
   <g id="patch_12">
    <path d="M 419.250114 7.2 
L 723.61375 7.2 
" style="fill: none; stroke: #000000; stroke-width: 0.8; stroke-linejoin: miter; stroke-linecap: square"/>
   </g>
  </g>
 </g>
 <defs>
  <clipPath id="pcd6290a478">
   <rect x="54.01375" y="7.2" width="304.363636" height="221.76"/>
  </clipPath>
  <clipPath id="p17c184fd91">
   <rect x="419.250114" y="7.2" width="304.363636" height="221.76"/>
  </clipPath>
 </defs>
</svg>