<?xml version="1.0" encoding="utf-8" standalone="no"?>
<!DOCTYPE svg PUBLIC "-//W3C//DTD SVG 1.1//EN"
  "http://www.w3.org/Graphics/SVG/1.1/DTD/svg11.dtd">
<svg xmlns:xlink="http://www.w3.org/1999/xlink" width="730.81375pt" height="389.241091pt" viewBox="0 0 730.81375 389.241091" xmlns="http://www.w3.org/2000/svg" version="1.1">
 <metadata>
  <rdf:RDF xmlns:dc="http://purl.org/dc/elements/1.1/" xmlns:cc="http://creativecommons.org/ns#" xmlns:rdf="http://www.w3.org/1999/02/22-rdf-syntax-ns#">
   <cc:Work>
    <dc:type rdf:resource="http://purl.org/dc/dcmitype/StillImage"/>
    <dc:date>2022-10-23T20:08:41.979276</dc:date>
    <dc:format>image/svg+xml</dc:format>
    <dc:creator>
     <cc:Agent>
      <dc:title>Matplotlib v3.6.1, https://matplotlib.org/</dc:title>
     </cc:Agent>
    </dc:creator>
   </cc:Work>
  </rdf:RDF>
 </metadata>
 <defs>
  <style type="text/css">*{stroke-linejoin: round; stroke-linecap: butt}</style>
 </defs>
 <g id="figure_1">
  <g id="patch_1">
   <path d="M 0 389.241091 
L 730.81375 389.241091 
L 730.81375 0 
L 0 0 
z
" style="fill: #ffffff"/>
  </g>
  <g id="axes_1">
   <g id="patch_2">
    <path d="M 54.01375 343.942341 
L 358.377386 343.942341 
L 358.377386 11.302341 
L 54.01375 11.302341 
z
" style="fill: #ffffff"/>
   </g>
   <g id="matplotlib.axis_1">
    <g id="xtick_1">
     <g id="line2d_1">
      <defs>
       <path id="m3700bfc0c5" d="M 0 0 
L 0 3.5 
" style="stroke: #000000; stroke-width: 0.8"/>
      </defs>
      <g>
       <use xlink:href="#m3700bfc0c5" x="65.05357" y="343.942341" style="stroke: #000000; stroke-width: 0.8"/>
      </g>
     </g>
     <g id="text_1">
      <!-- 0 -->
      <g transform="translate(60.59982 361.580153) scale(0.14 -0.14)">
       <defs>
        <path id="DejaVuSans-30" d="M 2034 4250 
Q 1547 4250 1301 3770 
Q 1056 3291 1056 2328 
Q 1056 1369 1301 889 
Q 1547 409 2034 409 
Q 2525 409 2770 889 
Q 3016 1369 3016 2328 
Q 3016 3291 2770 3770 
Q 2525 4250 2034 4250 
z
M 2034 4750 
Q 2819 4750 3233 4129 
Q 3647 3509 3647 2328 
Q 3647 1150 3233 529 
Q 2819 -91 2034 -91 
Q 1250 -91 836 529 
Q 422 1150 422 2328 
Q 422 3509 836 4129 
Q 1250 4750 2034 4750 
z
" transform="scale(0.015625)"/>
       </defs>
       <use xlink:href="#DejaVuSans-30"/>
      </g>
     </g>
    </g>
    <g id="xtick_2">
     <g id="line2d_2">
      <g>
       <use xlink:href="#m3700bfc0c5" x="120.951391" y="343.942341" style="stroke: #000000; stroke-width: 0.8"/>
      </g>
     </g>
     <g id="text_2">
      <!-- 20 -->
      <g transform="translate(112.043891 361.580153) scale(0.14 -0.14)">
       <defs>
        <path id="DejaVuSans-32" d="M 1228 531 
L 3431 531 
L 3431 0 
L 469 0 
L 469 531 
Q 828 903 1448 1529 
Q 2069 2156 2228 2338 
Q 2531 2678 2651 2914 
Q 2772 3150 2772 3378 
Q 2772 3750 2511 3984 
Q 2250 4219 1831 4219 
Q 1534 4219 1204 4116 
Q 875 4013 500 3803 
L 500 4441 
Q 881 4594 1212 4672 
Q 1544 4750 1819 4750 
Q 2544 4750 2975 4387 
Q 3406 4025 3406 3419 
Q 3406 3131 3298 2873 
Q 3191 2616 2906 2266 
Q 2828 2175 2409 1742 
Q 1991 1309 1228 531 
z
" transform="scale(0.015625)"/>
       </defs>
       <use xlink:href="#DejaVuSans-32"/>
       <use xlink:href="#DejaVuSans-30" x="63.623047"/>
      </g>
     </g>
    </g>
    <g id="xtick_3">
     <g id="line2d_3">
      <g>
       <use xlink:href="#m3700bfc0c5" x="176.849212" y="343.942341" style="stroke: #000000; stroke-width: 0.8"/>
      </g>
     </g>
     <g id="text_3">
      <!-- 40 -->
      <g transform="translate(167.941712 361.580153) scale(0.14 -0.14)">
       <defs>
        <path id="DejaVuSans-34" d="M 2419 4116 
L 825 1625 
L 2419 1625 
L 2419 4116 
z
M 2253 4666 
L 3047 4666 
L 3047 1625 
L 3713 1625 
L 3713 1100 
L 3047 1100 
L 3047 0 
L 2419 0 
L 2419 1100 
L 313 1100 
L 313 1709 
L 2253 4666 
z
" transform="scale(0.015625)"/>
       </defs>
       <use xlink:href="#DejaVuSans-34"/>
       <use xlink:href="#DejaVuSans-30" x="63.623047"/>
      </g>
     </g>
    </g>
    <g id="xtick_4">
     <g id="line2d_4">
      <g>
       <use xlink:href="#m3700bfc0c5" x="232.747033" y="343.942341" style="stroke: #000000; stroke-width: 0.8"/>
      </g>
     </g>
     <g id="text_4">
      <!-- 60 -->
      <g transform="translate(223.839533 361.580153) scale(0.14 -0.14)">
       <defs>
        <path id="DejaVuSans-36" d="M 2113 2584 
Q 1688 2584 1439 2293 
Q 1191 2003 1191 1497 
Q 1191 994 1439 701 
Q 1688 409 2113 409 
Q 2538 409 2786 701 
Q 3034 994 3034 1497 
Q 3034 2003 2786 2293 
Q 2538 2584 2113 2584 
z
M 3366 4563 
L 3366 3988 
Q 3128 4100 2886 4159 
Q 2644 4219 2406 4219 
Q 1781 4219 1451 3797 
Q 1122 3375 1075 2522 
Q 1259 2794 1537 2939 
Q 1816 3084 2150 3084 
Q 2853 3084 3261 2657 
Q 3669 2231 3669 1497 
Q 3669 778 3244 343 
Q 2819 -91 2113 -91 
Q 1303 -91 875 529 
Q 447 1150 447 2328 
Q 447 3434 972 4092 
Q 1497 4750 2381 4750 
Q 2619 4750 2861 4703 
Q 3103 4656 3366 4563 
z
" transform="scale(0.015625)"/>
       </defs>
       <use xlink:href="#DejaVuSans-36"/>
       <use xlink:href="#DejaVuSans-30" x="63.623047"/>
      </g>
     </g>
    </g>
    <g id="xtick_5">
     <g id="line2d_5">
      <g>
       <use xlink:href="#m3700bfc0c5" x="288.644854" y="343.942341" style="stroke: #000000; stroke-width: 0.8"/>
      </g>
     </g>
     <g id="text_5">
      <!-- 80 -->
      <g transform="translate(279.737354 361.580153) scale(0.14 -0.14)">
       <defs>
        <path id="DejaVuSans-38" d="M 2034 2216 
Q 1584 2216 1326 1975 
Q 1069 1734 1069 1313 
Q 1069 891 1326 650 
Q 1584 409 2034 409 
Q 2484 409 2743 651 
Q 3003 894 3003 1313 
Q 3003 1734 2745 1975 
Q 2488 2216 2034 2216 
z
M 1403 2484 
Q 997 2584 770 2862 
Q 544 3141 544 3541 
Q 544 4100 942 4425 
Q 1341 4750 2034 4750 
Q 2731 4750 3128 4425 
Q 3525 4100 3525 3541 
Q 3525 3141 3298 2862 
Q 3072 2584 2669 2484 
Q 3125 2378 3379 2068 
Q 3634 1759 3634 1313 
Q 3634 634 3220 271 
Q 2806 -91 2034 -91 
Q 1263 -91 848 271 
Q 434 634 434 1313 
Q 434 1759 690 2068 
Q 947 2378 1403 2484 
z
M 1172 3481 
Q 1172 3119 1398 2916 
Q 1625 2713 2034 2713 
Q 2441 2713 2670 2916 
Q 2900 3119 2900 3481 
Q 2900 3844 2670 4047 
Q 2441 4250 2034 4250 
Q 1625 4250 1398 4047 
Q 1172 3844 1172 3481 
z
" transform="scale(0.015625)"/>
       </defs>
       <use xlink:href="#DejaVuSans-38"/>
       <use xlink:href="#DejaVuSans-30" x="63.623047"/>
      </g>
     </g>
    </g>
    <g id="xtick_6">
     <g id="line2d_6">
      <g>
       <use xlink:href="#m3700bfc0c5" x="344.542676" y="343.942341" style="stroke: #000000; stroke-width: 0.8"/>
      </g>
     </g>
     <g id="text_6">
      <!-- 100 -->
      <g transform="translate(331.181426 361.580153) scale(0.14 -0.14)">
       <defs>
        <path id="DejaVuSans-31" d="M 794 531 
L 1825 531 
L 1825 4091 
L 703 3866 
L 703 4441 
L 1819 4666 
L 2450 4666 
L 2450 531 
L 3481 531 
L 3481 0 
L 794 0 
L 794 531 
z
" transform="scale(0.015625)"/>
       </defs>
       <use xlink:href="#DejaVuSans-31"/>
       <use xlink:href="#DejaVuSans-30" x="63.623047"/>
       <use xlink:href="#DejaVuSans-30" x="127.246094"/>
      </g>
     </g>
    </g>
    <g id="text_7">
     <!-- Epochs -->
     <g transform="translate(181.113693 379.129528) scale(0.14 -0.14)">
      <defs>
       <path id="DejaVuSans-45" d="M 628 4666 
L 3578 4666 
L 3578 4134 
L 1259 4134 
L 1259 2753 
L 3481 2753 
L 3481 2222 
L 1259 2222 
L 1259 531 
L 3634 531 
L 3634 0 
L 628 0 
L 628 4666 
z
" transform="scale(0.015625)"/>
       <path id="DejaVuSans-70" d="M 1159 525 
L 1159 -1331 
L 581 -1331 
L 581 3500 
L 1159 3500 
L 1159 2969 
Q 1341 3281 1617 3432 
Q 1894 3584 2278 3584 
Q 2916 3584 3314 3078 
Q 3713 2572 3713 1747 
Q 3713 922 3314 415 
Q 2916 -91 2278 -91 
Q 1894 -91 1617 61 
Q 1341 213 1159 525 
z
M 3116 1747 
Q 3116 2381 2855 2742 
Q 2594 3103 2138 3103 
Q 1681 3103 1420 2742 
Q 1159 2381 1159 1747 
Q 1159 1113 1420 752 
Q 1681 391 2138 391 
Q 2594 391 2855 752 
Q 3116 1113 3116 1747 
z
" transform="scale(0.015625)"/>
       <path id="DejaVuSans-6f" d="M 1959 3097 
Q 1497 3097 1228 2736 
Q 959 2375 959 1747 
Q 959 1119 1226 758 
Q 1494 397 1959 397 
Q 2419 397 2687 759 
Q 2956 1122 2956 1747 
Q 2956 2369 2687 2733 
Q 2419 3097 1959 3097 
z
M 1959 3584 
Q 2709 3584 3137 3096 
Q 3566 2609 3566 1747 
Q 3566 888 3137 398 
Q 2709 -91 1959 -91 
Q 1206 -91 779 398 
Q 353 888 353 1747 
Q 353 2609 779 3096 
Q 1206 3584 1959 3584 
z
" transform="scale(0.015625)"/>
       <path id="DejaVuSans-63" d="M 3122 3366 
L 3122 2828 
Q 2878 2963 2633 3030 
Q 2388 3097 2138 3097 
Q 1578 3097 1268 2742 
Q 959 2388 959 1747 
Q 959 1106 1268 751 
Q 1578 397 2138 397 
Q 2388 397 2633 464 
Q 2878 531 3122 666 
L 3122 134 
Q 2881 22 2623 -34 
Q 2366 -91 2075 -91 
Q 1284 -91 818 406 
Q 353 903 353 1747 
Q 353 2603 823 3093 
Q 1294 3584 2113 3584 
Q 2378 3584 2631 3529 
Q 2884 3475 3122 3366 
z
" transform="scale(0.015625)"/>
       <path id="DejaVuSans-68" d="M 3513 2113 
L 3513 0 
L 2938 0 
L 2938 2094 
Q 2938 2591 2744 2837 
Q 2550 3084 2163 3084 
Q 1697 3084 1428 2787 
Q 1159 2491 1159 1978 
L 1159 0 
L 581 0 
L 581 4863 
L 1159 4863 
L 1159 2956 
Q 1366 3272 1645 3428 
Q 1925 3584 2291 3584 
Q 2894 3584 3203 3211 
Q 3513 2838 3513 2113 
z
" transform="scale(0.015625)"/>
       <path id="DejaVuSans-73" d="M 2834 3397 
L 2834 2853 
Q 2591 2978 2328 3040 
Q 2066 3103 1784 3103 
Q 1356 3103 1142 2972 
Q 928 2841 928 2578 
Q 928 2378 1081 2264 
Q 1234 2150 1697 2047 
L 1894 2003 
Q 2506 1872 2764 1633 
Q 3022 1394 3022 966 
Q 3022 478 2636 193 
Q 2250 -91 1575 -91 
Q 1294 -91 989 -36 
Q 684 19 347 128 
L 347 722 
Q 666 556 975 473 
Q 1284 391 1588 391 
Q 1994 391 2212 530 
Q 2431 669 2431 922 
Q 2431 1156 2273 1281 
Q 2116 1406 1581 1522 
L 1381 1569 
Q 847 1681 609 1914 
Q 372 2147 372 2553 
Q 372 3047 722 3315 
Q 1072 3584 1716 3584 
Q 2034 3584 2315 3537 
Q 2597 3491 2834 3397 
z
" transform="scale(0.015625)"/>
      </defs>
      <use xlink:href="#DejaVuSans-45"/>
      <use xlink:href="#DejaVuSans-70" x="63.183594"/>
      <use xlink:href="#DejaVuSans-6f" x="126.660156"/>
      <use xlink:href="#DejaVuSans-63" x="187.841797"/>
      <use xlink:href="#DejaVuSans-68" x="242.822266"/>
      <use xlink:href="#DejaVuSans-73" x="306.201172"/>
     </g>
    </g>
   </g>
   <g id="matplotlib.axis_2">
    <g id="ytick_1">
     <g id="line2d_7">
      <defs>
       <path id="ma14677b803" d="M 0 0 
L -3.5 0 
" style="stroke: #000000; stroke-width: 0.8"/>
      </defs>
      <g>
       <use xlink:href="#ma14677b803" x="54.01375" y="307.68966" style="stroke: #000000; stroke-width: 0.8"/>
      </g>
     </g>
     <g id="text_8">
      <!-- 0.2 -->
      <g transform="translate(24.749375 313.008567) scale(0.14 -0.14)">
       <defs>
        <path id="DejaVuSans-2e" d="M 684 794 
L 1344 794 
L 1344 0 
L 684 0 
L 684 794 
z
" transform="scale(0.015625)"/>
       </defs>
       <use xlink:href="#DejaVuSans-30"/>
       <use xlink:href="#DejaVuSans-2e" x="63.623047"/>
       <use xlink:href="#DejaVuSans-32" x="95.410156"/>
      </g>
     </g>
    </g>
    <g id="ytick_2">
     <g id="line2d_8">
      <g>
       <use xlink:href="#ma14677b803" x="54.01375" y="244.247809" style="stroke: #000000; stroke-width: 0.8"/>
      </g>
     </g>
     <g id="text_9">
      <!-- 0.4 -->
      <g transform="translate(24.749375 249.566715) scale(0.14 -0.14)">
       <use xlink:href="#DejaVuSans-30"/>
       <use xlink:href="#DejaVuSans-2e" x="63.623047"/>
       <use xlink:href="#DejaVuSans-34" x="95.410156"/>
      </g>
     </g>
    </g>
    <g id="ytick_3">
     <g id="line2d_9">
      <g>
       <use xlink:href="#ma14677b803" x="54.01375" y="180.805957" style="stroke: #000000; stroke-width: 0.8"/>
      </g>
     </g>
     <g id="text_10">
      <!-- 0.6 -->
      <g transform="translate(24.749375 186.124863) scale(0.14 -0.14)">
       <use xlink:href="#DejaVuSans-30"/>
       <use xlink:href="#DejaVuSans-2e" x="63.623047"/>
       <use xlink:href="#DejaVuSans-36" x="95.410156"/>
      </g>
     </g>
    </g>
    <g id="ytick_4">
     <g id="line2d_10">
      <g>
       <use xlink:href="#ma14677b803" x="54.01375" y="117.364106" style="stroke: #000000; stroke-width: 0.8"/>
      </g>
     </g>
     <g id="text_11">
      <!-- 0.8 -->
      <g transform="translate(24.749375 122.683012) scale(0.14 -0.14)">
       <use xlink:href="#DejaVuSans-30"/>
       <use xlink:href="#DejaVuSans-2e" x="63.623047"/>
       <use xlink:href="#DejaVuSans-38" x="95.410156"/>
      </g>
     </g>
    </g>
    <g id="ytick_5">
     <g id="line2d_11">
      <g>
       <use xlink:href="#ma14677b803" x="54.01375" y="53.922254" style="stroke: #000000; stroke-width: 0.8"/>
      </g>
     </g>
     <g id="text_12">
      <!-- 1.0 -->
      <g transform="translate(24.749375 59.24116) scale(0.14 -0.14)">
       <use xlink:href="#DejaVuSans-31"/>
       <use xlink:href="#DejaVuSans-2e" x="63.623047"/>
       <use xlink:href="#DejaVuSans-30" x="95.410156"/>
      </g>
     </g>
    </g>
    <g id="text_13">
     <!-- Loss -->
     <g transform="translate(17.837813 192.976403) rotate(-90) scale(0.14 -0.14)">
      <defs>
       <path id="DejaVuSans-4c" d="M 628 4666 
L 1259 4666 
L 1259 531 
L 3531 531 
L 3531 0 
L 628 0 
L 628 4666 
z
" transform="scale(0.015625)"/>
      </defs>
      <use xlink:href="#DejaVuSans-4c"/>
      <use xlink:href="#DejaVuSans-6f" x="53.962891"/>
      <use xlink:href="#DejaVuSans-73" x="115.144531"/>
      <use xlink:href="#DejaVuSans-73" x="167.244141"/>
     </g>
    </g>
   </g>
   <g id="line2d_12">
    <path d="M 67.848461 33.219762 
L 70.643352 57.793719 
L 73.438243 74.481619 
L 76.233134 88.123729 
L 79.028025 101.186373 
L 81.822916 111.107879 
L 84.617807 121.054039 
L 87.412698 133.803033 
L 90.207589 141.888522 
L 93.00248 152.489777 
L 95.797371 159.292889 
L 98.592262 168.839882 
L 101.387153 173.791626 
L 104.182045 182.372426 
L 106.976936 188.915338 
L 109.771827 195.092718 
L 112.566718 200.385943 
L 115.361609 206.470452 
L 118.1565 205.228517 
L 120.951391 215.317663 
L 123.746282 218.044952 
L 126.541173 221.472373 
L 129.336064 223.927769 
L 132.130955 226.985668 
L 134.925846 228.895281 
L 137.720737 234.567008 
L 140.515628 237.025977 
L 143.310519 240.703625 
L 146.10541 241.8414 
L 148.900301 240.933384 
L 151.695193 247.701074 
L 154.490084 249.381863 
L 157.284975 249.411802 
L 160.079866 253.991188 
L 162.874757 257.142319 
L 165.669648 258.976416 
L 168.464539 256.409327 
L 171.25943 259.1843 
L 174.054321 264.269462 
L 176.849212 265.073753 
L 179.644103 267.034216 
L 182.438994 269.116781 
L 185.233885 269.574816 
L 188.028776 270.707392 
L 190.823667 273.826211 
L 193.618558 276.966565 
L 196.413449 277.187674 
L 199.208341 266.91252 
L 202.003232 280.297333 
L 204.798123 278.792532 
L 207.593014 283.192291 
L 210.387905 286.004851 
L 213.182796 283.385966 
L 215.977687 288.332964 
L 218.772578 283.333357 
L 221.567469 274.886287 
L 224.36236 287.730875 
L 227.157251 287.154519 
L 229.952142 284.163125 
L 232.747033 295.638103 
L 235.541924 298.135506 
L 238.336815 299.245927 
L 241.131706 295.547056 
L 243.926597 299.972675 
L 246.721489 300.815414 
L 249.51638 287.018813 
L 252.311271 304.627723 
L 255.106162 299.477194 
L 257.901053 305.788017 
L 260.695944 298.559408 
L 263.490835 306.927229 
L 266.285726 311.670237 
L 269.080617 308.88063 
L 271.875508 301.476332 
L 274.670399 308.169617 
L 277.46529 312.270988 
L 280.260181 312.278792 
L 283.055072 308.726097 
L 285.849963 313.899763 
L 288.644854 306.433204 
L 291.439745 302.279673 
L 294.234637 314.581016 
L 297.029528 317.227 
L 299.824419 306.712013 
L 302.61931 315.864012 
L 305.414201 316.98029 
L 308.209092 319.332561 
L 311.003983 322.813546 
L 313.798874 315.861862 
L 316.593765 306.760898 
L 319.388656 319.825891 
L 322.183547 297.564127 
L 324.978438 302.541655 
L 327.773329 325.037447 
L 330.56822 314.842001 
L 333.363111 320.151756 
L 336.158002 326.051589 
L 338.952894 325.721153 
L 341.747785 328.231611 
L 344.542676 328.822341 
" clip-path="url(#p365811b9f9)" style="fill: none; stroke: #1f77b4; stroke-width: 1.5; stroke-linecap: square"/>
   </g>
   <g id="line2d_13">
    <path d="M 67.848461 26.422341 
L 70.643352 34.368333 
L 73.438243 42.210677 
L 76.233134 49.838084 
L 79.028025 57.133935 
L 81.822916 64.519198 
L 84.617807 71.679353 
L 87.412698 78.906874 
L 90.207589 86.137534 
L 93.00248 93.326692 
L 95.797371 100.49388 
L 98.592262 107.567365 
L 101.387153 114.470515 
L 104.182045 121.495313 
L 106.976936 128.264052 
L 109.771827 134.873177 
L 112.566718 141.310039 
L 115.361609 147.638412 
L 118.1565 153.458636 
L 120.951391 159.314406 
L 123.746282 164.993469 
L 126.541173 170.286562 
L 129.336064 175.402061 
L 132.130955 180.301564 
L 134.925846 184.940564 
L 137.720737 189.402272 
L 140.515628 193.628114 
L 143.310519 197.621719 
L 146.10541 201.307686 
L 148.900301 205.085522 
L 151.695193 208.574325 
L 154.490084 211.840232 
L 157.284975 214.873326 
L 160.079866 217.930536 
L 162.874757 220.880986 
L 165.669648 223.597357 
L 168.464539 225.972009 
L 171.25943 228.63145 
L 174.054321 231.021815 
L 176.849212 233.268588 
L 179.644103 235.678427 
L 182.438994 237.6863 
L 185.233885 239.762247 
L 188.028776 241.782268 
L 190.823667 243.681198 
L 193.618558 245.690933 
L 196.413449 247.435287 
L 199.208341 249.069176 
L 202.003232 250.947629 
L 204.798123 252.422727 
L 207.593014 254.025382 
L 210.387905 255.64459 
L 213.182796 257.128536 
L 215.977687 258.596562 
L 218.772578 259.784602 
L 221.567469 261.046994 
L 224.36236 262.812156 
L 227.157251 263.969642 
L 229.952142 265.226022 
L 232.747033 266.565376 
L 235.541924 267.652886 
L 238.336815 269.052894 
L 241.131706 270.132936 
L 243.926597 271.32766 
L 246.721489 272.490497 
L 249.51638 273.260462 
L 252.311271 274.497821 
L 255.106162 275.705477 
L 257.901053 276.750381 
L 260.695944 277.607356 
L 263.490835 278.756901 
L 266.285726 279.826176 
L 269.080617 280.64045 
L 271.875508 281.733831 
L 274.670399 282.601367 
L 277.46529 283.470027 
L 280.260181 284.432051 
L 283.055072 285.138488 
L 285.849963 286.12182 
L 288.644854 286.9995 
L 291.439745 287.964539 
L 294.234637 288.838229 
L 297.029528 289.616532 
L 299.824419 290.506246 
L 302.61931 291.236336 
L 305.414201 291.975737 
L 308.209092 292.823855 
L 311.003983 293.551497 
L 313.798874 294.158638 
L 316.593765 295.049094 
L 319.388656 295.946814 
L 322.183547 296.682841 
L 324.978438 297.320849 
L 327.773329 298.258289 
L 330.56822 298.940009 
L 333.363111 299.694593 
L 336.158002 300.335829 
L 338.952894 300.879698 
L 341.747785 301.832533 
L 344.542676 302.435997 
" clip-path="url(#p365811b9f9)" style="fill: none; stroke: #ff7f0e; stroke-width: 1.5; stroke-linecap: square"/>
   </g>
   <g id="patch_3">
    <path d="M 54.01375 343.942341 
L 54.01375 11.302341 
" style="fill: none; stroke: #000000; stroke-width: 0.8; stroke-linejoin: miter; stroke-linecap: square"/>
   </g>
   <g id="patch_4">
    <path d="M 358.377386 343.942341 
L 358.377386 11.302341 
" style="fill: none; stroke: #000000; stroke-width: 0.8; stroke-linejoin: miter; stroke-linecap: square"/>
   </g>
   <g id="patch_5">
    <path d="M 54.01375 343.942341 
L 358.377386 343.942341 
" style="fill: none; stroke: #000000; stroke-width: 0.8; stroke-linejoin: miter; stroke-linecap: square"/>
   </g>
   <g id="patch_6">
    <path d="M 54.01375 11.302341 
L 358.377386 11.302341 
" style="fill: none; stroke: #000000; stroke-width: 0.8; stroke-linejoin: miter; stroke-linecap: square"/>
   </g>
   <g id="legend_1">
    <g id="patch_7">
     <path d="M 99.906761 63.601091 
L 348.577386 63.601091 
Q 351.377386 63.601091 351.377386 60.801091 
L 351.377386 21.102341 
Q 351.377386 18.302341 348.577386 18.302341 
L 99.906761 18.302341 
Q 97.106761 18.302341 97.106761 21.102341 
L 97.106761 60.801091 
Q 97.106761 63.601091 99.906761 63.601091 
z
" style="fill: #ffffff; opacity: 0.8; stroke: #cccccc; stroke-linejoin: miter"/>
    </g>
    <g id="line2d_14">
     <path d="M 102.706761 29.640153 
L 116.706761 29.640153 
L 130.706761 29.640153 
" style="fill: none; stroke: #1f77b4; stroke-width: 1.5; stroke-linecap: square"/>
    </g>
    <g id="text_14">
     <!-- Without data standardization -->
     <g transform="translate(141.906761 34.540153) scale(0.14 -0.14)">
      <defs>
       <path id="DejaVuSans-57" d="M 213 4666 
L 850 4666 
L 1831 722 
L 2809 4666 
L 3519 4666 
L 4500 722 
L 5478 4666 
L 6119 4666 
L 4947 0 
L 4153 0 
L 3169 4050 
L 2175 0 
L 1381 0 
L 213 4666 
z
" transform="scale(0.015625)"/>
       <path id="DejaVuSans-69" d="M 603 3500 
L 1178 3500 
L 1178 0 
L 603 0 
L 603 3500 
z
M 603 4863 
L 1178 4863 
L 1178 4134 
L 603 4134 
L 603 4863 
z
" transform="scale(0.015625)"/>
       <path id="DejaVuSans-74" d="M 1172 4494 
L 1172 3500 
L 2356 3500 
L 2356 3053 
L 1172 3053 
L 1172 1153 
Q 1172 725 1289 603 
Q 1406 481 1766 481 
L 2356 481 
L 2356 0 
L 1766 0 
Q 1100 0 847 248 
Q 594 497 594 1153 
L 594 3053 
L 172 3053 
L 172 3500 
L 594 3500 
L 594 4494 
L 1172 4494 
z
" transform="scale(0.015625)"/>
       <path id="DejaVuSans-75" d="M 544 1381 
L 544 3500 
L 1119 3500 
L 1119 1403 
Q 1119 906 1312 657 
Q 1506 409 1894 409 
Q 2359 409 2629 706 
Q 2900 1003 2900 1516 
L 2900 3500 
L 3475 3500 
L 3475 0 
L 2900 0 
L 2900 538 
Q 2691 219 2414 64 
Q 2138 -91 1772 -91 
Q 1169 -91 856 284 
Q 544 659 544 1381 
z
M 1991 3584 
L 1991 3584 
z
" transform="scale(0.015625)"/>
       <path id="DejaVuSans-20" transform="scale(0.015625)"/>
       <path id="DejaVuSans-64" d="M 2906 2969 
L 2906 4863 
L 3481 4863 
L 3481 0 
L 2906 0 
L 2906 525 
Q 2725 213 2448 61 
Q 2172 -91 1784 -91 
Q 1150 -91 751 415 
Q 353 922 353 1747 
Q 353 2572 751 3078 
Q 1150 3584 1784 3584 
Q 2172 3584 2448 3432 
Q 2725 3281 2906 2969 
z
M 947 1747 
Q 947 1113 1208 752 
Q 1469 391 1925 391 
Q 2381 391 2643 752 
Q 2906 1113 2906 1747 
Q 2906 2381 2643 2742 
Q 2381 3103 1925 3103 
Q 1469 3103 1208 2742 
Q 947 2381 947 1747 
z
" transform="scale(0.015625)"/>
       <path id="DejaVuSans-61" d="M 2194 1759 
Q 1497 1759 1228 1600 
Q 959 1441 959 1056 
Q 959 750 1161 570 
Q 1363 391 1709 391 
Q 2188 391 2477 730 
Q 2766 1069 2766 1631 
L 2766 1759 
L 2194 1759 
z
M 3341 1997 
L 3341 0 
L 2766 0 
L 2766 531 
Q 2569 213 2275 61 
Q 1981 -91 1556 -91 
Q 1019 -91 701 211 
Q 384 513 384 1019 
Q 384 1609 779 1909 
Q 1175 2209 1959 2209 
L 2766 2209 
L 2766 2266 
Q 2766 2663 2505 2880 
Q 2244 3097 1772 3097 
Q 1472 3097 1187 3025 
Q 903 2953 641 2809 
L 641 3341 
Q 956 3463 1253 3523 
Q 1550 3584 1831 3584 
Q 2591 3584 2966 3190 
Q 3341 2797 3341 1997 
z
" transform="scale(0.015625)"/>
       <path id="DejaVuSans-6e" d="M 3513 2113 
L 3513 0 
L 2938 0 
L 2938 2094 
Q 2938 2591 2744 2837 
Q 2550 3084 2163 3084 
Q 1697 3084 1428 2787 
Q 1159 2491 1159 1978 
L 1159 0 
L 581 0 
L 581 3500 
L 1159 3500 
L 1159 2956 
Q 1366 3272 1645 3428 
Q 1925 3584 2291 3584 
Q 2894 3584 3203 3211 
Q 3513 2838 3513 2113 
z
" transform="scale(0.015625)"/>
       <path id="DejaVuSans-72" d="M 2631 2963 
Q 2534 3019 2420 3045 
Q 2306 3072 2169 3072 
Q 1681 3072 1420 2755 
Q 1159 2438 1159 1844 
L 1159 0 
L 581 0 
L 581 3500 
L 1159 3500 
L 1159 2956 
Q 1341 3275 1631 3429 
Q 1922 3584 2338 3584 
Q 2397 3584 2469 3576 
Q 2541 3569 2628 3553 
L 2631 2963 
z
" transform="scale(0.015625)"/>
       <path id="DejaVuSans-7a" d="M 353 3500 
L 3084 3500 
L 3084 2975 
L 922 459 
L 3084 459 
L 3084 0 
L 275 0 
L 275 525 
L 2438 3041 
L 353 3041 
L 353 3500 
z
" transform="scale(0.015625)"/>
      </defs>
      <use xlink:href="#DejaVuSans-57"/>
      <use xlink:href="#DejaVuSans-69" x="96.626953"/>
      <use xlink:href="#DejaVuSans-74" x="124.410156"/>
      <use xlink:href="#DejaVuSans-68" x="163.619141"/>
      <use xlink:href="#DejaVuSans-6f" x="226.998047"/>
      <use xlink:href="#DejaVuSans-75" x="288.179688"/>
      <use xlink:href="#DejaVuSans-74" x="351.558594"/>
      <use xlink:href="#DejaVuSans-20" x="390.767578"/>
      <use xlink:href="#DejaVuSans-64" x="422.554688"/>
      <use xlink:href="#DejaVuSans-61" x="486.03125"/>
      <use xlink:href="#DejaVuSans-74" x="547.310547"/>
      <use xlink:href="#DejaVuSans-61" x="586.519531"/>
      <use xlink:href="#DejaVuSans-20" x="647.798828"/>
      <use xlink:href="#DejaVuSans-73" x="679.585938"/>
      <use xlink:href="#DejaVuSans-74" x="731.685547"/>
      <use xlink:href="#DejaVuSans-61" x="770.894531"/>
      <use xlink:href="#DejaVuSans-6e" x="832.173828"/>
      <use xlink:href="#DejaVuSans-64" x="895.552734"/>
      <use xlink:href="#DejaVuSans-61" x="959.029297"/>
      <use xlink:href="#DejaVuSans-72" x="1020.308594"/>
      <use xlink:href="#DejaVuSans-64" x="1059.671875"/>
      <use xlink:href="#DejaVuSans-69" x="1123.148438"/>
      <use xlink:href="#DejaVuSans-7a" x="1150.931641"/>
      <use xlink:href="#DejaVuSans-61" x="1203.421875"/>
      <use xlink:href="#DejaVuSans-74" x="1264.701172"/>
      <use xlink:href="#DejaVuSans-69" x="1303.910156"/>
      <use xlink:href="#DejaVuSans-6f" x="1331.693359"/>
      <use xlink:href="#DejaVuSans-6e" x="1392.875"/>
     </g>
    </g>
    <g id="line2d_15">
     <path d="M 102.706761 50.189528 
L 116.706761 50.189528 
L 130.706761 50.189528 
" style="fill: none; stroke: #ff7f0e; stroke-width: 1.5; stroke-linecap: square"/>
    </g>
    <g id="text_15">
     <!-- With data standardization -->
     <g transform="translate(141.906761 55.089528) scale(0.14 -0.14)">
      <use xlink:href="#DejaVuSans-57"/>
      <use xlink:href="#DejaVuSans-69" x="96.626953"/>
      <use xlink:href="#DejaVuSans-74" x="124.410156"/>
      <use xlink:href="#DejaVuSans-68" x="163.619141"/>
      <use xlink:href="#DejaVuSans-20" x="226.998047"/>
      <use xlink:href="#DejaVuSans-64" x="258.785156"/>
      <use xlink:href="#DejaVuSans-61" x="322.261719"/>
      <use xlink:href="#DejaVuSans-74" x="383.541016"/>
      <use xlink:href="#DejaVuSans-61" x="422.75"/>
      <use xlink:href="#DejaVuSans-20" x="484.029297"/>
      <use xlink:href="#DejaVuSans-73" x="515.816406"/>
      <use xlink:href="#DejaVuSans-74" x="567.916016"/>
      <use xlink:href="#DejaVuSans-61" x="607.125"/>
      <use xlink:href="#DejaVuSans-6e" x="668.404297"/>
      <use xlink:href="#DejaVuSans-64" x="731.783203"/>
      <use xlink:href="#DejaVuSans-61" x="795.259766"/>
      <use xlink:href="#DejaVuSans-72" x="856.539062"/>
      <use xlink:href="#DejaVuSans-64" x="895.902344"/>
      <use xlink:href="#DejaVuSans-69" x="959.378906"/>
      <use xlink:href="#DejaVuSans-7a" x="987.162109"/>
      <use xlink:href="#DejaVuSans-61" x="1039.652344"/>
      <use xlink:href="#DejaVuSans-74" x="1100.931641"/>
      <use xlink:href="#DejaVuSans-69" x="1140.140625"/>
      <use xlink:href="#DejaVuSans-6f" x="1167.923828"/>
      <use xlink:href="#DejaVuSans-6e" x="1229.105469"/>
     </g>
    </g>
   </g>
  </g>
  <g id="axes_2">
   <g id="patch_8">
    <path d="M 419.250114 343.942341 
L 723.61375 343.942341 
L 723.61375 11.302341 
L 419.250114 11.302341 
z
" style="fill: #ffffff"/>
   </g>
   <g id="matplotlib.axis_3">
    <g id="xtick_7">
     <g id="line2d_16">
      <g>
       <use xlink:href="#m3700bfc0c5" x="430.289933" y="343.942341" style="stroke: #000000; stroke-width: 0.8"/>
      </g>
     </g>
     <g id="text_16">
      <!-- 0 -->
      <g transform="translate(425.836183 361.580153) scale(0.14 -0.14)">
       <use xlink:href="#DejaVuSans-30"/>
      </g>
     </g>
    </g>
    <g id="xtick_8">
     <g id="line2d_17">
      <g>
       <use xlink:href="#m3700bfc0c5" x="486.187755" y="343.942341" style="stroke: #000000; stroke-width: 0.8"/>
      </g>
     </g>
     <g id="text_17">
      <!-- 20 -->
      <g transform="translate(477.280255 361.580153) scale(0.14 -0.14)">
       <use xlink:href="#DejaVuSans-32"/>
       <use xlink:href="#DejaVuSans-30" x="63.623047"/>
      </g>
     </g>
    </g>
    <g id="xtick_9">
     <g id="line2d_18">
      <g>
       <use xlink:href="#m3700bfc0c5" x="542.085576" y="343.942341" style="stroke: #000000; stroke-width: 0.8"/>
      </g>
     </g>
     <g id="text_18">
      <!-- 40 -->
      <g transform="translate(533.178076 361.580153) scale(0.14 -0.14)">
       <use xlink:href="#DejaVuSans-34"/>
       <use xlink:href="#DejaVuSans-30" x="63.623047"/>
      </g>
     </g>
    </g>
    <g id="xtick_10">
     <g id="line2d_19">
      <g>
       <use xlink:href="#m3700bfc0c5" x="597.983397" y="343.942341" style="stroke: #000000; stroke-width: 0.8"/>
      </g>
     </g>
     <g id="text_19">
      <!-- 60 -->
      <g transform="translate(589.075897 361.580153) scale(0.14 -0.14)">
       <use xlink:href="#DejaVuSans-36"/>
       <use xlink:href="#DejaVuSans-30" x="63.623047"/>
      </g>
     </g>
    </g>
    <g id="xtick_11">
     <g id="line2d_20">
      <g>
       <use xlink:href="#m3700bfc0c5" x="653.881218" y="343.942341" style="stroke: #000000; stroke-width: 0.8"/>
      </g>
     </g>
     <g id="text_20">
      <!-- 80 -->
      <g transform="translate(644.973718 361.580153) scale(0.14 -0.14)">
       <use xlink:href="#DejaVuSans-38"/>
       <use xlink:href="#DejaVuSans-30" x="63.623047"/>
      </g>
     </g>
    </g>
    <g id="xtick_12">
     <g id="line2d_21">
      <g>
       <use xlink:href="#m3700bfc0c5" x="709.779039" y="343.942341" style="stroke: #000000; stroke-width: 0.8"/>
      </g>
     </g>
     <g id="text_21">
      <!-- 100 -->
      <g transform="translate(696.417789 361.580153) scale(0.14 -0.14)">
       <use xlink:href="#DejaVuSans-31"/>
       <use xlink:href="#DejaVuSans-30" x="63.623047"/>
       <use xlink:href="#DejaVuSans-30" x="127.246094"/>
      </g>
     </g>
    </g>
    <g id="text_22">
     <!-- Epochs -->
     <g transform="translate(546.350057 379.129528) scale(0.14 -0.14)">
      <use xlink:href="#DejaVuSans-45"/>
      <use xlink:href="#DejaVuSans-70" x="63.183594"/>
      <use xlink:href="#DejaVuSans-6f" x="126.660156"/>
      <use xlink:href="#DejaVuSans-63" x="187.841797"/>
      <use xlink:href="#DejaVuSans-68" x="242.822266"/>
      <use xlink:href="#DejaVuSans-73" x="306.201172"/>
     </g>
    </g>
   </g>
   <g id="matplotlib.axis_4">
    <g id="ytick_6">
     <g id="line2d_22">
      <g>
       <use xlink:href="#ma14677b803" x="419.250114" y="325.346485" style="stroke: #000000; stroke-width: 0.8"/>
      </g>
     </g>
     <g id="text_23">
      <!-- 0.4 -->
      <g transform="translate(389.985739 330.665392) scale(0.14 -0.14)">
       <use xlink:href="#DejaVuSans-30"/>
       <use xlink:href="#DejaVuSans-2e" x="63.623047"/>
       <use xlink:href="#DejaVuSans-34" x="95.410156"/>
      </g>
     </g>
    </g>
    <g id="ytick_7">
     <g id="line2d_23">
      <g>
       <use xlink:href="#ma14677b803" x="419.250114" y="273.208556" style="stroke: #000000; stroke-width: 0.8"/>
      </g>
     </g>
     <g id="text_24">
      <!-- 0.5 -->
      <g transform="translate(389.985739 278.527462) scale(0.14 -0.14)">
       <defs>
        <path id="DejaVuSans-35" d="M 691 4666 
L 3169 4666 
L 3169 4134 
L 1269 4134 
L 1269 2991 
Q 1406 3038 1543 3061 
Q 1681 3084 1819 3084 
Q 2600 3084 3056 2656 
Q 3513 2228 3513 1497 
Q 3513 744 3044 326 
Q 2575 -91 1722 -91 
Q 1428 -91 1123 -41 
Q 819 9 494 109 
L 494 744 
Q 775 591 1075 516 
Q 1375 441 1709 441 
Q 2250 441 2565 725 
Q 2881 1009 2881 1497 
Q 2881 1984 2565 2268 
Q 2250 2553 1709 2553 
Q 1456 2553 1204 2497 
Q 953 2441 691 2322 
L 691 4666 
z
" transform="scale(0.015625)"/>
       </defs>
       <use xlink:href="#DejaVuSans-30"/>
       <use xlink:href="#DejaVuSans-2e" x="63.623047"/>
       <use xlink:href="#DejaVuSans-35" x="95.410156"/>
      </g>
     </g>
    </g>
    <g id="ytick_8">
     <g id="line2d_24">
      <g>
       <use xlink:href="#ma14677b803" x="419.250114" y="221.070626" style="stroke: #000000; stroke-width: 0.8"/>
      </g>
     </g>
     <g id="text_25">
      <!-- 0.6 -->
      <g transform="translate(389.985739 226.389532) scale(0.14 -0.14)">
       <use xlink:href="#DejaVuSans-30"/>
       <use xlink:href="#DejaVuSans-2e" x="63.623047"/>
       <use xlink:href="#DejaVuSans-36" x="95.410156"/>
      </g>
     </g>
    </g>
    <g id="ytick_9">
     <g id="line2d_25">
      <g>
       <use xlink:href="#ma14677b803" x="419.250114" y="168.932696" style="stroke: #000000; stroke-width: 0.8"/>
      </g>
     </g>
     <g id="text_26">
      <!-- 0.7 -->
      <g transform="translate(389.985739 174.251602) scale(0.14 -0.14)">
       <defs>
        <path id="DejaVuSans-37" d="M 525 4666 
L 3525 4666 
L 3525 4397 
L 1831 0 
L 1172 0 
L 2766 4134 
L 525 4134 
L 525 4666 
z
" transform="scale(0.015625)"/>
       </defs>
       <use xlink:href="#DejaVuSans-30"/>
       <use xlink:href="#DejaVuSans-2e" x="63.623047"/>
       <use xlink:href="#DejaVuSans-37" x="95.410156"/>
      </g>
     </g>
    </g>
    <g id="ytick_10">
     <g id="line2d_26">
      <g>
       <use xlink:href="#ma14677b803" x="419.250114" y="116.794766" style="stroke: #000000; stroke-width: 0.8"/>
      </g>
     </g>
     <g id="text_27">
      <!-- 0.8 -->
      <g transform="translate(389.985739 122.113672) scale(0.14 -0.14)">
       <use xlink:href="#DejaVuSans-30"/>
       <use xlink:href="#DejaVuSans-2e" x="63.623047"/>
       <use xlink:href="#DejaVuSans-38" x="95.410156"/>
      </g>
     </g>
    </g>
    <g id="ytick_11">
     <g id="line2d_27">
      <g>
       <use xlink:href="#ma14677b803" x="419.250114" y="64.656836" style="stroke: #000000; stroke-width: 0.8"/>
      </g>
     </g>
     <g id="text_28">
      <!-- 0.9 -->
      <g transform="translate(389.985739 69.975742) scale(0.14 -0.14)">
       <defs>
        <path id="DejaVuSans-39" d="M 703 97 
L 703 672 
Q 941 559 1184 500 
Q 1428 441 1663 441 
Q 2288 441 2617 861 
Q 2947 1281 2994 2138 
Q 2813 1869 2534 1725 
Q 2256 1581 1919 1581 
Q 1219 1581 811 2004 
Q 403 2428 403 3163 
Q 403 3881 828 4315 
Q 1253 4750 1959 4750 
Q 2769 4750 3195 4129 
Q 3622 3509 3622 2328 
Q 3622 1225 3098 567 
Q 2575 -91 1691 -91 
Q 1453 -91 1209 -44 
Q 966 3 703 97 
z
M 1959 2075 
Q 2384 2075 2632 2365 
Q 2881 2656 2881 3163 
Q 2881 3666 2632 3958 
Q 2384 4250 1959 4250 
Q 1534 4250 1286 3958 
Q 1038 3666 1038 3163 
Q 1038 2656 1286 2365 
Q 1534 2075 1959 2075 
z
" transform="scale(0.015625)"/>
       </defs>
       <use xlink:href="#DejaVuSans-30"/>
       <use xlink:href="#DejaVuSans-2e" x="63.623047"/>
       <use xlink:href="#DejaVuSans-39" x="95.410156"/>
      </g>
     </g>
    </g>
    <g id="ytick_12">
     <g id="line2d_28">
      <g>
       <use xlink:href="#ma14677b803" x="419.250114" y="12.518906" style="stroke: #000000; stroke-width: 0.8"/>
      </g>
     </g>
     <g id="text_29">
      <!-- 1.0 -->
      <g transform="translate(389.985739 17.837812) scale(0.14 -0.14)">
       <use xlink:href="#DejaVuSans-31"/>
       <use xlink:href="#DejaVuSans-2e" x="63.623047"/>
       <use xlink:href="#DejaVuSans-30" x="95.410156"/>
      </g>
     </g>
    </g>
    <g id="text_30">
     <!-- Accuracy -->
     <g transform="translate(383.074176 209.581716) rotate(-90) scale(0.14 -0.14)">
      <defs>
       <path id="DejaVuSans-41" d="M 2188 4044 
L 1331 1722 
L 3047 1722 
L 2188 4044 
z
M 1831 4666 
L 2547 4666 
L 4325 0 
L 3669 0 
L 3244 1197 
L 1141 1197 
L 716 0 
L 50 0 
L 1831 4666 
z
" transform="scale(0.015625)"/>
       <path id="DejaVuSans-79" d="M 2059 -325 
Q 1816 -950 1584 -1140 
Q 1353 -1331 966 -1331 
L 506 -1331 
L 506 -850 
L 844 -850 
Q 1081 -850 1212 -737 
Q 1344 -625 1503 -206 
L 1606 56 
L 191 3500 
L 800 3500 
L 1894 763 
L 2988 3500 
L 3597 3500 
L 2059 -325 
z
" transform="scale(0.015625)"/>
      </defs>
      <use xlink:href="#DejaVuSans-41"/>
      <use xlink:href="#DejaVuSans-63" x="66.658203"/>
      <use xlink:href="#DejaVuSans-63" x="121.638672"/>
      <use xlink:href="#DejaVuSans-75" x="176.619141"/>
      <use xlink:href="#DejaVuSans-72" x="239.998047"/>
      <use xlink:href="#DejaVuSans-61" x="281.111328"/>
      <use xlink:href="#DejaVuSans-63" x="342.390625"/>
      <use xlink:href="#DejaVuSans-79" x="397.371094"/>
     </g>
    </g>
   </g>
   <g id="line2d_29">
    <path d="M 433.084824 248.877514 
L 435.879715 210.643037 
L 438.674606 179.360278 
L 441.469498 158.505095 
L 444.264389 186.311995 
L 447.05928 179.360278 
L 449.854171 165.456843 
L 452.649062 88.987859 
L 455.443953 182.836137 
L 458.238844 106.367184 
L 461.033735 130.698226 
L 463.828626 182.836137 
L 466.623517 144.60166 
L 469.418408 116.79476 
L 472.213299 120.270618 
L 475.00819 148.077519 
L 477.803081 75.084425 
L 480.597972 71.608566 
L 483.392863 141.125802 
L 486.187755 109.843042 
L 488.982646 75.084425 
L 491.777537 71.608566 
L 494.572428 78.560283 
L 497.367319 68.132707 
L 500.16221 64.656849 
L 502.957101 61.180959 
L 505.751992 71.608566 
L 508.546883 68.132707 
L 511.341774 43.801665 
L 514.136665 92.463718 
L 516.931556 43.801665 
L 519.726447 54.229241 
L 522.521338 50.753383 
L 525.316229 43.801665 
L 528.11112 36.849948 
L 530.906011 47.277524 
L 533.700903 54.229241 
L 536.495794 40.325807 
L 539.290685 47.277524 
L 542.085576 50.753383 
L 544.880467 47.277524 
L 547.675358 47.277524 
L 550.470249 64.656849 
L 553.26514 43.801665 
L 556.060031 43.801665 
L 558.854922 29.898231 
L 561.649813 36.849948 
L 564.444704 78.560283 
L 567.239595 36.849948 
L 570.034486 43.801665 
L 572.829377 43.801665 
L 575.624268 33.374089 
L 578.419159 43.801665 
L 581.214051 40.325807 
L 584.008942 54.229241 
L 586.803833 78.560283 
L 589.598724 43.801665 
L 592.393615 40.325807 
L 595.188506 57.7051 
L 597.983397 36.849948 
L 600.778288 40.325807 
L 603.573179 29.898231 
L 606.36807 47.277524 
L 609.162961 36.849948 
L 611.957852 36.849948 
L 614.752743 68.132707 
L 617.547634 29.898231 
L 620.342525 36.849948 
L 623.137416 26.422341 
L 625.932307 43.801665 
L 628.727199 36.849948 
L 631.52209 29.898231 
L 634.316981 36.849948 
L 637.111872 36.849948 
L 639.906763 43.801665 
L 642.701654 36.849948 
L 645.496545 33.374089 
L 648.291436 36.849948 
L 651.086327 33.374089 
L 653.881218 40.325807 
L 656.676109 68.132707 
L 659.471 36.849948 
L 662.265891 36.849948 
L 665.060782 50.753383 
L 667.855673 47.277524 
L 670.650564 36.849948 
L 673.445455 33.374089 
L 676.240347 33.374089 
L 679.035238 43.801665 
L 681.830129 54.229241 
L 684.62502 29.898231 
L 687.419911 71.608566 
L 690.214802 57.7051 
L 693.009693 29.898231 
L 695.804584 43.801665 
L 698.599475 50.753383 
L 701.394366 26.422341 
L 704.189257 33.374089 
L 706.984148 26.422341 
L 709.779039 33.374089 
" clip-path="url(#p03a4141aca)" style="fill: none; stroke: #1f77b4; stroke-width: 1.5; stroke-linecap: square"/>
   </g>
   <g id="line2d_30">
    <path d="M 433.084824 328.822341 
L 435.879715 276.684414 
L 438.674606 231.49822 
L 441.469498 165.456843 
L 444.264389 141.125802 
L 447.05928 141.125802 
L 449.854171 127.222367 
L 452.649062 120.270618 
L 455.443953 109.843042 
L 458.238844 106.367184 
L 461.033735 109.843042 
L 463.828626 106.367184 
L 466.623517 106.367184 
L 469.418408 102.891325 
L 472.213299 102.891325 
L 475.00819 99.415466 
L 477.803081 95.939608 
L 480.597972 95.939608 
L 483.392863 95.939608 
L 486.187755 95.939608 
L 488.982646 95.939608 
L 491.777537 95.939608 
L 494.572428 95.939608 
L 497.367319 95.939608 
L 500.16221 92.463718 
L 502.957101 92.463718 
L 505.751992 92.463718 
L 508.546883 92.463718 
L 511.341774 92.463718 
L 514.136665 92.463718 
L 516.931556 92.463718 
L 519.726447 92.463718 
L 522.521338 92.463718 
L 525.316229 92.463718 
L 528.11112 92.463718 
L 530.906011 92.463718 
L 533.700903 92.463718 
L 536.495794 92.463718 
L 539.290685 88.987859 
L 542.085576 88.987859 
L 544.880467 88.987859 
L 547.675358 88.987859 
L 550.470249 88.987859 
L 553.26514 88.987859 
L 556.060031 88.987859 
L 558.854922 82.036142 
L 561.649813 82.036142 
L 564.444704 82.036142 
L 567.239595 82.036142 
L 570.034486 71.608566 
L 572.829377 75.084425 
L 575.624268 75.084425 
L 578.419159 75.084425 
L 581.214051 71.608566 
L 584.008942 75.084425 
L 586.803833 71.608566 
L 589.598724 71.608566 
L 592.393615 71.608566 
L 595.188506 71.608566 
L 597.983397 71.608566 
L 600.778288 71.608566 
L 603.573179 68.132707 
L 606.36807 68.132707 
L 609.162961 64.656849 
L 611.957852 64.656849 
L 614.752743 68.132707 
L 617.547634 64.656849 
L 620.342525 68.132707 
L 623.137416 64.656849 
L 625.932307 64.656849 
L 628.727199 64.656849 
L 631.52209 64.656849 
L 634.316981 64.656849 
L 637.111872 64.656849 
L 639.906763 64.656849 
L 642.701654 61.180959 
L 645.496545 64.656849 
L 648.291436 64.656849 
L 651.086327 64.656849 
L 653.881218 57.7051 
L 656.676109 64.656849 
L 659.471 61.180959 
L 662.265891 57.7051 
L 665.060782 47.277524 
L 667.855673 50.753383 
L 670.650564 50.753383 
L 673.445455 54.229241 
L 676.240347 50.753383 
L 679.035238 54.229241 
L 681.830129 50.753383 
L 684.62502 43.801665 
L 687.419911 43.801665 
L 690.214802 47.277524 
L 693.009693 47.277524 
L 695.804584 47.277524 
L 698.599475 43.801665 
L 701.394366 47.277524 
L 704.189257 43.801665 
L 706.984148 43.801665 
L 709.779039 47.277524 
" clip-path="url(#p03a4141aca)" style="fill: none; stroke: #ff7f0e; stroke-width: 1.5; stroke-linecap: square"/>
   </g>
   <g id="patch_9">
    <path d="M 419.250114 343.942341 
L 419.250114 11.302341 
" style="fill: none; stroke: #000000; stroke-width: 0.8; stroke-linejoin: miter; stroke-linecap: square"/>
   </g>
   <g id="patch_10">
    <path d="M 723.61375 343.942341 
L 723.61375 11.302341 
" style="fill: none; stroke: #000000; stroke-width: 0.8; stroke-linejoin: miter; stroke-linecap: square"/>
   </g>
   <g id="patch_11">
    <path d="M 419.250114 343.942341 
L 723.61375 343.942341 
" style="fill: none; stroke: #000000; stroke-width: 0.8; stroke-linejoin: miter; stroke-linecap: square"/>
   </g>
   <g id="patch_12">
    <path d="M 419.250114 11.302341 
L 723.61375 11.302341 
" style="fill: none; stroke: #000000; stroke-width: 0.8; stroke-linejoin: miter; stroke-linecap: square"/>
   </g>
  </g>
 </g>
 <defs>
  <clipPath id="p365811b9f9">
   <rect x="54.01375" y="11.302341" width="304.363636" height="332.64"/>
  </clipPath>
  <clipPath id="p03a4141aca">
   <rect x="419.250114" y="11.302341" width="304.363636" height="332.64"/>
  </clipPath>
 </defs>
</svg>
