<?xml version="1.0" encoding="utf-8" standalone="no"?>
<!DOCTYPE svg PUBLIC "-//W3C//DTD SVG 1.1//EN"
  "http://www.w3.org/Graphics/SVG/1.1/DTD/svg11.dtd">
<svg xmlns:xlink="http://www.w3.org/1999/xlink" width="365.577386pt" height="385.13875pt" viewBox="0 0 365.577386 385.13875" xmlns="http://www.w3.org/2000/svg" version="1.1">
 <metadata>
  <rdf:RDF xmlns:dc="http://purl.org/dc/elements/1.1/" xmlns:cc="http://creativecommons.org/ns#" xmlns:rdf="http://www.w3.org/1999/02/22-rdf-syntax-ns#">
   <cc:Work>
    <dc:type rdf:resource="http://purl.org/dc/dcmitype/StillImage"/>
    <dc:date>2022-10-23T20:00:14.262840</dc:date>
    <dc:format>image/svg+xml</dc:format>
    <dc:creator>
     <cc:Agent>
      <dc:title>Matplotlib v3.6.1, https://matplotlib.org/</dc:title>
     </cc:Agent>
    </dc:creator>
   </cc:Work>
  </rdf:RDF>
 </metadata>
 <defs>
  <style type="text/css">*{stroke-linejoin: round; stroke-linecap: butt}</style>
 </defs>
 <g id="figure_1">
  <g id="patch_1">
   <path d="M 0 385.13875 
L 365.577386 385.13875 
L 365.577386 0 
L 0 0 
z
" style="fill: #ffffff"/>
  </g>
  <g id="axes_1">
   <g id="patch_2">
    <path d="M 54.01375 339.84 
L 358.377386 339.84 
L 358.377386 7.2 
L 54.01375 7.2 
z
" style="fill: #ffffff"/>
   </g>
   <g id="matplotlib.axis_1">
    <g id="xtick_1">
     <g id="line2d_1">
      <defs>
       <path id="m91c73e6407" d="M 0 0 
L 0 3.5 
" style="stroke: #000000; stroke-width: 0.8"/>
      </defs>
      <g>
       <use xlink:href="#m91c73e6407" x="65.05357" y="339.84" style="stroke: #000000; stroke-width: 0.8"/>
      </g>
     </g>
     <g id="text_1">
      <!-- 0 -->
      <g transform="translate(60.59982 357.477813) scale(0.14 -0.14)">
       <defs>
        <path id="DejaVuSans-30" d="M 2034 4250 
Q 1547 4250 1301 3770 
Q 1056 3291 1056 2328 
Q 1056 1369 1301 889 
Q 1547 409 2034 409 
Q 2525 409 2770 889 
Q 3016 1369 3016 2328 
Q 3016 3291 2770 3770 
Q 2525 4250 2034 4250 
z
M 2034 4750 
Q 2819 4750 3233 4129 
Q 3647 3509 3647 2328 
Q 3647 1150 3233 529 
Q 2819 -91 2034 -91 
Q 1250 -91 836 529 
Q 422 1150 422 2328 
Q 422 3509 836 4129 
Q 1250 4750 2034 4750 
z
" transform="scale(0.015625)"/>
       </defs>
       <use xlink:href="#DejaVuSans-30"/>
      </g>
     </g>
    </g>
    <g id="xtick_2">
     <g id="line2d_2">
      <g>
       <use xlink:href="#m91c73e6407" x="120.951391" y="339.84" style="stroke: #000000; stroke-width: 0.8"/>
      </g>
     </g>
     <g id="text_2">
      <!-- 20 -->
      <g transform="translate(112.043891 357.477813) scale(0.14 -0.14)">
       <defs>
        <path id="DejaVuSans-32" d="M 1228 531 
L 3431 531 
L 3431 0 
L 469 0 
L 469 531 
Q 828 903 1448 1529 
Q 2069 2156 2228 2338 
Q 2531 2678 2651 2914 
Q 2772 3150 2772 3378 
Q 2772 3750 2511 3984 
Q 2250 4219 1831 4219 
Q 1534 4219 1204 4116 
Q 875 4013 500 3803 
L 500 4441 
Q 881 4594 1212 4672 
Q 1544 4750 1819 4750 
Q 2544 4750 2975 4387 
Q 3406 4025 3406 3419 
Q 3406 3131 3298 2873 
Q 3191 2616 2906 2266 
Q 2828 2175 2409 1742 
Q 1991 1309 1228 531 
z
" transform="scale(0.015625)"/>
       </defs>
       <use xlink:href="#DejaVuSans-32"/>
       <use xlink:href="#DejaVuSans-30" x="63.623047"/>
      </g>
     </g>
    </g>
    <g id="xtick_3">
     <g id="line2d_3">
      <g>
       <use xlink:href="#m91c73e6407" x="176.849212" y="339.84" style="stroke: #000000; stroke-width: 0.8"/>
      </g>
     </g>
     <g id="text_3">
      <!-- 40 -->
      <g transform="translate(167.941712 357.477813) scale(0.14 -0.14)">
       <defs>
        <path id="DejaVuSans-34" d="M 2419 4116 
L 825 1625 
L 2419 1625 
L 2419 4116 
z
M 2253 4666 
L 3047 4666 
L 3047 1625 
L 3713 1625 
L 3713 1100 
L 3047 1100 
L 3047 0 
L 2419 0 
L 2419 1100 
L 313 1100 
L 313 1709 
L 2253 4666 
z
" transform="scale(0.015625)"/>
       </defs>
       <use xlink:href="#DejaVuSans-34"/>
       <use xlink:href="#DejaVuSans-30" x="63.623047"/>
      </g>
     </g>
    </g>
    <g id="xtick_4">
     <g id="line2d_4">
      <g>
       <use xlink:href="#m91c73e6407" x="232.747033" y="339.84" style="stroke: #000000; stroke-width: 0.8"/>
      </g>
     </g>
     <g id="text_4">
      <!-- 60 -->
      <g transform="translate(223.839533 357.477813) scale(0.14 -0.14)">
       <defs>
        <path id="DejaVuSans-36" d="M 2113 2584 
Q 1688 2584 1439 2293 
Q 1191 2003 1191 1497 
Q 1191 994 1439 701 
Q 1688 409 2113 409 
Q 2538 409 2786 701 
Q 3034 994 3034 1497 
Q 3034 2003 2786 2293 
Q 2538 2584 2113 2584 
z
M 3366 4563 
L 3366 3988 
Q 3128 4100 2886 4159 
Q 2644 4219 2406 4219 
Q 1781 4219 1451 3797 
Q 1122 3375 1075 2522 
Q 1259 2794 1537 2939 
Q 1816 3084 2150 3084 
Q 2853 3084 3261 2657 
Q 3669 2231 3669 1497 
Q 3669 778 3244 343 
Q 2819 -91 2113 -91 
Q 1303 -91 875 529 
Q 447 1150 447 2328 
Q 447 3434 972 4092 
Q 1497 4750 2381 4750 
Q 2619 4750 2861 4703 
Q 3103 4656 3366 4563 
z
" transform="scale(0.015625)"/>
       </defs>
       <use xlink:href="#DejaVuSans-36"/>
       <use xlink:href="#DejaVuSans-30" x="63.623047"/>
      </g>
     </g>
    </g>
    <g id="xtick_5">
     <g id="line2d_5">
      <g>
       <use xlink:href="#m91c73e6407" x="288.644854" y="339.84" style="stroke: #000000; stroke-width: 0.8"/>
      </g>
     </g>
     <g id="text_5">
      <!-- 80 -->
      <g transform="translate(279.737354 357.477813) scale(0.14 -0.14)">
       <defs>
        <path id="DejaVuSans-38" d="M 2034 2216 
Q 1584 2216 1326 1975 
Q 1069 1734 1069 1313 
Q 1069 891 1326 650 
Q 1584 409 2034 409 
Q 2484 409 2743 651 
Q 3003 894 3003 1313 
Q 3003 1734 2745 1975 
Q 2488 2216 2034 2216 
z
M 1403 2484 
Q 997 2584 770 2862 
Q 544 3141 544 3541 
Q 544 4100 942 4425 
Q 1341 4750 2034 4750 
Q 2731 4750 3128 4425 
Q 3525 4100 3525 3541 
Q 3525 3141 3298 2862 
Q 3072 2584 2669 2484 
Q 3125 2378 3379 2068 
Q 3634 1759 3634 1313 
Q 3634 634 3220 271 
Q 2806 -91 2034 -91 
Q 1263 -91 848 271 
Q 434 634 434 1313 
Q 434 1759 690 2068 
Q 947 2378 1403 2484 
z
M 1172 3481 
Q 1172 3119 1398 2916 
Q 1625 2713 2034 2713 
Q 2441 2713 2670 2916 
Q 2900 3119 2900 3481 
Q 2900 3844 2670 4047 
Q 2441 4250 2034 4250 
Q 1625 4250 1398 4047 
Q 1172 3844 1172 3481 
z
" transform="scale(0.015625)"/>
       </defs>
       <use xlink:href="#DejaVuSans-38"/>
       <use xlink:href="#DejaVuSans-30" x="63.623047"/>
      </g>
     </g>
    </g>
    <g id="xtick_6">
     <g id="line2d_6">
      <g>
       <use xlink:href="#m91c73e6407" x="344.542676" y="339.84" style="stroke: #000000; stroke-width: 0.8"/>
      </g>
     </g>
     <g id="text_6">
      <!-- 100 -->
      <g transform="translate(331.181426 357.477813) scale(0.14 -0.14)">
       <defs>
        <path id="DejaVuSans-31" d="M 794 531 
L 1825 531 
L 1825 4091 
L 703 3866 
L 703 4441 
L 1819 4666 
L 2450 4666 
L 2450 531 
L 3481 531 
L 3481 0 
L 794 0 
L 794 531 
z
" transform="scale(0.015625)"/>
       </defs>
       <use xlink:href="#DejaVuSans-31"/>
       <use xlink:href="#DejaVuSans-30" x="63.623047"/>
       <use xlink:href="#DejaVuSans-30" x="127.246094"/>
      </g>
     </g>
    </g>
    <g id="text_7">
     <!-- Epochs -->
     <g transform="translate(181.113693 375.027188) scale(0.14 -0.14)">
      <defs>
       <path id="DejaVuSans-45" d="M 628 4666 
L 3578 4666 
L 3578 4134 
L 1259 4134 
L 1259 2753 
L 3481 2753 
L 3481 2222 
L 1259 2222 
L 1259 531 
L 3634 531 
L 3634 0 
L 628 0 
L 628 4666 
z
" transform="scale(0.015625)"/>
       <path id="DejaVuSans-70" d="M 1159 525 
L 1159 -1331 
L 581 -1331 
L 581 3500 
L 1159 3500 
L 1159 2969 
Q 1341 3281 1617 3432 
Q 1894 3584 2278 3584 
Q 2916 3584 3314 3078 
Q 3713 2572 3713 1747 
Q 3713 922 3314 415 
Q 2916 -91 2278 -91 
Q 1894 -91 1617 61 
Q 1341 213 1159 525 
z
M 3116 1747 
Q 3116 2381 2855 2742 
Q 2594 3103 2138 3103 
Q 1681 3103 1420 2742 
Q 1159 2381 1159 1747 
Q 1159 1113 1420 752 
Q 1681 391 2138 391 
Q 2594 391 2855 752 
Q 3116 1113 3116 1747 
z
" transform="scale(0.015625)"/>
       <path id="DejaVuSans-6f" d="M 1959 3097 
Q 1497 3097 1228 2736 
Q 959 2375 959 1747 
Q 959 1119 1226 758 
Q 1494 397 1959 397 
Q 2419 397 2687 759 
Q 2956 1122 2956 1747 
Q 2956 2369 2687 2733 
Q 2419 3097 1959 3097 
z
M 1959 3584 
Q 2709 3584 3137 3096 
Q 3566 2609 3566 1747 
Q 3566 888 3137 398 
Q 2709 -91 1959 -91 
Q 1206 -91 779 398 
Q 353 888 353 1747 
Q 353 2609 779 3096 
Q 1206 3584 1959 3584 
z
" transform="scale(0.015625)"/>
       <path id="DejaVuSans-63" d="M 3122 3366 
L 3122 2828 
Q 2878 2963 2633 3030 
Q 2388 3097 2138 3097 
Q 1578 3097 1268 2742 
Q 959 2388 959 1747 
Q 959 1106 1268 751 
Q 1578 397 2138 397 
Q 2388 397 2633 464 
Q 2878 531 3122 666 
L 3122 134 
Q 2881 22 2623 -34 
Q 2366 -91 2075 -91 
Q 1284 -91 818 406 
Q 353 903 353 1747 
Q 353 2603 823 3093 
Q 1294 3584 2113 3584 
Q 2378 3584 2631 3529 
Q 2884 3475 3122 3366 
z
" transform="scale(0.015625)"/>
       <path id="DejaVuSans-68" d="M 3513 2113 
L 3513 0 
L 2938 0 
L 2938 2094 
Q 2938 2591 2744 2837 
Q 2550 3084 2163 3084 
Q 1697 3084 1428 2787 
Q 1159 2491 1159 1978 
L 1159 0 
L 581 0 
L 581 4863 
L 1159 4863 
L 1159 2956 
Q 1366 3272 1645 3428 
Q 1925 3584 2291 3584 
Q 2894 3584 3203 3211 
Q 3513 2838 3513 2113 
z
" transform="scale(0.015625)"/>
       <path id="DejaVuSans-73" d="M 2834 3397 
L 2834 2853 
Q 2591 2978 2328 3040 
Q 2066 3103 1784 3103 
Q 1356 3103 1142 2972 
Q 928 2841 928 2578 
Q 928 2378 1081 2264 
Q 1234 2150 1697 2047 
L 1894 2003 
Q 2506 1872 2764 1633 
Q 3022 1394 3022 966 
Q 3022 478 2636 193 
Q 2250 -91 1575 -91 
Q 1294 -91 989 -36 
Q 684 19 347 128 
L 347 722 
Q 666 556 975 473 
Q 1284 391 1588 391 
Q 1994 391 2212 530 
Q 2431 669 2431 922 
Q 2431 1156 2273 1281 
Q 2116 1406 1581 1522 
L 1381 1569 
Q 847 1681 609 1914 
Q 372 2147 372 2553 
Q 372 3047 722 3315 
Q 1072 3584 1716 3584 
Q 2034 3584 2315 3537 
Q 2597 3491 2834 3397 
z
" transform="scale(0.015625)"/>
      </defs>
      <use xlink:href="#DejaVuSans-45"/>
      <use xlink:href="#DejaVuSans-70" x="63.183594"/>
      <use xlink:href="#DejaVuSans-6f" x="126.660156"/>
      <use xlink:href="#DejaVuSans-63" x="187.841797"/>
      <use xlink:href="#DejaVuSans-68" x="242.822266"/>
      <use xlink:href="#DejaVuSans-73" x="306.201172"/>
     </g>
    </g>
   </g>
   <g id="matplotlib.axis_2">
    <g id="ytick_1">
     <g id="line2d_7">
      <defs>
       <path id="m513b71fd4f" d="M 0 0 
L -3.5 0 
" style="stroke: #000000; stroke-width: 0.8"/>
      </defs>
      <g>
       <use xlink:href="#m513b71fd4f" x="54.01375" y="303.587319" style="stroke: #000000; stroke-width: 0.8"/>
      </g>
     </g>
     <g id="text_8">
      <!-- 0.2 -->
      <g transform="translate(24.749375 308.906226) scale(0.14 -0.14)">
       <defs>
        <path id="DejaVuSans-2e" d="M 684 794 
L 1344 794 
L 1344 0 
L 684 0 
L 684 794 
z
" transform="scale(0.015625)"/>
       </defs>
       <use xlink:href="#DejaVuSans-30"/>
       <use xlink:href="#DejaVuSans-2e" x="63.623047"/>
       <use xlink:href="#DejaVuSans-32" x="95.410156"/>
      </g>
     </g>
    </g>
    <g id="ytick_2">
     <g id="line2d_8">
      <g>
       <use xlink:href="#m513b71fd4f" x="54.01375" y="240.145468" style="stroke: #000000; stroke-width: 0.8"/>
      </g>
     </g>
     <g id="text_9">
      <!-- 0.4 -->
      <g transform="translate(24.749375 245.464374) scale(0.14 -0.14)">
       <use xlink:href="#DejaVuSans-30"/>
       <use xlink:href="#DejaVuSans-2e" x="63.623047"/>
       <use xlink:href="#DejaVuSans-34" x="95.410156"/>
      </g>
     </g>
    </g>
    <g id="ytick_3">
     <g id="line2d_9">
      <g>
       <use xlink:href="#m513b71fd4f" x="54.01375" y="176.703616" style="stroke: #000000; stroke-width: 0.8"/>
      </g>
     </g>
     <g id="text_10">
      <!-- 0.6 -->
      <g transform="translate(24.749375 182.022523) scale(0.14 -0.14)">
       <use xlink:href="#DejaVuSans-30"/>
       <use xlink:href="#DejaVuSans-2e" x="63.623047"/>
       <use xlink:href="#DejaVuSans-36" x="95.410156"/>
      </g>
     </g>
    </g>
    <g id="ytick_4">
     <g id="line2d_10">
      <g>
       <use xlink:href="#m513b71fd4f" x="54.01375" y="113.261765" style="stroke: #000000; stroke-width: 0.8"/>
      </g>
     </g>
     <g id="text_11">
      <!-- 0.8 -->
      <g transform="translate(24.749375 118.580671) scale(0.14 -0.14)">
       <use xlink:href="#DejaVuSans-30"/>
       <use xlink:href="#DejaVuSans-2e" x="63.623047"/>
       <use xlink:href="#DejaVuSans-38" x="95.410156"/>
      </g>
     </g>
    </g>
    <g id="ytick_5">
     <g id="line2d_11">
      <g>
       <use xlink:href="#m513b71fd4f" x="54.01375" y="49.819913" style="stroke: #000000; stroke-width: 0.8"/>
      </g>
     </g>
     <g id="text_12">
      <!-- 1.0 -->
      <g transform="translate(24.749375 55.138819) scale(0.14 -0.14)">
       <use xlink:href="#DejaVuSans-31"/>
       <use xlink:href="#DejaVuSans-2e" x="63.623047"/>
       <use xlink:href="#DejaVuSans-30" x="95.410156"/>
      </g>
     </g>
    </g>
    <g id="text_13">
     <!-- Accuracy -->
     <g transform="translate(17.837813 205.479375) rotate(-90) scale(0.14 -0.14)">
      <defs>
       <path id="DejaVuSans-41" d="M 2188 4044 
L 1331 1722 
L 3047 1722 
L 2188 4044 
z
M 1831 4666 
L 2547 4666 
L 4325 0 
L 3669 0 
L 3244 1197 
L 1141 1197 
L 716 0 
L 50 0 
L 1831 4666 
z
" transform="scale(0.015625)"/>
       <path id="DejaVuSans-75" d="M 544 1381 
L 544 3500 
L 1119 3500 
L 1119 1403 
Q 1119 906 1312 657 
Q 1506 409 1894 409 
Q 2359 409 2629 706 
Q 2900 1003 2900 1516 
L 2900 3500 
L 3475 3500 
L 3475 0 
L 2900 0 
L 2900 538 
Q 2691 219 2414 64 
Q 2138 -91 1772 -91 
Q 1169 -91 856 284 
Q 544 659 544 1381 
z
M 1991 3584 
L 1991 3584 
z
" transform="scale(0.015625)"/>
       <path id="DejaVuSans-72" d="M 2631 2963 
Q 2534 3019 2420 3045 
Q 2306 3072 2169 3072 
Q 1681 3072 1420 2755 
Q 1159 2438 1159 1844 
L 1159 0 
L 581 0 
L 581 3500 
L 1159 3500 
L 1159 2956 
Q 1341 3275 1631 3429 
Q 1922 3584 2338 3584 
Q 2397 3584 2469 3576 
Q 2541 3569 2628 3553 
L 2631 2963 
z
" transform="scale(0.015625)"/>
       <path id="DejaVuSans-61" d="M 2194 1759 
Q 1497 1759 1228 1600 
Q 959 1441 959 1056 
Q 959 750 1161 570 
Q 1363 391 1709 391 
Q 2188 391 2477 730 
Q 2766 1069 2766 1631 
L 2766 1759 
L 2194 1759 
z
M 3341 1997 
L 3341 0 
L 2766 0 
L 2766 531 
Q 2569 213 2275 61 
Q 1981 -91 1556 -91 
Q 1019 -91 701 211 
Q 384 513 384 1019 
Q 384 1609 779 1909 
Q 1175 2209 1959 2209 
L 2766 2209 
L 2766 2266 
Q 2766 2663 2505 2880 
Q 2244 3097 1772 3097 
Q 1472 3097 1187 3025 
Q 903 2953 641 2809 
L 641 3341 
Q 956 3463 1253 3523 
Q 1550 3584 1831 3584 
Q 2591 3584 2966 3190 
Q 3341 2797 3341 1997 
z
" transform="scale(0.015625)"/>
       <path id="DejaVuSans-79" d="M 2059 -325 
Q 1816 -950 1584 -1140 
Q 1353 -1331 966 -1331 
L 506 -1331 
L 506 -850 
L 844 -850 
Q 1081 -850 1212 -737 
Q 1344 -625 1503 -206 
L 1606 56 
L 191 3500 
L 800 3500 
L 1894 763 
L 2988 3500 
L 3597 3500 
L 2059 -325 
z
" transform="scale(0.015625)"/>
      </defs>
      <use xlink:href="#DejaVuSans-41"/>
      <use xlink:href="#DejaVuSans-63" x="66.658203"/>
      <use xlink:href="#DejaVuSans-63" x="121.638672"/>
      <use xlink:href="#DejaVuSans-75" x="176.619141"/>
      <use xlink:href="#DejaVuSans-72" x="239.998047"/>
      <use xlink:href="#DejaVuSans-61" x="281.111328"/>
      <use xlink:href="#DejaVuSans-63" x="342.390625"/>
      <use xlink:href="#DejaVuSans-79" x="397.371094"/>
     </g>
    </g>
   </g>
   <g id="line2d_12">
    <path d="M 67.848461 29.117421 
L 70.643352 53.691378 
L 73.438243 70.379278 
L 76.233134 84.021388 
L 79.028025 97.084032 
L 81.822916 107.005538 
L 84.617807 116.951698 
L 87.412698 129.700692 
L 90.207589 137.786181 
L 93.00248 148.387436 
L 95.797371 155.190549 
L 98.592262 164.737541 
L 101.387153 169.689285 
L 104.182045 178.270085 
L 106.976936 184.812997 
L 109.771827 190.990377 
L 112.566718 196.283602 
L 115.361609 202.368111 
L 118.1565 201.126176 
L 120.951391 211.215322 
L 123.746282 213.942611 
L 126.541173 217.370032 
L 129.336064 219.825428 
L 132.130955 222.883328 
L 134.925846 224.79294 
L 137.720737 230.464667 
L 140.515628 232.923636 
L 143.310519 236.601284 
L 146.10541 237.739059 
L 148.900301 236.831043 
L 151.695193 243.598733 
L 154.490084 245.279522 
L 157.284975 245.309461 
L 160.079866 249.888847 
L 162.874757 253.039978 
L 165.669648 254.874075 
L 168.464539 252.306986 
L 171.25943 255.081959 
L 174.054321 260.167121 
L 176.849212 260.971412 
L 179.644103 262.931875 
L 182.438994 265.01444 
L 185.233885 265.472475 
L 188.028776 266.605051 
L 190.823667 269.72387 
L 193.618558 272.864224 
L 196.413449 273.085333 
L 199.208341 262.810179 
L 202.003232 276.194992 
L 204.798123 274.690191 
L 207.593014 279.08995 
L 210.387905 281.90251 
L 213.182796 279.283625 
L 215.977687 284.230623 
L 218.772578 279.231016 
L 221.567469 270.783946 
L 224.36236 283.628534 
L 227.157251 283.052178 
L 229.952142 280.060784 
L 232.747033 291.535762 
L 235.541924 294.033165 
L 238.336815 295.143586 
L 241.131706 291.444715 
L 243.926597 295.870334 
L 246.721489 296.713073 
L 249.51638 282.916472 
L 252.311271 300.525382 
L 255.106162 295.374853 
L 257.901053 301.685676 
L 260.695944 294.457068 
L 263.490835 302.824888 
L 266.285726 307.567896 
L 269.080617 304.778289 
L 271.875508 297.373991 
L 274.670399 304.067276 
L 277.46529 308.168647 
L 280.260181 308.176451 
L 283.055072 304.623756 
L 285.849963 309.797422 
L 288.644854 302.330863 
L 291.439745 298.177332 
L 294.234637 310.478675 
L 297.029528 313.124659 
L 299.824419 302.609673 
L 302.61931 311.761671 
L 305.414201 312.877949 
L 308.209092 315.23022 
L 311.003983 318.711205 
L 313.798874 311.759521 
L 316.593765 302.658557 
L 319.388656 315.72355 
L 322.183547 293.461786 
L 324.978438 298.439314 
L 327.773329 320.935106 
L 330.56822 310.73966 
L 333.363111 316.049415 
L 336.158002 321.949248 
L 338.952894 321.618812 
L 341.747785 324.12927 
L 344.542676 324.72 
" clip-path="url(#pe8e13f7e15)" style="fill: none; stroke: #1f77b4; stroke-width: 1.5; stroke-linecap: square"/>
   </g>
   <g id="line2d_13">
    <path d="M 67.848461 22.32 
L 70.643352 30.265992 
L 73.438243 38.108336 
L 76.233134 45.735743 
L 79.028025 53.031594 
L 81.822916 60.416858 
L 84.617807 67.577012 
L 87.412698 74.804533 
L 90.207589 82.035193 
L 93.00248 89.224351 
L 95.797371 96.391539 
L 98.592262 103.465024 
L 101.387153 110.368174 
L 104.182045 117.392972 
L 106.976936 124.161711 
L 109.771827 130.770836 
L 112.566718 137.207698 
L 115.361609 143.536071 
L 118.1565 149.356295 
L 120.951391 155.212065 
L 123.746282 160.891128 
L 126.541173 166.184221 
L 129.336064 171.29972 
L 132.130955 176.199223 
L 134.925846 180.838223 
L 137.720737 185.299931 
L 140.515628 189.525773 
L 143.310519 193.519378 
L 146.10541 197.205345 
L 148.900301 200.983181 
L 151.695193 204.471984 
L 154.490084 207.737891 
L 157.284975 210.770985 
L 160.079866 213.828195 
L 162.874757 216.778645 
L 165.669648 219.495016 
L 168.464539 221.869668 
L 171.25943 224.529109 
L 174.054321 226.919474 
L 176.849212 229.166247 
L 179.644103 231.576086 
L 182.438994 233.583959 
L 185.233885 235.659906 
L 188.028776 237.679927 
L 190.823667 239.578857 
L 193.618558 241.588592 
L 196.413449 243.332946 
L 199.208341 244.966835 
L 202.003232 246.845288 
L 204.798123 248.320386 
L 207.593014 249.923041 
L 210.387905 251.542249 
L 213.182796 253.026195 
L 215.977687 254.494221 
L 218.772578 255.682261 
L 221.567469 256.944653 
L 224.36236 258.709815 
L 227.157251 259.867301 
L 229.952142 261.123681 
L 232.747033 262.463035 
L 235.541924 263.550545 
L 238.336815 264.950553 
L 241.131706 266.030596 
L 243.926597 267.225319 
L 246.721489 268.388156 
L 249.51638 269.158121 
L 252.311271 270.39548 
L 255.106162 271.603136 
L 257.901053 272.64804 
L 260.695944 273.505015 
L 263.490835 274.65456 
L 266.285726 275.723835 
L 269.080617 276.538109 
L 271.875508 277.63149 
L 274.670399 278.499026 
L 277.46529 279.367686 
L 280.260181 280.32971 
L 283.055072 281.036147 
L 285.849963 282.01948 
L 288.644854 282.897159 
L 291.439745 283.862198 
L 294.234637 284.735888 
L 297.029528 285.514191 
L 299.824419 286.403905 
L 302.61931 287.133995 
L 305.414201 287.873396 
L 308.209092 288.721514 
L 311.003983 289.449156 
L 313.798874 290.056297 
L 316.593765 290.946753 
L 319.388656 291.844473 
L 322.183547 292.5805 
L 324.978438 293.218508 
L 327.773329 294.155948 
L 330.56822 294.837668 
L 333.363111 295.592253 
L 336.158002 296.233488 
L 338.952894 296.777357 
L 341.747785 297.730192 
L 344.542676 298.333656 
" clip-path="url(#pe8e13f7e15)" style="fill: none; stroke: #ff7f0e; stroke-width: 1.5; stroke-linecap: square"/>
   </g>
   <g id="line2d_14">
    <path d="M 67.848461 193.621439 
L 70.643352 170.35943 
L 73.438243 151.326873 
L 76.233134 138.638496 
L 79.028025 155.556326 
L 81.822916 151.326873 
L 84.617807 142.867968 
L 87.412698 96.343931 
L 90.207589 153.4416 
L 93.00248 106.917582 
L 95.797371 121.720685 
L 98.592262 153.4416 
L 101.387153 130.179591 
L 104.182045 113.261761 
L 106.976936 115.376487 
L 109.771827 132.294317 
L 112.566718 87.885026 
L 115.361609 85.770299 
L 118.1565 128.064864 
L 120.951391 109.032308 
L 123.746282 87.885026 
L 126.541173 85.770299 
L 129.336064 89.999752 
L 132.130955 83.655573 
L 134.925846 81.540847 
L 137.720737 79.426101 
L 140.515628 85.770299 
L 143.310519 83.655573 
L 146.10541 68.852469 
L 148.900301 98.458657 
L 151.695193 68.852469 
L 154.490084 75.196649 
L 157.284975 73.081922 
L 160.079866 68.852469 
L 162.874757 64.623017 
L 165.669648 70.967196 
L 168.464539 75.196649 
L 171.25943 66.737743 
L 174.054321 70.967196 
L 176.849212 73.081922 
L 179.644103 70.967196 
L 182.438994 70.967196 
L 185.233885 81.540847 
L 188.028776 68.852469 
L 190.823667 68.852469 
L 193.618558 60.393564 
L 196.413449 64.623017 
L 199.208341 89.999752 
L 202.003232 64.623017 
L 204.798123 68.852469 
L 207.593014 68.852469 
L 210.387905 62.50829 
L 213.182796 68.852469 
L 215.977687 66.737743 
L 218.772578 75.196649 
L 221.567469 89.999752 
L 224.36236 68.852469 
L 227.157251 66.737743 
L 229.952142 77.311375 
L 232.747033 64.623017 
L 235.541924 66.737743 
L 238.336815 60.393564 
L 241.131706 70.967196 
L 243.926597 64.623017 
L 246.721489 64.623017 
L 249.51638 83.655573 
L 252.311271 60.393564 
L 255.106162 64.623017 
L 257.901053 58.278819 
L 260.695944 68.852469 
L 263.490835 64.623017 
L 266.285726 60.393564 
L 269.080617 64.623017 
L 271.875508 64.623017 
L 274.670399 68.852469 
L 277.46529 64.623017 
L 280.260181 62.50829 
L 283.055072 64.623017 
L 285.849963 62.50829 
L 288.644854 66.737743 
L 291.439745 83.655573 
L 294.234637 64.623017 
L 297.029528 64.623017 
L 299.824419 73.081922 
L 302.61931 70.967196 
L 305.414201 64.623017 
L 308.209092 62.50829 
L 311.003983 62.50829 
L 313.798874 68.852469 
L 316.593765 75.196649 
L 319.388656 60.393564 
L 322.183547 85.770299 
L 324.978438 77.311375 
L 327.773329 60.393564 
L 330.56822 68.852469 
L 333.363111 73.081922 
L 336.158002 58.278819 
L 338.952894 62.50829 
L 341.747785 58.278819 
L 344.542676 62.50829 
" clip-path="url(#pe8e13f7e15)" style="fill: none; stroke: #2ca02c; stroke-width: 1.5; stroke-linecap: square"/>
   </g>
   <g id="line2d_15">
    <path d="M 67.848461 242.260192 
L 70.643352 210.539268 
L 73.438243 183.047807 
L 76.233134 142.867968 
L 79.028025 128.064864 
L 81.822916 128.064864 
L 84.617807 119.605959 
L 87.412698 115.376487 
L 90.207589 109.032308 
L 93.00248 106.917582 
L 95.797371 109.032308 
L 98.592262 106.917582 
L 101.387153 106.917582 
L 104.182045 104.802855 
L 106.976936 104.802855 
L 109.771827 102.688129 
L 112.566718 100.573403 
L 115.361609 100.573403 
L 118.1565 100.573403 
L 120.951391 100.573403 
L 123.746282 100.573403 
L 126.541173 100.573403 
L 129.336064 100.573403 
L 132.130955 100.573403 
L 134.925846 98.458657 
L 137.720737 98.458657 
L 140.515628 98.458657 
L 143.310519 98.458657 
L 146.10541 98.458657 
L 148.900301 98.458657 
L 151.695193 98.458657 
L 154.490084 98.458657 
L 157.284975 98.458657 
L 160.079866 98.458657 
L 162.874757 98.458657 
L 165.669648 98.458657 
L 168.464539 98.458657 
L 171.25943 98.458657 
L 174.054321 96.343931 
L 176.849212 96.343931 
L 179.644103 96.343931 
L 182.438994 96.343931 
L 185.233885 96.343931 
L 188.028776 96.343931 
L 190.823667 96.343931 
L 193.618558 92.114478 
L 196.413449 92.114478 
L 199.208341 92.114478 
L 202.003232 92.114478 
L 204.798123 85.770299 
L 207.593014 87.885026 
L 210.387905 87.885026 
L 213.182796 87.885026 
L 215.977687 85.770299 
L 218.772578 87.885026 
L 221.567469 85.770299 
L 224.36236 85.770299 
L 227.157251 85.770299 
L 229.952142 85.770299 
L 232.747033 85.770299 
L 235.541924 85.770299 
L 238.336815 83.655573 
L 241.131706 83.655573 
L 243.926597 81.540847 
L 246.721489 81.540847 
L 249.51638 83.655573 
L 252.311271 81.540847 
L 255.106162 83.655573 
L 257.901053 81.540847 
L 260.695944 81.540847 
L 263.490835 81.540847 
L 266.285726 81.540847 
L 269.080617 81.540847 
L 271.875508 81.540847 
L 274.670399 81.540847 
L 277.46529 79.426101 
L 280.260181 81.540847 
L 283.055072 81.540847 
L 285.849963 81.540847 
L 288.644854 77.311375 
L 291.439745 81.540847 
L 294.234637 79.426101 
L 297.029528 77.311375 
L 299.824419 70.967196 
L 302.61931 73.081922 
L 305.414201 73.081922 
L 308.209092 75.196649 
L 311.003983 73.081922 
L 313.798874 75.196649 
L 316.593765 73.081922 
L 319.388656 68.852469 
L 322.183547 68.852469 
L 324.978438 70.967196 
L 327.773329 70.967196 
L 330.56822 70.967196 
L 333.363111 68.852469 
L 336.158002 70.967196 
L 338.952894 68.852469 
L 341.747785 68.852469 
L 344.542676 70.967196 
" clip-path="url(#pe8e13f7e15)" style="fill: none; stroke: #d62728; stroke-width: 1.5; stroke-linecap: square"/>
   </g>
   <g id="patch_3">
    <path d="M 54.01375 339.84 
L 54.01375 7.2 
" style="fill: none; stroke: #000000; stroke-width: 0.8; stroke-linejoin: miter; stroke-linecap: square"/>
   </g>
   <g id="patch_4">
    <path d="M 358.377386 339.84 
L 358.377386 7.2 
" style="fill: none; stroke: #000000; stroke-width: 0.8; stroke-linejoin: miter; stroke-linecap: square"/>
   </g>
   <g id="patch_5">
    <path d="M 54.01375 339.84 
L 358.377386 339.84 
" style="fill: none; stroke: #000000; stroke-width: 0.8; stroke-linejoin: miter; stroke-linecap: square"/>
   </g>
   <g id="patch_6">
    <path d="M 54.01375 7.2 
L 358.377386 7.2 
" style="fill: none; stroke: #000000; stroke-width: 0.8; stroke-linejoin: miter; stroke-linecap: square"/>
   </g>
   <g id="legend_1">
    <g id="patch_7">
     <path d="M 99.906761 216.71875 
L 348.577386 216.71875 
Q 351.377386 216.71875 351.377386 213.91875 
L 351.377386 133.12125 
Q 351.377386 130.32125 348.577386 130.32125 
L 99.906761 130.32125 
Q 97.106761 130.32125 97.106761 133.12125 
L 97.106761 213.91875 
Q 97.106761 216.71875 99.906761 216.71875 
z
" style="fill: #ffffff; opacity: 0.8; stroke: #cccccc; stroke-linejoin: miter"/>
    </g>
    <g id="line2d_16">
     <path d="M 102.706761 141.659062 
L 116.706761 141.659062 
L 130.706761 141.659062 
" style="fill: none; stroke: #1f77b4; stroke-width: 1.5; stroke-linecap: square"/>
    </g>
    <g id="text_14">
     <!-- Without data standardization -->
     <g transform="translate(141.906761 146.559062) scale(0.14 -0.14)">
      <defs>
       <path id="DejaVuSans-57" d="M 213 4666 
L 850 4666 
L 1831 722 
L 2809 4666 
L 3519 4666 
L 4500 722 
L 5478 4666 
L 6119 4666 
L 4947 0 
L 4153 0 
L 3169 4050 
L 2175 0 
L 1381 0 
L 213 4666 
z
" transform="scale(0.015625)"/>
       <path id="DejaVuSans-69" d="M 603 3500 
L 1178 3500 
L 1178 0 
L 603 0 
L 603 3500 
z
M 603 4863 
L 1178 4863 
L 1178 4134 
L 603 4134 
L 603 4863 
z
" transform="scale(0.015625)"/>
       <path id="DejaVuSans-74" d="M 1172 4494 
L 1172 3500 
L 2356 3500 
L 2356 3053 
L 1172 3053 
L 1172 1153 
Q 1172 725 1289 603 
Q 1406 481 1766 481 
L 2356 481 
L 2356 0 
L 1766 0 
Q 1100 0 847 248 
Q 594 497 594 1153 
L 594 3053 
L 172 3053 
L 172 3500 
L 594 3500 
L 594 4494 
L 1172 4494 
z
" transform="scale(0.015625)"/>
       <path id="DejaVuSans-20" transform="scale(0.015625)"/>
       <path id="DejaVuSans-64" d="M 2906 2969 
L 2906 4863 
L 3481 4863 
L 3481 0 
L 2906 0 
L 2906 525 
Q 2725 213 2448 61 
Q 2172 -91 1784 -91 
Q 1150 -91 751 415 
Q 353 922 353 1747 
Q 353 2572 751 3078 
Q 1150 3584 1784 3584 
Q 2172 3584 2448 3432 
Q 2725 3281 2906 2969 
z
M 947 1747 
Q 947 1113 1208 752 
Q 1469 391 1925 391 
Q 2381 391 2643 752 
Q 2906 1113 2906 1747 
Q 2906 2381 2643 2742 
Q 2381 3103 1925 3103 
Q 1469 3103 1208 2742 
Q 947 2381 947 1747 
z
" transform="scale(0.015625)"/>
       <path id="DejaVuSans-6e" d="M 3513 2113 
L 3513 0 
L 2938 0 
L 2938 2094 
Q 2938 2591 2744 2837 
Q 2550 3084 2163 3084 
Q 1697 3084 1428 2787 
Q 1159 2491 1159 1978 
L 1159 0 
L 581 0 
L 581 3500 
L 1159 3500 
L 1159 2956 
Q 1366 3272 1645 3428 
Q 1925 3584 2291 3584 
Q 2894 3584 3203 3211 
Q 3513 2838 3513 2113 
z
" transform="scale(0.015625)"/>
       <path id="DejaVuSans-7a" d="M 353 3500 
L 3084 3500 
L 3084 2975 
L 922 459 
L 3084 459 
L 3084 0 
L 275 0 
L 275 525 
L 2438 3041 
L 353 3041 
L 353 3500 
z
" transform="scale(0.015625)"/>
      </defs>
      <use xlink:href="#DejaVuSans-57"/>
      <use xlink:href="#DejaVuSans-69" x="96.626953"/>
      <use xlink:href="#DejaVuSans-74" x="124.410156"/>
      <use xlink:href="#DejaVuSans-68" x="163.619141"/>
      <use xlink:href="#DejaVuSans-6f" x="226.998047"/>
      <use xlink:href="#DejaVuSans-75" x="288.179688"/>
      <use xlink:href="#DejaVuSans-74" x="351.558594"/>
      <use xlink:href="#DejaVuSans-20" x="390.767578"/>
      <use xlink:href="#DejaVuSans-64" x="422.554688"/>
      <use xlink:href="#DejaVuSans-61" x="486.03125"/>
      <use xlink:href="#DejaVuSans-74" x="547.310547"/>
      <use xlink:href="#DejaVuSans-61" x="586.519531"/>
      <use xlink:href="#DejaVuSans-20" x="647.798828"/>
      <use xlink:href="#DejaVuSans-73" x="679.585938"/>
      <use xlink:href="#DejaVuSans-74" x="731.685547"/>
      <use xlink:href="#DejaVuSans-61" x="770.894531"/>
      <use xlink:href="#DejaVuSans-6e" x="832.173828"/>
      <use xlink:href="#DejaVuSans-64" x="895.552734"/>
      <use xlink:href="#DejaVuSans-61" x="959.029297"/>
      <use xlink:href="#DejaVuSans-72" x="1020.308594"/>
      <use xlink:href="#DejaVuSans-64" x="1059.671875"/>
      <use xlink:href="#DejaVuSans-69" x="1123.148438"/>
      <use xlink:href="#DejaVuSans-7a" x="1150.931641"/>
      <use xlink:href="#DejaVuSans-61" x="1203.421875"/>
      <use xlink:href="#DejaVuSans-74" x="1264.701172"/>
      <use xlink:href="#DejaVuSans-69" x="1303.910156"/>
      <use xlink:href="#DejaVuSans-6f" x="1331.693359"/>
      <use xlink:href="#DejaVuSans-6e" x="1392.875"/>
     </g>
    </g>
    <g id="line2d_17">
     <path d="M 102.706761 162.208437 
L 116.706761 162.208437 
L 130.706761 162.208437 
" style="fill: none; stroke: #ff7f0e; stroke-width: 1.5; stroke-linecap: square"/>
    </g>
    <g id="text_15">
     <!-- With data standardization -->
     <g transform="translate(141.906761 167.108437) scale(0.14 -0.14)">
      <use xlink:href="#DejaVuSans-57"/>
      <use xlink:href="#DejaVuSans-69" x="96.626953"/>
      <use xlink:href="#DejaVuSans-74" x="124.410156"/>
      <use xlink:href="#DejaVuSans-68" x="163.619141"/>
      <use xlink:href="#DejaVuSans-20" x="226.998047"/>
      <use xlink:href="#DejaVuSans-64" x="258.785156"/>
      <use xlink:href="#DejaVuSans-61" x="322.261719"/>
      <use xlink:href="#DejaVuSans-74" x="383.541016"/>
      <use xlink:href="#DejaVuSans-61" x="422.75"/>
      <use xlink:href="#DejaVuSans-20" x="484.029297"/>
      <use xlink:href="#DejaVuSans-73" x="515.816406"/>
      <use xlink:href="#DejaVuSans-74" x="567.916016"/>
      <use xlink:href="#DejaVuSans-61" x="607.125"/>
      <use xlink:href="#DejaVuSans-6e" x="668.404297"/>
      <use xlink:href="#DejaVuSans-64" x="731.783203"/>
      <use xlink:href="#DejaVuSans-61" x="795.259766"/>
      <use xlink:href="#DejaVuSans-72" x="856.539062"/>
      <use xlink:href="#DejaVuSans-64" x="895.902344"/>
      <use xlink:href="#DejaVuSans-69" x="959.378906"/>
      <use xlink:href="#DejaVuSans-7a" x="987.162109"/>
      <use xlink:href="#DejaVuSans-61" x="1039.652344"/>
      <use xlink:href="#DejaVuSans-74" x="1100.931641"/>
      <use xlink:href="#DejaVuSans-69" x="1140.140625"/>
      <use xlink:href="#DejaVuSans-6f" x="1167.923828"/>
      <use xlink:href="#DejaVuSans-6e" x="1229.105469"/>
     </g>
    </g>
    <g id="line2d_18">
     <path d="M 102.706761 182.757812 
L 116.706761 182.757812 
L 130.706761 182.757812 
" style="fill: none; stroke: #2ca02c; stroke-width: 1.5; stroke-linecap: square"/>
    </g>
    <g id="text_16">
     <!-- Without data standardization -->
     <g transform="translate(141.906761 187.657812) scale(0.14 -0.14)">
      <use xlink:href="#DejaVuSans-57"/>
      <use xlink:href="#DejaVuSans-69" x="96.626953"/>
      <use xlink:href="#DejaVuSans-74" x="124.410156"/>
      <use xlink:href="#DejaVuSans-68" x="163.619141"/>
      <use xlink:href="#DejaVuSans-6f" x="226.998047"/>
      <use xlink:href="#DejaVuSans-75" x="288.179688"/>
      <use xlink:href="#DejaVuSans-74" x="351.558594"/>
      <use xlink:href="#DejaVuSans-20" x="390.767578"/>
      <use xlink:href="#DejaVuSans-64" x="422.554688"/>
      <use xlink:href="#DejaVuSans-61" x="486.03125"/>
      <use xlink:href="#DejaVuSans-74" x="547.310547"/>
      <use xlink:href="#DejaVuSans-61" x="586.519531"/>
      <use xlink:href="#DejaVuSans-20" x="647.798828"/>
      <use xlink:href="#DejaVuSans-73" x="679.585938"/>
      <use xlink:href="#DejaVuSans-74" x="731.685547"/>
      <use xlink:href="#DejaVuSans-61" x="770.894531"/>
      <use xlink:href="#DejaVuSans-6e" x="832.173828"/>
      <use xlink:href="#DejaVuSans-64" x="895.552734"/>
      <use xlink:href="#DejaVuSans-61" x="959.029297"/>
      <use xlink:href="#DejaVuSans-72" x="1020.308594"/>
      <use xlink:href="#DejaVuSans-64" x="1059.671875"/>
      <use xlink:href="#DejaVuSans-69" x="1123.148438"/>
      <use xlink:href="#DejaVuSans-7a" x="1150.931641"/>
      <use xlink:href="#DejaVuSans-61" x="1203.421875"/>
      <use xlink:href="#DejaVuSans-74" x="1264.701172"/>
      <use xlink:href="#DejaVuSans-69" x="1303.910156"/>
      <use xlink:href="#DejaVuSans-6f" x="1331.693359"/>
      <use xlink:href="#DejaVuSans-6e" x="1392.875"/>
     </g>
    </g>
    <g id="line2d_19">
     <path d="M 102.706761 203.307187 
L 116.706761 203.307187 
L 130.706761 203.307187 
" style="fill: none; stroke: #d62728; stroke-width: 1.5; stroke-linecap: square"/>
    </g>
    <g id="text_17">
     <!-- With data standardization -->
     <g transform="translate(141.906761 208.207187) scale(0.14 -0.14)">
      <use xlink:href="#DejaVuSans-57"/>
      <use xlink:href="#DejaVuSans-69" x="96.626953"/>
      <use xlink:href="#DejaVuSans-74" x="124.410156"/>
      <use xlink:href="#DejaVuSans-68" x="163.619141"/>
      <use xlink:href="#DejaVuSans-20" x="226.998047"/>
      <use xlink:href="#DejaVuSans-64" x="258.785156"/>
      <use xlink:href="#DejaVuSans-61" x="322.261719"/>
      <use xlink:href="#DejaVuSans-74" x="383.541016"/>
      <use xlink:href="#DejaVuSans-61" x="422.75"/>
      <use xlink:href="#DejaVuSans-20" x="484.029297"/>
      <use xlink:href="#DejaVuSans-73" x="515.816406"/>
      <use xlink:href="#DejaVuSans-74" x="567.916016"/>
      <use xlink:href="#DejaVuSans-61" x="607.125"/>
      <use xlink:href="#DejaVuSans-6e" x="668.404297"/>
      <use xlink:href="#DejaVuSans-64" x="731.783203"/>
      <use xlink:href="#DejaVuSans-61" x="795.259766"/>
      <use xlink:href="#DejaVuSans-72" x="856.539062"/>
      <use xlink:href="#DejaVuSans-64" x="895.902344"/>
      <use xlink:href="#DejaVuSans-69" x="959.378906"/>
      <use xlink:href="#DejaVuSans-7a" x="987.162109"/>
      <use xlink:href="#DejaVuSans-61" x="1039.652344"/>
      <use xlink:href="#DejaVuSans-74" x="1100.931641"/>
      <use xlink:href="#DejaVuSans-69" x="1140.140625"/>
      <use xlink:href="#DejaVuSans-6f" x="1167.923828"/>
      <use xlink:href="#DejaVuSans-6e" x="1229.105469"/>
     </g>
    </g>
   </g>
  </g>
 </g>
 <defs>
  <clipPath id="pe8e13f7e15">
   <rect x="54.01375" y="7.2" width="304.363636" height="332.64"/>
  </clipPath>
 </defs>
</svg>
