<?xml version="1.0" encoding="utf-8" standalone="no"?>
<!DOCTYPE svg PUBLIC "-//W3C//DTD SVG 1.1//EN"
  "http://www.w3.org/Graphics/SVG/1.1/DTD/svg11.dtd">
<svg xmlns:xlink="http://www.w3.org/1999/xlink" width="730.81375pt" height="385.13875pt" viewBox="0 0 730.81375 385.13875" xmlns="http://www.w3.org/2000/svg" version="1.1">
 <metadata>
  <rdf:RDF xmlns:dc="http://purl.org/dc/elements/1.1/" xmlns:cc="http://creativecommons.org/ns#" xmlns:rdf="http://www.w3.org/1999/02/22-rdf-syntax-ns#">
   <cc:Work>
    <dc:type rdf:resource="http://purl.org/dc/dcmitype/StillImage"/>
    <dc:date>2022-10-23T20:19:07.401221</dc:date>
    <dc:format>image/svg+xml</dc:format>
    <dc:creator>
     <cc:Agent>
      <dc:title>Matplotlib v3.6.1, https://matplotlib.org/</dc:title>
     </cc:Agent>
    </dc:creator>
   </cc:Work>
  </rdf:RDF>
 </metadata>
 <defs>
  <style type="text/css">*{stroke-linejoin: round; stroke-linecap: butt}</style>
 </defs>
 <g id="figure_1">
  <g id="patch_1">
   <path d="M 0 385.13875 
L 730.81375 385.13875 
L 730.81375 0 
L 0 0 
z
" style="fill: #ffffff"/>
  </g>
  <g id="axes_1">
   <g id="patch_2">
    <path d="M 54.01375 339.84 
L 358.377386 339.84 
L 358.377386 7.2 
L 54.01375 7.2 
z
" style="fill: #ffffff"/>
   </g>
   <g id="matplotlib.axis_1">
    <g id="xtick_1">
     <g id="line2d_1">
      <defs>
       <path id="mcb9ed0e73e" d="M 0 0 
L 0 3.5 
" style="stroke: #000000; stroke-width: 0.8"/>
      </defs>
      <g>
       <use xlink:href="#mcb9ed0e73e" x="65.05357" y="339.84" style="stroke: #000000; stroke-width: 0.8"/>
      </g>
     </g>
     <g id="text_1">
      <!-- 0 -->
      <g transform="translate(60.59982 357.477813) scale(0.14 -0.14)">
       <defs>
        <path id="DejaVuSans-30" d="M 2034 4250 
Q 1547 4250 1301 3770 
Q 1056 3291 1056 2328 
Q 1056 1369 1301 889 
Q 1547 409 2034 409 
Q 2525 409 2770 889 
Q 3016 1369 3016 2328 
Q 3016 3291 2770 3770 
Q 2525 4250 2034 4250 
z
M 2034 4750 
Q 2819 4750 3233 4129 
Q 3647 3509 3647 2328 
Q 3647 1150 3233 529 
Q 2819 -91 2034 -91 
Q 1250 -91 836 529 
Q 422 1150 422 2328 
Q 422 3509 836 4129 
Q 1250 4750 2034 4750 
z
" transform="scale(0.015625)"/>
       </defs>
       <use xlink:href="#DejaVuSans-30"/>
      </g>
     </g>
    </g>
    <g id="xtick_2">
     <g id="line2d_2">
      <g>
       <use xlink:href="#mcb9ed0e73e" x="120.951391" y="339.84" style="stroke: #000000; stroke-width: 0.8"/>
      </g>
     </g>
     <g id="text_2">
      <!-- 20 -->
      <g transform="translate(112.043891 357.477813) scale(0.14 -0.14)">
       <defs>
        <path id="DejaVuSans-32" d="M 1228 531 
L 3431 531 
L 3431 0 
L 469 0 
L 469 531 
Q 828 903 1448 1529 
Q 2069 2156 2228 2338 
Q 2531 2678 2651 2914 
Q 2772 3150 2772 3378 
Q 2772 3750 2511 3984 
Q 2250 4219 1831 4219 
Q 1534 4219 1204 4116 
Q 875 4013 500 3803 
L 500 4441 
Q 881 4594 1212 4672 
Q 1544 4750 1819 4750 
Q 2544 4750 2975 4387 
Q 3406 4025 3406 3419 
Q 3406 3131 3298 2873 
Q 3191 2616 2906 2266 
Q 2828 2175 2409 1742 
Q 1991 1309 1228 531 
z
" transform="scale(0.015625)"/>
       </defs>
       <use xlink:href="#DejaVuSans-32"/>
       <use xlink:href="#DejaVuSans-30" x="63.623047"/>
      </g>
     </g>
    </g>
    <g id="xtick_3">
     <g id="line2d_3">
      <g>
       <use xlink:href="#mcb9ed0e73e" x="176.849212" y="339.84" style="stroke: #000000; stroke-width: 0.8"/>
      </g>
     </g>
     <g id="text_3">
      <!-- 40 -->
      <g transform="translate(167.941712 357.477813) scale(0.14 -0.14)">
       <defs>
        <path id="DejaVuSans-34" d="M 2419 4116 
L 825 1625 
L 2419 1625 
L 2419 4116 
z
M 2253 4666 
L 3047 4666 
L 3047 1625 
L 3713 1625 
L 3713 1100 
L 3047 1100 
L 3047 0 
L 2419 0 
L 2419 1100 
L 313 1100 
L 313 1709 
L 2253 4666 
z
" transform="scale(0.015625)"/>
       </defs>
       <use xlink:href="#DejaVuSans-34"/>
       <use xlink:href="#DejaVuSans-30" x="63.623047"/>
      </g>
     </g>
    </g>
    <g id="xtick_4">
     <g id="line2d_4">
      <g>
       <use xlink:href="#mcb9ed0e73e" x="232.747033" y="339.84" style="stroke: #000000; stroke-width: 0.8"/>
      </g>
     </g>
     <g id="text_4">
      <!-- 60 -->
      <g transform="translate(223.839533 357.477813) scale(0.14 -0.14)">
       <defs>
        <path id="DejaVuSans-36" d="M 2113 2584 
Q 1688 2584 1439 2293 
Q 1191 2003 1191 1497 
Q 1191 994 1439 701 
Q 1688 409 2113 409 
Q 2538 409 2786 701 
Q 3034 994 3034 1497 
Q 3034 2003 2786 2293 
Q 2538 2584 2113 2584 
z
M 3366 4563 
L 3366 3988 
Q 3128 4100 2886 4159 
Q 2644 4219 2406 4219 
Q 1781 4219 1451 3797 
Q 1122 3375 1075 2522 
Q 1259 2794 1537 2939 
Q 1816 3084 2150 3084 
Q 2853 3084 3261 2657 
Q 3669 2231 3669 1497 
Q 3669 778 3244 343 
Q 2819 -91 2113 -91 
Q 1303 -91 875 529 
Q 447 1150 447 2328 
Q 447 3434 972 4092 
Q 1497 4750 2381 4750 
Q 2619 4750 2861 4703 
Q 3103 4656 3366 4563 
z
" transform="scale(0.015625)"/>
       </defs>
       <use xlink:href="#DejaVuSans-36"/>
       <use xlink:href="#DejaVuSans-30" x="63.623047"/>
      </g>
     </g>
    </g>
    <g id="xtick_5">
     <g id="line2d_5">
      <g>
       <use xlink:href="#mcb9ed0e73e" x="288.644854" y="339.84" style="stroke: #000000; stroke-width: 0.8"/>
      </g>
     </g>
     <g id="text_5">
      <!-- 80 -->
      <g transform="translate(279.737354 357.477813) scale(0.14 -0.14)">
       <defs>
        <path id="DejaVuSans-38" d="M 2034 2216 
Q 1584 2216 1326 1975 
Q 1069 1734 1069 1313 
Q 1069 891 1326 650 
Q 1584 409 2034 409 
Q 2484 409 2743 651 
Q 3003 894 3003 1313 
Q 3003 1734 2745 1975 
Q 2488 2216 2034 2216 
z
M 1403 2484 
Q 997 2584 770 2862 
Q 544 3141 544 3541 
Q 544 4100 942 4425 
Q 1341 4750 2034 4750 
Q 2731 4750 3128 4425 
Q 3525 4100 3525 3541 
Q 3525 3141 3298 2862 
Q 3072 2584 2669 2484 
Q 3125 2378 3379 2068 
Q 3634 1759 3634 1313 
Q 3634 634 3220 271 
Q 2806 -91 2034 -91 
Q 1263 -91 848 271 
Q 434 634 434 1313 
Q 434 1759 690 2068 
Q 947 2378 1403 2484 
z
M 1172 3481 
Q 1172 3119 1398 2916 
Q 1625 2713 2034 2713 
Q 2441 2713 2670 2916 
Q 2900 3119 2900 3481 
Q 2900 3844 2670 4047 
Q 2441 4250 2034 4250 
Q 1625 4250 1398 4047 
Q 1172 3844 1172 3481 
z
" transform="scale(0.015625)"/>
       </defs>
       <use xlink:href="#DejaVuSans-38"/>
       <use xlink:href="#DejaVuSans-30" x="63.623047"/>
      </g>
     </g>
    </g>
    <g id="xtick_6">
     <g id="line2d_6">
      <g>
       <use xlink:href="#mcb9ed0e73e" x="344.542676" y="339.84" style="stroke: #000000; stroke-width: 0.8"/>
      </g>
     </g>
     <g id="text_6">
      <!-- 100 -->
      <g transform="translate(331.181426 357.477813) scale(0.14 -0.14)">
       <defs>
        <path id="DejaVuSans-31" d="M 794 531 
L 1825 531 
L 1825 4091 
L 703 3866 
L 703 4441 
L 1819 4666 
L 2450 4666 
L 2450 531 
L 3481 531 
L 3481 0 
L 794 0 
L 794 531 
z
" transform="scale(0.015625)"/>
       </defs>
       <use xlink:href="#DejaVuSans-31"/>
       <use xlink:href="#DejaVuSans-30" x="63.623047"/>
       <use xlink:href="#DejaVuSans-30" x="127.246094"/>
      </g>
     </g>
    </g>
    <g id="text_7">
     <!-- Epochs -->
     <g transform="translate(181.113693 375.027188) scale(0.14 -0.14)">
      <defs>
       <path id="DejaVuSans-45" d="M 628 4666 
L 3578 4666 
L 3578 4134 
L 1259 4134 
L 1259 2753 
L 3481 2753 
L 3481 2222 
L 1259 2222 
L 1259 531 
L 3634 531 
L 3634 0 
L 628 0 
L 628 4666 
z
" transform="scale(0.015625)"/>
       <path id="DejaVuSans-70" d="M 1159 525 
L 1159 -1331 
L 581 -1331 
L 581 3500 
L 1159 3500 
L 1159 2969 
Q 1341 3281 1617 3432 
Q 1894 3584 2278 3584 
Q 2916 3584 3314 3078 
Q 3713 2572 3713 1747 
Q 3713 922 3314 415 
Q 2916 -91 2278 -91 
Q 1894 -91 1617 61 
Q 1341 213 1159 525 
z
M 3116 1747 
Q 3116 2381 2855 2742 
Q 2594 3103 2138 3103 
Q 1681 3103 1420 2742 
Q 1159 2381 1159 1747 
Q 1159 1113 1420 752 
Q 1681 391 2138 391 
Q 2594 391 2855 752 
Q 3116 1113 3116 1747 
z
" transform="scale(0.015625)"/>
       <path id="DejaVuSans-6f" d="M 1959 3097 
Q 1497 3097 1228 2736 
Q 959 2375 959 1747 
Q 959 1119 1226 758 
Q 1494 397 1959 397 
Q 2419 397 2687 759 
Q 2956 1122 2956 1747 
Q 2956 2369 2687 2733 
Q 2419 3097 1959 3097 
z
M 1959 3584 
Q 2709 3584 3137 3096 
Q 3566 2609 3566 1747 
Q 3566 888 3137 398 
Q 2709 -91 1959 -91 
Q 1206 -91 779 398 
Q 353 888 353 1747 
Q 353 2609 779 3096 
Q 1206 3584 1959 3584 
z
" transform="scale(0.015625)"/>
       <path id="DejaVuSans-63" d="M 3122 3366 
L 3122 2828 
Q 2878 2963 2633 3030 
Q 2388 3097 2138 3097 
Q 1578 3097 1268 2742 
Q 959 2388 959 1747 
Q 959 1106 1268 751 
Q 1578 397 2138 397 
Q 2388 397 2633 464 
Q 2878 531 3122 666 
L 3122 134 
Q 2881 22 2623 -34 
Q 2366 -91 2075 -91 
Q 1284 -91 818 406 
Q 353 903 353 1747 
Q 353 2603 823 3093 
Q 1294 3584 2113 3584 
Q 2378 3584 2631 3529 
Q 2884 3475 3122 3366 
z
" transform="scale(0.015625)"/>
       <path id="DejaVuSans-68" d="M 3513 2113 
L 3513 0 
L 2938 0 
L 2938 2094 
Q 2938 2591 2744 2837 
Q 2550 3084 2163 3084 
Q 1697 3084 1428 2787 
Q 1159 2491 1159 1978 
L 1159 0 
L 581 0 
L 581 4863 
L 1159 4863 
L 1159 2956 
Q 1366 3272 1645 3428 
Q 1925 3584 2291 3584 
Q 2894 3584 3203 3211 
Q 3513 2838 3513 2113 
z
" transform="scale(0.015625)"/>
       <path id="DejaVuSans-73" d="M 2834 3397 
L 2834 2853 
Q 2591 2978 2328 3040 
Q 2066 3103 1784 3103 
Q 1356 3103 1142 2972 
Q 928 2841 928 2578 
Q 928 2378 1081 2264 
Q 1234 2150 1697 2047 
L 1894 2003 
Q 2506 1872 2764 1633 
Q 3022 1394 3022 966 
Q 3022 478 2636 193 
Q 2250 -91 1575 -91 
Q 1294 -91 989 -36 
Q 684 19 347 128 
L 347 722 
Q 666 556 975 473 
Q 1284 391 1588 391 
Q 1994 391 2212 530 
Q 2431 669 2431 922 
Q 2431 1156 2273 1281 
Q 2116 1406 1581 1522 
L 1381 1569 
Q 847 1681 609 1914 
Q 372 2147 372 2553 
Q 372 3047 722 3315 
Q 1072 3584 1716 3584 
Q 2034 3584 2315 3537 
Q 2597 3491 2834 3397 
z
" transform="scale(0.015625)"/>
      </defs>
      <use xlink:href="#DejaVuSans-45"/>
      <use xlink:href="#DejaVuSans-70" x="63.183594"/>
      <use xlink:href="#DejaVuSans-6f" x="126.660156"/>
      <use xlink:href="#DejaVuSans-63" x="187.841797"/>
      <use xlink:href="#DejaVuSans-68" x="242.822266"/>
      <use xlink:href="#DejaVuSans-73" x="306.201172"/>
     </g>
    </g>
   </g>
   <g id="matplotlib.axis_2">
    <g id="ytick_1">
     <g id="line2d_7">
      <defs>
       <path id="mc146f33c8e" d="M 0 0 
L -3.5 0 
" style="stroke: #000000; stroke-width: 0.8"/>
      </defs>
      <g>
       <use xlink:href="#mc146f33c8e" x="54.01375" y="324.979816" style="stroke: #000000; stroke-width: 0.8"/>
      </g>
     </g>
     <g id="text_8">
      <!-- 0.0 -->
      <g transform="translate(24.749375 330.298722) scale(0.14 -0.14)">
       <defs>
        <path id="DejaVuSans-2e" d="M 684 794 
L 1344 794 
L 1344 0 
L 684 0 
L 684 794 
z
" transform="scale(0.015625)"/>
       </defs>
       <use xlink:href="#DejaVuSans-30"/>
       <use xlink:href="#DejaVuSans-2e" x="63.623047"/>
       <use xlink:href="#DejaVuSans-30" x="95.410156"/>
      </g>
     </g>
    </g>
    <g id="ytick_2">
     <g id="line2d_8">
      <g>
       <use xlink:href="#mc146f33c8e" x="54.01375" y="263.213154" style="stroke: #000000; stroke-width: 0.8"/>
      </g>
     </g>
     <g id="text_9">
      <!-- 0.2 -->
      <g transform="translate(24.749375 268.53206) scale(0.14 -0.14)">
       <use xlink:href="#DejaVuSans-30"/>
       <use xlink:href="#DejaVuSans-2e" x="63.623047"/>
       <use xlink:href="#DejaVuSans-32" x="95.410156"/>
      </g>
     </g>
    </g>
    <g id="ytick_3">
     <g id="line2d_9">
      <g>
       <use xlink:href="#mc146f33c8e" x="54.01375" y="201.446492" style="stroke: #000000; stroke-width: 0.8"/>
      </g>
     </g>
     <g id="text_10">
      <!-- 0.4 -->
      <g transform="translate(24.749375 206.765398) scale(0.14 -0.14)">
       <use xlink:href="#DejaVuSans-30"/>
       <use xlink:href="#DejaVuSans-2e" x="63.623047"/>
       <use xlink:href="#DejaVuSans-34" x="95.410156"/>
      </g>
     </g>
    </g>
    <g id="ytick_4">
     <g id="line2d_10">
      <g>
       <use xlink:href="#mc146f33c8e" x="54.01375" y="139.67983" style="stroke: #000000; stroke-width: 0.8"/>
      </g>
     </g>
     <g id="text_11">
      <!-- 0.6 -->
      <g transform="translate(24.749375 144.998736) scale(0.14 -0.14)">
       <use xlink:href="#DejaVuSans-30"/>
       <use xlink:href="#DejaVuSans-2e" x="63.623047"/>
       <use xlink:href="#DejaVuSans-36" x="95.410156"/>
      </g>
     </g>
    </g>
    <g id="ytick_5">
     <g id="line2d_11">
      <g>
       <use xlink:href="#mc146f33c8e" x="54.01375" y="77.913168" style="stroke: #000000; stroke-width: 0.8"/>
      </g>
     </g>
     <g id="text_12">
      <!-- 0.8 -->
      <g transform="translate(24.749375 83.232074) scale(0.14 -0.14)">
       <use xlink:href="#DejaVuSans-30"/>
       <use xlink:href="#DejaVuSans-2e" x="63.623047"/>
       <use xlink:href="#DejaVuSans-38" x="95.410156"/>
      </g>
     </g>
    </g>
    <g id="ytick_6">
     <g id="line2d_12">
      <g>
       <use xlink:href="#mc146f33c8e" x="54.01375" y="16.146506" style="stroke: #000000; stroke-width: 0.8"/>
      </g>
     </g>
     <g id="text_13">
      <!-- 1.0 -->
      <g transform="translate(24.749375 21.465412) scale(0.14 -0.14)">
       <use xlink:href="#DejaVuSans-31"/>
       <use xlink:href="#DejaVuSans-2e" x="63.623047"/>
       <use xlink:href="#DejaVuSans-30" x="95.410156"/>
      </g>
     </g>
    </g>
    <g id="text_14">
     <!-- Loss -->
     <g transform="translate(17.837813 188.874063) rotate(-90) scale(0.14 -0.14)">
      <defs>
       <path id="DejaVuSans-4c" d="M 628 4666 
L 1259 4666 
L 1259 531 
L 3531 531 
L 3531 0 
L 628 0 
L 628 4666 
z
" transform="scale(0.015625)"/>
      </defs>
      <use xlink:href="#DejaVuSans-4c"/>
      <use xlink:href="#DejaVuSans-6f" x="53.962891"/>
      <use xlink:href="#DejaVuSans-73" x="115.144531"/>
      <use xlink:href="#DejaVuSans-73" x="167.244141"/>
     </g>
    </g>
   </g>
   <g id="line2d_13">
    <path d="M 67.848461 22.32 
L 70.643352 90.753171 
L 73.438243 156.393588 
L 76.233134 191.127877 
L 79.028025 213.920971 
L 81.822916 229.584492 
L 84.617807 243.671672 
L 87.412698 257.753563 
L 90.207589 269.909049 
L 93.00248 280.685011 
L 95.797371 272.90147 
L 98.592262 283.475032 
L 101.387153 274.58339 
L 104.182045 277.25359 
L 106.976936 292.155578 
L 109.771827 290.001854 
L 112.566718 294.101134 
L 115.361609 297.364126 
L 118.1565 297.30445 
L 120.951391 284.67565 
L 123.746282 286.763493 
L 126.541173 293.97837 
L 129.336064 298.508446 
L 132.130955 300.494058 
L 134.925846 301.840476 
L 137.720737 301.478206 
L 140.515628 299.357964 
L 143.310519 301.326111 
L 146.10541 299.329022 
L 148.900301 299.285354 
L 151.695193 296.401485 
L 154.490084 300.038471 
L 157.284975 299.962249 
L 160.079866 299.996849 
L 162.874757 304.505459 
L 165.669648 303.398587 
L 168.464539 302.393302 
L 171.25943 304.889337 
L 174.054321 302.806058 
L 176.849212 298.403953 
L 179.644103 300.889814 
L 182.438994 301.854825 
L 185.233885 300.514675 
L 188.028776 302.065697 
L 190.823667 297.871079 
L 193.618558 297.991619 
L 196.413449 291.369697 
L 199.208341 294.137706 
L 202.003232 286.975664 
L 204.798123 302.97464 
L 207.593014 303.02848 
L 210.387905 295.976658 
L 213.182796 301.874956 
L 215.977687 304.257744 
L 218.772578 301.851254 
L 221.567469 301.99475 
L 224.36236 302.109033 
L 227.157251 293.746741 
L 229.952142 286.485326 
L 232.747033 273.481052 
L 235.541924 287.917477 
L 238.336815 300.499633 
L 241.131706 302.161052 
L 243.926597 305.64086 
L 246.721489 306.267026 
L 249.51638 306.18869 
L 252.311271 303.771973 
L 255.106162 300.161326 
L 257.901053 308.123114 
L 260.695944 306.764336 
L 263.490835 307.411674 
L 266.285726 307.985992 
L 269.080617 306.518475 
L 271.875508 305.824086 
L 274.670399 301.562968 
L 277.46529 304.561019 
L 280.260181 307.769896 
L 283.055072 307.767379 
L 285.849963 306.59455 
L 288.644854 307.558055 
L 291.439745 307.691839 
L 294.234637 310.1198 
L 297.029528 308.095448 
L 299.824419 309.913108 
L 302.61931 304.880881 
L 305.414201 307.168768 
L 308.209092 309.197107 
L 311.003983 307.953009 
L 313.798874 306.555234 
L 316.593765 309.463338 
L 319.388656 309.926595 
L 322.183547 308.606275 
L 324.978438 309.877791 
L 327.773329 308.984046 
L 330.56822 306.079592 
L 333.363111 300.381615 
L 336.158002 299.627699 
L 338.952894 306.964447 
L 341.747785 306.210206 
L 344.542676 296.28493 
" clip-path="url(#p8a67566528)" style="fill: none; stroke: #1f77b4; stroke-width: 1.5; stroke-linecap: square"/>
   </g>
   <g id="line2d_14">
    <path d="M 67.848461 40.153187 
L 70.643352 149.250439 
L 73.438243 204.567163 
L 76.233134 228.421656 
L 79.028025 241.962802 
L 81.822916 259.982635 
L 84.617807 263.573441 
L 87.412698 273.969689 
L 90.207589 284.018732 
L 93.00248 288.915058 
L 95.797371 292.41096 
L 98.592262 295.773593 
L 101.387153 300.9855 
L 104.182045 302.240958 
L 106.976936 303.439308 
L 109.771827 303.622607 
L 112.566718 307.197393 
L 115.361609 307.576998 
L 118.1565 310.998053 
L 120.951391 306.318545 
L 123.746282 309.995771 
L 126.541173 312.140896 
L 129.336064 309.518589 
L 132.130955 312.559895 
L 134.925846 312.508068 
L 137.720737 311.382249 
L 140.515628 313.968047 
L 143.310519 314.040689 
L 146.10541 315.589699 
L 148.900301 315.631203 
L 151.695193 313.436445 
L 154.490084 315.405964 
L 157.284975 316.05744 
L 160.079866 316.446855 
L 162.874757 315.551238 
L 165.669648 317.037982 
L 168.464539 318.693493 
L 171.25943 317.605479 
L 174.054321 318.535045 
L 176.849212 318.407704 
L 179.644103 319.040314 
L 182.438994 318.992311 
L 185.233885 319.384072 
L 188.028776 319.441708 
L 190.823667 319.152479 
L 193.618558 318.681468 
L 196.413449 320.564646 
L 199.208341 319.432356 
L 202.003232 320.813793 
L 204.798123 319.729475 
L 207.593014 320.69654 
L 210.387905 321.404989 
L 213.182796 321.487357 
L 215.977687 321.920826 
L 218.772578 321.841991 
L 221.567469 322.174867 
L 224.36236 322.353686 
L 227.157251 322.676357 
L 229.952142 322.473945 
L 232.747033 322.747247 
L 235.541924 322.875613 
L 238.336815 323.222569 
L 241.131706 323.153571 
L 243.926597 323.374349 
L 246.721489 323.309656 
L 249.51638 323.44873 
L 252.311271 323.619099 
L 255.106162 323.654605 
L 257.901053 323.830055 
L 260.695944 323.905715 
L 263.490835 323.95682 
L 266.285726 323.821011 
L 269.080617 324.049169 
L 271.875508 324.02539 
L 274.670399 324.174571 
L 277.46529 324.11928 
L 280.260181 324.195767 
L 283.055072 324.290578 
L 285.849963 324.282 
L 288.644854 324.253491 
L 291.439745 324.335975 
L 294.234637 324.326227 
L 297.029528 324.440574 
L 299.824419 324.447543 
L 302.61931 324.500208 
L 305.414201 324.508189 
L 308.209092 324.534102 
L 311.003983 324.557756 
L 313.798874 324.582393 
L 316.593765 324.595043 
L 319.388656 324.629072 
L 322.183547 324.623856 
L 324.978438 324.653765 
L 327.773329 324.657436 
L 330.56822 324.669087 
L 333.363111 324.683417 
L 336.158002 324.695657 
L 338.952894 324.704898 
L 341.747785 324.706575 
L 344.542676 324.72 
" clip-path="url(#p8a67566528)" style="fill: none; stroke: #ff7f0e; stroke-width: 1.5; stroke-linecap: square"/>
   </g>
   <g id="patch_3">
    <path d="M 54.01375 339.84 
L 54.01375 7.2 
" style="fill: none; stroke: #000000; stroke-width: 0.8; stroke-linejoin: miter; stroke-linecap: square"/>
   </g>
   <g id="patch_4">
    <path d="M 358.377386 339.84 
L 358.377386 7.2 
" style="fill: none; stroke: #000000; stroke-width: 0.8; stroke-linejoin: miter; stroke-linecap: square"/>
   </g>
   <g id="patch_5">
    <path d="M 54.01375 339.84 
L 358.377386 339.84 
" style="fill: none; stroke: #000000; stroke-width: 0.8; stroke-linejoin: miter; stroke-linecap: square"/>
   </g>
   <g id="patch_6">
    <path d="M 54.01375 7.2 
L 358.377386 7.2 
" style="fill: none; stroke: #000000; stroke-width: 0.8; stroke-linejoin: miter; stroke-linecap: square"/>
   </g>
   <g id="legend_1">
    <g id="patch_7">
     <path d="M 99.906761 59.49875 
L 348.577386 59.49875 
Q 351.377386 59.49875 351.377386 56.69875 
L 351.377386 17 
Q 351.377386 14.2 348.577386 14.2 
L 99.906761 14.2 
Q 97.106761 14.2 97.106761 17 
L 97.106761 56.69875 
Q 97.106761 59.49875 99.906761 59.49875 
z
" style="fill: #ffffff; opacity: 0.8; stroke: #cccccc; stroke-linejoin: miter"/>
    </g>
    <g id="line2d_15">
     <path d="M 102.706761 25.537813 
L 116.706761 25.537813 
L 130.706761 25.537813 
" style="fill: none; stroke: #1f77b4; stroke-width: 1.5; stroke-linecap: square"/>
    </g>
    <g id="text_15">
     <!-- Without data standardization -->
     <g transform="translate(141.906761 30.437813) scale(0.14 -0.14)">
      <defs>
       <path id="DejaVuSans-57" d="M 213 4666 
L 850 4666 
L 1831 722 
L 2809 4666 
L 3519 4666 
L 4500 722 
L 5478 4666 
L 6119 4666 
L 4947 0 
L 4153 0 
L 3169 4050 
L 2175 0 
L 1381 0 
L 213 4666 
z
" transform="scale(0.015625)"/>
       <path id="DejaVuSans-69" d="M 603 3500 
L 1178 3500 
L 1178 0 
L 603 0 
L 603 3500 
z
M 603 4863 
L 1178 4863 
L 1178 4134 
L 603 4134 
L 603 4863 
z
" transform="scale(0.015625)"/>
       <path id="DejaVuSans-74" d="M 1172 4494 
L 1172 3500 
L 2356 3500 
L 2356 3053 
L 1172 3053 
L 1172 1153 
Q 1172 725 1289 603 
Q 1406 481 1766 481 
L 2356 481 
L 2356 0 
L 1766 0 
Q 1100 0 847 248 
Q 594 497 594 1153 
L 594 3053 
L 172 3053 
L 172 3500 
L 594 3500 
L 594 4494 
L 1172 4494 
z
" transform="scale(0.015625)"/>
       <path id="DejaVuSans-75" d="M 544 1381 
L 544 3500 
L 1119 3500 
L 1119 1403 
Q 1119 906 1312 657 
Q 1506 409 1894 409 
Q 2359 409 2629 706 
Q 2900 1003 2900 1516 
L 2900 3500 
L 3475 3500 
L 3475 0 
L 2900 0 
L 2900 538 
Q 2691 219 2414 64 
Q 2138 -91 1772 -91 
Q 1169 -91 856 284 
Q 544 659 544 1381 
z
M 1991 3584 
L 1991 3584 
z
" transform="scale(0.015625)"/>
       <path id="DejaVuSans-20" transform="scale(0.015625)"/>
       <path id="DejaVuSans-64" d="M 2906 2969 
L 2906 4863 
L 3481 4863 
L 3481 0 
L 2906 0 
L 2906 525 
Q 2725 213 2448 61 
Q 2172 -91 1784 -91 
Q 1150 -91 751 415 
Q 353 922 353 1747 
Q 353 2572 751 3078 
Q 1150 3584 1784 3584 
Q 2172 3584 2448 3432 
Q 2725 3281 2906 2969 
z
M 947 1747 
Q 947 1113 1208 752 
Q 1469 391 1925 391 
Q 2381 391 2643 752 
Q 2906 1113 2906 1747 
Q 2906 2381 2643 2742 
Q 2381 3103 1925 3103 
Q 1469 3103 1208 2742 
Q 947 2381 947 1747 
z
" transform="scale(0.015625)"/>
       <path id="DejaVuSans-61" d="M 2194 1759 
Q 1497 1759 1228 1600 
Q 959 1441 959 1056 
Q 959 750 1161 570 
Q 1363 391 1709 391 
Q 2188 391 2477 730 
Q 2766 1069 2766 1631 
L 2766 1759 
L 2194 1759 
z
M 3341 1997 
L 3341 0 
L 2766 0 
L 2766 531 
Q 2569 213 2275 61 
Q 1981 -91 1556 -91 
Q 1019 -91 701 211 
Q 384 513 384 1019 
Q 384 1609 779 1909 
Q 1175 2209 1959 2209 
L 2766 2209 
L 2766 2266 
Q 2766 2663 2505 2880 
Q 2244 3097 1772 3097 
Q 1472 3097 1187 3025 
Q 903 2953 641 2809 
L 641 3341 
Q 956 3463 1253 3523 
Q 1550 3584 1831 3584 
Q 2591 3584 2966 3190 
Q 3341 2797 3341 1997 
z
" transform="scale(0.015625)"/>
       <path id="DejaVuSans-6e" d="M 3513 2113 
L 3513 0 
L 2938 0 
L 2938 2094 
Q 2938 2591 2744 2837 
Q 2550 3084 2163 3084 
Q 1697 3084 1428 2787 
Q 1159 2491 1159 1978 
L 1159 0 
L 581 0 
L 581 3500 
L 1159 3500 
L 1159 2956 
Q 1366 3272 1645 3428 
Q 1925 3584 2291 3584 
Q 2894 3584 3203 3211 
Q 3513 2838 3513 2113 
z
" transform="scale(0.015625)"/>
       <path id="DejaVuSans-72" d="M 2631 2963 
Q 2534 3019 2420 3045 
Q 2306 3072 2169 3072 
Q 1681 3072 1420 2755 
Q 1159 2438 1159 1844 
L 1159 0 
L 581 0 
L 581 3500 
L 1159 3500 
L 1159 2956 
Q 1341 3275 1631 3429 
Q 1922 3584 2338 3584 
Q 2397 3584 2469 3576 
Q 2541 3569 2628 3553 
L 2631 2963 
z
" transform="scale(0.015625)"/>
       <path id="DejaVuSans-7a" d="M 353 3500 
L 3084 3500 
L 3084 2975 
L 922 459 
L 3084 459 
L 3084 0 
L 275 0 
L 275 525 
L 2438 3041 
L 353 3041 
L 353 3500 
z
" transform="scale(0.015625)"/>
      </defs>
      <use xlink:href="#DejaVuSans-57"/>
      <use xlink:href="#DejaVuSans-69" x="96.626953"/>
      <use xlink:href="#DejaVuSans-74" x="124.410156"/>
      <use xlink:href="#DejaVuSans-68" x="163.619141"/>
      <use xlink:href="#DejaVuSans-6f" x="226.998047"/>
      <use xlink:href="#DejaVuSans-75" x="288.179688"/>
      <use xlink:href="#DejaVuSans-74" x="351.558594"/>
      <use xlink:href="#DejaVuSans-20" x="390.767578"/>
      <use xlink:href="#DejaVuSans-64" x="422.554688"/>
      <use xlink:href="#DejaVuSans-61" x="486.03125"/>
      <use xlink:href="#DejaVuSans-74" x="547.310547"/>
      <use xlink:href="#DejaVuSans-61" x="586.519531"/>
      <use xlink:href="#DejaVuSans-20" x="647.798828"/>
      <use xlink:href="#DejaVuSans-73" x="679.585938"/>
      <use xlink:href="#DejaVuSans-74" x="731.685547"/>
      <use xlink:href="#DejaVuSans-61" x="770.894531"/>
      <use xlink:href="#DejaVuSans-6e" x="832.173828"/>
      <use xlink:href="#DejaVuSans-64" x="895.552734"/>
      <use xlink:href="#DejaVuSans-61" x="959.029297"/>
      <use xlink:href="#DejaVuSans-72" x="1020.308594"/>
      <use xlink:href="#DejaVuSans-64" x="1059.671875"/>
      <use xlink:href="#DejaVuSans-69" x="1123.148438"/>
      <use xlink:href="#DejaVuSans-7a" x="1150.931641"/>
      <use xlink:href="#DejaVuSans-61" x="1203.421875"/>
      <use xlink:href="#DejaVuSans-74" x="1264.701172"/>
      <use xlink:href="#DejaVuSans-69" x="1303.910156"/>
      <use xlink:href="#DejaVuSans-6f" x="1331.693359"/>
      <use xlink:href="#DejaVuSans-6e" x="1392.875"/>
     </g>
    </g>
    <g id="line2d_16">
     <path d="M 102.706761 46.087188 
L 116.706761 46.087188 
L 130.706761 46.087188 
" style="fill: none; stroke: #ff7f0e; stroke-width: 1.5; stroke-linecap: square"/>
    </g>
    <g id="text_16">
     <!-- With data standardization -->
     <g transform="translate(141.906761 50.987188) scale(0.14 -0.14)">
      <use xlink:href="#DejaVuSans-57"/>
      <use xlink:href="#DejaVuSans-69" x="96.626953"/>
      <use xlink:href="#DejaVuSans-74" x="124.410156"/>
      <use xlink:href="#DejaVuSans-68" x="163.619141"/>
      <use xlink:href="#DejaVuSans-20" x="226.998047"/>
      <use xlink:href="#DejaVuSans-64" x="258.785156"/>
      <use xlink:href="#DejaVuSans-61" x="322.261719"/>
      <use xlink:href="#DejaVuSans-74" x="383.541016"/>
      <use xlink:href="#DejaVuSans-61" x="422.75"/>
      <use xlink:href="#DejaVuSans-20" x="484.029297"/>
      <use xlink:href="#DejaVuSans-73" x="515.816406"/>
      <use xlink:href="#DejaVuSans-74" x="567.916016"/>
      <use xlink:href="#DejaVuSans-61" x="607.125"/>
      <use xlink:href="#DejaVuSans-6e" x="668.404297"/>
      <use xlink:href="#DejaVuSans-64" x="731.783203"/>
      <use xlink:href="#DejaVuSans-61" x="795.259766"/>
      <use xlink:href="#DejaVuSans-72" x="856.539062"/>
      <use xlink:href="#DejaVuSans-64" x="895.902344"/>
      <use xlink:href="#DejaVuSans-69" x="959.378906"/>
      <use xlink:href="#DejaVuSans-7a" x="987.162109"/>
      <use xlink:href="#DejaVuSans-61" x="1039.652344"/>
      <use xlink:href="#DejaVuSans-74" x="1100.931641"/>
      <use xlink:href="#DejaVuSans-69" x="1140.140625"/>
      <use xlink:href="#DejaVuSans-6f" x="1167.923828"/>
      <use xlink:href="#DejaVuSans-6e" x="1229.105469"/>
     </g>
    </g>
   </g>
  </g>
  <g id="axes_2">
   <g id="patch_8">
    <path d="M 419.250114 339.84 
L 723.61375 339.84 
L 723.61375 7.2 
L 419.250114 7.2 
z
" style="fill: #ffffff"/>
   </g>
   <g id="matplotlib.axis_3">
    <g id="xtick_7">
     <g id="line2d_17">
      <g>
       <use xlink:href="#mcb9ed0e73e" x="430.289933" y="339.84" style="stroke: #000000; stroke-width: 0.8"/>
      </g>
     </g>
     <g id="text_17">
      <!-- 0 -->
      <g transform="translate(425.836183 357.477813) scale(0.14 -0.14)">
       <use xlink:href="#DejaVuSans-30"/>
      </g>
     </g>
    </g>
    <g id="xtick_8">
     <g id="line2d_18">
      <g>
       <use xlink:href="#mcb9ed0e73e" x="486.187755" y="339.84" style="stroke: #000000; stroke-width: 0.8"/>
      </g>
     </g>
     <g id="text_18">
      <!-- 20 -->
      <g transform="translate(477.280255 357.477813) scale(0.14 -0.14)">
       <use xlink:href="#DejaVuSans-32"/>
       <use xlink:href="#DejaVuSans-30" x="63.623047"/>
      </g>
     </g>
    </g>
    <g id="xtick_9">
     <g id="line2d_19">
      <g>
       <use xlink:href="#mcb9ed0e73e" x="542.085576" y="339.84" style="stroke: #000000; stroke-width: 0.8"/>
      </g>
     </g>
     <g id="text_19">
      <!-- 40 -->
      <g transform="translate(533.178076 357.477813) scale(0.14 -0.14)">
       <use xlink:href="#DejaVuSans-34"/>
       <use xlink:href="#DejaVuSans-30" x="63.623047"/>
      </g>
     </g>
    </g>
    <g id="xtick_10">
     <g id="line2d_20">
      <g>
       <use xlink:href="#mcb9ed0e73e" x="597.983397" y="339.84" style="stroke: #000000; stroke-width: 0.8"/>
      </g>
     </g>
     <g id="text_20">
      <!-- 60 -->
      <g transform="translate(589.075897 357.477813) scale(0.14 -0.14)">
       <use xlink:href="#DejaVuSans-36"/>
       <use xlink:href="#DejaVuSans-30" x="63.623047"/>
      </g>
     </g>
    </g>
    <g id="xtick_11">
     <g id="line2d_21">
      <g>
       <use xlink:href="#mcb9ed0e73e" x="653.881218" y="339.84" style="stroke: #000000; stroke-width: 0.8"/>
      </g>
     </g>
     <g id="text_21">
      <!-- 80 -->
      <g transform="translate(644.973718 357.477813) scale(0.14 -0.14)">
       <use xlink:href="#DejaVuSans-38"/>
       <use xlink:href="#DejaVuSans-30" x="63.623047"/>
      </g>
     </g>
    </g>
    <g id="xtick_12">
     <g id="line2d_22">
      <g>
       <use xlink:href="#mcb9ed0e73e" x="709.779039" y="339.84" style="stroke: #000000; stroke-width: 0.8"/>
      </g>
     </g>
     <g id="text_22">
      <!-- 100 -->
      <g transform="translate(696.417789 357.477813) scale(0.14 -0.14)">
       <use xlink:href="#DejaVuSans-31"/>
       <use xlink:href="#DejaVuSans-30" x="63.623047"/>
       <use xlink:href="#DejaVuSans-30" x="127.246094"/>
      </g>
     </g>
    </g>
    <g id="text_23">
     <!-- Epochs -->
     <g transform="translate(546.350057 375.027188) scale(0.14 -0.14)">
      <use xlink:href="#DejaVuSans-45"/>
      <use xlink:href="#DejaVuSans-70" x="63.183594"/>
      <use xlink:href="#DejaVuSans-6f" x="126.660156"/>
      <use xlink:href="#DejaVuSans-63" x="187.841797"/>
      <use xlink:href="#DejaVuSans-68" x="242.822266"/>
      <use xlink:href="#DejaVuSans-73" x="306.201172"/>
     </g>
    </g>
   </g>
   <g id="matplotlib.axis_4">
    <g id="ytick_7">
     <g id="line2d_23">
      <g>
       <use xlink:href="#mc146f33c8e" x="419.250114" y="324.72" style="stroke: #000000; stroke-width: 0.8"/>
      </g>
     </g>
     <g id="text_24">
      <!-- 0.5 -->
      <g transform="translate(389.985739 330.038906) scale(0.14 -0.14)">
       <defs>
        <path id="DejaVuSans-35" d="M 691 4666 
L 3169 4666 
L 3169 4134 
L 1269 4134 
L 1269 2991 
Q 1406 3038 1543 3061 
Q 1681 3084 1819 3084 
Q 2600 3084 3056 2656 
Q 3513 2228 3513 1497 
Q 3513 744 3044 326 
Q 2575 -91 1722 -91 
Q 1428 -91 1123 -41 
Q 819 9 494 109 
L 494 744 
Q 775 591 1075 516 
Q 1375 441 1709 441 
Q 2250 441 2565 725 
Q 2881 1009 2881 1497 
Q 2881 1984 2565 2268 
Q 2250 2553 1709 2553 
Q 1456 2553 1204 2497 
Q 953 2441 691 2322 
L 691 4666 
z
" transform="scale(0.015625)"/>
       </defs>
       <use xlink:href="#DejaVuSans-30"/>
       <use xlink:href="#DejaVuSans-2e" x="63.623047"/>
       <use xlink:href="#DejaVuSans-35" x="95.410156"/>
      </g>
     </g>
    </g>
    <g id="ytick_8">
     <g id="line2d_24">
      <g>
       <use xlink:href="#mc146f33c8e" x="419.250114" y="264.24" style="stroke: #000000; stroke-width: 0.8"/>
      </g>
     </g>
     <g id="text_25">
      <!-- 0.6 -->
      <g transform="translate(389.985739 269.558906) scale(0.14 -0.14)">
       <use xlink:href="#DejaVuSans-30"/>
       <use xlink:href="#DejaVuSans-2e" x="63.623047"/>
       <use xlink:href="#DejaVuSans-36" x="95.410156"/>
      </g>
     </g>
    </g>
    <g id="ytick_9">
     <g id="line2d_25">
      <g>
       <use xlink:href="#mc146f33c8e" x="419.250114" y="203.76" style="stroke: #000000; stroke-width: 0.8"/>
      </g>
     </g>
     <g id="text_26">
      <!-- 0.7 -->
      <g transform="translate(389.985739 209.078906) scale(0.14 -0.14)">
       <defs>
        <path id="DejaVuSans-37" d="M 525 4666 
L 3525 4666 
L 3525 4397 
L 1831 0 
L 1172 0 
L 2766 4134 
L 525 4134 
L 525 4666 
z
" transform="scale(0.015625)"/>
       </defs>
       <use xlink:href="#DejaVuSans-30"/>
       <use xlink:href="#DejaVuSans-2e" x="63.623047"/>
       <use xlink:href="#DejaVuSans-37" x="95.410156"/>
      </g>
     </g>
    </g>
    <g id="ytick_10">
     <g id="line2d_26">
      <g>
       <use xlink:href="#mc146f33c8e" x="419.250114" y="143.28" style="stroke: #000000; stroke-width: 0.8"/>
      </g>
     </g>
     <g id="text_27">
      <!-- 0.8 -->
      <g transform="translate(389.985739 148.598906) scale(0.14 -0.14)">
       <use xlink:href="#DejaVuSans-30"/>
       <use xlink:href="#DejaVuSans-2e" x="63.623047"/>
       <use xlink:href="#DejaVuSans-38" x="95.410156"/>
      </g>
     </g>
    </g>
    <g id="ytick_11">
     <g id="line2d_27">
      <g>
       <use xlink:href="#mc146f33c8e" x="419.250114" y="82.8" style="stroke: #000000; stroke-width: 0.8"/>
      </g>
     </g>
     <g id="text_28">
      <!-- 0.9 -->
      <g transform="translate(389.985739 88.118906) scale(0.14 -0.14)">
       <defs>
        <path id="DejaVuSans-39" d="M 703 97 
L 703 672 
Q 941 559 1184 500 
Q 1428 441 1663 441 
Q 2288 441 2617 861 
Q 2947 1281 2994 2138 
Q 2813 1869 2534 1725 
Q 2256 1581 1919 1581 
Q 1219 1581 811 2004 
Q 403 2428 403 3163 
Q 403 3881 828 4315 
Q 1253 4750 1959 4750 
Q 2769 4750 3195 4129 
Q 3622 3509 3622 2328 
Q 3622 1225 3098 567 
Q 2575 -91 1691 -91 
Q 1453 -91 1209 -44 
Q 966 3 703 97 
z
M 1959 2075 
Q 2384 2075 2632 2365 
Q 2881 2656 2881 3163 
Q 2881 3666 2632 3958 
Q 2384 4250 1959 4250 
Q 1534 4250 1286 3958 
Q 1038 3666 1038 3163 
Q 1038 2656 1286 2365 
Q 1534 2075 1959 2075 
z
" transform="scale(0.015625)"/>
       </defs>
       <use xlink:href="#DejaVuSans-30"/>
       <use xlink:href="#DejaVuSans-2e" x="63.623047"/>
       <use xlink:href="#DejaVuSans-39" x="95.410156"/>
      </g>
     </g>
    </g>
    <g id="ytick_12">
     <g id="line2d_28">
      <g>
       <use xlink:href="#mc146f33c8e" x="419.250114" y="22.32" style="stroke: #000000; stroke-width: 0.8"/>
      </g>
     </g>
     <g id="text_29">
      <!-- 1.0 -->
      <g transform="translate(389.985739 27.638906) scale(0.14 -0.14)">
       <use xlink:href="#DejaVuSans-31"/>
       <use xlink:href="#DejaVuSans-2e" x="63.623047"/>
       <use xlink:href="#DejaVuSans-30" x="95.410156"/>
      </g>
     </g>
    </g>
    <g id="text_30">
     <!-- Accuracy -->
     <g transform="translate(383.074176 205.479375) rotate(-90) scale(0.14 -0.14)">
      <defs>
       <path id="DejaVuSans-41" d="M 2188 4044 
L 1331 1722 
L 3047 1722 
L 2188 4044 
z
M 1831 4666 
L 2547 4666 
L 4325 0 
L 3669 0 
L 3244 1197 
L 1141 1197 
L 716 0 
L 50 0 
L 1831 4666 
z
" transform="scale(0.015625)"/>
       <path id="DejaVuSans-79" d="M 2059 -325 
Q 1816 -950 1584 -1140 
Q 1353 -1331 966 -1331 
L 506 -1331 
L 506 -850 
L 844 -850 
Q 1081 -850 1212 -737 
Q 1344 -625 1503 -206 
L 1606 56 
L 191 3500 
L 800 3500 
L 1894 763 
L 2988 3500 
L 3597 3500 
L 2059 -325 
z
" transform="scale(0.015625)"/>
      </defs>
      <use xlink:href="#DejaVuSans-41"/>
      <use xlink:href="#DejaVuSans-63" x="66.658203"/>
      <use xlink:href="#DejaVuSans-63" x="121.638672"/>
      <use xlink:href="#DejaVuSans-75" x="176.619141"/>
      <use xlink:href="#DejaVuSans-72" x="239.998047"/>
      <use xlink:href="#DejaVuSans-61" x="281.111328"/>
      <use xlink:href="#DejaVuSans-63" x="342.390625"/>
      <use xlink:href="#DejaVuSans-79" x="397.371094"/>
     </g>
    </g>
   </g>
   <g id="line2d_29">
    <path d="M 433.084824 324.72 
L 435.879715 223.919988 
L 438.674606 191.663983 
L 441.469498 123.120012 
L 444.264389 70.70399 
L 447.05928 62.639998 
L 449.854171 62.639998 
L 452.649062 66.671994 
L 455.443953 42.480017 
L 458.238844 46.512013 
L 461.033735 66.671994 
L 463.828626 54.576005 
L 466.623517 66.671994 
L 469.418408 66.671994 
L 472.213299 58.608001 
L 475.00819 54.576005 
L 477.803081 50.544009 
L 480.597972 38.447985 
L 483.392863 38.447985 
L 486.187755 46.512013 
L 488.982646 62.639998 
L 491.777537 46.512013 
L 494.572428 42.480017 
L 497.367319 34.415988 
L 500.16221 26.351996 
L 502.957101 38.447985 
L 505.751992 50.544009 
L 508.546883 34.415988 
L 511.341774 50.544009 
L 514.136665 42.480017 
L 516.931556 46.512013 
L 519.726447 46.512013 
L 522.521338 38.447985 
L 525.316229 42.480017 
L 528.11112 34.415988 
L 530.906011 42.480017 
L 533.700903 38.447985 
L 536.495794 34.415988 
L 539.290685 38.447985 
L 542.085576 38.447985 
L 544.880467 46.512013 
L 547.675358 42.480017 
L 550.470249 42.480017 
L 553.26514 38.447985 
L 556.060031 34.415988 
L 558.854922 50.544009 
L 561.649813 50.544009 
L 564.444704 54.576005 
L 567.239595 46.512013 
L 570.034486 38.447985 
L 572.829377 42.480017 
L 575.624268 50.544009 
L 578.419159 42.480017 
L 581.214051 34.415988 
L 584.008942 46.512013 
L 586.803833 34.415988 
L 589.598724 46.512013 
L 592.393615 42.480017 
L 595.188506 66.671994 
L 597.983397 58.608001 
L 600.778288 54.576005 
L 603.573179 38.447985 
L 606.36807 34.415988 
L 609.162961 30.383992 
L 611.957852 34.415988 
L 614.752743 34.415988 
L 617.547634 38.447985 
L 620.342525 50.544009 
L 623.137416 34.415988 
L 625.932307 38.447985 
L 628.727199 34.415988 
L 631.52209 34.415988 
L 634.316981 42.480017 
L 637.111872 38.447985 
L 639.906763 46.512013 
L 642.701654 38.447985 
L 645.496545 34.415988 
L 648.291436 30.383992 
L 651.086327 34.415988 
L 653.881218 30.383992 
L 656.676109 34.415988 
L 659.471 30.383992 
L 662.265891 38.447985 
L 665.060782 34.415988 
L 667.855673 34.415988 
L 670.650564 34.415988 
L 673.445455 30.383992 
L 676.240347 34.415988 
L 679.035238 34.415988 
L 681.830129 30.383992 
L 684.62502 30.383992 
L 687.419911 30.383992 
L 690.214802 30.383992 
L 693.009693 34.415988 
L 695.804584 30.383992 
L 698.599475 50.544009 
L 701.394366 42.480017 
L 704.189257 34.415988 
L 706.984148 38.447985 
L 709.779039 46.512013 
" clip-path="url(#pcb182e4c50)" style="fill: none; stroke: #1f77b4; stroke-width: 1.5; stroke-linecap: square"/>
   </g>
   <g id="line2d_30">
    <path d="M 433.084824 187.631987 
L 435.879715 127.152008 
L 438.674606 123.120012 
L 441.469498 111.023988 
L 444.264389 106.991991 
L 447.05928 86.832011 
L 449.854171 70.70399 
L 452.649062 66.671994 
L 455.443953 58.608001 
L 458.238844 46.512013 
L 461.033735 34.415988 
L 463.828626 46.512013 
L 466.623517 38.447985 
L 469.418408 38.447985 
L 472.213299 46.512013 
L 475.00819 38.447985 
L 477.803081 30.383992 
L 480.597972 38.447985 
L 483.392863 34.415988 
L 486.187755 34.415988 
L 488.982646 34.415988 
L 491.777537 34.415988 
L 494.572428 34.415988 
L 497.367319 38.447985 
L 500.16221 34.415988 
L 502.957101 34.415988 
L 505.751992 34.415988 
L 508.546883 30.383992 
L 511.341774 30.383992 
L 514.136665 30.383992 
L 516.931556 30.383992 
L 519.726447 34.415988 
L 522.521338 30.383992 
L 525.316229 30.383992 
L 528.11112 30.383992 
L 530.906011 30.383992 
L 533.700903 26.351996 
L 536.495794 30.383992 
L 539.290685 26.351996 
L 542.085576 26.351996 
L 544.880467 26.351996 
L 547.675358 26.351996 
L 550.470249 26.351996 
L 553.26514 26.351996 
L 556.060031 26.351996 
L 558.854922 26.351996 
L 561.649813 22.32 
L 564.444704 26.351996 
L 567.239595 26.351996 
L 570.034486 26.351996 
L 572.829377 26.351996 
L 575.624268 22.32 
L 578.419159 22.32 
L 581.214051 22.32 
L 584.008942 22.32 
L 586.803833 22.32 
L 589.598724 22.32 
L 592.393615 22.32 
L 595.188506 22.32 
L 597.983397 22.32 
L 600.778288 22.32 
L 603.573179 22.32 
L 606.36807 22.32 
L 609.162961 22.32 
L 611.957852 22.32 
L 614.752743 22.32 
L 617.547634 22.32 
L 620.342525 22.32 
L 623.137416 22.32 
L 625.932307 22.32 
L 628.727199 22.32 
L 631.52209 22.32 
L 634.316981 22.32 
L 637.111872 22.32 
L 639.906763 22.32 
L 642.701654 22.32 
L 645.496545 22.32 
L 648.291436 22.32 
L 651.086327 22.32 
L 653.881218 22.32 
L 656.676109 22.32 
L 659.471 22.32 
L 662.265891 22.32 
L 665.060782 22.32 
L 667.855673 22.32 
L 670.650564 22.32 
L 673.445455 22.32 
L 676.240347 22.32 
L 679.035238 22.32 
L 681.830129 22.32 
L 684.62502 22.32 
L 687.419911 22.32 
L 690.214802 22.32 
L 693.009693 22.32 
L 695.804584 22.32 
L 698.599475 22.32 
L 701.394366 22.32 
L 704.189257 22.32 
L 706.984148 22.32 
L 709.779039 22.32 
" clip-path="url(#pcb182e4c50)" style="fill: none; stroke: #ff7f0e; stroke-width: 1.5; stroke-linecap: square"/>
   </g>
   <g id="patch_9">
    <path d="M 419.250114 339.84 
L 419.250114 7.2 
" style="fill: none; stroke: #000000; stroke-width: 0.8; stroke-linejoin: miter; stroke-linecap: square"/>
   </g>
   <g id="patch_10">
    <path d="M 723.61375 339.84 
L 723.61375 7.2 
" style="fill: none; stroke: #000000; stroke-width: 0.8; stroke-linejoin: miter; stroke-linecap: square"/>
   </g>
   <g id="patch_11">
    <path d="M 419.250114 339.84 
L 723.61375 339.84 
" style="fill: none; stroke: #000000; stroke-width: 0.8; stroke-linejoin: miter; stroke-linecap: square"/>
   </g>
   <g id="patch_12">
    <path d="M 419.250114 7.2 
L 723.61375 7.2 
" style="fill: none; stroke: #000000; stroke-width: 0.8; stroke-linejoin: miter; stroke-linecap: square"/>
   </g>
  </g>
 </g>
 <defs>
  <clipPath id="p8a67566528">
   <rect x="54.01375" y="7.2" width="304.363636" height="332.64"/>
  </clipPath>
  <clipPath id="pcb182e4c50">
   <rect x="419.250114" y="7.2" width="304.363636" height="332.64"/>
  </clipPath>
 </defs>
</svg>
