<?xml version="1.0" encoding="utf-8" standalone="no"?>
<!DOCTYPE svg PUBLIC "-//W3C//DTD SVG 1.1//EN"
  "http://www.w3.org/Graphics/SVG/1.1/DTD/svg11.dtd">
<svg xmlns:xlink="http://www.w3.org/1999/xlink" width="730.81375pt" height="274.25875pt" viewBox="0 0 730.81375 274.25875" xmlns="http://www.w3.org/2000/svg" version="1.1">
 <metadata>
  <rdf:RDF xmlns:dc="http://purl.org/dc/elements/1.1/" xmlns:cc="http://creativecommons.org/ns#" xmlns:rdf="http://www.w3.org/1999/02/22-rdf-syntax-ns#">
   <cc:Work>
    <dc:type rdf:resource="http://purl.org/dc/dcmitype/StillImage"/>
    <dc:date>2023-08-06T13:39:42.105592</dc:date>
    <dc:format>image/svg+xml</dc:format>
    <dc:creator>
     <cc:Agent>
      <dc:title>Matplotlib v3.7.2, https://matplotlib.org/</dc:title>
     </cc:Agent>
    </dc:creator>
   </cc:Work>
  </rdf:RDF>
 </metadata>
 <defs>
  <style type="text/css">*{stroke-linejoin: round; stroke-linecap: butt}</style>
 </defs>
 <g id="figure_1">
  <g id="patch_1">
   <path d="M 0 274.25875 
L 730.81375 274.25875 
L 730.81375 0 
L 0 0 
z
" style="fill: #ffffff"/>
  </g>
  <g id="axes_1">
   <g id="patch_2">
    <path d="M 54.01375 228.96 
L 358.377386 228.96 
L 358.377386 7.2 
L 54.01375 7.2 
z
" style="fill: #ffffff"/>
   </g>
   <g id="matplotlib.axis_1">
    <g id="xtick_1">
     <g id="line2d_1">
      <defs>
       <path id="md62e1d7676" d="M 0 0 
L 0 3.5 
" style="stroke: #000000; stroke-width: 0.8"/>
      </defs>
      <g>
       <use xlink:href="#md62e1d7676" x="65.05357" y="228.96" style="stroke: #000000; stroke-width: 0.8"/>
      </g>
     </g>
     <g id="text_1">
      <!-- 0 -->
      <g transform="translate(60.59982 246.597813) scale(0.14 -0.14)">
       <defs>
        <path id="DejaVuSans-30" d="M 2034 4250 
Q 1547 4250 1301 3770 
Q 1056 3291 1056 2328 
Q 1056 1369 1301 889 
Q 1547 409 2034 409 
Q 2525 409 2770 889 
Q 3016 1369 3016 2328 
Q 3016 3291 2770 3770 
Q 2525 4250 2034 4250 
z
M 2034 4750 
Q 2819 4750 3233 4129 
Q 3647 3509 3647 2328 
Q 3647 1150 3233 529 
Q 2819 -91 2034 -91 
Q 1250 -91 836 529 
Q 422 1150 422 2328 
Q 422 3509 836 4129 
Q 1250 4750 2034 4750 
z
" transform="scale(0.015625)"/>
       </defs>
       <use xlink:href="#DejaVuSans-30"/>
      </g>
     </g>
    </g>
    <g id="xtick_2">
     <g id="line2d_2">
      <g>
       <use xlink:href="#md62e1d7676" x="120.951391" y="228.96" style="stroke: #000000; stroke-width: 0.8"/>
      </g>
     </g>
     <g id="text_2">
      <!-- 20 -->
      <g transform="translate(112.043891 246.597813) scale(0.14 -0.14)">
       <defs>
        <path id="DejaVuSans-32" d="M 1228 531 
L 3431 531 
L 3431 0 
L 469 0 
L 469 531 
Q 828 903 1448 1529 
Q 2069 2156 2228 2338 
Q 2531 2678 2651 2914 
Q 2772 3150 2772 3378 
Q 2772 3750 2511 3984 
Q 2250 4219 1831 4219 
Q 1534 4219 1204 4116 
Q 875 4013 500 3803 
L 500 4441 
Q 881 4594 1212 4672 
Q 1544 4750 1819 4750 
Q 2544 4750 2975 4387 
Q 3406 4025 3406 3419 
Q 3406 3131 3298 2873 
Q 3191 2616 2906 2266 
Q 2828 2175 2409 1742 
Q 1991 1309 1228 531 
z
" transform="scale(0.015625)"/>
       </defs>
       <use xlink:href="#DejaVuSans-32"/>
       <use xlink:href="#DejaVuSans-30" x="63.623047"/>
      </g>
     </g>
    </g>
    <g id="xtick_3">
     <g id="line2d_3">
      <g>
       <use xlink:href="#md62e1d7676" x="176.849212" y="228.96" style="stroke: #000000; stroke-width: 0.8"/>
      </g>
     </g>
     <g id="text_3">
      <!-- 40 -->
      <g transform="translate(167.941712 246.597813) scale(0.14 -0.14)">
       <defs>
        <path id="DejaVuSans-34" d="M 2419 4116 
L 825 1625 
L 2419 1625 
L 2419 4116 
z
M 2253 4666 
L 3047 4666 
L 3047 1625 
L 3713 1625 
L 3713 1100 
L 3047 1100 
L 3047 0 
L 2419 0 
L 2419 1100 
L 313 1100 
L 313 1709 
L 2253 4666 
z
" transform="scale(0.015625)"/>
       </defs>
       <use xlink:href="#DejaVuSans-34"/>
       <use xlink:href="#DejaVuSans-30" x="63.623047"/>
      </g>
     </g>
    </g>
    <g id="xtick_4">
     <g id="line2d_4">
      <g>
       <use xlink:href="#md62e1d7676" x="232.747033" y="228.96" style="stroke: #000000; stroke-width: 0.8"/>
      </g>
     </g>
     <g id="text_4">
      <!-- 60 -->
      <g transform="translate(223.839533 246.597813) scale(0.14 -0.14)">
       <defs>
        <path id="DejaVuSans-36" d="M 2113 2584 
Q 1688 2584 1439 2293 
Q 1191 2003 1191 1497 
Q 1191 994 1439 701 
Q 1688 409 2113 409 
Q 2538 409 2786 701 
Q 3034 994 3034 1497 
Q 3034 2003 2786 2293 
Q 2538 2584 2113 2584 
z
M 3366 4563 
L 3366 3988 
Q 3128 4100 2886 4159 
Q 2644 4219 2406 4219 
Q 1781 4219 1451 3797 
Q 1122 3375 1075 2522 
Q 1259 2794 1537 2939 
Q 1816 3084 2150 3084 
Q 2853 3084 3261 2657 
Q 3669 2231 3669 1497 
Q 3669 778 3244 343 
Q 2819 -91 2113 -91 
Q 1303 -91 875 529 
Q 447 1150 447 2328 
Q 447 3434 972 4092 
Q 1497 4750 2381 4750 
Q 2619 4750 2861 4703 
Q 3103 4656 3366 4563 
z
" transform="scale(0.015625)"/>
       </defs>
       <use xlink:href="#DejaVuSans-36"/>
       <use xlink:href="#DejaVuSans-30" x="63.623047"/>
      </g>
     </g>
    </g>
    <g id="xtick_5">
     <g id="line2d_5">
      <g>
       <use xlink:href="#md62e1d7676" x="288.644854" y="228.96" style="stroke: #000000; stroke-width: 0.8"/>
      </g>
     </g>
     <g id="text_5">
      <!-- 80 -->
      <g transform="translate(279.737354 246.597813) scale(0.14 -0.14)">
       <defs>
        <path id="DejaVuSans-38" d="M 2034 2216 
Q 1584 2216 1326 1975 
Q 1069 1734 1069 1313 
Q 1069 891 1326 650 
Q 1584 409 2034 409 
Q 2484 409 2743 651 
Q 3003 894 3003 1313 
Q 3003 1734 2745 1975 
Q 2488 2216 2034 2216 
z
M 1403 2484 
Q 997 2584 770 2862 
Q 544 3141 544 3541 
Q 544 4100 942 4425 
Q 1341 4750 2034 4750 
Q 2731 4750 3128 4425 
Q 3525 4100 3525 3541 
Q 3525 3141 3298 2862 
Q 3072 2584 2669 2484 
Q 3125 2378 3379 2068 
Q 3634 1759 3634 1313 
Q 3634 634 3220 271 
Q 2806 -91 2034 -91 
Q 1263 -91 848 271 
Q 434 634 434 1313 
Q 434 1759 690 2068 
Q 947 2378 1403 2484 
z
M 1172 3481 
Q 1172 3119 1398 2916 
Q 1625 2713 2034 2713 
Q 2441 2713 2670 2916 
Q 2900 3119 2900 3481 
Q 2900 3844 2670 4047 
Q 2441 4250 2034 4250 
Q 1625 4250 1398 4047 
Q 1172 3844 1172 3481 
z
" transform="scale(0.015625)"/>
       </defs>
       <use xlink:href="#DejaVuSans-38"/>
       <use xlink:href="#DejaVuSans-30" x="63.623047"/>
      </g>
     </g>
    </g>
    <g id="xtick_6">
     <g id="line2d_6">
      <g>
       <use xlink:href="#md62e1d7676" x="344.542676" y="228.96" style="stroke: #000000; stroke-width: 0.8"/>
      </g>
     </g>
     <g id="text_6">
      <!-- 100 -->
      <g transform="translate(331.181426 246.597813) scale(0.14 -0.14)">
       <defs>
        <path id="DejaVuSans-31" d="M 794 531 
L 1825 531 
L 1825 4091 
L 703 3866 
L 703 4441 
L 1819 4666 
L 2450 4666 
L 2450 531 
L 3481 531 
L 3481 0 
L 794 0 
L 794 531 
z
" transform="scale(0.015625)"/>
       </defs>
       <use xlink:href="#DejaVuSans-31"/>
       <use xlink:href="#DejaVuSans-30" x="63.623047"/>
       <use xlink:href="#DejaVuSans-30" x="127.246094"/>
      </g>
     </g>
    </g>
    <g id="text_7">
     <!-- Epochs -->
     <g transform="translate(181.113693 264.147188) scale(0.14 -0.14)">
      <defs>
       <path id="DejaVuSans-45" d="M 628 4666 
L 3578 4666 
L 3578 4134 
L 1259 4134 
L 1259 2753 
L 3481 2753 
L 3481 2222 
L 1259 2222 
L 1259 531 
L 3634 531 
L 3634 0 
L 628 0 
L 628 4666 
z
" transform="scale(0.015625)"/>
       <path id="DejaVuSans-70" d="M 1159 525 
L 1159 -1331 
L 581 -1331 
L 581 3500 
L 1159 3500 
L 1159 2969 
Q 1341 3281 1617 3432 
Q 1894 3584 2278 3584 
Q 2916 3584 3314 3078 
Q 3713 2572 3713 1747 
Q 3713 922 3314 415 
Q 2916 -91 2278 -91 
Q 1894 -91 1617 61 
Q 1341 213 1159 525 
z
M 3116 1747 
Q 3116 2381 2855 2742 
Q 2594 3103 2138 3103 
Q 1681 3103 1420 2742 
Q 1159 2381 1159 1747 
Q 1159 1113 1420 752 
Q 1681 391 2138 391 
Q 2594 391 2855 752 
Q 3116 1113 3116 1747 
z
" transform="scale(0.015625)"/>
       <path id="DejaVuSans-6f" d="M 1959 3097 
Q 1497 3097 1228 2736 
Q 959 2375 959 1747 
Q 959 1119 1226 758 
Q 1494 397 1959 397 
Q 2419 397 2687 759 
Q 2956 1122 2956 1747 
Q 2956 2369 2687 2733 
Q 2419 3097 1959 3097 
z
M 1959 3584 
Q 2709 3584 3137 3096 
Q 3566 2609 3566 1747 
Q 3566 888 3137 398 
Q 2709 -91 1959 -91 
Q 1206 -91 779 398 
Q 353 888 353 1747 
Q 353 2609 779 3096 
Q 1206 3584 1959 3584 
z
" transform="scale(0.015625)"/>
       <path id="DejaVuSans-63" d="M 3122 3366 
L 3122 2828 
Q 2878 2963 2633 3030 
Q 2388 3097 2138 3097 
Q 1578 3097 1268 2742 
Q 959 2388 959 1747 
Q 959 1106 1268 751 
Q 1578 397 2138 397 
Q 2388 397 2633 464 
Q 2878 531 3122 666 
L 3122 134 
Q 2881 22 2623 -34 
Q 2366 -91 2075 -91 
Q 1284 -91 818 406 
Q 353 903 353 1747 
Q 353 2603 823 3093 
Q 1294 3584 2113 3584 
Q 2378 3584 2631 3529 
Q 2884 3475 3122 3366 
z
" transform="scale(0.015625)"/>
       <path id="DejaVuSans-68" d="M 3513 2113 
L 3513 0 
L 2938 0 
L 2938 2094 
Q 2938 2591 2744 2837 
Q 2550 3084 2163 3084 
Q 1697 3084 1428 2787 
Q 1159 2491 1159 1978 
L 1159 0 
L 581 0 
L 581 4863 
L 1159 4863 
L 1159 2956 
Q 1366 3272 1645 3428 
Q 1925 3584 2291 3584 
Q 2894 3584 3203 3211 
Q 3513 2838 3513 2113 
z
" transform="scale(0.015625)"/>
       <path id="DejaVuSans-73" d="M 2834 3397 
L 2834 2853 
Q 2591 2978 2328 3040 
Q 2066 3103 1784 3103 
Q 1356 3103 1142 2972 
Q 928 2841 928 2578 
Q 928 2378 1081 2264 
Q 1234 2150 1697 2047 
L 1894 2003 
Q 2506 1872 2764 1633 
Q 3022 1394 3022 966 
Q 3022 478 2636 193 
Q 2250 -91 1575 -91 
Q 1294 -91 989 -36 
Q 684 19 347 128 
L 347 722 
Q 666 556 975 473 
Q 1284 391 1588 391 
Q 1994 391 2212 530 
Q 2431 669 2431 922 
Q 2431 1156 2273 1281 
Q 2116 1406 1581 1522 
L 1381 1569 
Q 847 1681 609 1914 
Q 372 2147 372 2553 
Q 372 3047 722 3315 
Q 1072 3584 1716 3584 
Q 2034 3584 2315 3537 
Q 2597 3491 2834 3397 
z
" transform="scale(0.015625)"/>
      </defs>
      <use xlink:href="#DejaVuSans-45"/>
      <use xlink:href="#DejaVuSans-70" x="63.183594"/>
      <use xlink:href="#DejaVuSans-6f" x="126.660156"/>
      <use xlink:href="#DejaVuSans-63" x="187.841797"/>
      <use xlink:href="#DejaVuSans-68" x="242.822266"/>
      <use xlink:href="#DejaVuSans-73" x="306.201172"/>
     </g>
    </g>
   </g>
   <g id="matplotlib.axis_2">
    <g id="ytick_1">
     <g id="line2d_7">
      <defs>
       <path id="m5311be52a4" d="M 0 0 
L -3.5 0 
" style="stroke: #000000; stroke-width: 0.8"/>
      </defs>
      <g>
       <use xlink:href="#m5311be52a4" x="54.01375" y="219.051727" style="stroke: #000000; stroke-width: 0.8"/>
      </g>
     </g>
     <g id="text_8">
      <!-- 0.0 -->
      <g transform="translate(24.749375 224.370633) scale(0.14 -0.14)">
       <defs>
        <path id="DejaVuSans-2e" d="M 684 794 
L 1344 794 
L 1344 0 
L 684 0 
L 684 794 
z
" transform="scale(0.015625)"/>
       </defs>
       <use xlink:href="#DejaVuSans-30"/>
       <use xlink:href="#DejaVuSans-2e" x="63.623047"/>
       <use xlink:href="#DejaVuSans-30" x="95.410156"/>
      </g>
     </g>
    </g>
    <g id="ytick_2">
     <g id="line2d_8">
      <g>
       <use xlink:href="#m5311be52a4" x="54.01375" y="177.874278" style="stroke: #000000; stroke-width: 0.8"/>
      </g>
     </g>
     <g id="text_9">
      <!-- 0.2 -->
      <g transform="translate(24.749375 183.193184) scale(0.14 -0.14)">
       <use xlink:href="#DejaVuSans-30"/>
       <use xlink:href="#DejaVuSans-2e" x="63.623047"/>
       <use xlink:href="#DejaVuSans-32" x="95.410156"/>
      </g>
     </g>
    </g>
    <g id="ytick_3">
     <g id="line2d_9">
      <g>
       <use xlink:href="#m5311be52a4" x="54.01375" y="136.696828" style="stroke: #000000; stroke-width: 0.8"/>
      </g>
     </g>
     <g id="text_10">
      <!-- 0.4 -->
      <g transform="translate(24.749375 142.015734) scale(0.14 -0.14)">
       <use xlink:href="#DejaVuSans-30"/>
       <use xlink:href="#DejaVuSans-2e" x="63.623047"/>
       <use xlink:href="#DejaVuSans-34" x="95.410156"/>
      </g>
     </g>
    </g>
    <g id="ytick_4">
     <g id="line2d_10">
      <g>
       <use xlink:href="#m5311be52a4" x="54.01375" y="95.519379" style="stroke: #000000; stroke-width: 0.8"/>
      </g>
     </g>
     <g id="text_11">
      <!-- 0.6 -->
      <g transform="translate(24.749375 100.838285) scale(0.14 -0.14)">
       <use xlink:href="#DejaVuSans-30"/>
       <use xlink:href="#DejaVuSans-2e" x="63.623047"/>
       <use xlink:href="#DejaVuSans-36" x="95.410156"/>
      </g>
     </g>
    </g>
    <g id="ytick_5">
     <g id="line2d_11">
      <g>
       <use xlink:href="#m5311be52a4" x="54.01375" y="54.34193" style="stroke: #000000; stroke-width: 0.8"/>
      </g>
     </g>
     <g id="text_12">
      <!-- 0.8 -->
      <g transform="translate(24.749375 59.660836) scale(0.14 -0.14)">
       <use xlink:href="#DejaVuSans-30"/>
       <use xlink:href="#DejaVuSans-2e" x="63.623047"/>
       <use xlink:href="#DejaVuSans-38" x="95.410156"/>
      </g>
     </g>
    </g>
    <g id="ytick_6">
     <g id="line2d_12">
      <g>
       <use xlink:href="#m5311be52a4" x="54.01375" y="13.16448" style="stroke: #000000; stroke-width: 0.8"/>
      </g>
     </g>
     <g id="text_13">
      <!-- 1.0 -->
      <g transform="translate(24.749375 18.483386) scale(0.14 -0.14)">
       <use xlink:href="#DejaVuSans-31"/>
       <use xlink:href="#DejaVuSans-2e" x="63.623047"/>
       <use xlink:href="#DejaVuSans-30" x="95.410156"/>
      </g>
     </g>
    </g>
    <g id="text_14">
     <!-- Valeur de la fonction de coût (loss) -->
     <g transform="translate(17.837813 240.0025) rotate(-90) scale(0.14 -0.14)">
      <defs>
       <path id="DejaVuSans-56" d="M 1831 0 
L 50 4666 
L 709 4666 
L 2188 738 
L 3669 4666 
L 4325 4666 
L 2547 0 
L 1831 0 
z
" transform="scale(0.015625)"/>
       <path id="DejaVuSans-61" d="M 2194 1759 
Q 1497 1759 1228 1600 
Q 959 1441 959 1056 
Q 959 750 1161 570 
Q 1363 391 1709 391 
Q 2188 391 2477 730 
Q 2766 1069 2766 1631 
L 2766 1759 
L 2194 1759 
z
M 3341 1997 
L 3341 0 
L 2766 0 
L 2766 531 
Q 2569 213 2275 61 
Q 1981 -91 1556 -91 
Q 1019 -91 701 211 
Q 384 513 384 1019 
Q 384 1609 779 1909 
Q 1175 2209 1959 2209 
L 2766 2209 
L 2766 2266 
Q 2766 2663 2505 2880 
Q 2244 3097 1772 3097 
Q 1472 3097 1187 3025 
Q 903 2953 641 2809 
L 641 3341 
Q 956 3463 1253 3523 
Q 1550 3584 1831 3584 
Q 2591 3584 2966 3190 
Q 3341 2797 3341 1997 
z
" transform="scale(0.015625)"/>
       <path id="DejaVuSans-6c" d="M 603 4863 
L 1178 4863 
L 1178 0 
L 603 0 
L 603 4863 
z
" transform="scale(0.015625)"/>
       <path id="DejaVuSans-65" d="M 3597 1894 
L 3597 1613 
L 953 1613 
Q 991 1019 1311 708 
Q 1631 397 2203 397 
Q 2534 397 2845 478 
Q 3156 559 3463 722 
L 3463 178 
Q 3153 47 2828 -22 
Q 2503 -91 2169 -91 
Q 1331 -91 842 396 
Q 353 884 353 1716 
Q 353 2575 817 3079 
Q 1281 3584 2069 3584 
Q 2775 3584 3186 3129 
Q 3597 2675 3597 1894 
z
M 3022 2063 
Q 3016 2534 2758 2815 
Q 2500 3097 2075 3097 
Q 1594 3097 1305 2825 
Q 1016 2553 972 2059 
L 3022 2063 
z
" transform="scale(0.015625)"/>
       <path id="DejaVuSans-75" d="M 544 1381 
L 544 3500 
L 1119 3500 
L 1119 1403 
Q 1119 906 1312 657 
Q 1506 409 1894 409 
Q 2359 409 2629 706 
Q 2900 1003 2900 1516 
L 2900 3500 
L 3475 3500 
L 3475 0 
L 2900 0 
L 2900 538 
Q 2691 219 2414 64 
Q 2138 -91 1772 -91 
Q 1169 -91 856 284 
Q 544 659 544 1381 
z
M 1991 3584 
L 1991 3584 
z
" transform="scale(0.015625)"/>
       <path id="DejaVuSans-72" d="M 2631 2963 
Q 2534 3019 2420 3045 
Q 2306 3072 2169 3072 
Q 1681 3072 1420 2755 
Q 1159 2438 1159 1844 
L 1159 0 
L 581 0 
L 581 3500 
L 1159 3500 
L 1159 2956 
Q 1341 3275 1631 3429 
Q 1922 3584 2338 3584 
Q 2397 3584 2469 3576 
Q 2541 3569 2628 3553 
L 2631 2963 
z
" transform="scale(0.015625)"/>
       <path id="DejaVuSans-20" transform="scale(0.015625)"/>
       <path id="DejaVuSans-64" d="M 2906 2969 
L 2906 4863 
L 3481 4863 
L 3481 0 
L 2906 0 
L 2906 525 
Q 2725 213 2448 61 
Q 2172 -91 1784 -91 
Q 1150 -91 751 415 
Q 353 922 353 1747 
Q 353 2572 751 3078 
Q 1150 3584 1784 3584 
Q 2172 3584 2448 3432 
Q 2725 3281 2906 2969 
z
M 947 1747 
Q 947 1113 1208 752 
Q 1469 391 1925 391 
Q 2381 391 2643 752 
Q 2906 1113 2906 1747 
Q 2906 2381 2643 2742 
Q 2381 3103 1925 3103 
Q 1469 3103 1208 2742 
Q 947 2381 947 1747 
z
" transform="scale(0.015625)"/>
       <path id="DejaVuSans-66" d="M 2375 4863 
L 2375 4384 
L 1825 4384 
Q 1516 4384 1395 4259 
Q 1275 4134 1275 3809 
L 1275 3500 
L 2222 3500 
L 2222 3053 
L 1275 3053 
L 1275 0 
L 697 0 
L 697 3053 
L 147 3053 
L 147 3500 
L 697 3500 
L 697 3744 
Q 697 4328 969 4595 
Q 1241 4863 1831 4863 
L 2375 4863 
z
" transform="scale(0.015625)"/>
       <path id="DejaVuSans-6e" d="M 3513 2113 
L 3513 0 
L 2938 0 
L 2938 2094 
Q 2938 2591 2744 2837 
Q 2550 3084 2163 3084 
Q 1697 3084 1428 2787 
Q 1159 2491 1159 1978 
L 1159 0 
L 581 0 
L 581 3500 
L 1159 3500 
L 1159 2956 
Q 1366 3272 1645 3428 
Q 1925 3584 2291 3584 
Q 2894 3584 3203 3211 
Q 3513 2838 3513 2113 
z
" transform="scale(0.015625)"/>
       <path id="DejaVuSans-74" d="M 1172 4494 
L 1172 3500 
L 2356 3500 
L 2356 3053 
L 1172 3053 
L 1172 1153 
Q 1172 725 1289 603 
Q 1406 481 1766 481 
L 2356 481 
L 2356 0 
L 1766 0 
Q 1100 0 847 248 
Q 594 497 594 1153 
L 594 3053 
L 172 3053 
L 172 3500 
L 594 3500 
L 594 4494 
L 1172 4494 
z
" transform="scale(0.015625)"/>
       <path id="DejaVuSans-69" d="M 603 3500 
L 1178 3500 
L 1178 0 
L 603 0 
L 603 3500 
z
M 603 4863 
L 1178 4863 
L 1178 4134 
L 603 4134 
L 603 4863 
z
" transform="scale(0.015625)"/>
       <path id="DejaVuSans-fb" d="M 544 1381 
L 544 3500 
L 1119 3500 
L 1119 1403 
Q 1119 906 1312 657 
Q 1506 409 1894 409 
Q 2359 409 2629 706 
Q 2900 1003 2900 1516 
L 2900 3500 
L 3475 3500 
L 3475 0 
L 2900 0 
L 2900 538 
Q 2691 219 2414 64 
Q 2138 -91 1772 -91 
Q 1169 -91 856 284 
Q 544 659 544 1381 
z
M 1991 3584 
L 1991 3584 
z
M 1753 5119 
L 2215 5119 
L 2981 3944 
L 2547 3944 
L 1984 4709 
L 1422 3944 
L 987 3944 
L 1753 5119 
z
" transform="scale(0.015625)"/>
       <path id="DejaVuSans-28" d="M 1984 4856 
Q 1566 4138 1362 3434 
Q 1159 2731 1159 2009 
Q 1159 1288 1364 580 
Q 1569 -128 1984 -844 
L 1484 -844 
Q 1016 -109 783 600 
Q 550 1309 550 2009 
Q 550 2706 781 3412 
Q 1013 4119 1484 4856 
L 1984 4856 
z
" transform="scale(0.015625)"/>
       <path id="DejaVuSans-29" d="M 513 4856 
L 1013 4856 
Q 1481 4119 1714 3412 
Q 1947 2706 1947 2009 
Q 1947 1309 1714 600 
Q 1481 -109 1013 -844 
L 513 -844 
Q 928 -128 1133 580 
Q 1338 1288 1338 2009 
Q 1338 2731 1133 3434 
Q 928 4138 513 4856 
z
" transform="scale(0.015625)"/>
      </defs>
      <use xlink:href="#DejaVuSans-56"/>
      <use xlink:href="#DejaVuSans-61" x="60.658203"/>
      <use xlink:href="#DejaVuSans-6c" x="121.9375"/>
      <use xlink:href="#DejaVuSans-65" x="149.720703"/>
      <use xlink:href="#DejaVuSans-75" x="211.244141"/>
      <use xlink:href="#DejaVuSans-72" x="274.623047"/>
      <use xlink:href="#DejaVuSans-20" x="315.736328"/>
      <use xlink:href="#DejaVuSans-64" x="347.523438"/>
      <use xlink:href="#DejaVuSans-65" x="411"/>
      <use xlink:href="#DejaVuSans-20" x="472.523438"/>
      <use xlink:href="#DejaVuSans-6c" x="504.310547"/>
      <use xlink:href="#DejaVuSans-61" x="532.09375"/>
      <use xlink:href="#DejaVuSans-20" x="593.373047"/>
      <use xlink:href="#DejaVuSans-66" x="625.160156"/>
      <use xlink:href="#DejaVuSans-6f" x="660.365234"/>
      <use xlink:href="#DejaVuSans-6e" x="721.546875"/>
      <use xlink:href="#DejaVuSans-63" x="784.925781"/>
      <use xlink:href="#DejaVuSans-74" x="839.90625"/>
      <use xlink:href="#DejaVuSans-69" x="879.115234"/>
      <use xlink:href="#DejaVuSans-6f" x="906.898438"/>
      <use xlink:href="#DejaVuSans-6e" x="968.080078"/>
      <use xlink:href="#DejaVuSans-20" x="1031.458984"/>
      <use xlink:href="#DejaVuSans-64" x="1063.246094"/>
      <use xlink:href="#DejaVuSans-65" x="1126.722656"/>
      <use xlink:href="#DejaVuSans-20" x="1188.246094"/>
      <use xlink:href="#DejaVuSans-63" x="1220.033203"/>
      <use xlink:href="#DejaVuSans-6f" x="1275.013672"/>
      <use xlink:href="#DejaVuSans-fb" x="1336.195312"/>
      <use xlink:href="#DejaVuSans-74" x="1399.574219"/>
      <use xlink:href="#DejaVuSans-20" x="1438.783203"/>
      <use xlink:href="#DejaVuSans-28" x="1470.570312"/>
      <use xlink:href="#DejaVuSans-6c" x="1509.583984"/>
      <use xlink:href="#DejaVuSans-6f" x="1537.367188"/>
      <use xlink:href="#DejaVuSans-73" x="1598.548828"/>
      <use xlink:href="#DejaVuSans-73" x="1650.648438"/>
      <use xlink:href="#DejaVuSans-29" x="1702.748047"/>
     </g>
    </g>
   </g>
   <g id="line2d_13">
    <path d="M 67.848461 17.28 
L 70.643352 62.901557 
L 73.438243 106.661526 
L 76.233134 129.817628 
L 79.028025 145.012702 
L 81.822916 155.454948 
L 84.617807 164.844179 
L 87.412698 174.228986 
L 90.207589 182.337203 
L 93.00248 189.515921 
L 95.797371 184.319709 
L 98.592262 191.371069 
L 101.387153 185.44392 
L 104.182045 187.259348 
L 106.976936 197.173507 
L 109.771827 195.74449 
L 112.566718 198.466277 
L 115.361609 200.634957 
L 118.1565 200.590811 
L 120.951391 192.150914 
L 123.746282 193.537774 
L 126.541173 198.350495 
L 129.336064 201.35086 
L 132.130955 202.710734 
L 134.925846 203.612128 
L 137.720737 203.363482 
L 140.515628 202.045829 
L 143.310519 203.261512 
L 146.10541 201.907203 
L 148.900301 201.917358 
L 151.695193 200.025627 
L 154.490084 202.346503 
L 157.284975 202.282074 
L 160.079866 202.365802 
L 162.874757 205.387017 
L 165.669648 204.659679 
L 168.464539 203.957822 
L 171.25943 205.683776 
L 174.054321 204.3874 
L 176.849212 201.422144 
L 179.644103 203.023178 
L 182.438994 203.629957 
L 185.233885 202.789637 
L 188.028776 203.80611 
L 190.823667 200.812789 
L 193.618558 200.929905 
L 196.413449 196.657462 
L 199.208341 198.453603 
L 202.003232 193.967135 
L 204.798123 204.633321 
L 207.593014 204.309325 
L 210.387905 199.723332 
L 213.182796 203.620003 
L 215.977687 205.142794 
L 218.772578 203.393034 
L 221.567469 203.43079 
L 224.36236 203.289669 
L 227.157251 197.819573 
L 229.952142 193.224782 
L 232.747033 185.239137 
L 235.541924 195.212234 
L 238.336815 203.115766 
L 241.131706 204.085242 
L 243.926597 206.540956 
L 246.721489 206.71655 
L 249.51638 206.938533 
L 252.311271 206.071376 
L 255.106162 203.661214 
L 257.901053 207.711016 
L 260.695944 207.340924 
L 263.490835 207.728016 
L 266.285726 208.030622 
L 269.080617 207.062609 
L 271.875508 206.360189 
L 274.670399 203.274254 
L 277.46529 205.236951 
L 280.260181 207.812039 
L 283.055072 207.754564 
L 285.849963 206.928798 
L 288.644854 207.549795 
L 291.439745 207.593803 
L 294.234637 209.282665 
L 297.029528 208.123284 
L 299.824419 209.119561 
L 302.61931 206.178341 
L 305.414201 207.291665 
L 308.209092 208.626917 
L 311.003983 208.004836 
L 313.798874 206.739157 
L 316.593765 208.754208 
L 319.388656 209.054181 
L 322.183547 208.275166 
L 324.978438 209.005063 
L 327.773329 208.392642 
L 330.56822 206.464706 
L 333.363111 202.846157 
L 336.158002 202.731162 
L 338.952894 207.216111 
L 341.747785 207.030486 
L 344.542676 200.614213 
" clip-path="url(#p4a7169454b)" style="fill: none; stroke: #1f77b4; stroke-width: 1.5; stroke-linecap: square"/>
   </g>
   <g id="line2d_14">
    <path d="M 67.848461 29.168624 
L 70.643352 101.899342 
L 73.438243 138.776958 
L 76.233134 154.679988 
L 79.028025 163.707648 
L 81.822916 175.720174 
L 84.617807 178.115955 
L 87.412698 185.049647 
L 90.207589 191.750726 
L 93.00248 195.041465 
L 95.797371 197.341105 
L 98.592262 199.567555 
L 101.387153 203.044562 
L 104.182045 203.860358 
L 106.976936 204.659747 
L 109.771827 204.773739 
L 112.566718 207.149285 
L 115.361609 207.418215 
L 118.1565 209.717425 
L 120.951391 206.496853 
L 123.746282 209.093524 
L 126.541173 210.459157 
L 129.336064 208.821106 
L 132.130955 210.869933 
L 134.925846 210.811918 
L 137.720737 210.132385 
L 140.515628 211.739753 
L 143.310519 211.7853 
L 146.10541 212.811067 
L 148.900301 212.864813 
L 151.695193 211.359998 
L 154.490084 212.652691 
L 157.284975 213.110996 
L 160.079866 213.304582 
L 162.874757 212.657044 
L 165.669648 213.767599 
L 168.464539 214.85125 
L 171.25943 214.058022 
L 174.054321 214.724637 
L 176.849212 214.637814 
L 179.644103 215.076396 
L 182.438994 215.042028 
L 185.233885 215.295048 
L 188.028776 215.286861 
L 190.823667 215.142333 
L 193.618558 214.804895 
L 196.413449 216.087638 
L 199.208341 215.366717 
L 202.003232 216.280015 
L 204.798123 215.476475 
L 207.593014 216.185608 
L 210.387905 216.624522 
L 213.182796 216.676374 
L 215.977687 216.977312 
L 218.772578 216.908195 
L 221.567469 217.165412 
L 224.36236 217.284966 
L 227.157251 217.502992 
L 229.952142 217.393676 
L 232.747033 217.574748 
L 235.541924 217.639355 
L 238.336815 217.880068 
L 241.131706 217.845377 
L 243.926597 217.98521 
L 246.721489 217.951837 
L 249.51638 218.046363 
L 252.311271 218.15945 
L 255.106162 218.165333 
L 257.901053 218.300161 
L 260.695944 218.362238 
L 263.490835 218.389771 
L 266.285726 218.305163 
L 269.080617 218.446453 
L 271.875508 218.434644 
L 274.670399 218.519337 
L 277.46529 218.484652 
L 280.260181 218.541631 
L 283.055072 218.598993 
L 285.849963 218.59889 
L 288.644854 218.58076 
L 291.439745 218.630111 
L 294.234637 218.622449 
L 297.029528 218.697945 
L 299.824419 218.701426 
L 302.61931 218.738844 
L 305.414201 218.749025 
L 308.209092 218.757357 
L 311.003983 218.775864 
L 313.798874 218.788966 
L 316.593765 218.798861 
L 319.388656 218.819563 
L 322.183547 218.818308 
L 324.978438 218.836313 
L 327.773329 218.838922 
L 330.56822 218.846468 
L 333.363111 218.854632 
L 336.158002 218.863544 
L 338.952894 218.868792 
L 341.747785 218.869391 
L 344.542676 218.88 
" clip-path="url(#p4a7169454b)" style="fill: none; stroke: #ff7f0e; stroke-width: 1.5; stroke-linecap: square"/>
   </g>
   <g id="patch_3">
    <path d="M 54.01375 228.96 
L 54.01375 7.2 
" style="fill: none; stroke: #000000; stroke-width: 0.8; stroke-linejoin: miter; stroke-linecap: square"/>
   </g>
   <g id="patch_4">
    <path d="M 358.377386 228.96 
L 358.377386 7.2 
" style="fill: none; stroke: #000000; stroke-width: 0.8; stroke-linejoin: miter; stroke-linecap: square"/>
   </g>
   <g id="patch_5">
    <path d="M 54.01375 228.96 
L 358.377386 228.96 
" style="fill: none; stroke: #000000; stroke-width: 0.8; stroke-linejoin: miter; stroke-linecap: square"/>
   </g>
   <g id="patch_6">
    <path d="M 54.01375 7.2 
L 358.377386 7.2 
" style="fill: none; stroke: #000000; stroke-width: 0.8; stroke-linejoin: miter; stroke-linecap: square"/>
   </g>
   <g id="legend_1">
    <g id="patch_7">
     <path d="M 63.603011 59.49875 
L 348.577386 59.49875 
Q 351.377386 59.49875 351.377386 56.69875 
L 351.377386 17 
Q 351.377386 14.2 348.577386 14.2 
L 63.603011 14.2 
Q 60.803011 14.2 60.803011 17 
L 60.803011 56.69875 
Q 60.803011 59.49875 63.603011 59.49875 
z
" style="fill: #ffffff; opacity: 0.8; stroke: #cccccc; stroke-linejoin: miter"/>
    </g>
    <g id="line2d_15">
     <path d="M 66.403011 25.537812 
L 80.403011 25.537812 
L 94.403011 25.537812 
" style="fill: none; stroke: #1f77b4; stroke-width: 1.5; stroke-linecap: square"/>
    </g>
    <g id="text_15">
     <!-- Sans standardisation des données -->
     <g transform="translate(105.603011 30.437812) scale(0.14 -0.14)">
      <defs>
       <path id="DejaVuSans-53" d="M 3425 4513 
L 3425 3897 
Q 3066 4069 2747 4153 
Q 2428 4238 2131 4238 
Q 1616 4238 1336 4038 
Q 1056 3838 1056 3469 
Q 1056 3159 1242 3001 
Q 1428 2844 1947 2747 
L 2328 2669 
Q 3034 2534 3370 2195 
Q 3706 1856 3706 1288 
Q 3706 609 3251 259 
Q 2797 -91 1919 -91 
Q 1588 -91 1214 -16 
Q 841 59 441 206 
L 441 856 
Q 825 641 1194 531 
Q 1563 422 1919 422 
Q 2459 422 2753 634 
Q 3047 847 3047 1241 
Q 3047 1584 2836 1778 
Q 2625 1972 2144 2069 
L 1759 2144 
Q 1053 2284 737 2584 
Q 422 2884 422 3419 
Q 422 4038 858 4394 
Q 1294 4750 2059 4750 
Q 2388 4750 2728 4690 
Q 3069 4631 3425 4513 
z
" transform="scale(0.015625)"/>
       <path id="DejaVuSans-e9" d="M 3597 1894 
L 3597 1613 
L 953 1613 
Q 991 1019 1311 708 
Q 1631 397 2203 397 
Q 2534 397 2845 478 
Q 3156 559 3463 722 
L 3463 178 
Q 3153 47 2828 -22 
Q 2503 -91 2169 -91 
Q 1331 -91 842 396 
Q 353 884 353 1716 
Q 353 2575 817 3079 
Q 1281 3584 2069 3584 
Q 2775 3584 3186 3129 
Q 3597 2675 3597 1894 
z
M 3022 2063 
Q 3016 2534 2758 2815 
Q 2500 3097 2075 3097 
Q 1594 3097 1305 2825 
Q 1016 2553 972 2059 
L 3022 2063 
z
M 2466 5119 
L 3088 5119 
L 2070 3944 
L 1591 3944 
L 2466 5119 
z
" transform="scale(0.015625)"/>
      </defs>
      <use xlink:href="#DejaVuSans-53"/>
      <use xlink:href="#DejaVuSans-61" x="63.476562"/>
      <use xlink:href="#DejaVuSans-6e" x="124.755859"/>
      <use xlink:href="#DejaVuSans-73" x="188.134766"/>
      <use xlink:href="#DejaVuSans-20" x="240.234375"/>
      <use xlink:href="#DejaVuSans-73" x="272.021484"/>
      <use xlink:href="#DejaVuSans-74" x="324.121094"/>
      <use xlink:href="#DejaVuSans-61" x="363.330078"/>
      <use xlink:href="#DejaVuSans-6e" x="424.609375"/>
      <use xlink:href="#DejaVuSans-64" x="487.988281"/>
      <use xlink:href="#DejaVuSans-61" x="551.464844"/>
      <use xlink:href="#DejaVuSans-72" x="612.744141"/>
      <use xlink:href="#DejaVuSans-64" x="652.107422"/>
      <use xlink:href="#DejaVuSans-69" x="715.583984"/>
      <use xlink:href="#DejaVuSans-73" x="743.367188"/>
      <use xlink:href="#DejaVuSans-61" x="795.466797"/>
      <use xlink:href="#DejaVuSans-74" x="856.746094"/>
      <use xlink:href="#DejaVuSans-69" x="895.955078"/>
      <use xlink:href="#DejaVuSans-6f" x="923.738281"/>
      <use xlink:href="#DejaVuSans-6e" x="984.919922"/>
      <use xlink:href="#DejaVuSans-20" x="1048.298828"/>
      <use xlink:href="#DejaVuSans-64" x="1080.085938"/>
      <use xlink:href="#DejaVuSans-65" x="1143.5625"/>
      <use xlink:href="#DejaVuSans-73" x="1205.085938"/>
      <use xlink:href="#DejaVuSans-20" x="1257.185547"/>
      <use xlink:href="#DejaVuSans-64" x="1288.972656"/>
      <use xlink:href="#DejaVuSans-6f" x="1352.449219"/>
      <use xlink:href="#DejaVuSans-6e" x="1413.630859"/>
      <use xlink:href="#DejaVuSans-6e" x="1477.009766"/>
      <use xlink:href="#DejaVuSans-e9" x="1540.388672"/>
      <use xlink:href="#DejaVuSans-65" x="1601.912109"/>
      <use xlink:href="#DejaVuSans-73" x="1663.435547"/>
     </g>
    </g>
    <g id="line2d_16">
     <path d="M 66.403011 46.087187 
L 80.403011 46.087187 
L 94.403011 46.087187 
" style="fill: none; stroke: #ff7f0e; stroke-width: 1.5; stroke-linecap: square"/>
    </g>
    <g id="text_16">
     <!-- Avec standardisation des données -->
     <g transform="translate(105.603011 50.987187) scale(0.14 -0.14)">
      <defs>
       <path id="DejaVuSans-41" d="M 2188 4044 
L 1331 1722 
L 3047 1722 
L 2188 4044 
z
M 1831 4666 
L 2547 4666 
L 4325 0 
L 3669 0 
L 3244 1197 
L 1141 1197 
L 716 0 
L 50 0 
L 1831 4666 
z
" transform="scale(0.015625)"/>
       <path id="DejaVuSans-76" d="M 191 3500 
L 800 3500 
L 1894 563 
L 2988 3500 
L 3597 3500 
L 2284 0 
L 1503 0 
L 191 3500 
z
" transform="scale(0.015625)"/>
      </defs>
      <use xlink:href="#DejaVuSans-41"/>
      <use xlink:href="#DejaVuSans-76" x="62.533203"/>
      <use xlink:href="#DejaVuSans-65" x="121.712891"/>
      <use xlink:href="#DejaVuSans-63" x="183.236328"/>
      <use xlink:href="#DejaVuSans-20" x="238.216797"/>
      <use xlink:href="#DejaVuSans-73" x="270.003906"/>
      <use xlink:href="#DejaVuSans-74" x="322.103516"/>
      <use xlink:href="#DejaVuSans-61" x="361.3125"/>
      <use xlink:href="#DejaVuSans-6e" x="422.591797"/>
      <use xlink:href="#DejaVuSans-64" x="485.970703"/>
      <use xlink:href="#DejaVuSans-61" x="549.447266"/>
      <use xlink:href="#DejaVuSans-72" x="610.726562"/>
      <use xlink:href="#DejaVuSans-64" x="650.089844"/>
      <use xlink:href="#DejaVuSans-69" x="713.566406"/>
      <use xlink:href="#DejaVuSans-73" x="741.349609"/>
      <use xlink:href="#DejaVuSans-61" x="793.449219"/>
      <use xlink:href="#DejaVuSans-74" x="854.728516"/>
      <use xlink:href="#DejaVuSans-69" x="893.9375"/>
      <use xlink:href="#DejaVuSans-6f" x="921.720703"/>
      <use xlink:href="#DejaVuSans-6e" x="982.902344"/>
      <use xlink:href="#DejaVuSans-20" x="1046.28125"/>
      <use xlink:href="#DejaVuSans-64" x="1078.068359"/>
      <use xlink:href="#DejaVuSans-65" x="1141.544922"/>
      <use xlink:href="#DejaVuSans-73" x="1203.068359"/>
      <use xlink:href="#DejaVuSans-20" x="1255.167969"/>
      <use xlink:href="#DejaVuSans-64" x="1286.955078"/>
      <use xlink:href="#DejaVuSans-6f" x="1350.431641"/>
      <use xlink:href="#DejaVuSans-6e" x="1411.613281"/>
      <use xlink:href="#DejaVuSans-6e" x="1474.992188"/>
      <use xlink:href="#DejaVuSans-e9" x="1538.371094"/>
      <use xlink:href="#DejaVuSans-65" x="1599.894531"/>
      <use xlink:href="#DejaVuSans-73" x="1661.417969"/>
     </g>
    </g>
   </g>
  </g>
  <g id="axes_2">
   <g id="patch_8">
    <path d="M 419.250114 228.96 
L 723.61375 228.96 
L 723.61375 7.2 
L 419.250114 7.2 
z
" style="fill: #ffffff"/>
   </g>
   <g id="matplotlib.axis_3">
    <g id="xtick_7">
     <g id="line2d_17">
      <g>
       <use xlink:href="#md62e1d7676" x="430.289933" y="228.96" style="stroke: #000000; stroke-width: 0.8"/>
      </g>
     </g>
     <g id="text_17">
      <!-- 0 -->
      <g transform="translate(425.836183 246.597813) scale(0.14 -0.14)">
       <use xlink:href="#DejaVuSans-30"/>
      </g>
     </g>
    </g>
    <g id="xtick_8">
     <g id="line2d_18">
      <g>
       <use xlink:href="#md62e1d7676" x="486.187755" y="228.96" style="stroke: #000000; stroke-width: 0.8"/>
      </g>
     </g>
     <g id="text_18">
      <!-- 20 -->
      <g transform="translate(477.280255 246.597813) scale(0.14 -0.14)">
       <use xlink:href="#DejaVuSans-32"/>
       <use xlink:href="#DejaVuSans-30" x="63.623047"/>
      </g>
     </g>
    </g>
    <g id="xtick_9">
     <g id="line2d_19">
      <g>
       <use xlink:href="#md62e1d7676" x="542.085576" y="228.96" style="stroke: #000000; stroke-width: 0.8"/>
      </g>
     </g>
     <g id="text_19">
      <!-- 40 -->
      <g transform="translate(533.178076 246.597813) scale(0.14 -0.14)">
       <use xlink:href="#DejaVuSans-34"/>
       <use xlink:href="#DejaVuSans-30" x="63.623047"/>
      </g>
     </g>
    </g>
    <g id="xtick_10">
     <g id="line2d_20">
      <g>
       <use xlink:href="#md62e1d7676" x="597.983397" y="228.96" style="stroke: #000000; stroke-width: 0.8"/>
      </g>
     </g>
     <g id="text_20">
      <!-- 60 -->
      <g transform="translate(589.075897 246.597813) scale(0.14 -0.14)">
       <use xlink:href="#DejaVuSans-36"/>
       <use xlink:href="#DejaVuSans-30" x="63.623047"/>
      </g>
     </g>
    </g>
    <g id="xtick_11">
     <g id="line2d_21">
      <g>
       <use xlink:href="#md62e1d7676" x="653.881218" y="228.96" style="stroke: #000000; stroke-width: 0.8"/>
      </g>
     </g>
     <g id="text_21">
      <!-- 80 -->
      <g transform="translate(644.973718 246.597813) scale(0.14 -0.14)">
       <use xlink:href="#DejaVuSans-38"/>
       <use xlink:href="#DejaVuSans-30" x="63.623047"/>
      </g>
     </g>
    </g>
    <g id="xtick_12">
     <g id="line2d_22">
      <g>
       <use xlink:href="#md62e1d7676" x="709.779039" y="228.96" style="stroke: #000000; stroke-width: 0.8"/>
      </g>
     </g>
     <g id="text_22">
      <!-- 100 -->
      <g transform="translate(696.417789 246.597813) scale(0.14 -0.14)">
       <use xlink:href="#DejaVuSans-31"/>
       <use xlink:href="#DejaVuSans-30" x="63.623047"/>
       <use xlink:href="#DejaVuSans-30" x="127.246094"/>
      </g>
     </g>
    </g>
    <g id="text_23">
     <!-- Epochs -->
     <g transform="translate(546.350057 264.147188) scale(0.14 -0.14)">
      <use xlink:href="#DejaVuSans-45"/>
      <use xlink:href="#DejaVuSans-70" x="63.183594"/>
      <use xlink:href="#DejaVuSans-6f" x="126.660156"/>
      <use xlink:href="#DejaVuSans-63" x="187.841797"/>
      <use xlink:href="#DejaVuSans-68" x="242.822266"/>
      <use xlink:href="#DejaVuSans-73" x="306.201172"/>
     </g>
    </g>
   </g>
   <g id="matplotlib.axis_4">
    <g id="ytick_7">
     <g id="line2d_23">
      <g>
       <use xlink:href="#m5311be52a4" x="419.250114" y="218.88" style="stroke: #000000; stroke-width: 0.8"/>
      </g>
     </g>
     <g id="text_24">
      <!-- 0.5 -->
      <g transform="translate(389.985739 224.198906) scale(0.14 -0.14)">
       <defs>
        <path id="DejaVuSans-35" d="M 691 4666 
L 3169 4666 
L 3169 4134 
L 1269 4134 
L 1269 2991 
Q 1406 3038 1543 3061 
Q 1681 3084 1819 3084 
Q 2600 3084 3056 2656 
Q 3513 2228 3513 1497 
Q 3513 744 3044 326 
Q 2575 -91 1722 -91 
Q 1428 -91 1123 -41 
Q 819 9 494 109 
L 494 744 
Q 775 591 1075 516 
Q 1375 441 1709 441 
Q 2250 441 2565 725 
Q 2881 1009 2881 1497 
Q 2881 1984 2565 2268 
Q 2250 2553 1709 2553 
Q 1456 2553 1204 2497 
Q 953 2441 691 2322 
L 691 4666 
z
" transform="scale(0.015625)"/>
       </defs>
       <use xlink:href="#DejaVuSans-30"/>
       <use xlink:href="#DejaVuSans-2e" x="63.623047"/>
       <use xlink:href="#DejaVuSans-35" x="95.410156"/>
      </g>
     </g>
    </g>
    <g id="ytick_8">
     <g id="line2d_24">
      <g>
       <use xlink:href="#m5311be52a4" x="419.250114" y="178.56" style="stroke: #000000; stroke-width: 0.8"/>
      </g>
     </g>
     <g id="text_25">
      <!-- 0.6 -->
      <g transform="translate(389.985739 183.878906) scale(0.14 -0.14)">
       <use xlink:href="#DejaVuSans-30"/>
       <use xlink:href="#DejaVuSans-2e" x="63.623047"/>
       <use xlink:href="#DejaVuSans-36" x="95.410156"/>
      </g>
     </g>
    </g>
    <g id="ytick_9">
     <g id="line2d_25">
      <g>
       <use xlink:href="#m5311be52a4" x="419.250114" y="138.24" style="stroke: #000000; stroke-width: 0.8"/>
      </g>
     </g>
     <g id="text_26">
      <!-- 0.7 -->
      <g transform="translate(389.985739 143.558906) scale(0.14 -0.14)">
       <defs>
        <path id="DejaVuSans-37" d="M 525 4666 
L 3525 4666 
L 3525 4397 
L 1831 0 
L 1172 0 
L 2766 4134 
L 525 4134 
L 525 4666 
z
" transform="scale(0.015625)"/>
       </defs>
       <use xlink:href="#DejaVuSans-30"/>
       <use xlink:href="#DejaVuSans-2e" x="63.623047"/>
       <use xlink:href="#DejaVuSans-37" x="95.410156"/>
      </g>
     </g>
    </g>
    <g id="ytick_10">
     <g id="line2d_26">
      <g>
       <use xlink:href="#m5311be52a4" x="419.250114" y="97.92" style="stroke: #000000; stroke-width: 0.8"/>
      </g>
     </g>
     <g id="text_27">
      <!-- 0.8 -->
      <g transform="translate(389.985739 103.238906) scale(0.14 -0.14)">
       <use xlink:href="#DejaVuSans-30"/>
       <use xlink:href="#DejaVuSans-2e" x="63.623047"/>
       <use xlink:href="#DejaVuSans-38" x="95.410156"/>
      </g>
     </g>
    </g>
    <g id="ytick_11">
     <g id="line2d_27">
      <g>
       <use xlink:href="#m5311be52a4" x="419.250114" y="57.6" style="stroke: #000000; stroke-width: 0.8"/>
      </g>
     </g>
     <g id="text_28">
      <!-- 0.9 -->
      <g transform="translate(389.985739 62.918906) scale(0.14 -0.14)">
       <defs>
        <path id="DejaVuSans-39" d="M 703 97 
L 703 672 
Q 941 559 1184 500 
Q 1428 441 1663 441 
Q 2288 441 2617 861 
Q 2947 1281 2994 2138 
Q 2813 1869 2534 1725 
Q 2256 1581 1919 1581 
Q 1219 1581 811 2004 
Q 403 2428 403 3163 
Q 403 3881 828 4315 
Q 1253 4750 1959 4750 
Q 2769 4750 3195 4129 
Q 3622 3509 3622 2328 
Q 3622 1225 3098 567 
Q 2575 -91 1691 -91 
Q 1453 -91 1209 -44 
Q 966 3 703 97 
z
M 1959 2075 
Q 2384 2075 2632 2365 
Q 2881 2656 2881 3163 
Q 2881 3666 2632 3958 
Q 2384 4250 1959 4250 
Q 1534 4250 1286 3958 
Q 1038 3666 1038 3163 
Q 1038 2656 1286 2365 
Q 1534 2075 1959 2075 
z
" transform="scale(0.015625)"/>
       </defs>
       <use xlink:href="#DejaVuSans-30"/>
       <use xlink:href="#DejaVuSans-2e" x="63.623047"/>
       <use xlink:href="#DejaVuSans-39" x="95.410156"/>
      </g>
     </g>
    </g>
    <g id="ytick_12">
     <g id="line2d_28">
      <g>
       <use xlink:href="#m5311be52a4" x="419.250114" y="17.28" style="stroke: #000000; stroke-width: 0.8"/>
      </g>
     </g>
     <g id="text_29">
      <!-- 1.0 -->
      <g transform="translate(389.985739 22.598906) scale(0.14 -0.14)">
       <use xlink:href="#DejaVuSans-31"/>
       <use xlink:href="#DejaVuSans-2e" x="63.623047"/>
       <use xlink:href="#DejaVuSans-30" x="95.410156"/>
      </g>
     </g>
    </g>
    <g id="text_30">
     <!-- Taux de bonnes classifications -->
     <g transform="translate(383.074176 223.971406) rotate(-90) scale(0.14 -0.14)">
      <defs>
       <path id="DejaVuSans-54" d="M -19 4666 
L 3928 4666 
L 3928 4134 
L 2272 4134 
L 2272 0 
L 1638 0 
L 1638 4134 
L -19 4134 
L -19 4666 
z
" transform="scale(0.015625)"/>
       <path id="DejaVuSans-78" d="M 3513 3500 
L 2247 1797 
L 3578 0 
L 2900 0 
L 1881 1375 
L 863 0 
L 184 0 
L 1544 1831 
L 300 3500 
L 978 3500 
L 1906 2253 
L 2834 3500 
L 3513 3500 
z
" transform="scale(0.015625)"/>
       <path id="DejaVuSans-62" d="M 3116 1747 
Q 3116 2381 2855 2742 
Q 2594 3103 2138 3103 
Q 1681 3103 1420 2742 
Q 1159 2381 1159 1747 
Q 1159 1113 1420 752 
Q 1681 391 2138 391 
Q 2594 391 2855 752 
Q 3116 1113 3116 1747 
z
M 1159 2969 
Q 1341 3281 1617 3432 
Q 1894 3584 2278 3584 
Q 2916 3584 3314 3078 
Q 3713 2572 3713 1747 
Q 3713 922 3314 415 
Q 2916 -91 2278 -91 
Q 1894 -91 1617 61 
Q 1341 213 1159 525 
L 1159 0 
L 581 0 
L 581 4863 
L 1159 4863 
L 1159 2969 
z
" transform="scale(0.015625)"/>
      </defs>
      <use xlink:href="#DejaVuSans-54"/>
      <use xlink:href="#DejaVuSans-61" x="44.583984"/>
      <use xlink:href="#DejaVuSans-75" x="105.863281"/>
      <use xlink:href="#DejaVuSans-78" x="169.242188"/>
      <use xlink:href="#DejaVuSans-20" x="228.421875"/>
      <use xlink:href="#DejaVuSans-64" x="260.208984"/>
      <use xlink:href="#DejaVuSans-65" x="323.685547"/>
      <use xlink:href="#DejaVuSans-20" x="385.208984"/>
      <use xlink:href="#DejaVuSans-62" x="416.996094"/>
      <use xlink:href="#DejaVuSans-6f" x="480.472656"/>
      <use xlink:href="#DejaVuSans-6e" x="541.654297"/>
      <use xlink:href="#DejaVuSans-6e" x="605.033203"/>
      <use xlink:href="#DejaVuSans-65" x="668.412109"/>
      <use xlink:href="#DejaVuSans-73" x="729.935547"/>
      <use xlink:href="#DejaVuSans-20" x="782.035156"/>
      <use xlink:href="#DejaVuSans-63" x="813.822266"/>
      <use xlink:href="#DejaVuSans-6c" x="868.802734"/>
      <use xlink:href="#DejaVuSans-61" x="896.585938"/>
      <use xlink:href="#DejaVuSans-73" x="957.865234"/>
      <use xlink:href="#DejaVuSans-73" x="1009.964844"/>
      <use xlink:href="#DejaVuSans-69" x="1062.064453"/>
      <use xlink:href="#DejaVuSans-66" x="1089.847656"/>
      <use xlink:href="#DejaVuSans-69" x="1125.052734"/>
      <use xlink:href="#DejaVuSans-63" x="1152.835938"/>
      <use xlink:href="#DejaVuSans-61" x="1207.816406"/>
      <use xlink:href="#DejaVuSans-74" x="1269.095703"/>
      <use xlink:href="#DejaVuSans-69" x="1308.304688"/>
      <use xlink:href="#DejaVuSans-6f" x="1336.087891"/>
      <use xlink:href="#DejaVuSans-6e" x="1397.269531"/>
      <use xlink:href="#DejaVuSans-73" x="1460.648438"/>
     </g>
    </g>
   </g>
   <g id="line2d_29">
    <path d="M 433.084824 218.88 
L 435.879715 151.679992 
L 438.674606 130.175988 
L 441.469498 84.480008 
L 444.264389 49.535993 
L 447.05928 44.159998 
L 449.854171 44.159998 
L 452.649062 46.847996 
L 455.443953 30.720011 
L 458.238844 33.408009 
L 461.033735 46.847996 
L 463.828626 38.784004 
L 466.623517 46.847996 
L 469.418408 46.847996 
L 472.213299 41.472001 
L 475.00819 38.784004 
L 477.803081 36.096006 
L 480.597972 28.03199 
L 483.392863 28.03199 
L 486.187755 33.408009 
L 488.982646 44.159998 
L 491.777537 33.408009 
L 494.572428 30.720011 
L 497.367319 25.343992 
L 500.16221 19.967997 
L 502.957101 28.03199 
L 505.751992 36.096006 
L 508.546883 25.343992 
L 511.341774 36.096006 
L 514.136665 30.720011 
L 516.931556 33.408009 
L 519.726447 33.408009 
L 522.521338 28.03199 
L 525.316229 30.720011 
L 528.11112 25.343992 
L 530.906011 30.720011 
L 533.700903 28.03199 
L 536.495794 25.343992 
L 539.290685 28.03199 
L 542.085576 30.720011 
L 544.880467 30.720011 
L 547.675358 30.720011 
L 550.470249 30.720011 
L 553.26514 28.03199 
L 556.060031 28.03199 
L 558.854922 36.096006 
L 561.649813 36.096006 
L 564.444704 38.784004 
L 567.239595 33.408009 
L 570.034486 28.03199 
L 572.829377 30.720011 
L 575.624268 36.096006 
L 578.419159 30.720011 
L 581.214051 25.343992 
L 584.008942 33.408009 
L 586.803833 25.343992 
L 589.598724 33.408009 
L 592.393615 30.720011 
L 595.188506 46.847996 
L 597.983397 41.472001 
L 600.778288 38.784004 
L 603.573179 28.03199 
L 606.36807 28.03199 
L 609.162961 22.655995 
L 611.957852 22.655995 
L 614.752743 22.655995 
L 617.547634 25.343992 
L 620.342525 33.408009 
L 623.137416 25.343992 
L 625.932307 28.03199 
L 628.727199 25.343992 
L 631.52209 25.343992 
L 634.316981 28.03199 
L 637.111872 25.343992 
L 639.906763 30.720011 
L 642.701654 28.03199 
L 645.496545 25.343992 
L 648.291436 22.655995 
L 651.086327 25.343992 
L 653.881218 22.655995 
L 656.676109 25.343992 
L 659.471 22.655995 
L 662.265891 28.03199 
L 665.060782 25.343992 
L 667.855673 25.343992 
L 670.650564 25.343992 
L 673.445455 22.655995 
L 676.240347 22.655995 
L 679.035238 25.343992 
L 681.830129 22.655995 
L 684.62502 22.655995 
L 687.419911 22.655995 
L 690.214802 25.343992 
L 693.009693 22.655995 
L 695.804584 22.655995 
L 698.599475 36.096006 
L 701.394366 30.720011 
L 704.189257 25.343992 
L 706.984148 25.343992 
L 709.779039 30.720011 
" clip-path="url(#p1b7075fbaf)" style="fill: none; stroke: #1f77b4; stroke-width: 1.5; stroke-linecap: square"/>
   </g>
   <g id="line2d_30">
    <path d="M 433.084824 127.487991 
L 435.879715 87.168005 
L 438.674606 84.480008 
L 441.469498 76.415992 
L 444.264389 73.727994 
L 447.05928 60.288007 
L 449.854171 49.535993 
L 452.649062 46.847996 
L 455.443953 38.784004 
L 458.238844 33.408009 
L 461.033735 25.343992 
L 463.828626 33.408009 
L 466.623517 28.03199 
L 469.418408 28.03199 
L 472.213299 33.408009 
L 475.00819 28.03199 
L 477.803081 22.655995 
L 480.597972 28.03199 
L 483.392863 25.343992 
L 486.187755 25.343992 
L 488.982646 25.343992 
L 491.777537 25.343992 
L 494.572428 25.343992 
L 497.367319 28.03199 
L 500.16221 22.655995 
L 502.957101 22.655995 
L 505.751992 25.343992 
L 508.546883 22.655995 
L 511.341774 22.655995 
L 514.136665 22.655995 
L 516.931556 22.655995 
L 519.726447 25.343992 
L 522.521338 22.655995 
L 525.316229 22.655995 
L 528.11112 25.343992 
L 530.906011 22.655995 
L 533.700903 19.967997 
L 536.495794 22.655995 
L 539.290685 19.967997 
L 542.085576 19.967997 
L 544.880467 19.967997 
L 547.675358 19.967997 
L 550.470249 19.967997 
L 553.26514 19.967997 
L 556.060031 19.967997 
L 558.854922 19.967997 
L 561.649813 17.28 
L 564.444704 19.967997 
L 567.239595 19.967997 
L 570.034486 19.967997 
L 572.829377 19.967997 
L 575.624268 17.28 
L 578.419159 17.28 
L 581.214051 17.28 
L 584.008942 17.28 
L 586.803833 17.28 
L 589.598724 17.28 
L 592.393615 17.28 
L 595.188506 17.28 
L 597.983397 17.28 
L 600.778288 17.28 
L 603.573179 17.28 
L 606.36807 17.28 
L 609.162961 17.28 
L 611.957852 17.28 
L 614.752743 17.28 
L 617.547634 17.28 
L 620.342525 17.28 
L 623.137416 17.28 
L 625.932307 17.28 
L 628.727199 17.28 
L 631.52209 17.28 
L 634.316981 17.28 
L 637.111872 17.28 
L 639.906763 17.28 
L 642.701654 17.28 
L 645.496545 17.28 
L 648.291436 17.28 
L 651.086327 17.28 
L 653.881218 17.28 
L 656.676109 17.28 
L 659.471 17.28 
L 662.265891 17.28 
L 665.060782 17.28 
L 667.855673 17.28 
L 670.650564 17.28 
L 673.445455 17.28 
L 676.240347 17.28 
L 679.035238 17.28 
L 681.830129 17.28 
L 684.62502 17.28 
L 687.419911 17.28 
L 690.214802 17.28 
L 693.009693 17.28 
L 695.804584 17.28 
L 698.599475 17.28 
L 701.394366 17.28 
L 704.189257 17.28 
L 706.984148 17.28 
L 709.779039 17.28 
" clip-path="url(#p1b7075fbaf)" style="fill: none; stroke: #ff7f0e; stroke-width: 1.5; stroke-linecap: square"/>
   </g>
   <g id="patch_9">
    <path d="M 419.250114 228.96 
L 419.250114 7.2 
" style="fill: none; stroke: #000000; stroke-width: 0.8; stroke-linejoin: miter; stroke-linecap: square"/>
   </g>
   <g id="patch_10">
    <path d="M 723.61375 228.96 
L 723.61375 7.2 
" style="fill: none; stroke: #000000; stroke-width: 0.8; stroke-linejoin: miter; stroke-linecap: square"/>
   </g>
   <g id="patch_11">
    <path d="M 419.250114 228.96 
L 723.61375 228.96 
" style="fill: none; stroke: #000000; stroke-width: 0.8; stroke-linejoin: miter; stroke-linecap: square"/>
   </g>
   <g id="patch_12">
    <path d="M 419.250114 7.2 
L 723.61375 7.2 
" style="fill: none; stroke: #000000; stroke-width: 0.8; stroke-linejoin: miter; stroke-linecap: square"/>
   </g>
  </g>
 </g>
 <defs>
  <clipPath id="p4a7169454b">
   <rect x="54.01375" y="7.2" width="304.363636" height="221.76"/>
  </clipPath>
  <clipPath id="p1b7075fbaf">
   <rect x="419.250114" y="7.2" width="304.363636" height="221.76"/>
  </clipPath>
 </defs>
</svg>