<?xml version="1.0" encoding="utf-8" standalone="no"?>
<!DOCTYPE svg PUBLIC "-//W3C//DTD SVG 1.1//EN"
  "http://www.w3.org/Graphics/SVG/1.1/DTD/svg11.dtd">
<svg xmlns:xlink="http://www.w3.org/1999/xlink" width="730.81375pt" height="275.438362pt" viewBox="0 0 730.81375 275.438362" xmlns="http://www.w3.org/2000/svg" version="1.1">
 <metadata>
  <rdf:RDF xmlns:dc="http://purl.org/dc/elements/1.1/" xmlns:cc="http://creativecommons.org/ns#" xmlns:rdf="http://www.w3.org/1999/02/22-rdf-syntax-ns#">
   <cc:Work>
    <dc:type rdf:resource="http://purl.org/dc/dcmitype/StillImage"/>
    <dc:date>2025-08-11T13:16:59.830670</dc:date>
    <dc:format>image/svg+xml</dc:format>
    <dc:creator>
     <cc:Agent>
      <dc:title>Matplotlib v3.9.4, https://matplotlib.org/</dc:title>
     </cc:Agent>
    </dc:creator>
   </cc:Work>
  </rdf:RDF>
 </metadata>
 <defs>
  <style type="text/css">*{stroke-linejoin: round; stroke-linecap: butt}</style>
 </defs>
 <g id="figure_1">
  <g id="patch_1">
   <path d="M 0 275.438362 
L 730.81375 275.438362 
L 730.81375 0 
L 0 0 
z
" style="fill: #ffffff"/>
  </g>
  <g id="axes_1">
   <g id="patch_2">
    <path d="M 54.01375 230.139612 
L 358.377386 230.139612 
L 358.377386 8.379612 
L 54.01375 8.379612 
z
" style="fill: #ffffff"/>
   </g>
   <g id="matplotlib.axis_1">
    <g id="xtick_1">
     <g id="line2d_1">
      <defs>
       <path id="m7cfaf4bc76" d="M 0 0 
L 0 3.5 
" style="stroke: #000000; stroke-width: 0.8"/>
      </defs>
      <g>
       <use xlink:href="#m7cfaf4bc76" x="65.05357" y="230.139612" style="stroke: #000000; stroke-width: 0.8"/>
      </g>
     </g>
     <g id="text_1">
      <!-- 0 -->
      <g transform="translate(60.59982 247.777424) scale(0.14 -0.14)">
       <defs>
        <path id="DejaVuSans-30" d="M 2034 4250 
Q 1547 4250 1301 3770 
Q 1056 3291 1056 2328 
Q 1056 1369 1301 889 
Q 1547 409 2034 409 
Q 2525 409 2770 889 
Q 3016 1369 3016 2328 
Q 3016 3291 2770 3770 
Q 2525 4250 2034 4250 
z
M 2034 4750 
Q 2819 4750 3233 4129 
Q 3647 3509 3647 2328 
Q 3647 1150 3233 529 
Q 2819 -91 2034 -91 
Q 1250 -91 836 529 
Q 422 1150 422 2328 
Q 422 3509 836 4129 
Q 1250 4750 2034 4750 
z
" transform="scale(0.015625)"/>
       </defs>
       <use xlink:href="#DejaVuSans-30"/>
      </g>
     </g>
    </g>
    <g id="xtick_2">
     <g id="line2d_2">
      <g>
       <use xlink:href="#m7cfaf4bc76" x="120.951391" y="230.139612" style="stroke: #000000; stroke-width: 0.8"/>
      </g>
     </g>
     <g id="text_2">
      <!-- 20 -->
      <g transform="translate(112.043891 247.777424) scale(0.14 -0.14)">
       <defs>
        <path id="DejaVuSans-32" d="M 1228 531 
L 3431 531 
L 3431 0 
L 469 0 
L 469 531 
Q 828 903 1448 1529 
Q 2069 2156 2228 2338 
Q 2531 2678 2651 2914 
Q 2772 3150 2772 3378 
Q 2772 3750 2511 3984 
Q 2250 4219 1831 4219 
Q 1534 4219 1204 4116 
Q 875 4013 500 3803 
L 500 4441 
Q 881 4594 1212 4672 
Q 1544 4750 1819 4750 
Q 2544 4750 2975 4387 
Q 3406 4025 3406 3419 
Q 3406 3131 3298 2873 
Q 3191 2616 2906 2266 
Q 2828 2175 2409 1742 
Q 1991 1309 1228 531 
z
" transform="scale(0.015625)"/>
       </defs>
       <use xlink:href="#DejaVuSans-32"/>
       <use xlink:href="#DejaVuSans-30" x="63.623047"/>
      </g>
     </g>
    </g>
    <g id="xtick_3">
     <g id="line2d_3">
      <g>
       <use xlink:href="#m7cfaf4bc76" x="176.849212" y="230.139612" style="stroke: #000000; stroke-width: 0.8"/>
      </g>
     </g>
     <g id="text_3">
      <!-- 40 -->
      <g transform="translate(167.941712 247.777424) scale(0.14 -0.14)">
       <defs>
        <path id="DejaVuSans-34" d="M 2419 4116 
L 825 1625 
L 2419 1625 
L 2419 4116 
z
M 2253 4666 
L 3047 4666 
L 3047 1625 
L 3713 1625 
L 3713 1100 
L 3047 1100 
L 3047 0 
L 2419 0 
L 2419 1100 
L 313 1100 
L 313 1709 
L 2253 4666 
z
" transform="scale(0.015625)"/>
       </defs>
       <use xlink:href="#DejaVuSans-34"/>
       <use xlink:href="#DejaVuSans-30" x="63.623047"/>
      </g>
     </g>
    </g>
    <g id="xtick_4">
     <g id="line2d_4">
      <g>
       <use xlink:href="#m7cfaf4bc76" x="232.747033" y="230.139612" style="stroke: #000000; stroke-width: 0.8"/>
      </g>
     </g>
     <g id="text_4">
      <!-- 60 -->
      <g transform="translate(223.839533 247.777424) scale(0.14 -0.14)">
       <defs>
        <path id="DejaVuSans-36" d="M 2113 2584 
Q 1688 2584 1439 2293 
Q 1191 2003 1191 1497 
Q 1191 994 1439 701 
Q 1688 409 2113 409 
Q 2538 409 2786 701 
Q 3034 994 3034 1497 
Q 3034 2003 2786 2293 
Q 2538 2584 2113 2584 
z
M 3366 4563 
L 3366 3988 
Q 3128 4100 2886 4159 
Q 2644 4219 2406 4219 
Q 1781 4219 1451 3797 
Q 1122 3375 1075 2522 
Q 1259 2794 1537 2939 
Q 1816 3084 2150 3084 
Q 2853 3084 3261 2657 
Q 3669 2231 3669 1497 
Q 3669 778 3244 343 
Q 2819 -91 2113 -91 
Q 1303 -91 875 529 
Q 447 1150 447 2328 
Q 447 3434 972 4092 
Q 1497 4750 2381 4750 
Q 2619 4750 2861 4703 
Q 3103 4656 3366 4563 
z
" transform="scale(0.015625)"/>
       </defs>
       <use xlink:href="#DejaVuSans-36"/>
       <use xlink:href="#DejaVuSans-30" x="63.623047"/>
      </g>
     </g>
    </g>
    <g id="xtick_5">
     <g id="line2d_5">
      <g>
       <use xlink:href="#m7cfaf4bc76" x="288.644854" y="230.139612" style="stroke: #000000; stroke-width: 0.8"/>
      </g>
     </g>
     <g id="text_5">
      <!-- 80 -->
      <g transform="translate(279.737354 247.777424) scale(0.14 -0.14)">
       <defs>
        <path id="DejaVuSans-38" d="M 2034 2216 
Q 1584 2216 1326 1975 
Q 1069 1734 1069 1313 
Q 1069 891 1326 650 
Q 1584 409 2034 409 
Q 2484 409 2743 651 
Q 3003 894 3003 1313 
Q 3003 1734 2745 1975 
Q 2488 2216 2034 2216 
z
M 1403 2484 
Q 997 2584 770 2862 
Q 544 3141 544 3541 
Q 544 4100 942 4425 
Q 1341 4750 2034 4750 
Q 2731 4750 3128 4425 
Q 3525 4100 3525 3541 
Q 3525 3141 3298 2862 
Q 3072 2584 2669 2484 
Q 3125 2378 3379 2068 
Q 3634 1759 3634 1313 
Q 3634 634 3220 271 
Q 2806 -91 2034 -91 
Q 1263 -91 848 271 
Q 434 634 434 1313 
Q 434 1759 690 2068 
Q 947 2378 1403 2484 
z
M 1172 3481 
Q 1172 3119 1398 2916 
Q 1625 2713 2034 2713 
Q 2441 2713 2670 2916 
Q 2900 3119 2900 3481 
Q 2900 3844 2670 4047 
Q 2441 4250 2034 4250 
Q 1625 4250 1398 4047 
Q 1172 3844 1172 3481 
z
" transform="scale(0.015625)"/>
       </defs>
       <use xlink:href="#DejaVuSans-38"/>
       <use xlink:href="#DejaVuSans-30" x="63.623047"/>
      </g>
     </g>
    </g>
    <g id="xtick_6">
     <g id="line2d_6">
      <g>
       <use xlink:href="#m7cfaf4bc76" x="344.542676" y="230.139612" style="stroke: #000000; stroke-width: 0.8"/>
      </g>
     </g>
     <g id="text_6">
      <!-- 100 -->
      <g transform="translate(331.181426 247.777424) scale(0.14 -0.14)">
       <defs>
        <path id="DejaVuSans-31" d="M 794 531 
L 1825 531 
L 1825 4091 
L 703 3866 
L 703 4441 
L 1819 4666 
L 2450 4666 
L 2450 531 
L 3481 531 
L 3481 0 
L 794 0 
L 794 531 
z
" transform="scale(0.015625)"/>
       </defs>
       <use xlink:href="#DejaVuSans-31"/>
       <use xlink:href="#DejaVuSans-30" x="63.623047"/>
       <use xlink:href="#DejaVuSans-30" x="127.246094"/>
      </g>
     </g>
    </g>
    <g id="text_7">
     <!-- Epochs -->
     <g transform="translate(181.113693 265.326799) scale(0.14 -0.14)">
      <defs>
       <path id="DejaVuSans-45" d="M 628 4666 
L 3578 4666 
L 3578 4134 
L 1259 4134 
L 1259 2753 
L 3481 2753 
L 3481 2222 
L 1259 2222 
L 1259 531 
L 3634 531 
L 3634 0 
L 628 0 
L 628 4666 
z
" transform="scale(0.015625)"/>
       <path id="DejaVuSans-70" d="M 1159 525 
L 1159 -1331 
L 581 -1331 
L 581 3500 
L 1159 3500 
L 1159 2969 
Q 1341 3281 1617 3432 
Q 1894 3584 2278 3584 
Q 2916 3584 3314 3078 
Q 3713 2572 3713 1747 
Q 3713 922 3314 415 
Q 2916 -91 2278 -91 
Q 1894 -91 1617 61 
Q 1341 213 1159 525 
z
M 3116 1747 
Q 3116 2381 2855 2742 
Q 2594 3103 2138 3103 
Q 1681 3103 1420 2742 
Q 1159 2381 1159 1747 
Q 1159 1113 1420 752 
Q 1681 391 2138 391 
Q 2594 391 2855 752 
Q 3116 1113 3116 1747 
z
" transform="scale(0.015625)"/>
       <path id="DejaVuSans-6f" d="M 1959 3097 
Q 1497 3097 1228 2736 
Q 959 2375 959 1747 
Q 959 1119 1226 758 
Q 1494 397 1959 397 
Q 2419 397 2687 759 
Q 2956 1122 2956 1747 
Q 2956 2369 2687 2733 
Q 2419 3097 1959 3097 
z
M 1959 3584 
Q 2709 3584 3137 3096 
Q 3566 2609 3566 1747 
Q 3566 888 3137 398 
Q 2709 -91 1959 -91 
Q 1206 -91 779 398 
Q 353 888 353 1747 
Q 353 2609 779 3096 
Q 1206 3584 1959 3584 
z
" transform="scale(0.015625)"/>
       <path id="DejaVuSans-63" d="M 3122 3366 
L 3122 2828 
Q 2878 2963 2633 3030 
Q 2388 3097 2138 3097 
Q 1578 3097 1268 2742 
Q 959 2388 959 1747 
Q 959 1106 1268 751 
Q 1578 397 2138 397 
Q 2388 397 2633 464 
Q 2878 531 3122 666 
L 3122 134 
Q 2881 22 2623 -34 
Q 2366 -91 2075 -91 
Q 1284 -91 818 406 
Q 353 903 353 1747 
Q 353 2603 823 3093 
Q 1294 3584 2113 3584 
Q 2378 3584 2631 3529 
Q 2884 3475 3122 3366 
z
" transform="scale(0.015625)"/>
       <path id="DejaVuSans-68" d="M 3513 2113 
L 3513 0 
L 2938 0 
L 2938 2094 
Q 2938 2591 2744 2837 
Q 2550 3084 2163 3084 
Q 1697 3084 1428 2787 
Q 1159 2491 1159 1978 
L 1159 0 
L 581 0 
L 581 4863 
L 1159 4863 
L 1159 2956 
Q 1366 3272 1645 3428 
Q 1925 3584 2291 3584 
Q 2894 3584 3203 3211 
Q 3513 2838 3513 2113 
z
" transform="scale(0.015625)"/>
       <path id="DejaVuSans-73" d="M 2834 3397 
L 2834 2853 
Q 2591 2978 2328 3040 
Q 2066 3103 1784 3103 
Q 1356 3103 1142 2972 
Q 928 2841 928 2578 
Q 928 2378 1081 2264 
Q 1234 2150 1697 2047 
L 1894 2003 
Q 2506 1872 2764 1633 
Q 3022 1394 3022 966 
Q 3022 478 2636 193 
Q 2250 -91 1575 -91 
Q 1294 -91 989 -36 
Q 684 19 347 128 
L 347 722 
Q 666 556 975 473 
Q 1284 391 1588 391 
Q 1994 391 2212 530 
Q 2431 669 2431 922 
Q 2431 1156 2273 1281 
Q 2116 1406 1581 1522 
L 1381 1569 
Q 847 1681 609 1914 
Q 372 2147 372 2553 
Q 372 3047 722 3315 
Q 1072 3584 1716 3584 
Q 2034 3584 2315 3537 
Q 2597 3491 2834 3397 
z
" transform="scale(0.015625)"/>
      </defs>
      <use xlink:href="#DejaVuSans-45"/>
      <use xlink:href="#DejaVuSans-70" x="63.183594"/>
      <use xlink:href="#DejaVuSans-6f" x="126.660156"/>
      <use xlink:href="#DejaVuSans-63" x="187.841797"/>
      <use xlink:href="#DejaVuSans-68" x="242.822266"/>
      <use xlink:href="#DejaVuSans-73" x="306.201172"/>
     </g>
    </g>
   </g>
   <g id="matplotlib.axis_2">
    <g id="ytick_1">
     <g id="line2d_7">
      <defs>
       <path id="m69c0136c13" d="M 0 0 
L -3.5 0 
" style="stroke: #000000; stroke-width: 0.8"/>
      </defs>
      <g>
       <use xlink:href="#m69c0136c13" x="54.01375" y="220.252505" style="stroke: #000000; stroke-width: 0.8"/>
      </g>
     </g>
     <g id="text_8">
      <!-- 0.0 -->
      <g transform="translate(24.749375 225.571412) scale(0.14 -0.14)">
       <defs>
        <path id="DejaVuSans-2e" d="M 684 794 
L 1344 794 
L 1344 0 
L 684 0 
L 684 794 
z
" transform="scale(0.015625)"/>
       </defs>
       <use xlink:href="#DejaVuSans-30"/>
       <use xlink:href="#DejaVuSans-2e" x="63.623047"/>
       <use xlink:href="#DejaVuSans-30" x="95.410156"/>
      </g>
     </g>
    </g>
    <g id="ytick_2">
     <g id="line2d_8">
      <g>
       <use xlink:href="#m69c0136c13" x="54.01375" y="178.705785" style="stroke: #000000; stroke-width: 0.8"/>
      </g>
     </g>
     <g id="text_9">
      <!-- 0.2 -->
      <g transform="translate(24.749375 184.024692) scale(0.14 -0.14)">
       <use xlink:href="#DejaVuSans-30"/>
       <use xlink:href="#DejaVuSans-2e" x="63.623047"/>
       <use xlink:href="#DejaVuSans-32" x="95.410156"/>
      </g>
     </g>
    </g>
    <g id="ytick_3">
     <g id="line2d_9">
      <g>
       <use xlink:href="#m69c0136c13" x="54.01375" y="137.159066" style="stroke: #000000; stroke-width: 0.8"/>
      </g>
     </g>
     <g id="text_10">
      <!-- 0.4 -->
      <g transform="translate(24.749375 142.477972) scale(0.14 -0.14)">
       <use xlink:href="#DejaVuSans-30"/>
       <use xlink:href="#DejaVuSans-2e" x="63.623047"/>
       <use xlink:href="#DejaVuSans-34" x="95.410156"/>
      </g>
     </g>
    </g>
    <g id="ytick_4">
     <g id="line2d_10">
      <g>
       <use xlink:href="#m69c0136c13" x="54.01375" y="95.612346" style="stroke: #000000; stroke-width: 0.8"/>
      </g>
     </g>
     <g id="text_11">
      <!-- 0.6 -->
      <g transform="translate(24.749375 100.931252) scale(0.14 -0.14)">
       <use xlink:href="#DejaVuSans-30"/>
       <use xlink:href="#DejaVuSans-2e" x="63.623047"/>
       <use xlink:href="#DejaVuSans-36" x="95.410156"/>
      </g>
     </g>
    </g>
    <g id="ytick_5">
     <g id="line2d_11">
      <g>
       <use xlink:href="#m69c0136c13" x="54.01375" y="54.065626" style="stroke: #000000; stroke-width: 0.8"/>
      </g>
     </g>
     <g id="text_12">
      <!-- 0.8 -->
      <g transform="translate(24.749375 59.384532) scale(0.14 -0.14)">
       <use xlink:href="#DejaVuSans-30"/>
       <use xlink:href="#DejaVuSans-2e" x="63.623047"/>
       <use xlink:href="#DejaVuSans-38" x="95.410156"/>
      </g>
     </g>
    </g>
    <g id="ytick_6">
     <g id="line2d_12">
      <g>
       <use xlink:href="#m69c0136c13" x="54.01375" y="12.518906" style="stroke: #000000; stroke-width: 0.8"/>
      </g>
     </g>
     <g id="text_13">
      <!-- 1.0 -->
      <g transform="translate(24.749375 17.837812) scale(0.14 -0.14)">
       <use xlink:href="#DejaVuSans-31"/>
       <use xlink:href="#DejaVuSans-2e" x="63.623047"/>
       <use xlink:href="#DejaVuSans-30" x="95.410156"/>
      </g>
     </g>
    </g>
    <g id="text_14">
     <!-- Valeur de la fonction de coût (loss) -->
     <g transform="translate(17.837813 241.182112) rotate(-90) scale(0.14 -0.14)">
      <defs>
       <path id="DejaVuSans-56" d="M 1831 0 
L 50 4666 
L 709 4666 
L 2188 738 
L 3669 4666 
L 4325 4666 
L 2547 0 
L 1831 0 
z
" transform="scale(0.015625)"/>
       <path id="DejaVuSans-61" d="M 2194 1759 
Q 1497 1759 1228 1600 
Q 959 1441 959 1056 
Q 959 750 1161 570 
Q 1363 391 1709 391 
Q 2188 391 2477 730 
Q 2766 1069 2766 1631 
L 2766 1759 
L 2194 1759 
z
M 3341 1997 
L 3341 0 
L 2766 0 
L 2766 531 
Q 2569 213 2275 61 
Q 1981 -91 1556 -91 
Q 1019 -91 701 211 
Q 384 513 384 1019 
Q 384 1609 779 1909 
Q 1175 2209 1959 2209 
L 2766 2209 
L 2766 2266 
Q 2766 2663 2505 2880 
Q 2244 3097 1772 3097 
Q 1472 3097 1187 3025 
Q 903 2953 641 2809 
L 641 3341 
Q 956 3463 1253 3523 
Q 1550 3584 1831 3584 
Q 2591 3584 2966 3190 
Q 3341 2797 3341 1997 
z
" transform="scale(0.015625)"/>
       <path id="DejaVuSans-6c" d="M 603 4863 
L 1178 4863 
L 1178 0 
L 603 0 
L 603 4863 
z
" transform="scale(0.015625)"/>
       <path id="DejaVuSans-65" d="M 3597 1894 
L 3597 1613 
L 953 1613 
Q 991 1019 1311 708 
Q 1631 397 2203 397 
Q 2534 397 2845 478 
Q 3156 559 3463 722 
L 3463 178 
Q 3153 47 2828 -22 
Q 2503 -91 2169 -91 
Q 1331 -91 842 396 
Q 353 884 353 1716 
Q 353 2575 817 3079 
Q 1281 3584 2069 3584 
Q 2775 3584 3186 3129 
Q 3597 2675 3597 1894 
z
M 3022 2063 
Q 3016 2534 2758 2815 
Q 2500 3097 2075 3097 
Q 1594 3097 1305 2825 
Q 1016 2553 972 2059 
L 3022 2063 
z
" transform="scale(0.015625)"/>
       <path id="DejaVuSans-75" d="M 544 1381 
L 544 3500 
L 1119 3500 
L 1119 1403 
Q 1119 906 1312 657 
Q 1506 409 1894 409 
Q 2359 409 2629 706 
Q 2900 1003 2900 1516 
L 2900 3500 
L 3475 3500 
L 3475 0 
L 2900 0 
L 2900 538 
Q 2691 219 2414 64 
Q 2138 -91 1772 -91 
Q 1169 -91 856 284 
Q 544 659 544 1381 
z
M 1991 3584 
L 1991 3584 
z
" transform="scale(0.015625)"/>
       <path id="DejaVuSans-72" d="M 2631 2963 
Q 2534 3019 2420 3045 
Q 2306 3072 2169 3072 
Q 1681 3072 1420 2755 
Q 1159 2438 1159 1844 
L 1159 0 
L 581 0 
L 581 3500 
L 1159 3500 
L 1159 2956 
Q 1341 3275 1631 3429 
Q 1922 3584 2338 3584 
Q 2397 3584 2469 3576 
Q 2541 3569 2628 3553 
L 2631 2963 
z
" transform="scale(0.015625)"/>
       <path id="DejaVuSans-20" transform="scale(0.015625)"/>
       <path id="DejaVuSans-64" d="M 2906 2969 
L 2906 4863 
L 3481 4863 
L 3481 0 
L 2906 0 
L 2906 525 
Q 2725 213 2448 61 
Q 2172 -91 1784 -91 
Q 1150 -91 751 415 
Q 353 922 353 1747 
Q 353 2572 751 3078 
Q 1150 3584 1784 3584 
Q 2172 3584 2448 3432 
Q 2725 3281 2906 2969 
z
M 947 1747 
Q 947 1113 1208 752 
Q 1469 391 1925 391 
Q 2381 391 2643 752 
Q 2906 1113 2906 1747 
Q 2906 2381 2643 2742 
Q 2381 3103 1925 3103 
Q 1469 3103 1208 2742 
Q 947 2381 947 1747 
z
" transform="scale(0.015625)"/>
       <path id="DejaVuSans-66" d="M 2375 4863 
L 2375 4384 
L 1825 4384 
Q 1516 4384 1395 4259 
Q 1275 4134 1275 3809 
L 1275 3500 
L 2222 3500 
L 2222 3053 
L 1275 3053 
L 1275 0 
L 697 0 
L 697 3053 
L 147 3053 
L 147 3500 
L 697 3500 
L 697 3744 
Q 697 4328 969 4595 
Q 1241 4863 1831 4863 
L 2375 4863 
z
" transform="scale(0.015625)"/>
       <path id="DejaVuSans-6e" d="M 3513 2113 
L 3513 0 
L 2938 0 
L 2938 2094 
Q 2938 2591 2744 2837 
Q 2550 3084 2163 3084 
Q 1697 3084 1428 2787 
Q 1159 2491 1159 1978 
L 1159 0 
L 581 0 
L 581 3500 
L 1159 3500 
L 1159 2956 
Q 1366 3272 1645 3428 
Q 1925 3584 2291 3584 
Q 2894 3584 3203 3211 
Q 3513 2838 3513 2113 
z
" transform="scale(0.015625)"/>
       <path id="DejaVuSans-74" d="M 1172 4494 
L 1172 3500 
L 2356 3500 
L 2356 3053 
L 1172 3053 
L 1172 1153 
Q 1172 725 1289 603 
Q 1406 481 1766 481 
L 2356 481 
L 2356 0 
L 1766 0 
Q 1100 0 847 248 
Q 594 497 594 1153 
L 594 3053 
L 172 3053 
L 172 3500 
L 594 3500 
L 594 4494 
L 1172 4494 
z
" transform="scale(0.015625)"/>
       <path id="DejaVuSans-69" d="M 603 3500 
L 1178 3500 
L 1178 0 
L 603 0 
L 603 3500 
z
M 603 4863 
L 1178 4863 
L 1178 4134 
L 603 4134 
L 603 4863 
z
" transform="scale(0.015625)"/>
       <path id="DejaVuSans-fb" d="M 544 1381 
L 544 3500 
L 1119 3500 
L 1119 1403 
Q 1119 906 1312 657 
Q 1506 409 1894 409 
Q 2359 409 2629 706 
Q 2900 1003 2900 1516 
L 2900 3500 
L 3475 3500 
L 3475 0 
L 2900 0 
L 2900 538 
Q 2691 219 2414 64 
Q 2138 -91 1772 -91 
Q 1169 -91 856 284 
Q 544 659 544 1381 
z
M 1991 3584 
L 1991 3584 
z
M 1753 5119 
L 2215 5119 
L 2981 3944 
L 2547 3944 
L 1984 4709 
L 1422 3944 
L 987 3944 
L 1753 5119 
z
" transform="scale(0.015625)"/>
       <path id="DejaVuSans-28" d="M 1984 4856 
Q 1566 4138 1362 3434 
Q 1159 2731 1159 2009 
Q 1159 1288 1364 580 
Q 1569 -128 1984 -844 
L 1484 -844 
Q 1016 -109 783 600 
Q 550 1309 550 2009 
Q 550 2706 781 3412 
Q 1013 4119 1484 4856 
L 1984 4856 
z
" transform="scale(0.015625)"/>
       <path id="DejaVuSans-29" d="M 513 4856 
L 1013 4856 
Q 1481 4119 1714 3412 
Q 1947 2706 1947 2009 
Q 1947 1309 1714 600 
Q 1481 -109 1013 -844 
L 513 -844 
Q 928 -128 1133 580 
Q 1338 1288 1338 2009 
Q 1338 2731 1133 3434 
Q 928 4138 513 4856 
z
" transform="scale(0.015625)"/>
      </defs>
      <use xlink:href="#DejaVuSans-56"/>
      <use xlink:href="#DejaVuSans-61" x="60.658203"/>
      <use xlink:href="#DejaVuSans-6c" x="121.9375"/>
      <use xlink:href="#DejaVuSans-65" x="149.720703"/>
      <use xlink:href="#DejaVuSans-75" x="211.244141"/>
      <use xlink:href="#DejaVuSans-72" x="274.623047"/>
      <use xlink:href="#DejaVuSans-20" x="315.736328"/>
      <use xlink:href="#DejaVuSans-64" x="347.523438"/>
      <use xlink:href="#DejaVuSans-65" x="411"/>
      <use xlink:href="#DejaVuSans-20" x="472.523438"/>
      <use xlink:href="#DejaVuSans-6c" x="504.310547"/>
      <use xlink:href="#DejaVuSans-61" x="532.09375"/>
      <use xlink:href="#DejaVuSans-20" x="593.373047"/>
      <use xlink:href="#DejaVuSans-66" x="625.160156"/>
      <use xlink:href="#DejaVuSans-6f" x="660.365234"/>
      <use xlink:href="#DejaVuSans-6e" x="721.546875"/>
      <use xlink:href="#DejaVuSans-63" x="784.925781"/>
      <use xlink:href="#DejaVuSans-74" x="839.90625"/>
      <use xlink:href="#DejaVuSans-69" x="879.115234"/>
      <use xlink:href="#DejaVuSans-6f" x="906.898438"/>
      <use xlink:href="#DejaVuSans-6e" x="968.080078"/>
      <use xlink:href="#DejaVuSans-20" x="1031.458984"/>
      <use xlink:href="#DejaVuSans-64" x="1063.246094"/>
      <use xlink:href="#DejaVuSans-65" x="1126.722656"/>
      <use xlink:href="#DejaVuSans-20" x="1188.246094"/>
      <use xlink:href="#DejaVuSans-63" x="1220.033203"/>
      <use xlink:href="#DejaVuSans-6f" x="1275.013672"/>
      <use xlink:href="#DejaVuSans-fb" x="1336.195312"/>
      <use xlink:href="#DejaVuSans-74" x="1399.574219"/>
      <use xlink:href="#DejaVuSans-20" x="1438.783203"/>
      <use xlink:href="#DejaVuSans-28" x="1470.570312"/>
      <use xlink:href="#DejaVuSans-6c" x="1509.583984"/>
      <use xlink:href="#DejaVuSans-6f" x="1537.367188"/>
      <use xlink:href="#DejaVuSans-73" x="1598.548828"/>
      <use xlink:href="#DejaVuSans-73" x="1650.648438"/>
      <use xlink:href="#DejaVuSans-29" x="1702.748047"/>
     </g>
    </g>
   </g>
   <g id="line2d_13">
    <path d="M 67.848461 18.459612 
L 70.643352 87.830449 
L 73.438243 123.388103 
L 76.233134 143.571953 
L 79.028025 157.36849 
L 81.822916 171.453472 
L 84.617807 180.625463 
L 87.412698 187.019563 
L 90.207589 192.870779 
L 93.00248 197.60217 
L 95.797371 192.037032 
L 98.592262 193.903487 
L 101.387153 200.641399 
L 104.182045 184.724964 
L 106.976936 202.234055 
L 109.771827 200.260571 
L 112.566718 203.210521 
L 115.361609 201.073686 
L 118.1565 188.453652 
L 120.951391 189.243678 
L 123.746282 202.548008 
L 126.541173 201.288906 
L 129.336064 199.644186 
L 132.130955 203.924846 
L 134.925846 203.894303 
L 137.720737 204.627757 
L 140.515628 204.837961 
L 143.310519 205.609374 
L 146.10541 206.216003 
L 148.900301 205.694532 
L 151.695193 206.131413 
L 154.490084 205.558817 
L 157.284975 204.247114 
L 160.079866 198.381537 
L 162.874757 197.730329 
L 165.669648 202.212848 
L 168.464539 201.833302 
L 171.25943 203.082641 
L 174.054321 200.507181 
L 176.849212 200.218994 
L 179.644103 193.205699 
L 182.438994 204.399534 
L 185.233885 207.070762 
L 188.028776 207.510384 
L 190.823667 204.079629 
L 193.618558 197.991531 
L 196.413449 200.355068 
L 199.208341 203.86344 
L 202.003232 204.033841 
L 204.798123 204.43327 
L 207.593014 205.662236 
L 210.387905 205.433081 
L 213.182796 205.782232 
L 215.977687 206.023065 
L 218.772578 207.389773 
L 221.567469 207.323071 
L 224.36236 204.728963 
L 227.157251 207.787331 
L 229.952142 207.248453 
L 232.747033 208.814161 
L 235.541924 206.317493 
L 238.336815 205.864566 
L 241.131706 202.803844 
L 243.926597 208.231386 
L 246.721489 206.451223 
L 249.51638 208.01802 
L 252.311271 203.995802 
L 255.106162 203.367604 
L 257.901053 205.689284 
L 260.695944 203.058012 
L 263.490835 199.155444 
L 266.285726 203.171413 
L 269.080617 206.637883 
L 271.875508 207.225404 
L 274.670399 209.230151 
L 277.46529 207.642088 
L 280.260181 207.488804 
L 283.055072 207.444634 
L 285.849963 207.630654 
L 288.644854 205.834618 
L 291.439745 208.300106 
L 294.234637 208.539986 
L 297.029528 209.203964 
L 299.824419 209.287037 
L 302.61931 209.522256 
L 305.414201 207.157489 
L 308.209092 202.026732 
L 311.003983 201.829148 
L 313.798874 205.239447 
L 316.593765 196.453665 
L 319.388656 193.334025 
L 322.183547 204.763849 
L 324.978438 204.706643 
L 327.773329 204.142997 
L 330.56822 197.255248 
L 333.363111 194.547729 
L 336.158002 203.510257 
L 338.952894 205.775507 
L 341.747785 202.588855 
L 344.542676 207.369139 
" clip-path="url(#p3db589cfb5)" style="fill: none; stroke: #1f77b4; stroke-width: 1.5; stroke-linecap: square"/>
   </g>
   <g id="line2d_14">
    <path d="M 67.848461 31.750602 
L 70.643352 104.262699 
L 73.438243 140.47559 
L 76.233134 157.4991 
L 79.028025 169.911097 
L 81.822916 178.030536 
L 84.617807 183.752063 
L 87.412698 188.828337 
L 90.207589 192.301809 
L 93.00248 196.241317 
L 95.797371 201.37837 
L 98.592262 202.815726 
L 101.387153 203.818627 
L 104.182045 207.298387 
L 106.976936 207.680159 
L 109.771827 210.235779 
L 112.566718 210.697398 
L 115.361609 209.266779 
L 118.1565 212.076815 
L 120.951391 212.222704 
L 123.746282 212.310567 
L 126.541173 209.615692 
L 129.336064 213.857638 
L 132.130955 212.408488 
L 134.925846 213.173673 
L 137.720737 212.694708 
L 140.515628 212.927518 
L 143.310519 213.773004 
L 146.10541 213.391704 
L 148.900301 212.909179 
L 151.695193 215.199791 
L 154.490084 214.001786 
L 157.284975 212.436655 
L 160.079866 213.890727 
L 162.874757 212.738918 
L 165.669648 214.974129 
L 168.464539 215.665317 
L 171.25943 215.691941 
L 174.054321 216.179809 
L 176.849212 215.283189 
L 179.644103 214.795822 
L 182.438994 216.714424 
L 185.233885 215.938559 
L 188.028776 216.01126 
L 190.823667 216.390252 
L 193.618558 215.144545 
L 196.413449 216.985755 
L 199.208341 215.888055 
L 202.003232 216.193243 
L 204.798123 216.815861 
L 207.593014 217.433535 
L 210.387905 217.642286 
L 213.182796 218.138079 
L 215.977687 217.760362 
L 218.772578 218.350709 
L 221.567469 218.178749 
L 224.36236 218.521889 
L 227.157251 218.630589 
L 229.952142 218.563161 
L 232.747033 218.852008 
L 235.541924 218.738167 
L 238.336815 218.757409 
L 241.131706 219.042803 
L 243.926597 219.153453 
L 246.721489 219.152428 
L 249.51638 219.158207 
L 252.311271 219.359538 
L 255.106162 219.37563 
L 257.901053 219.38164 
L 260.695944 219.489167 
L 263.490835 219.575281 
L 266.285726 219.550339 
L 269.080617 219.604976 
L 271.875508 219.620819 
L 274.670399 219.682517 
L 277.46529 219.670847 
L 280.260181 219.697284 
L 283.055072 219.748483 
L 285.849963 219.795026 
L 288.644854 219.768122 
L 291.439745 219.824151 
L 294.234637 219.85354 
L 297.029528 219.877303 
L 299.824419 219.907648 
L 302.61931 219.919253 
L 305.414201 219.938978 
L 308.209092 219.930921 
L 311.003983 219.95286 
L 313.798874 219.972022 
L 316.593765 219.960318 
L 319.388656 219.965391 
L 322.183547 219.974638 
L 324.978438 220.011406 
L 327.773329 220.02247 
L 330.56822 220.031891 
L 333.363111 220.023886 
L 336.158002 220.054893 
L 338.952894 220.047766 
L 341.747785 220.059612 
L 344.542676 220.05088 
" clip-path="url(#p3db589cfb5)" style="fill: none; stroke: #ff7f0e; stroke-width: 1.5; stroke-linecap: square"/>
   </g>
   <g id="patch_3">
    <path d="M 54.01375 230.139612 
L 54.01375 8.379612 
" style="fill: none; stroke: #000000; stroke-width: 0.8; stroke-linejoin: miter; stroke-linecap: square"/>
   </g>
   <g id="patch_4">
    <path d="M 358.377386 230.139612 
L 358.377386 8.379612 
" style="fill: none; stroke: #000000; stroke-width: 0.8; stroke-linejoin: miter; stroke-linecap: square"/>
   </g>
   <g id="patch_5">
    <path d="M 54.01375 230.139612 
L 358.377386 230.139612 
" style="fill: none; stroke: #000000; stroke-width: 0.8; stroke-linejoin: miter; stroke-linecap: square"/>
   </g>
   <g id="patch_6">
    <path d="M 54.01375 8.379612 
L 358.377386 8.379612 
" style="fill: none; stroke: #000000; stroke-width: 0.8; stroke-linejoin: miter; stroke-linecap: square"/>
   </g>
   <g id="legend_1">
    <g id="patch_7">
     <path d="M 63.603011 60.678362 
L 348.577386 60.678362 
Q 351.377386 60.678362 351.377386 57.878362 
L 351.377386 18.179612 
Q 351.377386 15.379612 348.577386 15.379612 
L 63.603011 15.379612 
Q 60.803011 15.379612 60.803011 18.179612 
L 60.803011 57.878362 
Q 60.803011 60.678362 63.603011 60.678362 
z
" style="fill: #ffffff; opacity: 0.8; stroke: #cccccc; stroke-linejoin: miter"/>
    </g>
    <g id="line2d_15">
     <path d="M 66.403011 26.717424 
L 80.403011 26.717424 
L 94.403011 26.717424 
" style="fill: none; stroke: #1f77b4; stroke-width: 1.5; stroke-linecap: square"/>
    </g>
    <g id="text_15">
     <!-- Sans standardisation des données -->
     <g transform="translate(105.603011 31.617424) scale(0.14 -0.14)">
      <defs>
       <path id="DejaVuSans-53" d="M 3425 4513 
L 3425 3897 
Q 3066 4069 2747 4153 
Q 2428 4238 2131 4238 
Q 1616 4238 1336 4038 
Q 1056 3838 1056 3469 
Q 1056 3159 1242 3001 
Q 1428 2844 1947 2747 
L 2328 2669 
Q 3034 2534 3370 2195 
Q 3706 1856 3706 1288 
Q 3706 609 3251 259 
Q 2797 -91 1919 -91 
Q 1588 -91 1214 -16 
Q 841 59 441 206 
L 441 856 
Q 825 641 1194 531 
Q 1563 422 1919 422 
Q 2459 422 2753 634 
Q 3047 847 3047 1241 
Q 3047 1584 2836 1778 
Q 2625 1972 2144 2069 
L 1759 2144 
Q 1053 2284 737 2584 
Q 422 2884 422 3419 
Q 422 4038 858 4394 
Q 1294 4750 2059 4750 
Q 2388 4750 2728 4690 
Q 3069 4631 3425 4513 
z
" transform="scale(0.015625)"/>
       <path id="DejaVuSans-e9" d="M 3597 1894 
L 3597 1613 
L 953 1613 
Q 991 1019 1311 708 
Q 1631 397 2203 397 
Q 2534 397 2845 478 
Q 3156 559 3463 722 
L 3463 178 
Q 3153 47 2828 -22 
Q 2503 -91 2169 -91 
Q 1331 -91 842 396 
Q 353 884 353 1716 
Q 353 2575 817 3079 
Q 1281 3584 2069 3584 
Q 2775 3584 3186 3129 
Q 3597 2675 3597 1894 
z
M 3022 2063 
Q 3016 2534 2758 2815 
Q 2500 3097 2075 3097 
Q 1594 3097 1305 2825 
Q 1016 2553 972 2059 
L 3022 2063 
z
M 2466 5119 
L 3088 5119 
L 2070 3944 
L 1591 3944 
L 2466 5119 
z
" transform="scale(0.015625)"/>
      </defs>
      <use xlink:href="#DejaVuSans-53"/>
      <use xlink:href="#DejaVuSans-61" x="63.476562"/>
      <use xlink:href="#DejaVuSans-6e" x="124.755859"/>
      <use xlink:href="#DejaVuSans-73" x="188.134766"/>
      <use xlink:href="#DejaVuSans-20" x="240.234375"/>
      <use xlink:href="#DejaVuSans-73" x="272.021484"/>
      <use xlink:href="#DejaVuSans-74" x="324.121094"/>
      <use xlink:href="#DejaVuSans-61" x="363.330078"/>
      <use xlink:href="#DejaVuSans-6e" x="424.609375"/>
      <use xlink:href="#DejaVuSans-64" x="487.988281"/>
      <use xlink:href="#DejaVuSans-61" x="551.464844"/>
      <use xlink:href="#DejaVuSans-72" x="612.744141"/>
      <use xlink:href="#DejaVuSans-64" x="652.107422"/>
      <use xlink:href="#DejaVuSans-69" x="715.583984"/>
      <use xlink:href="#DejaVuSans-73" x="743.367188"/>
      <use xlink:href="#DejaVuSans-61" x="795.466797"/>
      <use xlink:href="#DejaVuSans-74" x="856.746094"/>
      <use xlink:href="#DejaVuSans-69" x="895.955078"/>
      <use xlink:href="#DejaVuSans-6f" x="923.738281"/>
      <use xlink:href="#DejaVuSans-6e" x="984.919922"/>
      <use xlink:href="#DejaVuSans-20" x="1048.298828"/>
      <use xlink:href="#DejaVuSans-64" x="1080.085938"/>
      <use xlink:href="#DejaVuSans-65" x="1143.5625"/>
      <use xlink:href="#DejaVuSans-73" x="1205.085938"/>
      <use xlink:href="#DejaVuSans-20" x="1257.185547"/>
      <use xlink:href="#DejaVuSans-64" x="1288.972656"/>
      <use xlink:href="#DejaVuSans-6f" x="1352.449219"/>
      <use xlink:href="#DejaVuSans-6e" x="1413.630859"/>
      <use xlink:href="#DejaVuSans-6e" x="1477.009766"/>
      <use xlink:href="#DejaVuSans-e9" x="1540.388672"/>
      <use xlink:href="#DejaVuSans-65" x="1601.912109"/>
      <use xlink:href="#DejaVuSans-73" x="1663.435547"/>
     </g>
    </g>
    <g id="line2d_16">
     <path d="M 66.403011 47.266799 
L 80.403011 47.266799 
L 94.403011 47.266799 
" style="fill: none; stroke: #ff7f0e; stroke-width: 1.5; stroke-linecap: square"/>
    </g>
    <g id="text_16">
     <!-- Avec standardisation des données -->
     <g transform="translate(105.603011 52.166799) scale(0.14 -0.14)">
      <defs>
       <path id="DejaVuSans-41" d="M 2188 4044 
L 1331 1722 
L 3047 1722 
L 2188 4044 
z
M 1831 4666 
L 2547 4666 
L 4325 0 
L 3669 0 
L 3244 1197 
L 1141 1197 
L 716 0 
L 50 0 
L 1831 4666 
z
" transform="scale(0.015625)"/>
       <path id="DejaVuSans-76" d="M 191 3500 
L 800 3500 
L 1894 563 
L 2988 3500 
L 3597 3500 
L 2284 0 
L 1503 0 
L 191 3500 
z
" transform="scale(0.015625)"/>
      </defs>
      <use xlink:href="#DejaVuSans-41"/>
      <use xlink:href="#DejaVuSans-76" x="62.533203"/>
      <use xlink:href="#DejaVuSans-65" x="121.712891"/>
      <use xlink:href="#DejaVuSans-63" x="183.236328"/>
      <use xlink:href="#DejaVuSans-20" x="238.216797"/>
      <use xlink:href="#DejaVuSans-73" x="270.003906"/>
      <use xlink:href="#DejaVuSans-74" x="322.103516"/>
      <use xlink:href="#DejaVuSans-61" x="361.3125"/>
      <use xlink:href="#DejaVuSans-6e" x="422.591797"/>
      <use xlink:href="#DejaVuSans-64" x="485.970703"/>
      <use xlink:href="#DejaVuSans-61" x="549.447266"/>
      <use xlink:href="#DejaVuSans-72" x="610.726562"/>
      <use xlink:href="#DejaVuSans-64" x="650.089844"/>
      <use xlink:href="#DejaVuSans-69" x="713.566406"/>
      <use xlink:href="#DejaVuSans-73" x="741.349609"/>
      <use xlink:href="#DejaVuSans-61" x="793.449219"/>
      <use xlink:href="#DejaVuSans-74" x="854.728516"/>
      <use xlink:href="#DejaVuSans-69" x="893.9375"/>
      <use xlink:href="#DejaVuSans-6f" x="921.720703"/>
      <use xlink:href="#DejaVuSans-6e" x="982.902344"/>
      <use xlink:href="#DejaVuSans-20" x="1046.28125"/>
      <use xlink:href="#DejaVuSans-64" x="1078.068359"/>
      <use xlink:href="#DejaVuSans-65" x="1141.544922"/>
      <use xlink:href="#DejaVuSans-73" x="1203.068359"/>
      <use xlink:href="#DejaVuSans-20" x="1255.167969"/>
      <use xlink:href="#DejaVuSans-64" x="1286.955078"/>
      <use xlink:href="#DejaVuSans-6f" x="1350.431641"/>
      <use xlink:href="#DejaVuSans-6e" x="1411.613281"/>
      <use xlink:href="#DejaVuSans-6e" x="1474.992188"/>
      <use xlink:href="#DejaVuSans-e9" x="1538.371094"/>
      <use xlink:href="#DejaVuSans-65" x="1599.894531"/>
      <use xlink:href="#DejaVuSans-73" x="1661.417969"/>
     </g>
    </g>
   </g>
  </g>
  <g id="axes_2">
   <g id="patch_8">
    <path d="M 419.250114 230.139612 
L 723.61375 230.139612 
L 723.61375 8.379612 
L 419.250114 8.379612 
z
" style="fill: #ffffff"/>
   </g>
   <g id="matplotlib.axis_3">
    <g id="xtick_7">
     <g id="line2d_17">
      <g>
       <use xlink:href="#m7cfaf4bc76" x="430.289933" y="230.139612" style="stroke: #000000; stroke-width: 0.8"/>
      </g>
     </g>
     <g id="text_17">
      <!-- 0 -->
      <g transform="translate(425.836183 247.777424) scale(0.14 -0.14)">
       <use xlink:href="#DejaVuSans-30"/>
      </g>
     </g>
    </g>
    <g id="xtick_8">
     <g id="line2d_18">
      <g>
       <use xlink:href="#m7cfaf4bc76" x="486.187755" y="230.139612" style="stroke: #000000; stroke-width: 0.8"/>
      </g>
     </g>
     <g id="text_18">
      <!-- 20 -->
      <g transform="translate(477.280255 247.777424) scale(0.14 -0.14)">
       <use xlink:href="#DejaVuSans-32"/>
       <use xlink:href="#DejaVuSans-30" x="63.623047"/>
      </g>
     </g>
    </g>
    <g id="xtick_9">
     <g id="line2d_19">
      <g>
       <use xlink:href="#m7cfaf4bc76" x="542.085576" y="230.139612" style="stroke: #000000; stroke-width: 0.8"/>
      </g>
     </g>
     <g id="text_19">
      <!-- 40 -->
      <g transform="translate(533.178076 247.777424) scale(0.14 -0.14)">
       <use xlink:href="#DejaVuSans-34"/>
       <use xlink:href="#DejaVuSans-30" x="63.623047"/>
      </g>
     </g>
    </g>
    <g id="xtick_10">
     <g id="line2d_20">
      <g>
       <use xlink:href="#m7cfaf4bc76" x="597.983397" y="230.139612" style="stroke: #000000; stroke-width: 0.8"/>
      </g>
     </g>
     <g id="text_20">
      <!-- 60 -->
      <g transform="translate(589.075897 247.777424) scale(0.14 -0.14)">
       <use xlink:href="#DejaVuSans-36"/>
       <use xlink:href="#DejaVuSans-30" x="63.623047"/>
      </g>
     </g>
    </g>
    <g id="xtick_11">
     <g id="line2d_21">
      <g>
       <use xlink:href="#m7cfaf4bc76" x="653.881218" y="230.139612" style="stroke: #000000; stroke-width: 0.8"/>
      </g>
     </g>
     <g id="text_21">
      <!-- 80 -->
      <g transform="translate(644.973718 247.777424) scale(0.14 -0.14)">
       <use xlink:href="#DejaVuSans-38"/>
       <use xlink:href="#DejaVuSans-30" x="63.623047"/>
      </g>
     </g>
    </g>
    <g id="xtick_12">
     <g id="line2d_22">
      <g>
       <use xlink:href="#m7cfaf4bc76" x="709.779039" y="230.139612" style="stroke: #000000; stroke-width: 0.8"/>
      </g>
     </g>
     <g id="text_22">
      <!-- 100 -->
      <g transform="translate(696.417789 247.777424) scale(0.14 -0.14)">
       <use xlink:href="#DejaVuSans-31"/>
       <use xlink:href="#DejaVuSans-30" x="63.623047"/>
       <use xlink:href="#DejaVuSans-30" x="127.246094"/>
      </g>
     </g>
    </g>
    <g id="text_23">
     <!-- Epochs -->
     <g transform="translate(546.350057 265.326799) scale(0.14 -0.14)">
      <use xlink:href="#DejaVuSans-45"/>
      <use xlink:href="#DejaVuSans-70" x="63.183594"/>
      <use xlink:href="#DejaVuSans-6f" x="126.660156"/>
      <use xlink:href="#DejaVuSans-63" x="187.841797"/>
      <use xlink:href="#DejaVuSans-68" x="242.822266"/>
      <use xlink:href="#DejaVuSans-73" x="306.201172"/>
     </g>
    </g>
   </g>
   <g id="matplotlib.axis_4">
    <g id="ytick_7">
     <g id="line2d_23">
      <g>
       <use xlink:href="#m69c0136c13" x="419.250114" y="229.43636" style="stroke: #000000; stroke-width: 0.8"/>
      </g>
     </g>
     <g id="text_24">
      <!-- 0.4 -->
      <g transform="translate(389.985739 234.755266) scale(0.14 -0.14)">
       <use xlink:href="#DejaVuSans-30"/>
       <use xlink:href="#DejaVuSans-2e" x="63.623047"/>
       <use xlink:href="#DejaVuSans-34" x="95.410156"/>
      </g>
     </g>
    </g>
    <g id="ytick_8">
     <g id="line2d_24">
      <g>
       <use xlink:href="#m69c0136c13" x="419.250114" y="194.273569" style="stroke: #000000; stroke-width: 0.8"/>
      </g>
     </g>
     <g id="text_25">
      <!-- 0.5 -->
      <g transform="translate(389.985739 199.592475) scale(0.14 -0.14)">
       <defs>
        <path id="DejaVuSans-35" d="M 691 4666 
L 3169 4666 
L 3169 4134 
L 1269 4134 
L 1269 2991 
Q 1406 3038 1543 3061 
Q 1681 3084 1819 3084 
Q 2600 3084 3056 2656 
Q 3513 2228 3513 1497 
Q 3513 744 3044 326 
Q 2575 -91 1722 -91 
Q 1428 -91 1123 -41 
Q 819 9 494 109 
L 494 744 
Q 775 591 1075 516 
Q 1375 441 1709 441 
Q 2250 441 2565 725 
Q 2881 1009 2881 1497 
Q 2881 1984 2565 2268 
Q 2250 2553 1709 2553 
Q 1456 2553 1204 2497 
Q 953 2441 691 2322 
L 691 4666 
z
" transform="scale(0.015625)"/>
       </defs>
       <use xlink:href="#DejaVuSans-30"/>
       <use xlink:href="#DejaVuSans-2e" x="63.623047"/>
       <use xlink:href="#DejaVuSans-35" x="95.410156"/>
      </g>
     </g>
    </g>
    <g id="ytick_9">
     <g id="line2d_25">
      <g>
       <use xlink:href="#m69c0136c13" x="419.250114" y="159.110777" style="stroke: #000000; stroke-width: 0.8"/>
      </g>
     </g>
     <g id="text_26">
      <!-- 0.6 -->
      <g transform="translate(389.985739 164.429684) scale(0.14 -0.14)">
       <use xlink:href="#DejaVuSans-30"/>
       <use xlink:href="#DejaVuSans-2e" x="63.623047"/>
       <use xlink:href="#DejaVuSans-36" x="95.410156"/>
      </g>
     </g>
    </g>
    <g id="ytick_10">
     <g id="line2d_26">
      <g>
       <use xlink:href="#m69c0136c13" x="419.250114" y="123.947986" style="stroke: #000000; stroke-width: 0.8"/>
      </g>
     </g>
     <g id="text_27">
      <!-- 0.7 -->
      <g transform="translate(389.985739 129.266892) scale(0.14 -0.14)">
       <defs>
        <path id="DejaVuSans-37" d="M 525 4666 
L 3525 4666 
L 3525 4397 
L 1831 0 
L 1172 0 
L 2766 4134 
L 525 4134 
L 525 4666 
z
" transform="scale(0.015625)"/>
       </defs>
       <use xlink:href="#DejaVuSans-30"/>
       <use xlink:href="#DejaVuSans-2e" x="63.623047"/>
       <use xlink:href="#DejaVuSans-37" x="95.410156"/>
      </g>
     </g>
    </g>
    <g id="ytick_11">
     <g id="line2d_27">
      <g>
       <use xlink:href="#m69c0136c13" x="419.250114" y="88.785195" style="stroke: #000000; stroke-width: 0.8"/>
      </g>
     </g>
     <g id="text_28">
      <!-- 0.8 -->
      <g transform="translate(389.985739 94.104101) scale(0.14 -0.14)">
       <use xlink:href="#DejaVuSans-30"/>
       <use xlink:href="#DejaVuSans-2e" x="63.623047"/>
       <use xlink:href="#DejaVuSans-38" x="95.410156"/>
      </g>
     </g>
    </g>
    <g id="ytick_12">
     <g id="line2d_28">
      <g>
       <use xlink:href="#m69c0136c13" x="419.250114" y="53.622403" style="stroke: #000000; stroke-width: 0.8"/>
      </g>
     </g>
     <g id="text_29">
      <!-- 0.9 -->
      <g transform="translate(389.985739 58.94131) scale(0.14 -0.14)">
       <defs>
        <path id="DejaVuSans-39" d="M 703 97 
L 703 672 
Q 941 559 1184 500 
Q 1428 441 1663 441 
Q 2288 441 2617 861 
Q 2947 1281 2994 2138 
Q 2813 1869 2534 1725 
Q 2256 1581 1919 1581 
Q 1219 1581 811 2004 
Q 403 2428 403 3163 
Q 403 3881 828 4315 
Q 1253 4750 1959 4750 
Q 2769 4750 3195 4129 
Q 3622 3509 3622 2328 
Q 3622 1225 3098 567 
Q 2575 -91 1691 -91 
Q 1453 -91 1209 -44 
Q 966 3 703 97 
z
M 1959 2075 
Q 2384 2075 2632 2365 
Q 2881 2656 2881 3163 
Q 2881 3666 2632 3958 
Q 2384 4250 1959 4250 
Q 1534 4250 1286 3958 
Q 1038 3666 1038 3163 
Q 1038 2656 1286 2365 
Q 1534 2075 1959 2075 
z
" transform="scale(0.015625)"/>
       </defs>
       <use xlink:href="#DejaVuSans-30"/>
       <use xlink:href="#DejaVuSans-2e" x="63.623047"/>
       <use xlink:href="#DejaVuSans-39" x="95.410156"/>
      </g>
     </g>
    </g>
    <g id="ytick_13">
     <g id="line2d_29">
      <g>
       <use xlink:href="#m69c0136c13" x="419.250114" y="18.459612" style="stroke: #000000; stroke-width: 0.8"/>
      </g>
     </g>
     <g id="text_30">
      <!-- 1.0 -->
      <g transform="translate(389.985739 23.778518) scale(0.14 -0.14)">
       <use xlink:href="#DejaVuSans-31"/>
       <use xlink:href="#DejaVuSans-2e" x="63.623047"/>
       <use xlink:href="#DejaVuSans-30" x="95.410156"/>
      </g>
     </g>
    </g>
    <g id="text_31">
     <!-- Taux de bonnes classifications -->
     <g transform="translate(383.074176 225.151018) rotate(-90) scale(0.14 -0.14)">
      <defs>
       <path id="DejaVuSans-54" d="M -19 4666 
L 3928 4666 
L 3928 4134 
L 2272 4134 
L 2272 0 
L 1638 0 
L 1638 4134 
L -19 4134 
L -19 4666 
z
" transform="scale(0.015625)"/>
       <path id="DejaVuSans-78" d="M 3513 3500 
L 2247 1797 
L 3578 0 
L 2900 0 
L 1881 1375 
L 863 0 
L 184 0 
L 1544 1831 
L 300 3500 
L 978 3500 
L 1906 2253 
L 2834 3500 
L 3513 3500 
z
" transform="scale(0.015625)"/>
       <path id="DejaVuSans-62" d="M 3116 1747 
Q 3116 2381 2855 2742 
Q 2594 3103 2138 3103 
Q 1681 3103 1420 2742 
Q 1159 2381 1159 1747 
Q 1159 1113 1420 752 
Q 1681 391 2138 391 
Q 2594 391 2855 752 
Q 3116 1113 3116 1747 
z
M 1159 2969 
Q 1341 3281 1617 3432 
Q 1894 3584 2278 3584 
Q 2916 3584 3314 3078 
Q 3713 2572 3713 1747 
Q 3713 922 3314 415 
Q 2916 -91 2278 -91 
Q 1894 -91 1617 61 
Q 1341 213 1159 525 
L 1159 0 
L 581 0 
L 581 4863 
L 1159 4863 
L 1159 2969 
z
" transform="scale(0.015625)"/>
      </defs>
      <use xlink:href="#DejaVuSans-54"/>
      <use xlink:href="#DejaVuSans-61" x="44.583984"/>
      <use xlink:href="#DejaVuSans-75" x="105.863281"/>
      <use xlink:href="#DejaVuSans-78" x="169.242188"/>
      <use xlink:href="#DejaVuSans-20" x="228.421875"/>
      <use xlink:href="#DejaVuSans-64" x="260.208984"/>
      <use xlink:href="#DejaVuSans-65" x="323.685547"/>
      <use xlink:href="#DejaVuSans-20" x="385.208984"/>
      <use xlink:href="#DejaVuSans-62" x="416.996094"/>
      <use xlink:href="#DejaVuSans-6f" x="480.472656"/>
      <use xlink:href="#DejaVuSans-6e" x="541.654297"/>
      <use xlink:href="#DejaVuSans-6e" x="605.033203"/>
      <use xlink:href="#DejaVuSans-65" x="668.412109"/>
      <use xlink:href="#DejaVuSans-73" x="729.935547"/>
      <use xlink:href="#DejaVuSans-20" x="782.035156"/>
      <use xlink:href="#DejaVuSans-63" x="813.822266"/>
      <use xlink:href="#DejaVuSans-6c" x="868.802734"/>
      <use xlink:href="#DejaVuSans-61" x="896.585938"/>
      <use xlink:href="#DejaVuSans-73" x="957.865234"/>
      <use xlink:href="#DejaVuSans-73" x="1009.964844"/>
      <use xlink:href="#DejaVuSans-69" x="1062.064453"/>
      <use xlink:href="#DejaVuSans-66" x="1089.847656"/>
      <use xlink:href="#DejaVuSans-69" x="1125.052734"/>
      <use xlink:href="#DejaVuSans-63" x="1152.835938"/>
      <use xlink:href="#DejaVuSans-61" x="1207.816406"/>
      <use xlink:href="#DejaVuSans-74" x="1269.095703"/>
      <use xlink:href="#DejaVuSans-69" x="1308.304688"/>
      <use xlink:href="#DejaVuSans-6f" x="1336.087891"/>
      <use xlink:href="#DejaVuSans-6e" x="1397.269531"/>
      <use xlink:href="#DejaVuSans-73" x="1460.648438"/>
     </g>
    </g>
   </g>
   <g id="line2d_30">
    <path d="M 433.084824 220.059612 
L 435.879715 107.538682 
L 438.674606 126.292174 
L 441.469498 32.524736 
L 444.264389 41.901471 
L 447.05928 34.86892 
L 449.854171 39.557288 
L 452.649062 39.557288 
L 455.443953 37.213104 
L 458.238844 27.836347 
L 461.033735 37.213104 
L 463.828626 37.213104 
L 466.623517 32.524736 
L 469.418408 46.589839 
L 472.213299 34.86892 
L 475.00819 39.557288 
L 477.803081 30.180552 
L 480.597972 27.836347 
L 483.392863 37.213104 
L 486.187755 41.901471 
L 488.982646 37.213104 
L 491.777537 25.492164 
L 494.572428 34.86892 
L 497.367319 25.492164 
L 500.16221 27.836347 
L 502.957101 25.492164 
L 505.751992 25.492164 
L 508.546883 25.492164 
L 511.341774 25.492164 
L 514.136665 25.492164 
L 516.931556 25.492164 
L 519.726447 30.180552 
L 522.521338 30.180552 
L 525.316229 39.557288 
L 528.11112 32.524736 
L 530.906011 34.86892 
L 533.700903 27.836347 
L 536.495794 34.86892 
L 539.290685 27.836347 
L 542.085576 34.86892 
L 544.880467 34.86892 
L 547.675358 30.180552 
L 550.470249 23.14798 
L 553.26514 25.492164 
L 556.060031 27.836347 
L 558.854922 37.213104 
L 561.649813 30.180552 
L 564.444704 32.524736 
L 567.239595 27.836347 
L 570.034486 30.180552 
L 572.829377 27.836347 
L 575.624268 25.492164 
L 578.419159 23.14798 
L 581.214051 30.180552 
L 584.008942 25.492164 
L 586.803833 23.14798 
L 589.598724 30.180552 
L 592.393615 25.492164 
L 595.188506 25.492164 
L 597.983397 25.492164 
L 600.778288 30.180552 
L 603.573179 25.492164 
L 606.36807 32.524736 
L 609.162961 27.836347 
L 611.957852 27.836347 
L 614.752743 27.836347 
L 617.547634 27.836347 
L 620.342525 32.524736 
L 623.137416 30.180552 
L 625.932307 30.180552 
L 628.727199 30.180552 
L 631.52209 37.213104 
L 634.316981 25.492164 
L 637.111872 25.492164 
L 639.906763 25.492164 
L 642.701654 25.492164 
L 645.496545 27.836347 
L 648.291436 25.492164 
L 651.086327 20.803796 
L 653.881218 25.492164 
L 656.676109 25.492164 
L 659.471 25.492164 
L 662.265891 23.14798 
L 665.060782 25.492164 
L 667.855673 20.803796 
L 670.650564 25.492164 
L 673.445455 34.86892 
L 676.240347 30.180552 
L 679.035238 30.180552 
L 681.830129 30.180552 
L 684.62502 39.557288 
L 687.419911 25.492164 
L 690.214802 27.836347 
L 693.009693 30.180552 
L 695.804584 32.524736 
L 698.599475 37.213104 
L 701.394366 30.180552 
L 704.189257 25.492164 
L 706.984148 32.524736 
L 709.779039 25.492164 
" clip-path="url(#pf686a5c01b)" style="fill: none; stroke: #1f77b4; stroke-width: 1.5; stroke-linecap: square"/>
   </g>
   <g id="line2d_31">
    <path d="M 433.084824 152.078217 
L 435.879715 91.129374 
L 438.674606 74.720087 
L 441.469498 70.031699 
L 444.264389 58.310779 
L 447.05928 51.278207 
L 449.854171 44.245655 
L 452.649062 37.213104 
L 455.443953 34.86892 
L 458.238844 37.213104 
L 461.033735 30.180552 
L 463.828626 25.492164 
L 466.623517 32.524736 
L 469.418408 23.14798 
L 472.213299 25.492164 
L 475.00819 25.492164 
L 477.803081 25.492164 
L 480.597972 23.14798 
L 483.392863 23.14798 
L 486.187755 23.14798 
L 488.982646 25.492164 
L 491.777537 25.492164 
L 494.572428 23.14798 
L 497.367319 23.14798 
L 500.16221 23.14798 
L 502.957101 25.492164 
L 505.751992 20.803796 
L 508.546883 20.803796 
L 511.341774 25.492164 
L 514.136665 23.14798 
L 516.931556 20.803796 
L 519.726447 23.14798 
L 522.521338 25.492164 
L 525.316229 20.803796 
L 528.11112 23.14798 
L 530.906011 20.803796 
L 533.700903 23.14798 
L 536.495794 20.803796 
L 539.290685 20.803796 
L 542.085576 23.14798 
L 544.880467 20.803796 
L 547.675358 20.803796 
L 550.470249 20.803796 
L 553.26514 23.14798 
L 556.060031 20.803796 
L 558.854922 20.803796 
L 561.649813 20.803796 
L 564.444704 20.803796 
L 567.239595 23.14798 
L 570.034486 20.803796 
L 572.829377 20.803796 
L 575.624268 18.459612 
L 578.419159 18.459612 
L 581.214051 20.803796 
L 584.008942 18.459612 
L 586.803833 18.459612 
L 589.598724 18.459612 
L 592.393615 18.459612 
L 595.188506 18.459612 
L 597.983397 18.459612 
L 600.778288 18.459612 
L 603.573179 18.459612 
L 606.36807 18.459612 
L 609.162961 18.459612 
L 611.957852 18.459612 
L 614.752743 18.459612 
L 617.547634 18.459612 
L 620.342525 18.459612 
L 623.137416 18.459612 
L 625.932307 18.459612 
L 628.727199 18.459612 
L 631.52209 18.459612 
L 634.316981 18.459612 
L 637.111872 18.459612 
L 639.906763 18.459612 
L 642.701654 18.459612 
L 645.496545 18.459612 
L 648.291436 18.459612 
L 651.086327 18.459612 
L 653.881218 18.459612 
L 656.676109 18.459612 
L 659.471 18.459612 
L 662.265891 18.459612 
L 665.060782 18.459612 
L 667.855673 18.459612 
L 670.650564 18.459612 
L 673.445455 18.459612 
L 676.240347 18.459612 
L 679.035238 18.459612 
L 681.830129 18.459612 
L 684.62502 18.459612 
L 687.419911 18.459612 
L 690.214802 18.459612 
L 693.009693 18.459612 
L 695.804584 18.459612 
L 698.599475 18.459612 
L 701.394366 18.459612 
L 704.189257 18.459612 
L 706.984148 18.459612 
L 709.779039 18.459612 
" clip-path="url(#pf686a5c01b)" style="fill: none; stroke: #ff7f0e; stroke-width: 1.5; stroke-linecap: square"/>
   </g>
   <g id="patch_9">
    <path d="M 419.250114 230.139612 
L 419.250114 8.379612 
" style="fill: none; stroke: #000000; stroke-width: 0.8; stroke-linejoin: miter; stroke-linecap: square"/>
   </g>
   <g id="patch_10">
    <path d="M 723.61375 230.139612 
L 723.61375 8.379612 
" style="fill: none; stroke: #000000; stroke-width: 0.8; stroke-linejoin: miter; stroke-linecap: square"/>
   </g>
   <g id="patch_11">
    <path d="M 419.250114 230.139612 
L 723.61375 230.139612 
" style="fill: none; stroke: #000000; stroke-width: 0.8; stroke-linejoin: miter; stroke-linecap: square"/>
   </g>
   <g id="patch_12">
    <path d="M 419.250114 8.379612 
L 723.61375 8.379612 
" style="fill: none; stroke: #000000; stroke-width: 0.8; stroke-linejoin: miter; stroke-linecap: square"/>
   </g>
  </g>
 </g>
 <defs>
  <clipPath id="p3db589cfb5">
   <rect x="54.01375" y="8.379612" width="304.363636" height="221.76"/>
  </clipPath>
  <clipPath id="pf686a5c01b">
   <rect x="419.250114" y="8.379612" width="304.363636" height="221.76"/>
  </clipPath>
 </defs>
</svg>