<?xml version="1.0" encoding="UTF-8"?>
<svg xmlns="http://www.w3.org/2000/svg" xmlns:xlink="http://www.w3.org/1999/xlink" width="414.19" height="130.72" viewBox="0 0 414.19 130.72">
<defs>
<clipPath id="clip-0">
<path clip-rule="nonzero" d="M 0 107 L 23 107 L 23 130.71875 L 0 130.71875 Z M 0 107 "/>
</clipPath>
<clipPath id="clip-1">
<path clip-rule="nonzero" d="M 51 107 L 80 107 L 80 130.71875 L 51 130.71875 Z M 51 107 "/>
</clipPath>
<clipPath id="clip-2">
<path clip-rule="nonzero" d="M 107 107 L 137 107 L 137 130.71875 L 107 130.71875 Z M 107 107 "/>
</clipPath>
<clipPath id="clip-3">
<path clip-rule="nonzero" d="M 221 107 L 250 107 L 250 130.71875 L 221 130.71875 Z M 221 107 "/>
</clipPath>
<clipPath id="clip-4">
<path clip-rule="nonzero" d="M 278 107 L 307 107 L 307 130.71875 L 278 130.71875 Z M 278 107 "/>
</clipPath>
<clipPath id="clip-5">
<path clip-rule="nonzero" d="M 340 113 L 358 113 L 358 130.71875 L 340 130.71875 Z M 340 113 "/>
</clipPath>
<clipPath id="clip-6">
<path clip-rule="nonzero" d="M 334 107 L 363 107 L 363 130.71875 L 334 130.71875 Z M 334 107 "/>
</clipPath>
<clipPath id="clip-7">
<path clip-rule="nonzero" d="M 391 51 L 414.191406 51 L 414.191406 80 L 391 80 Z M 391 51 "/>
</clipPath>
</defs>
<path fill="none" stroke-width="0.3985" stroke-linecap="butt" stroke-linejoin="miter" stroke="rgb(0%, 0%, 0%)" stroke-opacity="1" stroke-miterlimit="10" d="M 8.469719 141.734938 C 8.469719 146.410719 4.67675 150.203688 0.00096875 150.203688 C -4.678719 150.203688 -8.467781 146.410719 -8.467781 141.734938 C -8.467781 137.05525 -4.678719 133.266188 0.00096875 133.266188 C 4.67675 133.266188 8.469719 137.05525 8.469719 141.734938 Z M 8.469719 141.734938 " transform="matrix(1, 0, 0, -1, 8.667, 150.399)"/>
<path fill="none" stroke-width="0.3985" stroke-linecap="butt" stroke-linejoin="miter" stroke="rgb(0%, 0%, 0%)" stroke-opacity="1" stroke-miterlimit="10" d="M 8.469719 113.387281 C 8.469719 118.063063 4.67675 121.856031 0.00096875 121.856031 C -4.678719 121.856031 -8.467781 118.063063 -8.467781 113.387281 C -8.467781 108.7115 -4.678719 104.918531 0.00096875 104.918531 C 4.67675 104.918531 8.469719 108.7115 8.469719 113.387281 Z M 8.469719 113.387281 " transform="matrix(1, 0, 0, -1, 8.667, 150.399)"/>
<path fill="none" stroke-width="0.3985" stroke-linecap="butt" stroke-linejoin="miter" stroke="rgb(0%, 0%, 0%)" stroke-opacity="1" stroke-miterlimit="10" d="M 8.469719 85.039625 C 8.469719 89.719313 4.67675 93.508375 0.00096875 93.508375 C -4.678719 93.508375 -8.467781 89.719313 -8.467781 85.039625 C -8.467781 80.363844 -4.678719 76.570875 0.00096875 76.570875 C 4.67675 76.570875 8.469719 80.363844 8.469719 85.039625 Z M 8.469719 85.039625 " transform="matrix(1, 0, 0, -1, 8.667, 150.399)"/>
<path fill="none" stroke-width="0.3985" stroke-linecap="butt" stroke-linejoin="miter" stroke="rgb(0%, 0%, 0%)" stroke-opacity="1" stroke-miterlimit="10" d="M 8.469719 56.691969 C 8.469719 61.371656 4.67675 65.160719 0.00096875 65.160719 C -4.678719 65.160719 -8.467781 61.371656 -8.467781 56.691969 C -8.467781 52.016188 -4.678719 48.227125 0.00096875 48.227125 C 4.67675 48.227125 8.469719 52.016188 8.469719 56.691969 Z M 8.469719 56.691969 " transform="matrix(1, 0, 0, -1, 8.667, 150.399)"/>
<g clip-path="url(#clip-0)">
<path fill="none" stroke-width="0.3985" stroke-linecap="butt" stroke-linejoin="miter" stroke="rgb(0%, 0%, 0%)" stroke-opacity="1" stroke-miterlimit="10" d="M 8.469719 28.348219 C 8.469719 33.024 4.67675 36.816969 0.00096875 36.816969 C -4.678719 36.816969 -8.467781 33.024 -8.467781 28.348219 C -8.467781 23.668531 -4.678719 19.879469 0.00096875 19.879469 C 4.67675 19.879469 8.469719 23.668531 8.469719 28.348219 Z M 8.469719 28.348219 " transform="matrix(1, 0, 0, -1, 8.667, 150.399)"/>
</g>
<path fill="none" stroke-width="0.3985" stroke-linecap="butt" stroke-linejoin="miter" stroke="rgb(0%, 0%, 0%)" stroke-opacity="1" stroke-miterlimit="10" d="M 65.161125 141.734938 C 65.161125 146.410719 61.372062 150.203688 56.692375 150.203688 C 52.016594 150.203688 48.223625 146.410719 48.223625 141.734938 C 48.223625 137.05525 52.016594 133.266188 56.692375 133.266188 C 61.372062 133.266188 65.161125 137.05525 65.161125 141.734938 Z M 65.161125 141.734938 " transform="matrix(1, 0, 0, -1, 8.667, 150.399)"/>
<path fill="none" stroke-width="0.3985" stroke-linecap="butt" stroke-linejoin="miter" stroke="rgb(0%, 0%, 0%)" stroke-opacity="1" stroke-miterlimit="10" d="M 65.161125 113.387281 C 65.161125 118.063063 61.372062 121.856031 56.692375 121.856031 C 52.016594 121.856031 48.223625 118.063063 48.223625 113.387281 C 48.223625 108.7115 52.016594 104.918531 56.692375 104.918531 C 61.372062 104.918531 65.161125 108.7115 65.161125 113.387281 Z M 65.161125 113.387281 " transform="matrix(1, 0, 0, -1, 8.667, 150.399)"/>
<path fill="none" stroke-width="0.3985" stroke-linecap="butt" stroke-linejoin="miter" stroke="rgb(0%, 0%, 0%)" stroke-opacity="1" stroke-miterlimit="10" d="M 65.161125 85.039625 C 65.161125 89.719313 61.372062 93.508375 56.692375 93.508375 C 52.016594 93.508375 48.223625 89.719313 48.223625 85.039625 C 48.223625 80.363844 52.016594 76.570875 56.692375 76.570875 C 61.372062 76.570875 65.161125 80.363844 65.161125 85.039625 Z M 65.161125 85.039625 " transform="matrix(1, 0, 0, -1, 8.667, 150.399)"/>
<path fill="none" stroke-width="0.3985" stroke-linecap="butt" stroke-linejoin="miter" stroke="rgb(0%, 0%, 0%)" stroke-opacity="1" stroke-miterlimit="10" d="M 65.161125 56.691969 C 65.161125 61.371656 61.372062 65.160719 56.692375 65.160719 C 52.016594 65.160719 48.223625 61.371656 48.223625 56.691969 C 48.223625 52.016188 52.016594 48.227125 56.692375 48.227125 C 61.372062 48.227125 65.161125 52.016188 65.161125 56.691969 Z M 65.161125 56.691969 " transform="matrix(1, 0, 0, -1, 8.667, 150.399)"/>
<g clip-path="url(#clip-1)">
<path fill="none" stroke-width="0.3985" stroke-linecap="butt" stroke-linejoin="miter" stroke="rgb(0%, 0%, 0%)" stroke-opacity="1" stroke-miterlimit="10" d="M 65.161125 28.348219 C 65.161125 33.024 61.372062 36.816969 56.692375 36.816969 C 52.016594 36.816969 48.223625 33.024 48.223625 28.348219 C 48.223625 23.668531 52.016594 19.879469 56.692375 19.879469 C 61.372062 19.879469 65.161125 23.668531 65.161125 28.348219 Z M 65.161125 28.348219 " transform="matrix(1, 0, 0, -1, 8.667, 150.399)"/>
</g>
<path fill="none" stroke-width="0.3985" stroke-linecap="butt" stroke-linejoin="miter" stroke="rgb(0%, 0%, 0%)" stroke-opacity="1" stroke-miterlimit="10" d="M 121.856437 141.734938 C 121.856437 146.410719 118.063469 150.203688 113.387687 150.203688 C 108.711906 150.203688 104.918937 146.410719 104.918937 141.734938 C 104.918937 137.05525 108.711906 133.266188 113.387687 133.266188 C 118.063469 133.266188 121.856437 137.05525 121.856437 141.734938 Z M 121.856437 141.734938 " transform="matrix(1, 0, 0, -1, 8.667, 150.399)"/>
<path fill="none" stroke-width="0.3985" stroke-linecap="butt" stroke-linejoin="miter" stroke="rgb(0%, 0%, 0%)" stroke-opacity="1" stroke-miterlimit="10" d="M 121.856437 113.387281 C 121.856437 118.063063 118.063469 121.856031 113.387687 121.856031 C 108.711906 121.856031 104.918937 118.063063 104.918937 113.387281 C 104.918937 108.7115 108.711906 104.918531 113.387687 104.918531 C 118.063469 104.918531 121.856437 108.7115 121.856437 113.387281 Z M 121.856437 113.387281 " transform="matrix(1, 0, 0, -1, 8.667, 150.399)"/>
<path fill="none" stroke-width="0.3985" stroke-linecap="butt" stroke-linejoin="miter" stroke="rgb(0%, 0%, 0%)" stroke-opacity="1" stroke-miterlimit="10" d="M 121.856437 85.039625 C 121.856437 89.719313 118.063469 93.508375 113.387687 93.508375 C 108.711906 93.508375 104.918937 89.719313 104.918937 85.039625 C 104.918937 80.363844 108.711906 76.570875 113.387687 76.570875 C 118.063469 76.570875 121.856437 80.363844 121.856437 85.039625 Z M 121.856437 85.039625 " transform="matrix(1, 0, 0, -1, 8.667, 150.399)"/>
<path fill="none" stroke-width="0.3985" stroke-linecap="butt" stroke-linejoin="miter" stroke="rgb(0%, 0%, 0%)" stroke-opacity="1" stroke-miterlimit="10" d="M 121.856437 56.691969 C 121.856437 61.371656 118.063469 65.160719 113.387687 65.160719 C 108.711906 65.160719 104.918937 61.371656 104.918937 56.691969 C 104.918937 52.016188 108.711906 48.227125 113.387687 48.227125 C 118.063469 48.227125 121.856437 52.016188 121.856437 56.691969 Z M 121.856437 56.691969 " transform="matrix(1, 0, 0, -1, 8.667, 150.399)"/>
<g clip-path="url(#clip-2)">
<path fill="none" stroke-width="0.3985" stroke-linecap="butt" stroke-linejoin="miter" stroke="rgb(0%, 0%, 0%)" stroke-opacity="1" stroke-miterlimit="10" d="M 121.856437 28.348219 C 121.856437 33.024 118.063469 36.816969 113.387687 36.816969 C 108.711906 36.816969 104.918937 33.024 104.918937 28.348219 C 104.918937 23.668531 108.711906 19.879469 113.387687 19.879469 C 118.063469 19.879469 121.856437 23.668531 121.856437 28.348219 Z M 121.856437 28.348219 " transform="matrix(1, 0, 0, -1, 8.667, 150.399)"/>
</g>
<path fill="none" stroke-width="0.3985" stroke-linecap="butt" stroke-linejoin="miter" stroke="rgb(0%, 0%, 0%)" stroke-opacity="1" stroke-miterlimit="10" d="M 178.547844 85.039625 C 178.547844 89.719313 174.758781 93.508375 170.079094 93.508375 C 165.403312 93.508375 161.61425 89.719313 161.61425 85.039625 C 161.61425 80.363844 165.403312 76.570875 170.079094 76.570875 C 174.758781 76.570875 178.547844 80.363844 178.547844 85.039625 Z M 178.547844 85.039625 " transform="matrix(1, 0, 0, -1, 8.667, 150.399)"/>
<path fill="none" stroke-width="0.3985" stroke-linecap="butt" stroke-linejoin="miter" stroke="rgb(0%, 0%, 0%)" stroke-opacity="1" stroke-miterlimit="10" d="M 8.668937 141.734938 L 47.567375 141.734938 " transform="matrix(1, 0, 0, -1, 8.667, 150.399)"/>
<path fill="none" stroke-width="0.31879" stroke-linecap="round" stroke-linejoin="round" stroke="rgb(0%, 0%, 0%)" stroke-opacity="1" stroke-miterlimit="10" d="M -1.195668 1.594648 C -1.094105 0.996991 -0.000355 0.0985538 0.300426 0.0008975 C -0.000355 -0.100665 -1.094105 -0.995196 -1.195668 -1.592852 " transform="matrix(1, 0, 0, -1, 56.23473, 8.66496)"/>
<path fill="none" stroke-width="0.3985" stroke-linecap="butt" stroke-linejoin="miter" stroke="rgb(0%, 0%, 0%)" stroke-opacity="1" stroke-miterlimit="10" d="M 7.750969 137.859938 L 48.532219 117.469313 " transform="matrix(1, 0, 0, -1, 8.667, 150.399)"/>
<path fill="none" stroke-width="0.31879" stroke-linecap="round" stroke-linejoin="round" stroke="rgb(0%, 0%, 0%)" stroke-opacity="1" stroke-miterlimit="10" d="M -1.195103 1.596377 C -1.095525 0.995385 -0.000122122 0.0973829 0.298625 -0.00220258 C -0.00187096 -0.100036 -1.095543 -0.996271 -1.195131 -1.59202 " transform="matrix(0.89436, 0.44717, 0.44717, -0.89436, 57.19875, 32.9309)"/>
<path fill="none" stroke-width="0.3985" stroke-linecap="butt" stroke-linejoin="miter" stroke="rgb(0%, 0%, 0%)" stroke-opacity="1" stroke-miterlimit="10" d="M 6.129875 135.606031 L 50.23925 91.49275 " transform="matrix(1, 0, 0, -1, 8.667, 150.399)"/>
<path fill="none" stroke-width="0.31879" stroke-linecap="round" stroke-linejoin="round" stroke="rgb(0%, 0%, 0%)" stroke-opacity="1" stroke-miterlimit="10" d="M -1.196547 1.592318 C -1.097109 0.995691 -0.000530335 0.0979883 0.297783 -0.00144958 C -0.000530335 -0.100887 -1.094347 -0.995828 -1.196547 -1.595217 " transform="matrix(0.7071, 0.7071, 0.7071, -0.7071, 58.90765, 58.9056)"/>
<path fill="none" stroke-width="0.3985" stroke-linecap="butt" stroke-linejoin="miter" stroke="rgb(0%, 0%, 0%)" stroke-opacity="1" stroke-miterlimit="10" d="M 4.809562 134.524 L 51.629875 64.285719 " transform="matrix(1, 0, 0, -1, 8.667, 150.399)"/>
<path fill="none" stroke-width="0.31879" stroke-linecap="round" stroke-linejoin="round" stroke="rgb(0%, 0%, 0%)" stroke-opacity="1" stroke-miterlimit="10" d="M -1.195453 1.592846 C -1.095772 0.995869 0.00176492 0.0998697 0.297546 0.00127869 C -0.000400298 -0.100568 -1.094672 -0.995502 -1.194343 -1.595731 " transform="matrix(0.55467, 0.83202, 0.83202, -0.55467, 60.29874, 86.11252)"/>
<path fill="none" stroke-width="0.3985" stroke-linecap="butt" stroke-linejoin="miter" stroke="rgb(0%, 0%, 0%)" stroke-opacity="1" stroke-miterlimit="10" d="M 3.875969 133.981031 L 52.61425 36.508375 " transform="matrix(1, 0, 0, -1, 8.667, 150.399)"/>
<path fill="none" stroke-width="0.31879" stroke-linecap="round" stroke-linejoin="round" stroke="rgb(0%, 0%, 0%)" stroke-opacity="1" stroke-miterlimit="10" d="M -1.194091 1.594533 C -1.09625 0.99529 0.00091599 0.0973075 0.297918 0.00122142 C -0.000829326 -0.0983641 -1.096232 -0.996366 -1.194063 -1.593864 " transform="matrix(0.44717, 0.89436, 0.89436, -0.44717, 61.27975, 113.89035)"/>
<path fill="none" stroke-width="0.3985" stroke-linecap="butt" stroke-linejoin="miter" stroke="rgb(0%, 0%, 0%)" stroke-opacity="1" stroke-miterlimit="10" d="M 7.750969 117.262281 L 48.532219 137.652906 " transform="matrix(1, 0, 0, -1, 8.667, 150.399)"/>
<path fill="none" stroke-width="0.31879" stroke-linecap="round" stroke-linejoin="round" stroke="rgb(0%, 0%, 0%)" stroke-opacity="1" stroke-miterlimit="10" d="M -1.194711 1.59286 C -1.095123 0.997111 -0.00145111 0.100875 0.297298 -0.000451858 C -0.00144931 -0.100037 -1.095105 -0.994546 -1.194683 -1.595538 " transform="matrix(0.89436, -0.44717, -0.44717, -0.89436, 57.19875, 12.74582)"/>
<path fill="none" stroke-width="0.3985" stroke-linecap="butt" stroke-linejoin="miter" stroke="rgb(0%, 0%, 0%)" stroke-opacity="1" stroke-miterlimit="10" d="M 8.668937 113.387281 L 47.567375 113.387281 " transform="matrix(1, 0, 0, -1, 8.667, 150.399)"/>
<path fill="none" stroke-width="0.31879" stroke-linecap="round" stroke-linejoin="round" stroke="rgb(0%, 0%, 0%)" stroke-opacity="1" stroke-miterlimit="10" d="M -1.195668 1.593791 C -1.094105 0.996135 -0.000355 0.0976975 0.300426 0.00004125 C -0.000355 -0.101521 -1.094105 -0.996053 -1.195668 -1.593709 " transform="matrix(1, 0, 0, -1, 56.23473, 37.01176)"/>
<path fill="none" stroke-width="0.3985" stroke-linecap="butt" stroke-linejoin="miter" stroke="rgb(0%, 0%, 0%)" stroke-opacity="1" stroke-miterlimit="10" d="M 7.750969 109.512281 L 48.532219 89.121656 " transform="matrix(1, 0, 0, -1, 8.667, 150.399)"/>
<path fill="none" stroke-width="0.31879" stroke-linecap="round" stroke-linejoin="round" stroke="rgb(0%, 0%, 0%)" stroke-opacity="1" stroke-miterlimit="10" d="M -1.194724 1.59562 C -1.095147 0.994628 -0.00149068 0.10012 0.297257 0.000534599 C -0.00149248 -0.100793 -1.095165 -0.997028 -1.194753 -1.592777 " transform="matrix(0.89436, 0.44717, 0.44717, -0.89436, 57.19875, 61.27771)"/>
<path fill="none" stroke-width="0.3985" stroke-linecap="butt" stroke-linejoin="miter" stroke="rgb(0%, 0%, 0%)" stroke-opacity="1" stroke-miterlimit="10" d="M 6.129875 107.258375 L 50.23925 63.145094 " transform="matrix(1, 0, 0, -1, 8.667, 150.399)"/>
<path fill="none" stroke-width="0.31879" stroke-linecap="round" stroke-linejoin="round" stroke="rgb(0%, 0%, 0%)" stroke-opacity="1" stroke-miterlimit="10" d="M -1.195955 1.591727 C -1.096517 0.9951 0.0000609885 0.0973969 0.298375 -0.00204091 C 0.0000609885 -0.101479 -1.093755 -0.996419 -1.195955 -1.595809 " transform="matrix(0.7071, 0.7071, 0.7071, -0.7071, 58.90765, 87.25242)"/>
<path fill="none" stroke-width="0.3985" stroke-linecap="butt" stroke-linejoin="miter" stroke="rgb(0%, 0%, 0%)" stroke-opacity="1" stroke-miterlimit="10" d="M 4.809562 106.176344 L 51.629875 35.938063 " transform="matrix(1, 0, 0, -1, 8.667, 150.399)"/>
<path fill="none" stroke-width="0.31879" stroke-linecap="round" stroke-linejoin="round" stroke="rgb(0%, 0%, 0%)" stroke-opacity="1" stroke-miterlimit="10" d="M -1.194749 1.592376 C -1.095067 0.9954 -0.000781272 0.101567 0.29825 0.000809258 C 0.000303858 -0.101037 -1.093967 -0.995971 -1.19689 -1.594033 " transform="matrix(0.55467, 0.83202, 0.83202, -0.55467, 60.29874, 114.45933)"/>
<path fill="none" stroke-width="0.3985" stroke-linecap="butt" stroke-linejoin="miter" stroke="rgb(0%, 0%, 0%)" stroke-opacity="1" stroke-miterlimit="10" d="M 6.129875 91.168531 L 50.23925 135.281813 " transform="matrix(1, 0, 0, -1, 8.667, 150.399)"/>
<path fill="none" stroke-width="0.31879" stroke-linecap="round" stroke-linejoin="round" stroke="rgb(0%, 0%, 0%)" stroke-opacity="1" stroke-miterlimit="10" d="M -1.196488 1.595276 C -1.094288 0.995886 -0.000471998 0.100946 0.297842 0.00150792 C -0.000471998 -0.0979299 -1.09705 -0.995633 -1.196488 -1.59226 " transform="matrix(0.7071, -0.7071, -0.7071, -0.7071, 58.90765, 15.11792)"/>
<path fill="none" stroke-width="0.3985" stroke-linecap="butt" stroke-linejoin="miter" stroke="rgb(0%, 0%, 0%)" stroke-opacity="1" stroke-miterlimit="10" d="M 7.750969 88.914625 L 48.532219 109.30525 " transform="matrix(1, 0, 0, -1, 8.667, 150.399)"/>
<path fill="none" stroke-width="0.31879" stroke-linecap="round" stroke-linejoin="round" stroke="rgb(0%, 0%, 0%)" stroke-opacity="1" stroke-miterlimit="10" d="M -1.19509 1.592103 C -1.095502 0.996354 -0.00182959 0.100118 0.29692 -0.00120883 C -0.00182779 -0.100794 -1.095484 -0.995303 -1.195061 -1.596294 " transform="matrix(0.89436, -0.44717, -0.44717, -0.89436, 57.19875, 41.09263)"/>
<path fill="none" stroke-width="0.3985" stroke-linecap="butt" stroke-linejoin="miter" stroke="rgb(0%, 0%, 0%)" stroke-opacity="1" stroke-miterlimit="10" d="M 8.668937 85.039625 L 47.567375 85.039625 " transform="matrix(1, 0, 0, -1, 8.667, 150.399)"/>
<path fill="none" stroke-width="0.31879" stroke-linecap="round" stroke-linejoin="round" stroke="rgb(0%, 0%, 0%)" stroke-opacity="1" stroke-miterlimit="10" d="M -1.195668 1.592955 C -1.094105 0.995299 -0.000355 0.100767 0.300426 -0.000795 C -0.000355 -0.0984513 -1.094105 -0.996889 -1.195668 -1.594545 " transform="matrix(1, 0, 0, -1, 56.23473, 65.35858)"/>
<path fill="none" stroke-width="0.3985" stroke-linecap="butt" stroke-linejoin="miter" stroke="rgb(0%, 0%, 0%)" stroke-opacity="1" stroke-miterlimit="10" d="M 7.750969 81.164625 L 48.532219 60.774 " transform="matrix(1, 0, 0, -1, 8.667, 150.399)"/>
<path fill="none" stroke-width="0.31879" stroke-linecap="round" stroke-linejoin="round" stroke="rgb(0%, 0%, 0%)" stroke-opacity="1" stroke-miterlimit="10" d="M -1.194346 1.594863 C -1.096515 0.997365 -0.0011122 0.0993631 0.297635 -0.000222374 C -0.001114 -0.10155 -1.094786 -0.997785 -1.194374 -1.593534 " transform="matrix(0.89436, 0.44717, 0.44717, -0.89436, 57.19875, 89.62452)"/>
<path fill="none" stroke-width="0.3985" stroke-linecap="butt" stroke-linejoin="miter" stroke="rgb(0%, 0%, 0%)" stroke-opacity="1" stroke-miterlimit="10" d="M 6.129875 78.910719 L 50.23925 34.801344 " transform="matrix(1, 0, 0, -1, 8.667, 150.399)"/>
<path fill="none" stroke-width="0.31879" stroke-linecap="round" stroke-linejoin="round" stroke="rgb(0%, 0%, 0%)" stroke-opacity="1" stroke-miterlimit="10" d="M -1.198119 1.593891 C -1.095919 0.994501 -0.00210278 0.0995607 0.298973 -0.0026393 C -0.00210278 -0.099315 -1.095919 -0.994256 -1.195357 -1.596407 " transform="matrix(0.7071, 0.7071, 0.7071, -0.7071, 58.90765, 115.59923)"/>
<path fill="none" stroke-width="0.3985" stroke-linecap="butt" stroke-linejoin="miter" stroke="rgb(0%, 0%, 0%)" stroke-opacity="1" stroke-miterlimit="10" d="M 4.809562 63.906813 L 51.629875 134.141188 " transform="matrix(1, 0, 0, -1, 8.667, 150.399)"/>
<path fill="none" stroke-width="0.31879" stroke-linecap="round" stroke-linejoin="round" stroke="rgb(0%, 0%, 0%)" stroke-opacity="1" stroke-miterlimit="10" d="M -1.194962 1.595318 C -1.09529 0.995089 -0.00101916 0.100155 0.300178 0.000475605 C 0.00114606 -0.100282 -1.09639 -0.996282 -1.196072 -1.593258 " transform="matrix(0.55467, -0.83202, -0.83202, -0.55467, 60.29874, 16.25783)"/>
<path fill="none" stroke-width="0.3985" stroke-linecap="butt" stroke-linejoin="miter" stroke="rgb(0%, 0%, 0%)" stroke-opacity="1" stroke-miterlimit="10" d="M 6.129875 62.820875 L 50.23925 106.934156 " transform="matrix(1, 0, 0, -1, 8.667, 150.399)"/>
<path fill="none" stroke-width="0.31879" stroke-linecap="round" stroke-linejoin="round" stroke="rgb(0%, 0%, 0%)" stroke-opacity="1" stroke-miterlimit="10" d="M -1.197087 1.594677 C -1.094887 0.995288 -0.00107039 0.100347 0.297243 0.000909525 C -0.00107039 -0.0985283 -1.097649 -0.996231 -1.197087 -1.592858 " transform="matrix(0.7071, -0.7071, -0.7071, -0.7071, 58.90765, 43.46473)"/>
<path fill="none" stroke-width="0.3985" stroke-linecap="butt" stroke-linejoin="miter" stroke="rgb(0%, 0%, 0%)" stroke-opacity="1" stroke-miterlimit="10" d="M 7.750969 60.570875 L 48.532219 80.9615 " transform="matrix(1, 0, 0, -1, 8.667, 150.399)"/>
<path fill="none" stroke-width="0.31879" stroke-linecap="round" stroke-linejoin="round" stroke="rgb(0%, 0%, 0%)" stroke-opacity="1" stroke-miterlimit="10" d="M -1.193721 1.59484 C -1.09588 0.995597 -0.00220806 0.0993614 0.298288 0.00152835 C -0.00045923 -0.0980572 -1.095862 -0.996059 -1.193693 -1.593557 " transform="matrix(0.89436, -0.44717, -0.44717, -0.89436, 57.19875, 69.43944)"/>
<path fill="none" stroke-width="0.3985" stroke-linecap="butt" stroke-linejoin="miter" stroke="rgb(0%, 0%, 0%)" stroke-opacity="1" stroke-miterlimit="10" d="M 8.668937 56.691969 L 47.567375 56.691969 " transform="matrix(1, 0, 0, -1, 8.667, 150.399)"/>
<path fill="none" stroke-width="0.31879" stroke-linecap="round" stroke-linejoin="round" stroke="rgb(0%, 0%, 0%)" stroke-opacity="1" stroke-miterlimit="10" d="M -1.195668 1.592099 C -1.094105 0.994442 -0.000355 0.0999112 0.300426 -0.00165125 C -0.000355 -0.0993075 -1.094105 -0.997745 -1.195668 -1.595401 " transform="matrix(1, 0, 0, -1, 56.23473, 93.70538)"/>
<path fill="none" stroke-width="0.3985" stroke-linecap="butt" stroke-linejoin="miter" stroke="rgb(0%, 0%, 0%)" stroke-opacity="1" stroke-miterlimit="10" d="M 7.750969 52.816969 L 48.532219 32.426344 " transform="matrix(1, 0, 0, -1, 8.667, 150.399)"/>
<path fill="none" stroke-width="0.31879" stroke-linecap="round" stroke-linejoin="round" stroke="rgb(0%, 0%, 0%)" stroke-opacity="1" stroke-miterlimit="10" d="M -1.193967 1.594106 C -1.096137 0.996608 -0.000733725 0.0986062 0.298014 -0.000979346 C -0.00248256 -0.0988124 -1.096155 -0.995048 -1.193996 -1.594291 " transform="matrix(0.89436, 0.44717, 0.44717, -0.89436, 57.19875, 117.97133)"/>
<path fill="none" stroke-width="0.3985" stroke-linecap="butt" stroke-linejoin="miter" stroke="rgb(0%, 0%, 0%)" stroke-opacity="1" stroke-miterlimit="10" d="M 3.875969 36.098219 L 52.61425 133.570875 " transform="matrix(1, 0, 0, -1, 8.667, 150.399)"/>
<path fill="none" stroke-width="0.31879" stroke-linecap="round" stroke-linejoin="round" stroke="rgb(0%, 0%, 0%)" stroke-opacity="1" stroke-miterlimit="10" d="M -1.195485 1.593153 C -1.097655 0.995655 0.00124256 0.0994 0.29999 -0.000185497 C -0.000506268 -0.0980186 -1.097672 -0.996001 -1.195514 -1.595244 " transform="matrix(0.44717, -0.89436, -0.89436, -0.44717, 61.27975, 16.82681)"/>
<path fill="none" stroke-width="0.3985" stroke-linecap="butt" stroke-linejoin="miter" stroke="rgb(0%, 0%, 0%)" stroke-opacity="1" stroke-miterlimit="10" d="M 4.809562 35.559156 L 51.629875 105.793531 " transform="matrix(1, 0, 0, -1, 8.667, 150.399)"/>
<path fill="none" stroke-width="0.31879" stroke-linecap="round" stroke-linejoin="round" stroke="rgb(0%, 0%, 0%)" stroke-opacity="1" stroke-miterlimit="10" d="M -1.195666 1.594849 C -1.095995 0.99462 -0.00172332 0.0996856 0.299473 0.00000617568 C 0.0004419 -0.100752 -1.097095 -0.996751 -1.196776 -1.593728 " transform="matrix(0.55467, -0.83202, -0.83202, -0.55467, 60.29874, 44.60464)"/>
<path fill="none" stroke-width="0.3985" stroke-linecap="butt" stroke-linejoin="miter" stroke="rgb(0%, 0%, 0%)" stroke-opacity="1" stroke-miterlimit="10" d="M 6.129875 34.477125 L 50.23925 78.5865 " transform="matrix(1, 0, 0, -1, 8.667, 150.399)"/>
<path fill="none" stroke-width="0.31879" stroke-linecap="round" stroke-linejoin="round" stroke="rgb(0%, 0%, 0%)" stroke-opacity="1" stroke-miterlimit="10" d="M -1.197678 1.594086 C -1.095478 0.994697 -0.00166172 0.099756 0.296652 0.000318201 C -0.00166172 -0.0991196 -1.095478 -0.99406 -1.197678 -1.593449 " transform="matrix(0.7071, -0.7071, -0.7071, -0.7071, 58.90765, 71.81155)"/>
<path fill="none" stroke-width="0.3985" stroke-linecap="butt" stroke-linejoin="miter" stroke="rgb(0%, 0%, 0%)" stroke-opacity="1" stroke-miterlimit="10" d="M 7.750969 32.223219 L 48.532219 52.613844 " transform="matrix(1, 0, 0, -1, 8.667, 150.399)"/>
<path fill="none" stroke-width="0.31879" stroke-linecap="round" stroke-linejoin="round" stroke="rgb(0%, 0%, 0%)" stroke-opacity="1" stroke-miterlimit="10" d="M -1.1941 1.594083 C -1.096259 0.99484 -0.000839506 0.102099 0.29791 0.000771374 C -0.000837708 -0.0988141 -1.096241 -0.996816 -1.194071 -1.594314 " transform="matrix(0.89436, -0.44717, -0.44717, -0.89436, 57.19875, 97.78625)"/>
<path fill="none" stroke-width="0.3985" stroke-linecap="butt" stroke-linejoin="miter" stroke="rgb(0%, 0%, 0%)" stroke-opacity="1" stroke-miterlimit="10" d="M 8.668937 28.348219 L 47.567375 28.348219 " transform="matrix(1, 0, 0, -1, 8.667, 150.399)"/>
<path fill="none" stroke-width="0.31879" stroke-linecap="round" stroke-linejoin="round" stroke="rgb(0%, 0%, 0%)" stroke-opacity="1" stroke-miterlimit="10" d="M -1.195668 1.595169 C -1.094105 0.997512 -0.000355 0.099075 0.300426 0.00141875 C -0.000355 -0.100144 -1.094105 -0.994675 -1.195668 -1.592331 " transform="matrix(1, 0, 0, -1, 56.23473, 122.0522)"/>
<path fill="none" stroke-width="0.3985" stroke-linecap="butt" stroke-linejoin="miter" stroke="rgb(0%, 0%, 0%)" stroke-opacity="1" stroke-miterlimit="10" d="M 65.360344 141.734938 L 104.262687 141.734938 " transform="matrix(1, 0, 0, -1, 8.667, 150.399)"/>
<path fill="none" stroke-width="0.31879" stroke-linecap="round" stroke-linejoin="round" stroke="rgb(0%, 0%, 0%)" stroke-opacity="1" stroke-miterlimit="10" d="M -1.193975 1.594648 C -1.096319 0.996991 0.0013375 0.0985538 0.298212 0.0008975 C 0.0013375 -0.100665 -1.096319 -0.995196 -1.193975 -1.592852 " transform="matrix(1, 0, 0, -1, 112.92835, 8.66496)"/>
<path fill="none" stroke-width="0.3985" stroke-linecap="butt" stroke-linejoin="miter" stroke="rgb(0%, 0%, 0%)" stroke-opacity="1" stroke-miterlimit="10" d="M 64.446281 137.859938 L 105.223625 117.469313 " transform="matrix(1, 0, 0, -1, 8.667, 150.399)"/>
<path fill="none" stroke-width="0.31879" stroke-linecap="round" stroke-linejoin="round" stroke="rgb(0%, 0%, 0%)" stroke-opacity="1" stroke-miterlimit="10" d="M -1.197101 1.595378 C -1.094029 0.996133 0.00137393 0.0981309 0.300122 -0.00145457 C -0.0003749 -0.0992876 -1.097541 -0.99727 -1.197129 -1.593019 " transform="matrix(0.89436, 0.44717, 0.44717, -0.89436, 113.89239, 32.9309)"/>
<path fill="none" stroke-width="0.3985" stroke-linecap="butt" stroke-linejoin="miter" stroke="rgb(0%, 0%, 0%)" stroke-opacity="1" stroke-miterlimit="10" d="M 62.821281 135.606031 L 106.934562 91.49275 " transform="matrix(1, 0, 0, -1, 8.667, 150.399)"/>
<path fill="none" stroke-width="0.31879" stroke-linecap="round" stroke-linejoin="round" stroke="rgb(0%, 0%, 0%)" stroke-opacity="1" stroke-miterlimit="10" d="M -1.19535 1.593515 C -1.095912 0.996888 0.000666455 0.0991851 0.29898 -0.000252793 C 0.000666455 -0.0996906 -1.095912 -0.997393 -1.19535 -1.59402 " transform="matrix(0.7071, 0.7071, 0.7071, -0.7071, 115.60127, 58.9056)"/>
<path fill="none" stroke-width="0.3985" stroke-linecap="butt" stroke-linejoin="miter" stroke="rgb(0%, 0%, 0%)" stroke-opacity="1" stroke-miterlimit="10" d="M 61.500969 134.524 L 108.325187 64.285719 " transform="matrix(1, 0, 0, -1, 8.667, 150.399)"/>
<path fill="none" stroke-width="0.31879" stroke-linecap="round" stroke-linejoin="round" stroke="rgb(0%, 0%, 0%)" stroke-opacity="1" stroke-miterlimit="10" d="M -1.194515 1.594254 C -1.094833 0.997277 0.000536919 0.0980276 0.296318 -0.000563352 C 0.00053856 -0.0991592 -1.0959 -0.997344 -1.193405 -1.594322 " transform="matrix(0.55467, 0.83202, 0.83202, -0.55467, 116.99236, 86.11252)"/>
<path fill="none" stroke-width="0.3985" stroke-linecap="butt" stroke-linejoin="miter" stroke="rgb(0%, 0%, 0%)" stroke-opacity="1" stroke-miterlimit="10" d="M 60.571281 133.981031 L 109.305656 36.508375 " transform="matrix(1, 0, 0, -1, 8.667, 150.399)"/>
<path fill="none" stroke-width="0.31879" stroke-linecap="round" stroke-linejoin="round" stroke="rgb(0%, 0%, 0%)" stroke-opacity="1" stroke-miterlimit="10" d="M -1.195081 1.592553 C -1.095493 0.996804 0.00167295 0.0988214 0.296928 -0.000758786 C -0.00181941 -0.100344 -1.095475 -0.994852 -1.195053 -1.595844 " transform="matrix(0.44717, 0.89436, 0.89436, -0.44717, 117.97337, 113.89035)"/>
<path fill="none" stroke-width="0.3985" stroke-linecap="butt" stroke-linejoin="miter" stroke="rgb(0%, 0%, 0%)" stroke-opacity="1" stroke-miterlimit="10" d="M 64.446281 117.262281 L 105.223625 137.652906 " transform="matrix(1, 0, 0, -1, 8.667, 150.399)"/>
<path fill="none" stroke-width="0.31879" stroke-linecap="round" stroke-linejoin="round" stroke="rgb(0%, 0%, 0%)" stroke-opacity="1" stroke-miterlimit="10" d="M -1.196709 1.593859 C -1.097121 0.99811 0.0000449474 0.100127 0.298794 -0.00119987 C 0.0000467446 -0.100785 -1.093609 -0.995294 -1.196681 -1.594538 " transform="matrix(0.89436, -0.44717, -0.44717, -0.89436, 113.89239, 12.74582)"/>
<path fill="none" stroke-width="0.3985" stroke-linecap="butt" stroke-linejoin="miter" stroke="rgb(0%, 0%, 0%)" stroke-opacity="1" stroke-miterlimit="10" d="M 65.360344 113.387281 L 104.262687 113.387281 " transform="matrix(1, 0, 0, -1, 8.667, 150.399)"/>
<path fill="none" stroke-width="0.31879" stroke-linecap="round" stroke-linejoin="round" stroke="rgb(0%, 0%, 0%)" stroke-opacity="1" stroke-miterlimit="10" d="M -1.193975 1.593791 C -1.096319 0.996135 0.0013375 0.0976975 0.298212 0.00004125 C 0.0013375 -0.101521 -1.096319 -0.996053 -1.193975 -1.593709 " transform="matrix(1, 0, 0, -1, 112.92835, 37.01176)"/>
<path fill="none" stroke-width="0.3985" stroke-linecap="butt" stroke-linejoin="miter" stroke="rgb(0%, 0%, 0%)" stroke-opacity="1" stroke-miterlimit="10" d="M 64.446281 109.512281 L 105.223625 89.121656 " transform="matrix(1, 0, 0, -1, 8.667, 150.399)"/>
<path fill="none" stroke-width="0.31879" stroke-linecap="round" stroke-linejoin="round" stroke="rgb(0%, 0%, 0%)" stroke-opacity="1" stroke-miterlimit="10" d="M -1.196722 1.594621 C -1.093651 0.995376 0.00000537476 0.100868 0.298753 0.00128261 C 0.00000357759 -0.100045 -1.097163 -0.998027 -1.196751 -1.593776 " transform="matrix(0.89436, 0.44717, 0.44717, -0.89436, 113.89239, 61.27771)"/>
<path fill="none" stroke-width="0.3985" stroke-linecap="butt" stroke-linejoin="miter" stroke="rgb(0%, 0%, 0%)" stroke-opacity="1" stroke-miterlimit="10" d="M 62.821281 107.258375 L 106.934562 63.145094 " transform="matrix(1, 0, 0, -1, 8.667, 150.399)"/>
<path fill="none" stroke-width="0.31879" stroke-linecap="round" stroke-linejoin="round" stroke="rgb(0%, 0%, 0%)" stroke-opacity="1" stroke-miterlimit="10" d="M -1.194759 1.592924 C -1.095321 0.996296 0.00125778 0.0985937 0.299571 -0.000844117 C 0.00125778 -0.100282 -1.095321 -0.997985 -1.194759 -1.594612 " transform="matrix(0.7071, 0.7071, 0.7071, -0.7071, 115.60127, 87.25242)"/>
<path fill="none" stroke-width="0.3985" stroke-linecap="butt" stroke-linejoin="miter" stroke="rgb(0%, 0%, 0%)" stroke-opacity="1" stroke-miterlimit="10" d="M 61.500969 106.176344 L 108.325187 35.938063 " transform="matrix(1, 0, 0, -1, 8.667, 150.399)"/>
<path fill="none" stroke-width="0.31879" stroke-linecap="round" stroke-linejoin="round" stroke="rgb(0%, 0%, 0%)" stroke-opacity="1" stroke-miterlimit="10" d="M -1.19381 1.593785 C -1.094129 0.996808 -0.00200928 0.099725 0.297022 -0.00103278 C 0.00124272 -0.0996287 -1.095195 -0.997813 -1.195951 -1.592625 " transform="matrix(0.55467, 0.83202, 0.83202, -0.55467, 116.99236, 114.45933)"/>
<path fill="none" stroke-width="0.3985" stroke-linecap="butt" stroke-linejoin="miter" stroke="rgb(0%, 0%, 0%)" stroke-opacity="1" stroke-miterlimit="10" d="M 62.821281 91.168531 L 106.934562 135.281813 " transform="matrix(1, 0, 0, -1, 8.667, 150.399)"/>
<path fill="none" stroke-width="0.31879" stroke-linecap="round" stroke-linejoin="round" stroke="rgb(0%, 0%, 0%)" stroke-opacity="1" stroke-miterlimit="10" d="M -1.195292 1.594079 C -1.095854 0.997452 0.000724791 0.099749 0.299038 0.00031113 C 0.000724791 -0.0991267 -1.095854 -0.996829 -1.195292 -1.593457 " transform="matrix(0.7071, -0.7071, -0.7071, -0.7071, 115.60127, 15.11792)"/>
<path fill="none" stroke-width="0.3985" stroke-linecap="butt" stroke-linejoin="miter" stroke="rgb(0%, 0%, 0%)" stroke-opacity="1" stroke-miterlimit="10" d="M 64.446281 88.914625 L 105.223625 109.30525 " transform="matrix(1, 0, 0, -1, 8.667, 150.399)"/>
<path fill="none" stroke-width="0.31879" stroke-linecap="round" stroke-linejoin="round" stroke="rgb(0%, 0%, 0%)" stroke-opacity="1" stroke-miterlimit="10" d="M -1.197088 1.593102 C -1.0975 0.997353 -0.00033353 0.0993704 0.298416 -0.00195684 C -0.000331733 -0.101542 -1.093988 -0.996051 -1.197059 -1.595295 " transform="matrix(0.89436, -0.44717, -0.44717, -0.89436, 113.89239, 41.09263)"/>
<path fill="none" stroke-width="0.3985" stroke-linecap="butt" stroke-linejoin="miter" stroke="rgb(0%, 0%, 0%)" stroke-opacity="1" stroke-miterlimit="10" d="M 65.360344 85.039625 L 104.262687 85.039625 " transform="matrix(1, 0, 0, -1, 8.667, 150.399)"/>
<path fill="none" stroke-width="0.31879" stroke-linecap="round" stroke-linejoin="round" stroke="rgb(0%, 0%, 0%)" stroke-opacity="1" stroke-miterlimit="10" d="M -1.193975 1.592955 C -1.096319 0.995299 0.0013375 0.100767 0.298212 -0.000795 C 0.0013375 -0.0984513 -1.096319 -0.996889 -1.193975 -1.594545 " transform="matrix(1, 0, 0, -1, 112.92835, 65.35858)"/>
<path fill="none" stroke-width="0.3985" stroke-linecap="butt" stroke-linejoin="miter" stroke="rgb(0%, 0%, 0%)" stroke-opacity="1" stroke-miterlimit="10" d="M 64.446281 81.164625 L 105.223625 60.774 " transform="matrix(1, 0, 0, -1, 8.667, 150.399)"/>
<path fill="none" stroke-width="0.31879" stroke-linecap="round" stroke-linejoin="round" stroke="rgb(0%, 0%, 0%)" stroke-opacity="1" stroke-miterlimit="10" d="M -1.196344 1.593864 C -1.095019 0.998113 0.000383853 0.100111 0.299131 0.000525637 C 0.000382055 -0.100802 -1.096784 -0.998784 -1.196372 -1.594533 " transform="matrix(0.89436, 0.44717, 0.44717, -0.89436, 113.89239, 89.62452)"/>
<path fill="none" stroke-width="0.3985" stroke-linecap="butt" stroke-linejoin="miter" stroke="rgb(0%, 0%, 0%)" stroke-opacity="1" stroke-miterlimit="10" d="M 62.821281 78.910719 L 106.934562 34.801344 " transform="matrix(1, 0, 0, -1, 8.667, 150.399)"/>
<path fill="none" stroke-width="0.31879" stroke-linecap="round" stroke-linejoin="round" stroke="rgb(0%, 0%, 0%)" stroke-opacity="1" stroke-miterlimit="10" d="M -1.196922 1.595087 C -1.094722 0.995698 -0.000905989 0.100757 0.30017 -0.00144251 C -0.000905989 -0.0981182 -1.097484 -0.995821 -1.19416 -1.59521 " transform="matrix(0.7071, 0.7071, 0.7071, -0.7071, 115.60127, 115.59923)"/>
<path fill="none" stroke-width="0.3985" stroke-linecap="butt" stroke-linejoin="miter" stroke="rgb(0%, 0%, 0%)" stroke-opacity="1" stroke-miterlimit="10" d="M 61.500969 63.906813 L 108.325187 134.141188 " transform="matrix(1, 0, 0, -1, 8.667, 150.399)"/>
<path fill="none" stroke-width="0.31879" stroke-linecap="round" stroke-linejoin="round" stroke="rgb(0%, 0%, 0%)" stroke-opacity="1" stroke-miterlimit="10" d="M -1.194023 1.59391 C -1.096518 0.996931 -0.0000803067 0.0987467 0.29895 0.00231764 C -0.0000819474 -0.0984402 -1.095452 -0.99769 -1.195133 -1.594667 " transform="matrix(0.55467, -0.83202, -0.83202, -0.55467, 116.99236, 16.25783)"/>
<path fill="none" stroke-width="0.3985" stroke-linecap="butt" stroke-linejoin="miter" stroke="rgb(0%, 0%, 0%)" stroke-opacity="1" stroke-miterlimit="10" d="M 62.821281 62.820875 L 106.934562 106.934156 " transform="matrix(1, 0, 0, -1, 8.667, 150.399)"/>
<path fill="none" stroke-width="0.31879" stroke-linecap="round" stroke-linejoin="round" stroke="rgb(0%, 0%, 0%)" stroke-opacity="1" stroke-miterlimit="10" d="M -1.19589 1.59348 C -1.096452 0.996853 0.000126397 0.0991506 0.29844 -0.000287265 C 0.000126397 -0.0997251 -1.096452 -0.997428 -1.19589 -1.594055 " transform="matrix(0.7071, -0.7071, -0.7071, -0.7071, 115.60127, 43.46473)"/>
<path fill="none" stroke-width="0.3985" stroke-linecap="butt" stroke-linejoin="miter" stroke="rgb(0%, 0%, 0%)" stroke-opacity="1" stroke-miterlimit="10" d="M 64.446281 60.570875 L 105.223625 80.9615 " transform="matrix(1, 0, 0, -1, 8.667, 150.399)"/>
<path fill="none" stroke-width="0.31879" stroke-linecap="round" stroke-linejoin="round" stroke="rgb(0%, 0%, 0%)" stroke-opacity="1" stroke-miterlimit="10" d="M -1.195719 1.595839 C -1.097878 0.996596 -0.000712008 0.0986134 0.299784 0.000780336 C 0.00103682 -0.0988052 -1.094366 -0.996807 -1.195691 -1.592558 " transform="matrix(0.89436, -0.44717, -0.44717, -0.89436, 113.89239, 69.43944)"/>
<path fill="none" stroke-width="0.3985" stroke-linecap="butt" stroke-linejoin="miter" stroke="rgb(0%, 0%, 0%)" stroke-opacity="1" stroke-miterlimit="10" d="M 65.360344 56.691969 L 104.262687 56.691969 " transform="matrix(1, 0, 0, -1, 8.667, 150.399)"/>
<path fill="none" stroke-width="0.31879" stroke-linecap="round" stroke-linejoin="round" stroke="rgb(0%, 0%, 0%)" stroke-opacity="1" stroke-miterlimit="10" d="M -1.193975 1.592099 C -1.096319 0.994442 0.0013375 0.0999112 0.298212 -0.00165125 C 0.0013375 -0.0993075 -1.096319 -0.997745 -1.193975 -1.595401 " transform="matrix(1, 0, 0, -1, 112.92835, 93.70538)"/>
<path fill="none" stroke-width="0.3985" stroke-linecap="butt" stroke-linejoin="miter" stroke="rgb(0%, 0%, 0%)" stroke-opacity="1" stroke-miterlimit="10" d="M 64.446281 52.816969 L 105.223625 32.426344 " transform="matrix(1, 0, 0, -1, 8.667, 150.399)"/>
<path fill="none" stroke-width="0.31879" stroke-linecap="round" stroke-linejoin="round" stroke="rgb(0%, 0%, 0%)" stroke-opacity="1" stroke-miterlimit="10" d="M -1.195965 1.593107 C -1.094641 0.997356 0.00076233 0.0993542 0.29951 -0.000231335 C -0.000986503 -0.0980644 -1.098153 -0.996047 -1.195994 -1.59529 " transform="matrix(0.89436, 0.44717, 0.44717, -0.89436, 113.89239, 117.97133)"/>
<path fill="none" stroke-width="0.3985" stroke-linecap="butt" stroke-linejoin="miter" stroke="rgb(0%, 0%, 0%)" stroke-opacity="1" stroke-miterlimit="10" d="M 60.571281 36.098219 L 109.305656 133.570875 " transform="matrix(1, 0, 0, -1, 8.667, 150.399)"/>
<path fill="none" stroke-width="0.31879" stroke-linecap="round" stroke-linejoin="round" stroke="rgb(0%, 0%, 0%)" stroke-opacity="1" stroke-miterlimit="10" d="M -1.196475 1.595133 C -1.096898 0.994141 0.000252485 0.10138 0.299 0.00179471 C 0.000250687 -0.0995325 -1.096916 -0.997515 -1.196504 -1.593264 " transform="matrix(0.44717, -0.89436, -0.89436, -0.44717, 117.97337, 16.82681)"/>
<path fill="none" stroke-width="0.3985" stroke-linecap="butt" stroke-linejoin="miter" stroke="rgb(0%, 0%, 0%)" stroke-opacity="1" stroke-miterlimit="10" d="M 61.500969 35.559156 L 108.325187 105.793531 " transform="matrix(1, 0, 0, -1, 8.667, 150.399)"/>
<path fill="none" stroke-width="0.31879" stroke-linecap="round" stroke-linejoin="round" stroke="rgb(0%, 0%, 0%)" stroke-opacity="1" stroke-miterlimit="10" d="M -1.194728 1.59344 C -1.097223 0.996462 -0.000784463 0.0982772 0.298245 0.00184821 C -0.000786103 -0.0989096 -1.096156 -0.998159 -1.195838 -1.595136 " transform="matrix(0.55467, -0.83202, -0.83202, -0.55467, 116.99236, 44.60464)"/>
<path fill="none" stroke-width="0.3985" stroke-linecap="butt" stroke-linejoin="miter" stroke="rgb(0%, 0%, 0%)" stroke-opacity="1" stroke-miterlimit="10" d="M 62.821281 34.477125 L 106.934562 78.5865 " transform="matrix(1, 0, 0, -1, 8.667, 150.399)"/>
<path fill="none" stroke-width="0.31879" stroke-linecap="round" stroke-linejoin="round" stroke="rgb(0%, 0%, 0%)" stroke-opacity="1" stroke-miterlimit="10" d="M -1.196481 1.592889 C -1.097043 0.996262 -0.000464927 0.0985593 0.297849 -0.000878589 C -0.000464927 -0.100316 -1.094281 -0.995257 -1.196481 -1.594646 " transform="matrix(0.7071, -0.7071, -0.7071, -0.7071, 115.60127, 71.81155)"/>
<path fill="none" stroke-width="0.3985" stroke-linecap="butt" stroke-linejoin="miter" stroke="rgb(0%, 0%, 0%)" stroke-opacity="1" stroke-miterlimit="10" d="M 64.446281 32.223219 L 105.223625 52.613844 " transform="matrix(1, 0, 0, -1, 8.667, 150.399)"/>
<path fill="none" stroke-width="0.31879" stroke-linecap="round" stroke-linejoin="round" stroke="rgb(0%, 0%, 0%)" stroke-opacity="1" stroke-miterlimit="10" d="M -1.196098 1.595082 C -1.098257 0.995839 0.00065655 0.101351 0.299406 0.0000233635 C 0.000658347 -0.0995621 -1.094745 -0.997564 -1.196069 -1.593315 " transform="matrix(0.89436, -0.44717, -0.44717, -0.89436, 113.89239, 97.78625)"/>
<path fill="none" stroke-width="0.3985" stroke-linecap="butt" stroke-linejoin="miter" stroke="rgb(0%, 0%, 0%)" stroke-opacity="1" stroke-miterlimit="10" d="M 65.360344 28.348219 L 104.262687 28.348219 " transform="matrix(1, 0, 0, -1, 8.667, 150.399)"/>
<path fill="none" stroke-width="0.31879" stroke-linecap="round" stroke-linejoin="round" stroke="rgb(0%, 0%, 0%)" stroke-opacity="1" stroke-miterlimit="10" d="M -1.193975 1.595169 C -1.096319 0.997512 0.0013375 0.099075 0.298212 0.00141875 C 0.0013375 -0.100144 -1.096319 -0.994675 -1.193975 -1.592331 " transform="matrix(1, 0, 0, -1, 112.92835, 122.0522)"/>
<path fill="none" stroke-width="0.3985" stroke-linecap="butt" stroke-linejoin="miter" stroke="rgb(0%, 0%, 0%)" stroke-opacity="1" stroke-miterlimit="10" d="M 119.516594 135.606031 L 163.625969 91.49275 " transform="matrix(1, 0, 0, -1, 8.667, 150.399)"/>
<path fill="none" stroke-width="0.31879" stroke-linecap="round" stroke-linejoin="round" stroke="rgb(0%, 0%, 0%)" stroke-opacity="1" stroke-miterlimit="10" d="M -1.194146 1.594719 C -1.09747 0.99533 0.00187032 0.100389 0.300184 0.000951068 C -0.000891847 -0.101249 -1.094708 -0.99619 -1.194146 -1.592817 " transform="matrix(0.7071, 0.7071, 0.7071, -0.7071, 172.29488, 58.9056)"/>
<path fill="none" stroke-width="0.3985" stroke-linecap="butt" stroke-linejoin="miter" stroke="rgb(0%, 0%, 0%)" stroke-opacity="1" stroke-miterlimit="10" d="M 121.137687 109.512281 L 161.918937 89.121656 " transform="matrix(1, 0, 0, -1, 8.667, 150.399)"/>
<path fill="none" stroke-width="0.31879" stroke-linecap="round" stroke-linejoin="round" stroke="rgb(0%, 0%, 0%)" stroke-opacity="1" stroke-miterlimit="10" d="M -1.195199 1.595383 C -1.095622 0.994391 -0.00196588 0.0998825 0.296782 0.000297002 C 0.00152647 -0.0992832 -1.09564 -0.997266 -1.195228 -1.593015 " transform="matrix(0.89436, 0.44717, 0.44717, -0.89436, 170.586, 61.27771)"/>
<path fill="none" stroke-width="0.3985" stroke-linecap="butt" stroke-linejoin="miter" stroke="rgb(0%, 0%, 0%)" stroke-opacity="1" stroke-miterlimit="10" d="M 122.055656 85.039625 L 160.954094 85.039625 " transform="matrix(1, 0, 0, -1, 8.667, 150.399)"/>
<path fill="none" stroke-width="0.31879" stroke-linecap="round" stroke-linejoin="round" stroke="rgb(0%, 0%, 0%)" stroke-opacity="1" stroke-miterlimit="10" d="M -1.196189 1.592955 C -1.094626 0.995299 -0.00087625 0.100767 0.299905 -0.000795 C -0.00087625 -0.0984513 -1.094626 -0.996889 -1.196189 -1.594545 " transform="matrix(1, 0, 0, -1, 169.62197, 65.35858)"/>
<path fill="none" stroke-width="0.3985" stroke-linecap="butt" stroke-linejoin="miter" stroke="rgb(0%, 0%, 0%)" stroke-opacity="1" stroke-miterlimit="10" d="M 121.137687 60.570875 L 161.918937 80.9615 " transform="matrix(1, 0, 0, -1, 8.667, 150.399)"/>
<path fill="none" stroke-width="0.31879" stroke-linecap="round" stroke-linejoin="round" stroke="rgb(0%, 0%, 0%)" stroke-opacity="1" stroke-miterlimit="10" d="M -1.194196 1.595078 C -1.096355 0.995835 0.000810882 0.097852 0.297813 0.00176594 C -0.000934435 -0.0978196 -1.096338 -0.995822 -1.194168 -1.59332 " transform="matrix(0.89436, -0.44717, -0.44717, -0.89436, 170.586, 69.43944)"/>
<path fill="none" stroke-width="0.3985" stroke-linecap="butt" stroke-linejoin="miter" stroke="rgb(0%, 0%, 0%)" stroke-opacity="1" stroke-miterlimit="10" d="M 119.516594 34.477125 L 163.625969 78.5865 " transform="matrix(1, 0, 0, -1, 8.667, 150.399)"/>
<path fill="none" stroke-width="0.31879" stroke-linecap="round" stroke-linejoin="round" stroke="rgb(0%, 0%, 0%)" stroke-opacity="1" stroke-miterlimit="10" d="M -1.195277 1.591685 C -1.09584 0.995058 -0.00202323 0.100118 0.299052 -0.00208245 C 0.000738934 -0.10152 -1.09584 -0.993699 -1.195277 -1.59585 " transform="matrix(0.7071, -0.7071, -0.7071, -0.7071, 172.29488, 71.81155)"/>
<path fill="none" stroke-width="0.3985" stroke-linecap="butt" stroke-linejoin="miter" stroke="rgb(0%, 0%, 0%)" stroke-opacity="1" stroke-miterlimit="10" d="M 235.243156 141.734938 C 235.243156 146.410719 231.450187 150.203688 226.774406 150.203688 C 222.098625 150.203688 218.305656 146.410719 218.305656 141.734938 C 218.305656 137.05525 222.098625 133.266188 226.774406 133.266188 C 231.450187 133.266188 235.243156 137.05525 235.243156 141.734938 Z M 235.243156 141.734938 " transform="matrix(1, 0, 0, -1, 8.667, 150.399)"/>
<path fill-rule="nonzero" fill="rgb(79.998779%, 79.998779%, 79.998779%)" fill-opacity="1" stroke-width="0.3985" stroke-linecap="butt" stroke-linejoin="miter" stroke="rgb(0%, 0%, 0%)" stroke-opacity="1" stroke-miterlimit="10" d="M 235.243156 113.387281 C 235.243156 118.063063 231.450187 121.856031 226.774406 121.856031 C 222.098625 121.856031 218.305656 118.063063 218.305656 113.387281 C 218.305656 108.7115 222.098625 104.918531 226.774406 104.918531 C 231.450187 104.918531 235.243156 108.7115 235.243156 113.387281 Z M 235.243156 113.387281 " transform="matrix(1, 0, 0, -1, 8.667, 150.399)"/>
<path fill-rule="nonzero" fill="rgb(79.998779%, 79.998779%, 79.998779%)" fill-opacity="1" stroke-width="0.3985" stroke-linecap="butt" stroke-linejoin="miter" stroke="rgb(0%, 0%, 0%)" stroke-opacity="1" stroke-miterlimit="10" d="M 235.243156 85.039625 C 235.243156 89.719313 231.450187 93.508375 226.774406 93.508375 C 222.098625 93.508375 218.305656 89.719313 218.305656 85.039625 C 218.305656 80.363844 222.098625 76.570875 226.774406 76.570875 C 231.450187 76.570875 235.243156 80.363844 235.243156 85.039625 Z M 235.243156 85.039625 " transform="matrix(1, 0, 0, -1, 8.667, 150.399)"/>
<path fill="none" stroke-width="0.3985" stroke-linecap="butt" stroke-linejoin="miter" stroke="rgb(0%, 0%, 0%)" stroke-opacity="1" stroke-miterlimit="10" d="M 235.243156 56.691969 C 235.243156 61.371656 231.450187 65.160719 226.774406 65.160719 C 222.098625 65.160719 218.305656 61.371656 218.305656 56.691969 C 218.305656 52.016188 222.098625 48.227125 226.774406 48.227125 C 231.450187 48.227125 235.243156 52.016188 235.243156 56.691969 Z M 235.243156 56.691969 " transform="matrix(1, 0, 0, -1, 8.667, 150.399)"/>
<g clip-path="url(#clip-3)">
<path fill="none" stroke-width="0.3985" stroke-linecap="butt" stroke-linejoin="miter" stroke="rgb(0%, 0%, 0%)" stroke-opacity="1" stroke-miterlimit="10" d="M 235.243156 28.348219 C 235.243156 33.024 231.450187 36.816969 226.774406 36.816969 C 222.098625 36.816969 218.305656 33.024 218.305656 28.348219 C 218.305656 23.668531 222.098625 19.879469 226.774406 19.879469 C 231.450187 19.879469 235.243156 23.668531 235.243156 28.348219 Z M 235.243156 28.348219 " transform="matrix(1, 0, 0, -1, 8.667, 150.399)"/>
</g>
<path fill-rule="nonzero" fill="rgb(79.998779%, 79.998779%, 79.998779%)" fill-opacity="1" stroke-width="0.3985" stroke-linecap="butt" stroke-linejoin="miter" stroke="rgb(0%, 0%, 0%)" stroke-opacity="1" stroke-miterlimit="10" d="M 291.934562 141.734938 C 291.934562 146.410719 288.1455 150.203688 283.469719 150.203688 C 278.790031 150.203688 275.000969 146.410719 275.000969 141.734938 C 275.000969 137.05525 278.790031 133.266188 283.469719 133.266188 C 288.1455 133.266188 291.934562 137.05525 291.934562 141.734938 Z M 291.934562 141.734938 " transform="matrix(1, 0, 0, -1, 8.667, 150.399)"/>
<path fill="none" stroke-width="0.3985" stroke-linecap="butt" stroke-linejoin="miter" stroke="rgb(0%, 0%, 0%)" stroke-opacity="1" stroke-miterlimit="10" d="M 291.934562 113.387281 C 291.934562 118.063063 288.1455 121.856031 283.469719 121.856031 C 278.790031 121.856031 275.000969 118.063063 275.000969 113.387281 C 275.000969 108.7115 278.790031 104.918531 283.469719 104.918531 C 288.1455 104.918531 291.934562 108.7115 291.934562 113.387281 Z M 291.934562 113.387281 " transform="matrix(1, 0, 0, -1, 8.667, 150.399)"/>
<path fill="none" stroke-width="0.3985" stroke-linecap="butt" stroke-linejoin="miter" stroke="rgb(0%, 0%, 0%)" stroke-opacity="1" stroke-miterlimit="10" d="M 291.934562 85.039625 C 291.934562 89.719313 288.1455 93.508375 283.469719 93.508375 C 278.790031 93.508375 275.000969 89.719313 275.000969 85.039625 C 275.000969 80.363844 278.790031 76.570875 283.469719 76.570875 C 288.1455 76.570875 291.934562 80.363844 291.934562 85.039625 Z M 291.934562 85.039625 " transform="matrix(1, 0, 0, -1, 8.667, 150.399)"/>
<path fill-rule="nonzero" fill="rgb(79.998779%, 79.998779%, 79.998779%)" fill-opacity="1" stroke-width="0.3985" stroke-linecap="butt" stroke-linejoin="miter" stroke="rgb(0%, 0%, 0%)" stroke-opacity="1" stroke-miterlimit="10" d="M 291.934562 56.691969 C 291.934562 61.371656 288.1455 65.160719 283.469719 65.160719 C 278.790031 65.160719 275.000969 61.371656 275.000969 56.691969 C 275.000969 52.016188 278.790031 48.227125 283.469719 48.227125 C 288.1455 48.227125 291.934562 52.016188 291.934562 56.691969 Z M 291.934562 56.691969 " transform="matrix(1, 0, 0, -1, 8.667, 150.399)"/>
<g clip-path="url(#clip-4)">
<path fill="none" stroke-width="0.3985" stroke-linecap="butt" stroke-linejoin="miter" stroke="rgb(0%, 0%, 0%)" stroke-opacity="1" stroke-miterlimit="10" d="M 291.934562 28.348219 C 291.934562 33.024 288.1455 36.816969 283.469719 36.816969 C 278.790031 36.816969 275.000969 33.024 275.000969 28.348219 C 275.000969 23.668531 278.790031 19.879469 283.469719 19.879469 C 288.1455 19.879469 291.934562 23.668531 291.934562 28.348219 Z M 291.934562 28.348219 " transform="matrix(1, 0, 0, -1, 8.667, 150.399)"/>
</g>
<path fill="none" stroke-width="0.3985" stroke-linecap="butt" stroke-linejoin="miter" stroke="rgb(0%, 0%, 0%)" stroke-opacity="1" stroke-miterlimit="10" d="M 348.629875 141.734938 C 348.629875 146.410719 344.836906 150.203688 340.161125 150.203688 C 335.485344 150.203688 331.692375 146.410719 331.692375 141.734938 C 331.692375 137.05525 335.485344 133.266188 340.161125 133.266188 C 344.836906 133.266188 348.629875 137.05525 348.629875 141.734938 Z M 348.629875 141.734938 " transform="matrix(1, 0, 0, -1, 8.667, 150.399)"/>
<path fill="none" stroke-width="0.3985" stroke-linecap="butt" stroke-linejoin="miter" stroke="rgb(0%, 0%, 0%)" stroke-opacity="1" stroke-miterlimit="10" d="M 348.629875 113.387281 C 348.629875 118.063063 344.836906 121.856031 340.161125 121.856031 C 335.485344 121.856031 331.692375 118.063063 331.692375 113.387281 C 331.692375 108.7115 335.485344 104.918531 340.161125 104.918531 C 344.836906 104.918531 348.629875 108.7115 348.629875 113.387281 Z M 348.629875 113.387281 " transform="matrix(1, 0, 0, -1, 8.667, 150.399)"/>
<path fill="none" stroke-width="0.3985" stroke-linecap="butt" stroke-linejoin="miter" stroke="rgb(0%, 0%, 0%)" stroke-opacity="1" stroke-miterlimit="10" d="M 348.629875 85.039625 C 348.629875 89.719313 344.836906 93.508375 340.161125 93.508375 C 335.485344 93.508375 331.692375 89.719313 331.692375 85.039625 C 331.692375 80.363844 335.485344 76.570875 340.161125 76.570875 C 344.836906 76.570875 348.629875 80.363844 348.629875 85.039625 Z M 348.629875 85.039625 " transform="matrix(1, 0, 0, -1, 8.667, 150.399)"/>
<path fill-rule="nonzero" fill="rgb(79.998779%, 79.998779%, 79.998779%)" fill-opacity="1" stroke-width="0.3985" stroke-linecap="butt" stroke-linejoin="miter" stroke="rgb(0%, 0%, 0%)" stroke-opacity="1" stroke-miterlimit="10" d="M 348.629875 56.691969 C 348.629875 61.371656 344.836906 65.160719 340.161125 65.160719 C 335.485344 65.160719 331.692375 61.371656 331.692375 56.691969 C 331.692375 52.016188 335.485344 48.227125 340.161125 48.227125 C 344.836906 48.227125 348.629875 52.016188 348.629875 56.691969 Z M 348.629875 56.691969 " transform="matrix(1, 0, 0, -1, 8.667, 150.399)"/>
<g clip-path="url(#clip-5)">
<path fill-rule="nonzero" fill="rgb(79.998779%, 79.998779%, 79.998779%)" fill-opacity="1" d="M 357.296875 122.050781 C 357.296875 117.375 353.503906 113.582031 348.828125 113.582031 C 344.152344 113.582031 340.359375 117.375 340.359375 122.050781 C 340.359375 126.730469 344.152344 130.519531 348.828125 130.519531 C 353.503906 130.519531 357.296875 126.730469 357.296875 122.050781 Z M 357.296875 122.050781 "/>
</g>
<g clip-path="url(#clip-6)">
<path fill="none" stroke-width="0.3985" stroke-linecap="butt" stroke-linejoin="miter" stroke="rgb(0%, 0%, 0%)" stroke-opacity="1" stroke-miterlimit="10" d="M 348.629875 28.348219 C 348.629875 33.024 344.836906 36.816969 340.161125 36.816969 C 335.485344 36.816969 331.692375 33.024 331.692375 28.348219 C 331.692375 23.668531 335.485344 19.879469 340.161125 19.879469 C 344.836906 19.879469 348.629875 23.668531 348.629875 28.348219 Z M 348.629875 28.348219 " transform="matrix(1, 0, 0, -1, 8.667, 150.399)"/>
</g>
<g clip-path="url(#clip-7)">
<path fill="none" stroke-width="0.3985" stroke-linecap="butt" stroke-linejoin="miter" stroke="rgb(0%, 0%, 0%)" stroke-opacity="1" stroke-miterlimit="10" d="M 405.325187 85.039625 C 405.325187 89.719313 401.532219 93.508375 396.856437 93.508375 C 392.17675 93.508375 388.387687 89.719313 388.387687 85.039625 C 388.387687 80.363844 392.17675 76.570875 396.856437 76.570875 C 401.532219 76.570875 405.325187 80.363844 405.325187 85.039625 Z M 405.325187 85.039625 " transform="matrix(1, 0, 0, -1, 8.667, 150.399)"/>
</g>
<path fill="none" stroke-width="0.3985" stroke-linecap="butt" stroke-linejoin="miter" stroke="rgb(0%, 0%, 0%)" stroke-opacity="1" stroke-miterlimit="10" d="M 234.528312 137.859938 L 275.305656 117.469313 " transform="matrix(1, 0, 0, -1, 8.667, 150.399)"/>
<path fill="none" stroke-width="0.31879" stroke-linecap="round" stroke-linejoin="round" stroke="rgb(0%, 0%, 0%)" stroke-opacity="1" stroke-miterlimit="10" d="M -1.196044 1.595907 C -1.096467 0.994915 0.00243056 0.0986592 0.301178 -0.000926264 C 0.000681731 -0.0987593 -1.096484 -0.996742 -1.196073 -1.592491 " transform="matrix(0.89436, 0.44717, 0.44717, -0.89436, 283.97324, 32.9309)"/>
<path fill="none" stroke-width="0.3985" stroke-linecap="butt" stroke-linejoin="miter" stroke="rgb(0%, 0%, 0%)" stroke-opacity="1" stroke-miterlimit="10" d="M 232.903312 135.606031 L 277.016594 91.49275 " transform="matrix(1, 0, 0, -1, 8.667, 150.399)"/>
<path fill="none" stroke-width="0.31879" stroke-linecap="round" stroke-linejoin="round" stroke="rgb(0%, 0%, 0%)" stroke-opacity="1" stroke-miterlimit="10" d="M -1.194515 1.59435 C -1.095077 0.997723 0.00150173 0.10002 0.299815 0.000582485 C 0.00150173 -0.0988554 -1.095077 -0.996558 -1.194515 -1.593185 " transform="matrix(0.7071, 0.7071, 0.7071, -0.7071, 285.68212, 58.9056)"/>
<path fill="none" stroke-width="0.3985" stroke-linecap="butt" stroke-linejoin="miter" stroke="rgb(0%, 0%, 0%)" stroke-opacity="1" stroke-miterlimit="10" d="M 230.649406 133.981031 L 279.387687 36.508375 " transform="matrix(1, 0, 0, -1, 8.667, 150.399)"/>
<path fill="none" stroke-width="0.31879" stroke-linecap="round" stroke-linejoin="round" stroke="rgb(0%, 0%, 0%)" stroke-opacity="1" stroke-miterlimit="10" d="M -1.194553 1.59361 C -1.094965 0.997861 0.00220125 0.099878 0.297456 0.000297845 C -0.0012911 -0.0992877 -1.096694 -0.99729 -1.194525 -1.594788 " transform="matrix(0.44717, 0.89436, 0.89436, -0.44717, 288.05422, 113.89035)"/>
<path fill="none" stroke-width="0.3985" stroke-linecap="butt" stroke-linejoin="miter" stroke="rgb(0%, 0%, 0%)" stroke-opacity="1" stroke-miterlimit="10" d="M 232.903312 62.820875 L 277.016594 106.934156 " transform="matrix(1, 0, 0, -1, 8.667, 150.399)"/>
<path fill="none" stroke-width="0.31879" stroke-linecap="round" stroke-linejoin="round" stroke="rgb(0%, 0%, 0%)" stroke-opacity="1" stroke-miterlimit="10" d="M -1.195055 1.592645 C -1.095617 0.996018 0.000961674 0.0983153 0.299275 -0.00112254 C 0.000961674 -0.10056 -1.095617 -0.998263 -1.195055 -1.59489 " transform="matrix(0.7071, -0.7071, -0.7071, -0.7071, 285.68212, 43.46473)"/>
<path fill="none" stroke-width="0.3985" stroke-linecap="butt" stroke-linejoin="miter" stroke="rgb(0%, 0%, 0%)" stroke-opacity="1" stroke-miterlimit="10" d="M 234.528312 60.570875 L 275.305656 80.9615 " transform="matrix(1, 0, 0, -1, 8.667, 150.399)"/>
<path fill="none" stroke-width="0.31879" stroke-linecap="round" stroke-linejoin="round" stroke="rgb(0%, 0%, 0%)" stroke-opacity="1" stroke-miterlimit="10" d="M -1.194663 1.595311 C -1.096822 0.996068 0.000344623 0.0980851 0.300841 0.000252032 C 0.00209346 -0.0993335 -1.096804 -0.995589 -1.194634 -1.593087 " transform="matrix(0.89436, -0.44717, -0.44717, -0.89436, 283.97324, 69.43944)"/>
<path fill="none" stroke-width="0.3985" stroke-linecap="butt" stroke-linejoin="miter" stroke="rgb(0%, 0%, 0%)" stroke-opacity="1" stroke-miterlimit="10" d="M 234.528312 52.816969 L 275.305656 32.426344 " transform="matrix(1, 0, 0, -1, 8.667, 150.399)"/>
<path fill="none" stroke-width="0.31879" stroke-linecap="round" stroke-linejoin="round" stroke="rgb(0%, 0%, 0%)" stroke-opacity="1" stroke-miterlimit="10" d="M -1.194909 1.593636 C -1.097078 0.996138 0.00181896 0.0998825 0.300567 0.000296968 C 0.0000701284 -0.0975361 -1.097096 -0.995519 -1.194937 -1.594762 " transform="matrix(0.89436, 0.44717, 0.44717, -0.89436, 283.97324, 117.97133)"/>
<path fill="none" stroke-width="0.3985" stroke-linecap="butt" stroke-linejoin="miter" stroke="rgb(0%, 0%, 0%)" stroke-opacity="1" stroke-miterlimit="10" d="M 231.583 35.559156 L 278.407219 105.793531 " transform="matrix(1, 0, 0, -1, 8.667, 150.399)"/>
<path fill="none" stroke-width="0.31879" stroke-linecap="round" stroke-linejoin="round" stroke="rgb(0%, 0%, 0%)" stroke-opacity="1" stroke-miterlimit="10" d="M -1.19625 1.595724 C -1.096578 0.995495 -0.000140298 0.097311 0.29889 0.00088195 C -0.000141939 -0.0998759 -1.097678 -0.995875 -1.195193 -1.596102 " transform="matrix(0.55467, -0.83202, -0.83202, -0.55467, 287.07323, 44.60464)"/>
<path fill="none" stroke-width="0.3985" stroke-linecap="butt" stroke-linejoin="miter" stroke="rgb(0%, 0%, 0%)" stroke-opacity="1" stroke-miterlimit="10" d="M 232.903312 34.477125 L 277.016594 78.5865 " transform="matrix(1, 0, 0, -1, 8.667, 150.399)"/>
<path fill="none" stroke-width="0.31879" stroke-linecap="round" stroke-linejoin="round" stroke="rgb(0%, 0%, 0%)" stroke-opacity="1" stroke-miterlimit="10" d="M -1.195646 1.592054 C -1.096208 0.995427 0.000370351 0.097724 0.298684 -0.00171387 C 0.000370351 -0.101152 -1.093446 -0.996092 -1.195646 -1.595482 " transform="matrix(0.7071, -0.7071, -0.7071, -0.7071, 285.68212, 71.81155)"/>
<path fill="none" stroke-width="0.3985" stroke-linecap="butt" stroke-linejoin="miter" stroke="rgb(0%, 0%, 0%)" stroke-opacity="1" stroke-miterlimit="10" d="M 235.442375 28.348219 L 274.340812 28.348219 " transform="matrix(1, 0, 0, -1, 8.667, 150.399)"/>
<path fill="none" stroke-width="0.31879" stroke-linecap="round" stroke-linejoin="round" stroke="rgb(0%, 0%, 0%)" stroke-opacity="1" stroke-miterlimit="10" d="M -1.19671 1.595169 C -1.095148 0.997512 -0.0013975 0.099075 0.299384 0.00141875 C -0.0013975 -0.100144 -1.095148 -0.994675 -1.19671 -1.592331 " transform="matrix(1, 0, 0, -1, 283.00921, 122.0522)"/>
<path fill="none" stroke-width="0.3985" stroke-linecap="butt" stroke-linejoin="miter" stroke="rgb(0%, 0%, 0%)" stroke-opacity="1" stroke-miterlimit="10" d="M 291.219719 117.262281 L 332.000969 137.652906 " transform="matrix(1, 0, 0, -1, 8.667, 150.399)"/>
<path fill="none" stroke-width="0.31879" stroke-linecap="round" stroke-linejoin="round" stroke="rgb(0%, 0%, 0%)" stroke-opacity="1" stroke-miterlimit="10" d="M -1.194139 1.592574 C -1.094551 0.996825 -0.000878626 0.100589 0.297871 -0.000738092 C -0.000876829 -0.100324 -1.094533 -0.994832 -1.197604 -1.594077 " transform="matrix(0.89436, -0.44717, -0.44717, -0.89436, 340.66686, 12.74582)"/>
<path fill="none" stroke-width="0.3985" stroke-linecap="butt" stroke-linejoin="miter" stroke="rgb(0%, 0%, 0%)" stroke-opacity="1" stroke-miterlimit="10" d="M 292.133781 113.387281 L 331.036125 113.387281 " transform="matrix(1, 0, 0, -1, 8.667, 150.399)"/>
<path fill="none" stroke-width="0.31879" stroke-linecap="round" stroke-linejoin="round" stroke="rgb(0%, 0%, 0%)" stroke-opacity="1" stroke-miterlimit="10" d="M -1.195017 1.593791 C -1.097361 0.996135 0.000295 0.0976975 0.29717 0.00004125 C 0.000295 -0.101521 -1.097361 -0.996053 -1.195017 -1.593709 " transform="matrix(1, 0, 0, -1, 339.70283, 37.01176)"/>
<path fill="none" stroke-width="0.3985" stroke-linecap="butt" stroke-linejoin="miter" stroke="rgb(0%, 0%, 0%)" stroke-opacity="1" stroke-miterlimit="10" d="M 291.219719 109.512281 L 332.000969 89.121656 " transform="matrix(1, 0, 0, -1, 8.667, 150.399)"/>
<path fill="none" stroke-width="0.31879" stroke-linecap="round" stroke-linejoin="round" stroke="rgb(0%, 0%, 0%)" stroke-opacity="1" stroke-miterlimit="10" d="M -1.197646 1.594159 C -1.094574 0.994915 -0.000918199 0.100406 0.297829 0.000820833 C -0.000919996 -0.100506 -1.094592 -0.996742 -1.19418 -1.592491 " transform="matrix(0.89436, 0.44717, 0.44717, -0.89436, 340.66686, 61.27771)"/>
<path fill="none" stroke-width="0.3985" stroke-linecap="butt" stroke-linejoin="miter" stroke="rgb(0%, 0%, 0%)" stroke-opacity="1" stroke-miterlimit="10" d="M 289.598625 91.168531 L 333.708 135.281813 " transform="matrix(1, 0, 0, -1, 8.667, 150.399)"/>
<path fill="none" stroke-width="0.31879" stroke-linecap="round" stroke-linejoin="round" stroke="rgb(0%, 0%, 0%)" stroke-opacity="1" stroke-miterlimit="10" d="M -1.196022 1.594809 C -1.096584 0.998182 -0.00000530335 0.100479 0.298308 0.00104122 C -0.00000530335 -0.0983966 -1.096584 -0.996099 -1.196022 -1.592726 " transform="matrix(0.7071, -0.7071, -0.7071, -0.7071, 342.37574, 15.11792)"/>
<path fill="none" stroke-width="0.3985" stroke-linecap="butt" stroke-linejoin="miter" stroke="rgb(0%, 0%, 0%)" stroke-opacity="1" stroke-miterlimit="10" d="M 291.219719 88.914625 L 332.000969 109.30525 " transform="matrix(1, 0, 0, -1, 8.667, 150.399)"/>
<path fill="none" stroke-width="0.31879" stroke-linecap="round" stroke-linejoin="round" stroke="rgb(0%, 0%, 0%)" stroke-opacity="1" stroke-miterlimit="10" d="M -1.194517 1.591817 C -1.094929 0.996068 -0.0012571 0.0998322 0.297492 -0.00149506 C -0.00125531 -0.101081 -1.094911 -0.995589 -1.197983 -1.594834 " transform="matrix(0.89436, -0.44717, -0.44717, -0.89436, 340.66686, 41.09263)"/>
<path fill="none" stroke-width="0.3985" stroke-linecap="butt" stroke-linejoin="miter" stroke="rgb(0%, 0%, 0%)" stroke-opacity="1" stroke-miterlimit="10" d="M 292.133781 85.039625 L 331.036125 85.039625 " transform="matrix(1, 0, 0, -1, 8.667, 150.399)"/>
<path fill="none" stroke-width="0.31879" stroke-linecap="round" stroke-linejoin="round" stroke="rgb(0%, 0%, 0%)" stroke-opacity="1" stroke-miterlimit="10" d="M -1.195017 1.592955 C -1.097361 0.995299 0.000295 0.100767 0.29717 -0.000795 C 0.000295 -0.0984513 -1.097361 -0.996889 -1.195017 -1.594545 " transform="matrix(1, 0, 0, -1, 339.70283, 65.35858)"/>
<path fill="none" stroke-width="0.3985" stroke-linecap="butt" stroke-linejoin="miter" stroke="rgb(0%, 0%, 0%)" stroke-opacity="1" stroke-miterlimit="10" d="M 287.344719 36.098219 L 336.079094 133.570875 " transform="matrix(1, 0, 0, -1, 8.667, 150.399)"/>
<path fill="none" stroke-width="0.31879" stroke-linecap="round" stroke-linejoin="round" stroke="rgb(0%, 0%, 0%)" stroke-opacity="1" stroke-miterlimit="10" d="M -1.19519 1.592563 C -1.097359 0.995065 0.00153774 0.0988096 0.300285 -0.000775868 C -0.000211089 -0.0986089 -1.097377 -0.996592 -1.195218 -1.595835 " transform="matrix(0.44717, -0.89436, -0.89436, -0.44717, 344.74784, 16.82681)"/>
<path fill="none" stroke-width="0.3985" stroke-linecap="butt" stroke-linejoin="miter" stroke="rgb(0%, 0%, 0%)" stroke-opacity="1" stroke-miterlimit="10" d="M 288.274406 35.559156 L 335.098625 105.793531 " transform="matrix(1, 0, 0, -1, 8.667, 150.399)"/>
<path fill="none" stroke-width="0.31879" stroke-linecap="round" stroke-linejoin="round" stroke="rgb(0%, 0%, 0%)" stroke-opacity="1" stroke-miterlimit="10" d="M -1.195311 1.594316 C -1.09564 0.994087 -0.0013683 0.099153 0.299828 -0.000526362 C 0.000796919 -0.101284 -1.09674 -0.997283 -1.196421 -1.59426 " transform="matrix(0.55467, -0.83202, -0.83202, -0.55467, 343.76685, 44.60464)"/>
<path fill="none" stroke-width="0.3985" stroke-linecap="butt" stroke-linejoin="miter" stroke="rgb(0%, 0%, 0%)" stroke-opacity="1" stroke-miterlimit="10" d="M 289.598625 34.477125 L 333.708 78.5865 " transform="matrix(1, 0, 0, -1, 8.667, 150.399)"/>
<path fill="none" stroke-width="0.31879" stroke-linecap="round" stroke-linejoin="round" stroke="rgb(0%, 0%, 0%)" stroke-opacity="1" stroke-miterlimit="10" d="M -1.197211 1.593619 C -1.097773 0.996992 -0.00119502 0.0992894 0.297119 -0.000148494 C -0.00119502 -0.0995863 -1.095011 -0.994527 -1.197211 -1.593916 " transform="matrix(0.7071, -0.7071, -0.7071, -0.7071, 342.37574, 71.81155)"/>
<path fill="none" stroke-width="0.3985" stroke-linecap="butt" stroke-linejoin="miter" stroke="rgb(0%, 0%, 0%)" stroke-opacity="1" stroke-miterlimit="10" d="M 346.290031 135.606031 L 390.403312 91.49275 " transform="matrix(1, 0, 0, -1, 8.667, 150.399)"/>
<path fill="none" stroke-width="0.31879" stroke-linecap="round" stroke-linejoin="round" stroke="rgb(0%, 0%, 0%)" stroke-opacity="1" stroke-miterlimit="10" d="M -1.194883 1.593982 C -1.095445 0.997355 0.00113315 0.0996517 0.299447 0.000213902 C 0.00113315 -0.0992239 -1.095445 -0.996927 -1.194883 -1.593554 " transform="matrix(0.7071, 0.7071, 0.7071, -0.7071, 399.06936, 58.9056)"/>
<path fill="none" stroke-width="0.3985" stroke-linecap="butt" stroke-linejoin="miter" stroke="rgb(0%, 0%, 0%)" stroke-opacity="1" stroke-miterlimit="10" d="M 347.915031 109.512281 L 388.692375 89.121656 " transform="matrix(1, 0, 0, -1, 8.667, 150.399)"/>
<path fill="none" stroke-width="0.31879" stroke-linecap="round" stroke-linejoin="round" stroke="rgb(0%, 0%, 0%)" stroke-opacity="1" stroke-miterlimit="10" d="M -1.196132 1.594916 C -1.096554 0.993924 0.000595746 0.101163 0.299343 0.00157779 C 0.000593949 -0.0997494 -1.096572 -0.997732 -1.19616 -1.593481 " transform="matrix(0.89436, 0.44717, 0.44717, -0.89436, 397.36048, 61.27771)"/>
<path fill="none" stroke-width="0.3985" stroke-linecap="butt" stroke-linejoin="miter" stroke="rgb(0%, 0%, 0%)" stroke-opacity="1" stroke-miterlimit="10" d="M 348.829094 85.039625 L 387.727531 85.039625 " transform="matrix(1, 0, 0, -1, 8.667, 150.399)"/>
<path fill="none" stroke-width="0.31879" stroke-linecap="round" stroke-linejoin="round" stroke="rgb(0%, 0%, 0%)" stroke-opacity="1" stroke-miterlimit="10" d="M -1.197231 1.592955 C -1.095669 0.995299 -0.00191875 0.100767 0.298863 -0.000795 C -0.00191875 -0.0984513 -1.095669 -0.996889 -1.197231 -1.594545 " transform="matrix(1, 0, 0, -1, 396.39645, 65.35858)"/>
</svg>
